G04 EAGLE Gerber RS-274X export*
G75*
%MOMM*%
%FSLAX34Y34*%
%LPD*%
%IN*%
%IPPOS*%
%AMOC8*
5,1,8,0,0,1.08239X$1,22.5*%
G01*
%ADD10C,0.254000*%


D10*
X0Y0D02*
X1000000Y0D01*
X1000000Y1000000D01*
X0Y1000000D01*
X0Y0D01*
X41000Y969568D02*
X40932Y968706D01*
X40797Y967852D01*
X40595Y967012D01*
X40328Y966190D01*
X39997Y965391D01*
X39605Y964621D01*
X39153Y963884D01*
X38645Y963185D01*
X38084Y962527D01*
X37473Y961916D01*
X36815Y961355D01*
X36116Y960847D01*
X35379Y960395D01*
X34609Y960003D01*
X33810Y959672D01*
X32988Y959405D01*
X32148Y959203D01*
X31294Y959068D01*
X30432Y959000D01*
X29568Y959000D01*
X28706Y959068D01*
X27852Y959203D01*
X27012Y959405D01*
X26190Y959672D01*
X25391Y960003D01*
X24621Y960395D01*
X23884Y960847D01*
X23185Y961355D01*
X22527Y961916D01*
X21916Y962527D01*
X21355Y963185D01*
X20847Y963884D01*
X20395Y964621D01*
X20003Y965391D01*
X19672Y966190D01*
X19405Y967012D01*
X19203Y967852D01*
X19068Y968706D01*
X19000Y969568D01*
X19000Y970432D01*
X19068Y971294D01*
X19203Y972148D01*
X19405Y972988D01*
X19672Y973810D01*
X20003Y974609D01*
X20395Y975379D01*
X20847Y976116D01*
X21355Y976815D01*
X21916Y977473D01*
X22527Y978084D01*
X23185Y978645D01*
X23884Y979153D01*
X24621Y979605D01*
X25391Y979997D01*
X26190Y980328D01*
X27012Y980595D01*
X27852Y980797D01*
X28706Y980932D01*
X29568Y981000D01*
X30432Y981000D01*
X31294Y980932D01*
X32148Y980797D01*
X32988Y980595D01*
X33810Y980328D01*
X34609Y979997D01*
X35379Y979605D01*
X36116Y979153D01*
X36815Y978645D01*
X37473Y978084D01*
X38084Y977473D01*
X38645Y976815D01*
X39153Y976116D01*
X39605Y975379D01*
X39997Y974609D01*
X40328Y973810D01*
X40595Y972988D01*
X40797Y972148D01*
X40932Y971294D01*
X41000Y970432D01*
X41000Y969568D01*
X41000Y499568D02*
X40932Y498706D01*
X40797Y497852D01*
X40595Y497012D01*
X40328Y496190D01*
X39997Y495391D01*
X39605Y494621D01*
X39153Y493884D01*
X38645Y493185D01*
X38084Y492527D01*
X37473Y491916D01*
X36815Y491355D01*
X36116Y490847D01*
X35379Y490395D01*
X34609Y490003D01*
X33810Y489672D01*
X32988Y489405D01*
X32148Y489203D01*
X31294Y489068D01*
X30432Y489000D01*
X29568Y489000D01*
X28706Y489068D01*
X27852Y489203D01*
X27012Y489405D01*
X26190Y489672D01*
X25391Y490003D01*
X24621Y490395D01*
X23884Y490847D01*
X23185Y491355D01*
X22527Y491916D01*
X21916Y492527D01*
X21355Y493185D01*
X20847Y493884D01*
X20395Y494621D01*
X20003Y495391D01*
X19672Y496190D01*
X19405Y497012D01*
X19203Y497852D01*
X19068Y498706D01*
X19000Y499568D01*
X19000Y500432D01*
X19068Y501294D01*
X19203Y502148D01*
X19405Y502988D01*
X19672Y503810D01*
X20003Y504609D01*
X20395Y505379D01*
X20847Y506116D01*
X21355Y506815D01*
X21916Y507473D01*
X22527Y508084D01*
X23185Y508645D01*
X23884Y509153D01*
X24621Y509605D01*
X25391Y509997D01*
X26190Y510328D01*
X27012Y510595D01*
X27852Y510797D01*
X28706Y510932D01*
X29568Y511000D01*
X30432Y511000D01*
X31294Y510932D01*
X32148Y510797D01*
X32988Y510595D01*
X33810Y510328D01*
X34609Y509997D01*
X35379Y509605D01*
X36116Y509153D01*
X36815Y508645D01*
X37473Y508084D01*
X38084Y507473D01*
X38645Y506815D01*
X39153Y506116D01*
X39605Y505379D01*
X39997Y504609D01*
X40328Y503810D01*
X40595Y502988D01*
X40797Y502148D01*
X40932Y501294D01*
X41000Y500432D01*
X41000Y499568D01*
X41000Y29568D02*
X40932Y28706D01*
X40797Y27852D01*
X40595Y27012D01*
X40328Y26190D01*
X39997Y25391D01*
X39605Y24621D01*
X39153Y23884D01*
X38645Y23185D01*
X38084Y22527D01*
X37473Y21916D01*
X36815Y21355D01*
X36116Y20847D01*
X35379Y20395D01*
X34609Y20003D01*
X33810Y19672D01*
X32988Y19405D01*
X32148Y19203D01*
X31294Y19068D01*
X30432Y19000D01*
X29568Y19000D01*
X28706Y19068D01*
X27852Y19203D01*
X27012Y19405D01*
X26190Y19672D01*
X25391Y20003D01*
X24621Y20395D01*
X23884Y20847D01*
X23185Y21355D01*
X22527Y21916D01*
X21916Y22527D01*
X21355Y23185D01*
X20847Y23884D01*
X20395Y24621D01*
X20003Y25391D01*
X19672Y26190D01*
X19405Y27012D01*
X19203Y27852D01*
X19068Y28706D01*
X19000Y29568D01*
X19000Y30432D01*
X19068Y31294D01*
X19203Y32148D01*
X19405Y32988D01*
X19672Y33810D01*
X20003Y34609D01*
X20395Y35379D01*
X20847Y36116D01*
X21355Y36815D01*
X21916Y37473D01*
X22527Y38084D01*
X23185Y38645D01*
X23884Y39153D01*
X24621Y39605D01*
X25391Y39997D01*
X26190Y40328D01*
X27012Y40595D01*
X27852Y40797D01*
X28706Y40932D01*
X29568Y41000D01*
X30432Y41000D01*
X31294Y40932D01*
X32148Y40797D01*
X32988Y40595D01*
X33810Y40328D01*
X34609Y39997D01*
X35379Y39605D01*
X36116Y39153D01*
X36815Y38645D01*
X37473Y38084D01*
X38084Y37473D01*
X38645Y36815D01*
X39153Y36116D01*
X39605Y35379D01*
X39997Y34609D01*
X40328Y33810D01*
X40595Y32988D01*
X40797Y32148D01*
X40932Y31294D01*
X41000Y30432D01*
X41000Y29568D01*
X981000Y29568D02*
X980932Y28706D01*
X980797Y27852D01*
X980595Y27012D01*
X980328Y26190D01*
X979997Y25391D01*
X979605Y24621D01*
X979153Y23884D01*
X978645Y23185D01*
X978084Y22527D01*
X977473Y21916D01*
X976815Y21355D01*
X976116Y20847D01*
X975379Y20395D01*
X974609Y20003D01*
X973810Y19672D01*
X972988Y19405D01*
X972148Y19203D01*
X971294Y19068D01*
X970432Y19000D01*
X969568Y19000D01*
X968706Y19068D01*
X967852Y19203D01*
X967012Y19405D01*
X966190Y19672D01*
X965391Y20003D01*
X964621Y20395D01*
X963884Y20847D01*
X963185Y21355D01*
X962527Y21916D01*
X961916Y22527D01*
X961355Y23185D01*
X960847Y23884D01*
X960395Y24621D01*
X960003Y25391D01*
X959672Y26190D01*
X959405Y27012D01*
X959203Y27852D01*
X959068Y28706D01*
X959000Y29568D01*
X959000Y30432D01*
X959068Y31294D01*
X959203Y32148D01*
X959405Y32988D01*
X959672Y33810D01*
X960003Y34609D01*
X960395Y35379D01*
X960847Y36116D01*
X961355Y36815D01*
X961916Y37473D01*
X962527Y38084D01*
X963185Y38645D01*
X963884Y39153D01*
X964621Y39605D01*
X965391Y39997D01*
X966190Y40328D01*
X967012Y40595D01*
X967852Y40797D01*
X968706Y40932D01*
X969568Y41000D01*
X970432Y41000D01*
X971294Y40932D01*
X972148Y40797D01*
X972988Y40595D01*
X973810Y40328D01*
X974609Y39997D01*
X975379Y39605D01*
X976116Y39153D01*
X976815Y38645D01*
X977473Y38084D01*
X978084Y37473D01*
X978645Y36815D01*
X979153Y36116D01*
X979605Y35379D01*
X979997Y34609D01*
X980328Y33810D01*
X980595Y32988D01*
X980797Y32148D01*
X980932Y31294D01*
X981000Y30432D01*
X981000Y29568D01*
X981000Y499568D02*
X980932Y498706D01*
X980797Y497852D01*
X980595Y497012D01*
X980328Y496190D01*
X979997Y495391D01*
X979605Y494621D01*
X979153Y493884D01*
X978645Y493185D01*
X978084Y492527D01*
X977473Y491916D01*
X976815Y491355D01*
X976116Y490847D01*
X975379Y490395D01*
X974609Y490003D01*
X973810Y489672D01*
X972988Y489405D01*
X972148Y489203D01*
X971294Y489068D01*
X970432Y489000D01*
X969568Y489000D01*
X968706Y489068D01*
X967852Y489203D01*
X967012Y489405D01*
X966190Y489672D01*
X965391Y490003D01*
X964621Y490395D01*
X963884Y490847D01*
X963185Y491355D01*
X962527Y491916D01*
X961916Y492527D01*
X961355Y493185D01*
X960847Y493884D01*
X960395Y494621D01*
X960003Y495391D01*
X959672Y496190D01*
X959405Y497012D01*
X959203Y497852D01*
X959068Y498706D01*
X959000Y499568D01*
X959000Y500432D01*
X959068Y501294D01*
X959203Y502148D01*
X959405Y502988D01*
X959672Y503810D01*
X960003Y504609D01*
X960395Y505379D01*
X960847Y506116D01*
X961355Y506815D01*
X961916Y507473D01*
X962527Y508084D01*
X963185Y508645D01*
X963884Y509153D01*
X964621Y509605D01*
X965391Y509997D01*
X966190Y510328D01*
X967012Y510595D01*
X967852Y510797D01*
X968706Y510932D01*
X969568Y511000D01*
X970432Y511000D01*
X971294Y510932D01*
X972148Y510797D01*
X972988Y510595D01*
X973810Y510328D01*
X974609Y509997D01*
X975379Y509605D01*
X976116Y509153D01*
X976815Y508645D01*
X977473Y508084D01*
X978084Y507473D01*
X978645Y506815D01*
X979153Y506116D01*
X979605Y505379D01*
X979997Y504609D01*
X980328Y503810D01*
X980595Y502988D01*
X980797Y502148D01*
X980932Y501294D01*
X981000Y500432D01*
X981000Y499568D01*
X981000Y969568D02*
X980932Y968706D01*
X980797Y967852D01*
X980595Y967012D01*
X980328Y966190D01*
X979997Y965391D01*
X979605Y964621D01*
X979153Y963884D01*
X978645Y963185D01*
X978084Y962527D01*
X977473Y961916D01*
X976815Y961355D01*
X976116Y960847D01*
X975379Y960395D01*
X974609Y960003D01*
X973810Y959672D01*
X972988Y959405D01*
X972148Y959203D01*
X971294Y959068D01*
X970432Y959000D01*
X969568Y959000D01*
X968706Y959068D01*
X967852Y959203D01*
X967012Y959405D01*
X966190Y959672D01*
X965391Y960003D01*
X964621Y960395D01*
X963884Y960847D01*
X963185Y961355D01*
X962527Y961916D01*
X961916Y962527D01*
X961355Y963185D01*
X960847Y963884D01*
X960395Y964621D01*
X960003Y965391D01*
X959672Y966190D01*
X959405Y967012D01*
X959203Y967852D01*
X959068Y968706D01*
X959000Y969568D01*
X959000Y970432D01*
X959068Y971294D01*
X959203Y972148D01*
X959405Y972988D01*
X959672Y973810D01*
X960003Y974609D01*
X960395Y975379D01*
X960847Y976116D01*
X961355Y976815D01*
X961916Y977473D01*
X962527Y978084D01*
X963185Y978645D01*
X963884Y979153D01*
X964621Y979605D01*
X965391Y979997D01*
X966190Y980328D01*
X967012Y980595D01*
X967852Y980797D01*
X968706Y980932D01*
X969568Y981000D01*
X970432Y981000D01*
X971294Y980932D01*
X972148Y980797D01*
X972988Y980595D01*
X973810Y980328D01*
X974609Y979997D01*
X975379Y979605D01*
X976116Y979153D01*
X976815Y978645D01*
X977473Y978084D01*
X978084Y977473D01*
X978645Y976815D01*
X979153Y976116D01*
X979605Y975379D01*
X979997Y974609D01*
X980328Y973810D01*
X980595Y972988D01*
X980797Y972148D01*
X980932Y971294D01*
X981000Y970432D01*
X981000Y969568D01*
X453000Y316481D02*
X452932Y315446D01*
X452797Y314417D01*
X452594Y313399D01*
X452326Y312397D01*
X451992Y311414D01*
X451595Y310455D01*
X451136Y309524D01*
X450617Y308626D01*
X450041Y307763D01*
X449409Y306939D01*
X448725Y306159D01*
X447991Y305425D01*
X447211Y304741D01*
X446387Y304109D01*
X445524Y303533D01*
X444626Y303014D01*
X443695Y302555D01*
X442736Y302158D01*
X441753Y301824D01*
X440751Y301556D01*
X439733Y301353D01*
X438704Y301218D01*
X437669Y301150D01*
X436631Y301150D01*
X435596Y301218D01*
X434567Y301353D01*
X433549Y301556D01*
X432547Y301824D01*
X431564Y302158D01*
X430605Y302555D01*
X429674Y303014D01*
X428776Y303533D01*
X427913Y304109D01*
X427089Y304741D01*
X426309Y305425D01*
X425575Y306159D01*
X424891Y306939D01*
X424259Y307763D01*
X423683Y308626D01*
X423164Y309524D01*
X422705Y310455D01*
X422308Y311414D01*
X421974Y312397D01*
X421706Y313399D01*
X421503Y314417D01*
X421368Y315446D01*
X421300Y316481D01*
X421300Y317519D01*
X421368Y318554D01*
X421503Y319583D01*
X421706Y320601D01*
X421974Y321603D01*
X422308Y322586D01*
X422705Y323545D01*
X423164Y324476D01*
X423683Y325374D01*
X424259Y326237D01*
X424891Y327061D01*
X425575Y327841D01*
X426309Y328575D01*
X427089Y329259D01*
X427913Y329891D01*
X428776Y330467D01*
X429674Y330986D01*
X430605Y331445D01*
X431564Y331842D01*
X432547Y332176D01*
X433549Y332444D01*
X434567Y332647D01*
X435596Y332782D01*
X436631Y332850D01*
X437669Y332850D01*
X438704Y332782D01*
X439733Y332647D01*
X440751Y332444D01*
X441753Y332176D01*
X442736Y331842D01*
X443695Y331445D01*
X444626Y330986D01*
X445524Y330467D01*
X446387Y329891D01*
X447211Y329259D01*
X447991Y328575D01*
X448725Y327841D01*
X449409Y327061D01*
X450041Y326237D01*
X450617Y325374D01*
X451136Y324476D01*
X451595Y323545D01*
X451992Y322586D01*
X452326Y321603D01*
X452594Y320601D01*
X452797Y319583D01*
X452932Y318554D01*
X453000Y317519D01*
X453000Y316481D01*
X338700Y316481D02*
X338632Y315446D01*
X338497Y314417D01*
X338294Y313399D01*
X338026Y312397D01*
X337692Y311414D01*
X337295Y310455D01*
X336836Y309524D01*
X336317Y308626D01*
X335741Y307763D01*
X335109Y306939D01*
X334425Y306159D01*
X333691Y305425D01*
X332911Y304741D01*
X332087Y304109D01*
X331224Y303533D01*
X330326Y303014D01*
X329395Y302555D01*
X328436Y302158D01*
X327453Y301824D01*
X326451Y301556D01*
X325433Y301353D01*
X324404Y301218D01*
X323369Y301150D01*
X322331Y301150D01*
X321296Y301218D01*
X320267Y301353D01*
X319249Y301556D01*
X318247Y301824D01*
X317264Y302158D01*
X316305Y302555D01*
X315374Y303014D01*
X314476Y303533D01*
X313613Y304109D01*
X312789Y304741D01*
X312009Y305425D01*
X311275Y306159D01*
X310591Y306939D01*
X309959Y307763D01*
X309383Y308626D01*
X308864Y309524D01*
X308405Y310455D01*
X308008Y311414D01*
X307674Y312397D01*
X307406Y313399D01*
X307203Y314417D01*
X307068Y315446D01*
X307000Y316481D01*
X307000Y317519D01*
X307068Y318554D01*
X307203Y319583D01*
X307406Y320601D01*
X307674Y321603D01*
X308008Y322586D01*
X308405Y323545D01*
X308864Y324476D01*
X309383Y325374D01*
X309959Y326237D01*
X310591Y327061D01*
X311275Y327841D01*
X312009Y328575D01*
X312789Y329259D01*
X313613Y329891D01*
X314476Y330467D01*
X315374Y330986D01*
X316305Y331445D01*
X317264Y331842D01*
X318247Y332176D01*
X319249Y332444D01*
X320267Y332647D01*
X321296Y332782D01*
X322331Y332850D01*
X323369Y332850D01*
X324404Y332782D01*
X325433Y332647D01*
X326451Y332444D01*
X327453Y332176D01*
X328436Y331842D01*
X329395Y331445D01*
X330326Y330986D01*
X331224Y330467D01*
X332087Y329891D01*
X332911Y329259D01*
X333691Y328575D01*
X334425Y327841D01*
X335109Y327061D01*
X335741Y326237D01*
X336317Y325374D01*
X336836Y324476D01*
X337295Y323545D01*
X337692Y322586D01*
X338026Y321603D01*
X338294Y320601D01*
X338497Y319583D01*
X338632Y318554D01*
X338700Y317519D01*
X338700Y316481D01*
X453000Y916481D02*
X452932Y915446D01*
X452797Y914417D01*
X452594Y913399D01*
X452326Y912397D01*
X451992Y911414D01*
X451595Y910455D01*
X451136Y909524D01*
X450617Y908626D01*
X450041Y907763D01*
X449409Y906939D01*
X448725Y906159D01*
X447991Y905425D01*
X447211Y904741D01*
X446387Y904109D01*
X445524Y903533D01*
X444626Y903014D01*
X443695Y902555D01*
X442736Y902158D01*
X441753Y901824D01*
X440751Y901556D01*
X439733Y901353D01*
X438704Y901218D01*
X437669Y901150D01*
X436631Y901150D01*
X435596Y901218D01*
X434567Y901353D01*
X433549Y901556D01*
X432547Y901824D01*
X431564Y902158D01*
X430605Y902555D01*
X429674Y903014D01*
X428776Y903533D01*
X427913Y904109D01*
X427089Y904741D01*
X426309Y905425D01*
X425575Y906159D01*
X424891Y906939D01*
X424259Y907763D01*
X423683Y908626D01*
X423164Y909524D01*
X422705Y910455D01*
X422308Y911414D01*
X421974Y912397D01*
X421706Y913399D01*
X421503Y914417D01*
X421368Y915446D01*
X421300Y916481D01*
X421300Y917519D01*
X421368Y918554D01*
X421503Y919583D01*
X421706Y920601D01*
X421974Y921603D01*
X422308Y922586D01*
X422705Y923545D01*
X423164Y924476D01*
X423683Y925374D01*
X424259Y926237D01*
X424891Y927061D01*
X425575Y927841D01*
X426309Y928575D01*
X427089Y929259D01*
X427913Y929891D01*
X428776Y930467D01*
X429674Y930986D01*
X430605Y931445D01*
X431564Y931842D01*
X432547Y932176D01*
X433549Y932444D01*
X434567Y932647D01*
X435596Y932782D01*
X436631Y932850D01*
X437669Y932850D01*
X438704Y932782D01*
X439733Y932647D01*
X440751Y932444D01*
X441753Y932176D01*
X442736Y931842D01*
X443695Y931445D01*
X444626Y930986D01*
X445524Y930467D01*
X446387Y929891D01*
X447211Y929259D01*
X447991Y928575D01*
X448725Y927841D01*
X449409Y927061D01*
X450041Y926237D01*
X450617Y925374D01*
X451136Y924476D01*
X451595Y923545D01*
X451992Y922586D01*
X452326Y921603D01*
X452594Y920601D01*
X452797Y919583D01*
X452932Y918554D01*
X453000Y917519D01*
X453000Y916481D01*
X338700Y916481D02*
X338632Y915446D01*
X338497Y914417D01*
X338294Y913399D01*
X338026Y912397D01*
X337692Y911414D01*
X337295Y910455D01*
X336836Y909524D01*
X336317Y908626D01*
X335741Y907763D01*
X335109Y906939D01*
X334425Y906159D01*
X333691Y905425D01*
X332911Y904741D01*
X332087Y904109D01*
X331224Y903533D01*
X330326Y903014D01*
X329395Y902555D01*
X328436Y902158D01*
X327453Y901824D01*
X326451Y901556D01*
X325433Y901353D01*
X324404Y901218D01*
X323369Y901150D01*
X322331Y901150D01*
X321296Y901218D01*
X320267Y901353D01*
X319249Y901556D01*
X318247Y901824D01*
X317264Y902158D01*
X316305Y902555D01*
X315374Y903014D01*
X314476Y903533D01*
X313613Y904109D01*
X312789Y904741D01*
X312009Y905425D01*
X311275Y906159D01*
X310591Y906939D01*
X309959Y907763D01*
X309383Y908626D01*
X308864Y909524D01*
X308405Y910455D01*
X308008Y911414D01*
X307674Y912397D01*
X307406Y913399D01*
X307203Y914417D01*
X307068Y915446D01*
X307000Y916481D01*
X307000Y917519D01*
X307068Y918554D01*
X307203Y919583D01*
X307406Y920601D01*
X307674Y921603D01*
X308008Y922586D01*
X308405Y923545D01*
X308864Y924476D01*
X309383Y925374D01*
X309959Y926237D01*
X310591Y927061D01*
X311275Y927841D01*
X312009Y928575D01*
X312789Y929259D01*
X313613Y929891D01*
X314476Y930467D01*
X315374Y930986D01*
X316305Y931445D01*
X317264Y931842D01*
X318247Y932176D01*
X319249Y932444D01*
X320267Y932647D01*
X321296Y932782D01*
X322331Y932850D01*
X323369Y932850D01*
X324404Y932782D01*
X325433Y932647D01*
X326451Y932444D01*
X327453Y932176D01*
X328436Y931842D01*
X329395Y931445D01*
X330326Y930986D01*
X331224Y930467D01*
X332087Y929891D01*
X332911Y929259D01*
X333691Y928575D01*
X334425Y927841D01*
X335109Y927061D01*
X335741Y926237D01*
X336317Y925374D01*
X336836Y924476D01*
X337295Y923545D01*
X337692Y922586D01*
X338026Y921603D01*
X338294Y920601D01*
X338497Y919583D01*
X338632Y918554D01*
X338700Y917519D01*
X338700Y916481D01*
X223000Y916481D02*
X222932Y915446D01*
X222797Y914417D01*
X222594Y913399D01*
X222326Y912397D01*
X221992Y911414D01*
X221595Y910455D01*
X221136Y909524D01*
X220617Y908626D01*
X220041Y907763D01*
X219409Y906939D01*
X218725Y906159D01*
X217991Y905425D01*
X217211Y904741D01*
X216387Y904109D01*
X215524Y903533D01*
X214626Y903014D01*
X213695Y902555D01*
X212736Y902158D01*
X211753Y901824D01*
X210751Y901556D01*
X209733Y901353D01*
X208704Y901218D01*
X207669Y901150D01*
X206631Y901150D01*
X205596Y901218D01*
X204567Y901353D01*
X203549Y901556D01*
X202547Y901824D01*
X201564Y902158D01*
X200605Y902555D01*
X199674Y903014D01*
X198776Y903533D01*
X197913Y904109D01*
X197089Y904741D01*
X196309Y905425D01*
X195575Y906159D01*
X194891Y906939D01*
X194259Y907763D01*
X193683Y908626D01*
X193164Y909524D01*
X192705Y910455D01*
X192308Y911414D01*
X191974Y912397D01*
X191706Y913399D01*
X191503Y914417D01*
X191368Y915446D01*
X191300Y916481D01*
X191300Y917519D01*
X191368Y918554D01*
X191503Y919583D01*
X191706Y920601D01*
X191974Y921603D01*
X192308Y922586D01*
X192705Y923545D01*
X193164Y924476D01*
X193683Y925374D01*
X194259Y926237D01*
X194891Y927061D01*
X195575Y927841D01*
X196309Y928575D01*
X197089Y929259D01*
X197913Y929891D01*
X198776Y930467D01*
X199674Y930986D01*
X200605Y931445D01*
X201564Y931842D01*
X202547Y932176D01*
X203549Y932444D01*
X204567Y932647D01*
X205596Y932782D01*
X206631Y932850D01*
X207669Y932850D01*
X208704Y932782D01*
X209733Y932647D01*
X210751Y932444D01*
X211753Y932176D01*
X212736Y931842D01*
X213695Y931445D01*
X214626Y930986D01*
X215524Y930467D01*
X216387Y929891D01*
X217211Y929259D01*
X217991Y928575D01*
X218725Y927841D01*
X219409Y927061D01*
X220041Y926237D01*
X220617Y925374D01*
X221136Y924476D01*
X221595Y923545D01*
X221992Y922586D01*
X222326Y921603D01*
X222594Y920601D01*
X222797Y919583D01*
X222932Y918554D01*
X223000Y917519D01*
X223000Y916481D01*
X108700Y916481D02*
X108632Y915446D01*
X108497Y914417D01*
X108294Y913399D01*
X108026Y912397D01*
X107692Y911414D01*
X107295Y910455D01*
X106836Y909524D01*
X106317Y908626D01*
X105741Y907763D01*
X105109Y906939D01*
X104425Y906159D01*
X103691Y905425D01*
X102911Y904741D01*
X102087Y904109D01*
X101224Y903533D01*
X100326Y903014D01*
X99395Y902555D01*
X98436Y902158D01*
X97453Y901824D01*
X96451Y901556D01*
X95433Y901353D01*
X94404Y901218D01*
X93369Y901150D01*
X92331Y901150D01*
X91296Y901218D01*
X90267Y901353D01*
X89249Y901556D01*
X88247Y901824D01*
X87264Y902158D01*
X86305Y902555D01*
X85374Y903014D01*
X84476Y903533D01*
X83613Y904109D01*
X82789Y904741D01*
X82009Y905425D01*
X81275Y906159D01*
X80591Y906939D01*
X79959Y907763D01*
X79383Y908626D01*
X78864Y909524D01*
X78405Y910455D01*
X78008Y911414D01*
X77674Y912397D01*
X77406Y913399D01*
X77203Y914417D01*
X77068Y915446D01*
X77000Y916481D01*
X77000Y917519D01*
X77068Y918554D01*
X77203Y919583D01*
X77406Y920601D01*
X77674Y921603D01*
X78008Y922586D01*
X78405Y923545D01*
X78864Y924476D01*
X79383Y925374D01*
X79959Y926237D01*
X80591Y927061D01*
X81275Y927841D01*
X82009Y928575D01*
X82789Y929259D01*
X83613Y929891D01*
X84476Y930467D01*
X85374Y930986D01*
X86305Y931445D01*
X87264Y931842D01*
X88247Y932176D01*
X89249Y932444D01*
X90267Y932647D01*
X91296Y932782D01*
X92331Y932850D01*
X93369Y932850D01*
X94404Y932782D01*
X95433Y932647D01*
X96451Y932444D01*
X97453Y932176D01*
X98436Y931842D01*
X99395Y931445D01*
X100326Y930986D01*
X101224Y930467D01*
X102087Y929891D01*
X102911Y929259D01*
X103691Y928575D01*
X104425Y927841D01*
X105109Y927061D01*
X105741Y926237D01*
X106317Y925374D01*
X106836Y924476D01*
X107295Y923545D01*
X107692Y922586D01*
X108026Y921603D01*
X108294Y920601D01*
X108497Y919583D01*
X108632Y918554D01*
X108700Y917519D01*
X108700Y916481D01*
X693000Y316481D02*
X692932Y315446D01*
X692797Y314417D01*
X692594Y313399D01*
X692326Y312397D01*
X691992Y311414D01*
X691595Y310455D01*
X691136Y309524D01*
X690617Y308626D01*
X690041Y307763D01*
X689409Y306939D01*
X688725Y306159D01*
X687991Y305425D01*
X687211Y304741D01*
X686387Y304109D01*
X685524Y303533D01*
X684626Y303014D01*
X683695Y302555D01*
X682736Y302158D01*
X681753Y301824D01*
X680751Y301556D01*
X679733Y301353D01*
X678704Y301218D01*
X677669Y301150D01*
X676631Y301150D01*
X675596Y301218D01*
X674567Y301353D01*
X673549Y301556D01*
X672547Y301824D01*
X671564Y302158D01*
X670605Y302555D01*
X669674Y303014D01*
X668776Y303533D01*
X667913Y304109D01*
X667089Y304741D01*
X666309Y305425D01*
X665575Y306159D01*
X664891Y306939D01*
X664259Y307763D01*
X663683Y308626D01*
X663164Y309524D01*
X662705Y310455D01*
X662308Y311414D01*
X661974Y312397D01*
X661706Y313399D01*
X661503Y314417D01*
X661368Y315446D01*
X661300Y316481D01*
X661300Y317519D01*
X661368Y318554D01*
X661503Y319583D01*
X661706Y320601D01*
X661974Y321603D01*
X662308Y322586D01*
X662705Y323545D01*
X663164Y324476D01*
X663683Y325374D01*
X664259Y326237D01*
X664891Y327061D01*
X665575Y327841D01*
X666309Y328575D01*
X667089Y329259D01*
X667913Y329891D01*
X668776Y330467D01*
X669674Y330986D01*
X670605Y331445D01*
X671564Y331842D01*
X672547Y332176D01*
X673549Y332444D01*
X674567Y332647D01*
X675596Y332782D01*
X676631Y332850D01*
X677669Y332850D01*
X678704Y332782D01*
X679733Y332647D01*
X680751Y332444D01*
X681753Y332176D01*
X682736Y331842D01*
X683695Y331445D01*
X684626Y330986D01*
X685524Y330467D01*
X686387Y329891D01*
X687211Y329259D01*
X687991Y328575D01*
X688725Y327841D01*
X689409Y327061D01*
X690041Y326237D01*
X690617Y325374D01*
X691136Y324476D01*
X691595Y323545D01*
X691992Y322586D01*
X692326Y321603D01*
X692594Y320601D01*
X692797Y319583D01*
X692932Y318554D01*
X693000Y317519D01*
X693000Y316481D01*
X578700Y316481D02*
X578632Y315446D01*
X578497Y314417D01*
X578294Y313399D01*
X578026Y312397D01*
X577692Y311414D01*
X577295Y310455D01*
X576836Y309524D01*
X576317Y308626D01*
X575741Y307763D01*
X575109Y306939D01*
X574425Y306159D01*
X573691Y305425D01*
X572911Y304741D01*
X572087Y304109D01*
X571224Y303533D01*
X570326Y303014D01*
X569395Y302555D01*
X568436Y302158D01*
X567453Y301824D01*
X566451Y301556D01*
X565433Y301353D01*
X564404Y301218D01*
X563369Y301150D01*
X562331Y301150D01*
X561296Y301218D01*
X560267Y301353D01*
X559249Y301556D01*
X558247Y301824D01*
X557264Y302158D01*
X556305Y302555D01*
X555374Y303014D01*
X554476Y303533D01*
X553613Y304109D01*
X552789Y304741D01*
X552009Y305425D01*
X551275Y306159D01*
X550591Y306939D01*
X549959Y307763D01*
X549383Y308626D01*
X548864Y309524D01*
X548405Y310455D01*
X548008Y311414D01*
X547674Y312397D01*
X547406Y313399D01*
X547203Y314417D01*
X547068Y315446D01*
X547000Y316481D01*
X547000Y317519D01*
X547068Y318554D01*
X547203Y319583D01*
X547406Y320601D01*
X547674Y321603D01*
X548008Y322586D01*
X548405Y323545D01*
X548864Y324476D01*
X549383Y325374D01*
X549959Y326237D01*
X550591Y327061D01*
X551275Y327841D01*
X552009Y328575D01*
X552789Y329259D01*
X553613Y329891D01*
X554476Y330467D01*
X555374Y330986D01*
X556305Y331445D01*
X557264Y331842D01*
X558247Y332176D01*
X559249Y332444D01*
X560267Y332647D01*
X561296Y332782D01*
X562331Y332850D01*
X563369Y332850D01*
X564404Y332782D01*
X565433Y332647D01*
X566451Y332444D01*
X567453Y332176D01*
X568436Y331842D01*
X569395Y331445D01*
X570326Y330986D01*
X571224Y330467D01*
X572087Y329891D01*
X572911Y329259D01*
X573691Y328575D01*
X574425Y327841D01*
X575109Y327061D01*
X575741Y326237D01*
X576317Y325374D01*
X576836Y324476D01*
X577295Y323545D01*
X577692Y322586D01*
X578026Y321603D01*
X578294Y320601D01*
X578497Y319583D01*
X578632Y318554D01*
X578700Y317519D01*
X578700Y316481D01*
X223000Y316481D02*
X222932Y315446D01*
X222797Y314417D01*
X222594Y313399D01*
X222326Y312397D01*
X221992Y311414D01*
X221595Y310455D01*
X221136Y309524D01*
X220617Y308626D01*
X220041Y307763D01*
X219409Y306939D01*
X218725Y306159D01*
X217991Y305425D01*
X217211Y304741D01*
X216387Y304109D01*
X215524Y303533D01*
X214626Y303014D01*
X213695Y302555D01*
X212736Y302158D01*
X211753Y301824D01*
X210751Y301556D01*
X209733Y301353D01*
X208704Y301218D01*
X207669Y301150D01*
X206631Y301150D01*
X205596Y301218D01*
X204567Y301353D01*
X203549Y301556D01*
X202547Y301824D01*
X201564Y302158D01*
X200605Y302555D01*
X199674Y303014D01*
X198776Y303533D01*
X197913Y304109D01*
X197089Y304741D01*
X196309Y305425D01*
X195575Y306159D01*
X194891Y306939D01*
X194259Y307763D01*
X193683Y308626D01*
X193164Y309524D01*
X192705Y310455D01*
X192308Y311414D01*
X191974Y312397D01*
X191706Y313399D01*
X191503Y314417D01*
X191368Y315446D01*
X191300Y316481D01*
X191300Y317519D01*
X191368Y318554D01*
X191503Y319583D01*
X191706Y320601D01*
X191974Y321603D01*
X192308Y322586D01*
X192705Y323545D01*
X193164Y324476D01*
X193683Y325374D01*
X194259Y326237D01*
X194891Y327061D01*
X195575Y327841D01*
X196309Y328575D01*
X197089Y329259D01*
X197913Y329891D01*
X198776Y330467D01*
X199674Y330986D01*
X200605Y331445D01*
X201564Y331842D01*
X202547Y332176D01*
X203549Y332444D01*
X204567Y332647D01*
X205596Y332782D01*
X206631Y332850D01*
X207669Y332850D01*
X208704Y332782D01*
X209733Y332647D01*
X210751Y332444D01*
X211753Y332176D01*
X212736Y331842D01*
X213695Y331445D01*
X214626Y330986D01*
X215524Y330467D01*
X216387Y329891D01*
X217211Y329259D01*
X217991Y328575D01*
X218725Y327841D01*
X219409Y327061D01*
X220041Y326237D01*
X220617Y325374D01*
X221136Y324476D01*
X221595Y323545D01*
X221992Y322586D01*
X222326Y321603D01*
X222594Y320601D01*
X222797Y319583D01*
X222932Y318554D01*
X223000Y317519D01*
X223000Y316481D01*
X108700Y316481D02*
X108632Y315446D01*
X108497Y314417D01*
X108294Y313399D01*
X108026Y312397D01*
X107692Y311414D01*
X107295Y310455D01*
X106836Y309524D01*
X106317Y308626D01*
X105741Y307763D01*
X105109Y306939D01*
X104425Y306159D01*
X103691Y305425D01*
X102911Y304741D01*
X102087Y304109D01*
X101224Y303533D01*
X100326Y303014D01*
X99395Y302555D01*
X98436Y302158D01*
X97453Y301824D01*
X96451Y301556D01*
X95433Y301353D01*
X94404Y301218D01*
X93369Y301150D01*
X92331Y301150D01*
X91296Y301218D01*
X90267Y301353D01*
X89249Y301556D01*
X88247Y301824D01*
X87264Y302158D01*
X86305Y302555D01*
X85374Y303014D01*
X84476Y303533D01*
X83613Y304109D01*
X82789Y304741D01*
X82009Y305425D01*
X81275Y306159D01*
X80591Y306939D01*
X79959Y307763D01*
X79383Y308626D01*
X78864Y309524D01*
X78405Y310455D01*
X78008Y311414D01*
X77674Y312397D01*
X77406Y313399D01*
X77203Y314417D01*
X77068Y315446D01*
X77000Y316481D01*
X77000Y317519D01*
X77068Y318554D01*
X77203Y319583D01*
X77406Y320601D01*
X77674Y321603D01*
X78008Y322586D01*
X78405Y323545D01*
X78864Y324476D01*
X79383Y325374D01*
X79959Y326237D01*
X80591Y327061D01*
X81275Y327841D01*
X82009Y328575D01*
X82789Y329259D01*
X83613Y329891D01*
X84476Y330467D01*
X85374Y330986D01*
X86305Y331445D01*
X87264Y331842D01*
X88247Y332176D01*
X89249Y332444D01*
X90267Y332647D01*
X91296Y332782D01*
X92331Y332850D01*
X93369Y332850D01*
X94404Y332782D01*
X95433Y332647D01*
X96451Y332444D01*
X97453Y332176D01*
X98436Y331842D01*
X99395Y331445D01*
X100326Y330986D01*
X101224Y330467D01*
X102087Y329891D01*
X102911Y329259D01*
X103691Y328575D01*
X104425Y327841D01*
X105109Y327061D01*
X105741Y326237D01*
X106317Y325374D01*
X106836Y324476D01*
X107295Y323545D01*
X107692Y322586D01*
X108026Y321603D01*
X108294Y320601D01*
X108497Y319583D01*
X108632Y318554D01*
X108700Y317519D01*
X108700Y316481D01*
X453000Y716481D02*
X452932Y715446D01*
X452797Y714417D01*
X452594Y713399D01*
X452326Y712397D01*
X451992Y711414D01*
X451595Y710455D01*
X451136Y709524D01*
X450617Y708626D01*
X450041Y707763D01*
X449409Y706939D01*
X448725Y706159D01*
X447991Y705425D01*
X447211Y704741D01*
X446387Y704109D01*
X445524Y703533D01*
X444626Y703014D01*
X443695Y702555D01*
X442736Y702158D01*
X441753Y701824D01*
X440751Y701556D01*
X439733Y701353D01*
X438704Y701218D01*
X437669Y701150D01*
X436631Y701150D01*
X435596Y701218D01*
X434567Y701353D01*
X433549Y701556D01*
X432547Y701824D01*
X431564Y702158D01*
X430605Y702555D01*
X429674Y703014D01*
X428776Y703533D01*
X427913Y704109D01*
X427089Y704741D01*
X426309Y705425D01*
X425575Y706159D01*
X424891Y706939D01*
X424259Y707763D01*
X423683Y708626D01*
X423164Y709524D01*
X422705Y710455D01*
X422308Y711414D01*
X421974Y712397D01*
X421706Y713399D01*
X421503Y714417D01*
X421368Y715446D01*
X421300Y716481D01*
X421300Y717519D01*
X421368Y718554D01*
X421503Y719583D01*
X421706Y720601D01*
X421974Y721603D01*
X422308Y722586D01*
X422705Y723545D01*
X423164Y724476D01*
X423683Y725374D01*
X424259Y726237D01*
X424891Y727061D01*
X425575Y727841D01*
X426309Y728575D01*
X427089Y729259D01*
X427913Y729891D01*
X428776Y730467D01*
X429674Y730986D01*
X430605Y731445D01*
X431564Y731842D01*
X432547Y732176D01*
X433549Y732444D01*
X434567Y732647D01*
X435596Y732782D01*
X436631Y732850D01*
X437669Y732850D01*
X438704Y732782D01*
X439733Y732647D01*
X440751Y732444D01*
X441753Y732176D01*
X442736Y731842D01*
X443695Y731445D01*
X444626Y730986D01*
X445524Y730467D01*
X446387Y729891D01*
X447211Y729259D01*
X447991Y728575D01*
X448725Y727841D01*
X449409Y727061D01*
X450041Y726237D01*
X450617Y725374D01*
X451136Y724476D01*
X451595Y723545D01*
X451992Y722586D01*
X452326Y721603D01*
X452594Y720601D01*
X452797Y719583D01*
X452932Y718554D01*
X453000Y717519D01*
X453000Y716481D01*
X338700Y716481D02*
X338632Y715446D01*
X338497Y714417D01*
X338294Y713399D01*
X338026Y712397D01*
X337692Y711414D01*
X337295Y710455D01*
X336836Y709524D01*
X336317Y708626D01*
X335741Y707763D01*
X335109Y706939D01*
X334425Y706159D01*
X333691Y705425D01*
X332911Y704741D01*
X332087Y704109D01*
X331224Y703533D01*
X330326Y703014D01*
X329395Y702555D01*
X328436Y702158D01*
X327453Y701824D01*
X326451Y701556D01*
X325433Y701353D01*
X324404Y701218D01*
X323369Y701150D01*
X322331Y701150D01*
X321296Y701218D01*
X320267Y701353D01*
X319249Y701556D01*
X318247Y701824D01*
X317264Y702158D01*
X316305Y702555D01*
X315374Y703014D01*
X314476Y703533D01*
X313613Y704109D01*
X312789Y704741D01*
X312009Y705425D01*
X311275Y706159D01*
X310591Y706939D01*
X309959Y707763D01*
X309383Y708626D01*
X308864Y709524D01*
X308405Y710455D01*
X308008Y711414D01*
X307674Y712397D01*
X307406Y713399D01*
X307203Y714417D01*
X307068Y715446D01*
X307000Y716481D01*
X307000Y717519D01*
X307068Y718554D01*
X307203Y719583D01*
X307406Y720601D01*
X307674Y721603D01*
X308008Y722586D01*
X308405Y723545D01*
X308864Y724476D01*
X309383Y725374D01*
X309959Y726237D01*
X310591Y727061D01*
X311275Y727841D01*
X312009Y728575D01*
X312789Y729259D01*
X313613Y729891D01*
X314476Y730467D01*
X315374Y730986D01*
X316305Y731445D01*
X317264Y731842D01*
X318247Y732176D01*
X319249Y732444D01*
X320267Y732647D01*
X321296Y732782D01*
X322331Y732850D01*
X323369Y732850D01*
X324404Y732782D01*
X325433Y732647D01*
X326451Y732444D01*
X327453Y732176D01*
X328436Y731842D01*
X329395Y731445D01*
X330326Y730986D01*
X331224Y730467D01*
X332087Y729891D01*
X332911Y729259D01*
X333691Y728575D01*
X334425Y727841D01*
X335109Y727061D01*
X335741Y726237D01*
X336317Y725374D01*
X336836Y724476D01*
X337295Y723545D01*
X337692Y722586D01*
X338026Y721603D01*
X338294Y720601D01*
X338497Y719583D01*
X338632Y718554D01*
X338700Y717519D01*
X338700Y716481D01*
X453000Y516481D02*
X452932Y515446D01*
X452797Y514417D01*
X452594Y513399D01*
X452326Y512397D01*
X451992Y511414D01*
X451595Y510455D01*
X451136Y509524D01*
X450617Y508626D01*
X450041Y507763D01*
X449409Y506939D01*
X448725Y506159D01*
X447991Y505425D01*
X447211Y504741D01*
X446387Y504109D01*
X445524Y503533D01*
X444626Y503014D01*
X443695Y502555D01*
X442736Y502158D01*
X441753Y501824D01*
X440751Y501556D01*
X439733Y501353D01*
X438704Y501218D01*
X437669Y501150D01*
X436631Y501150D01*
X435596Y501218D01*
X434567Y501353D01*
X433549Y501556D01*
X432547Y501824D01*
X431564Y502158D01*
X430605Y502555D01*
X429674Y503014D01*
X428776Y503533D01*
X427913Y504109D01*
X427089Y504741D01*
X426309Y505425D01*
X425575Y506159D01*
X424891Y506939D01*
X424259Y507763D01*
X423683Y508626D01*
X423164Y509524D01*
X422705Y510455D01*
X422308Y511414D01*
X421974Y512397D01*
X421706Y513399D01*
X421503Y514417D01*
X421368Y515446D01*
X421300Y516481D01*
X421300Y517519D01*
X421368Y518554D01*
X421503Y519583D01*
X421706Y520601D01*
X421974Y521603D01*
X422308Y522586D01*
X422705Y523545D01*
X423164Y524476D01*
X423683Y525374D01*
X424259Y526237D01*
X424891Y527061D01*
X425575Y527841D01*
X426309Y528575D01*
X427089Y529259D01*
X427913Y529891D01*
X428776Y530467D01*
X429674Y530986D01*
X430605Y531445D01*
X431564Y531842D01*
X432547Y532176D01*
X433549Y532444D01*
X434567Y532647D01*
X435596Y532782D01*
X436631Y532850D01*
X437669Y532850D01*
X438704Y532782D01*
X439733Y532647D01*
X440751Y532444D01*
X441753Y532176D01*
X442736Y531842D01*
X443695Y531445D01*
X444626Y530986D01*
X445524Y530467D01*
X446387Y529891D01*
X447211Y529259D01*
X447991Y528575D01*
X448725Y527841D01*
X449409Y527061D01*
X450041Y526237D01*
X450617Y525374D01*
X451136Y524476D01*
X451595Y523545D01*
X451992Y522586D01*
X452326Y521603D01*
X452594Y520601D01*
X452797Y519583D01*
X452932Y518554D01*
X453000Y517519D01*
X453000Y516481D01*
X338700Y516481D02*
X338632Y515446D01*
X338497Y514417D01*
X338294Y513399D01*
X338026Y512397D01*
X337692Y511414D01*
X337295Y510455D01*
X336836Y509524D01*
X336317Y508626D01*
X335741Y507763D01*
X335109Y506939D01*
X334425Y506159D01*
X333691Y505425D01*
X332911Y504741D01*
X332087Y504109D01*
X331224Y503533D01*
X330326Y503014D01*
X329395Y502555D01*
X328436Y502158D01*
X327453Y501824D01*
X326451Y501556D01*
X325433Y501353D01*
X324404Y501218D01*
X323369Y501150D01*
X322331Y501150D01*
X321296Y501218D01*
X320267Y501353D01*
X319249Y501556D01*
X318247Y501824D01*
X317264Y502158D01*
X316305Y502555D01*
X315374Y503014D01*
X314476Y503533D01*
X313613Y504109D01*
X312789Y504741D01*
X312009Y505425D01*
X311275Y506159D01*
X310591Y506939D01*
X309959Y507763D01*
X309383Y508626D01*
X308864Y509524D01*
X308405Y510455D01*
X308008Y511414D01*
X307674Y512397D01*
X307406Y513399D01*
X307203Y514417D01*
X307068Y515446D01*
X307000Y516481D01*
X307000Y517519D01*
X307068Y518554D01*
X307203Y519583D01*
X307406Y520601D01*
X307674Y521603D01*
X308008Y522586D01*
X308405Y523545D01*
X308864Y524476D01*
X309383Y525374D01*
X309959Y526237D01*
X310591Y527061D01*
X311275Y527841D01*
X312009Y528575D01*
X312789Y529259D01*
X313613Y529891D01*
X314476Y530467D01*
X315374Y530986D01*
X316305Y531445D01*
X317264Y531842D01*
X318247Y532176D01*
X319249Y532444D01*
X320267Y532647D01*
X321296Y532782D01*
X322331Y532850D01*
X323369Y532850D01*
X324404Y532782D01*
X325433Y532647D01*
X326451Y532444D01*
X327453Y532176D01*
X328436Y531842D01*
X329395Y531445D01*
X330326Y530986D01*
X331224Y530467D01*
X332087Y529891D01*
X332911Y529259D01*
X333691Y528575D01*
X334425Y527841D01*
X335109Y527061D01*
X335741Y526237D01*
X336317Y525374D01*
X336836Y524476D01*
X337295Y523545D01*
X337692Y522586D01*
X338026Y521603D01*
X338294Y520601D01*
X338497Y519583D01*
X338632Y518554D01*
X338700Y517519D01*
X338700Y516481D01*
X693000Y516481D02*
X692932Y515446D01*
X692797Y514417D01*
X692594Y513399D01*
X692326Y512397D01*
X691992Y511414D01*
X691595Y510455D01*
X691136Y509524D01*
X690617Y508626D01*
X690041Y507763D01*
X689409Y506939D01*
X688725Y506159D01*
X687991Y505425D01*
X687211Y504741D01*
X686387Y504109D01*
X685524Y503533D01*
X684626Y503014D01*
X683695Y502555D01*
X682736Y502158D01*
X681753Y501824D01*
X680751Y501556D01*
X679733Y501353D01*
X678704Y501218D01*
X677669Y501150D01*
X676631Y501150D01*
X675596Y501218D01*
X674567Y501353D01*
X673549Y501556D01*
X672547Y501824D01*
X671564Y502158D01*
X670605Y502555D01*
X669674Y503014D01*
X668776Y503533D01*
X667913Y504109D01*
X667089Y504741D01*
X666309Y505425D01*
X665575Y506159D01*
X664891Y506939D01*
X664259Y507763D01*
X663683Y508626D01*
X663164Y509524D01*
X662705Y510455D01*
X662308Y511414D01*
X661974Y512397D01*
X661706Y513399D01*
X661503Y514417D01*
X661368Y515446D01*
X661300Y516481D01*
X661300Y517519D01*
X661368Y518554D01*
X661503Y519583D01*
X661706Y520601D01*
X661974Y521603D01*
X662308Y522586D01*
X662705Y523545D01*
X663164Y524476D01*
X663683Y525374D01*
X664259Y526237D01*
X664891Y527061D01*
X665575Y527841D01*
X666309Y528575D01*
X667089Y529259D01*
X667913Y529891D01*
X668776Y530467D01*
X669674Y530986D01*
X670605Y531445D01*
X671564Y531842D01*
X672547Y532176D01*
X673549Y532444D01*
X674567Y532647D01*
X675596Y532782D01*
X676631Y532850D01*
X677669Y532850D01*
X678704Y532782D01*
X679733Y532647D01*
X680751Y532444D01*
X681753Y532176D01*
X682736Y531842D01*
X683695Y531445D01*
X684626Y530986D01*
X685524Y530467D01*
X686387Y529891D01*
X687211Y529259D01*
X687991Y528575D01*
X688725Y527841D01*
X689409Y527061D01*
X690041Y526237D01*
X690617Y525374D01*
X691136Y524476D01*
X691595Y523545D01*
X691992Y522586D01*
X692326Y521603D01*
X692594Y520601D01*
X692797Y519583D01*
X692932Y518554D01*
X693000Y517519D01*
X693000Y516481D01*
X578700Y516481D02*
X578632Y515446D01*
X578497Y514417D01*
X578294Y513399D01*
X578026Y512397D01*
X577692Y511414D01*
X577295Y510455D01*
X576836Y509524D01*
X576317Y508626D01*
X575741Y507763D01*
X575109Y506939D01*
X574425Y506159D01*
X573691Y505425D01*
X572911Y504741D01*
X572087Y504109D01*
X571224Y503533D01*
X570326Y503014D01*
X569395Y502555D01*
X568436Y502158D01*
X567453Y501824D01*
X566451Y501556D01*
X565433Y501353D01*
X564404Y501218D01*
X563369Y501150D01*
X562331Y501150D01*
X561296Y501218D01*
X560267Y501353D01*
X559249Y501556D01*
X558247Y501824D01*
X557264Y502158D01*
X556305Y502555D01*
X555374Y503014D01*
X554476Y503533D01*
X553613Y504109D01*
X552789Y504741D01*
X552009Y505425D01*
X551275Y506159D01*
X550591Y506939D01*
X549959Y507763D01*
X549383Y508626D01*
X548864Y509524D01*
X548405Y510455D01*
X548008Y511414D01*
X547674Y512397D01*
X547406Y513399D01*
X547203Y514417D01*
X547068Y515446D01*
X547000Y516481D01*
X547000Y517519D01*
X547068Y518554D01*
X547203Y519583D01*
X547406Y520601D01*
X547674Y521603D01*
X548008Y522586D01*
X548405Y523545D01*
X548864Y524476D01*
X549383Y525374D01*
X549959Y526237D01*
X550591Y527061D01*
X551275Y527841D01*
X552009Y528575D01*
X552789Y529259D01*
X553613Y529891D01*
X554476Y530467D01*
X555374Y530986D01*
X556305Y531445D01*
X557264Y531842D01*
X558247Y532176D01*
X559249Y532444D01*
X560267Y532647D01*
X561296Y532782D01*
X562331Y532850D01*
X563369Y532850D01*
X564404Y532782D01*
X565433Y532647D01*
X566451Y532444D01*
X567453Y532176D01*
X568436Y531842D01*
X569395Y531445D01*
X570326Y530986D01*
X571224Y530467D01*
X572087Y529891D01*
X572911Y529259D01*
X573691Y528575D01*
X574425Y527841D01*
X575109Y527061D01*
X575741Y526237D01*
X576317Y525374D01*
X576836Y524476D01*
X577295Y523545D01*
X577692Y522586D01*
X578026Y521603D01*
X578294Y520601D01*
X578497Y519583D01*
X578632Y518554D01*
X578700Y517519D01*
X578700Y516481D01*
X223000Y516481D02*
X222932Y515446D01*
X222797Y514417D01*
X222594Y513399D01*
X222326Y512397D01*
X221992Y511414D01*
X221595Y510455D01*
X221136Y509524D01*
X220617Y508626D01*
X220041Y507763D01*
X219409Y506939D01*
X218725Y506159D01*
X217991Y505425D01*
X217211Y504741D01*
X216387Y504109D01*
X215524Y503533D01*
X214626Y503014D01*
X213695Y502555D01*
X212736Y502158D01*
X211753Y501824D01*
X210751Y501556D01*
X209733Y501353D01*
X208704Y501218D01*
X207669Y501150D01*
X206631Y501150D01*
X205596Y501218D01*
X204567Y501353D01*
X203549Y501556D01*
X202547Y501824D01*
X201564Y502158D01*
X200605Y502555D01*
X199674Y503014D01*
X198776Y503533D01*
X197913Y504109D01*
X197089Y504741D01*
X196309Y505425D01*
X195575Y506159D01*
X194891Y506939D01*
X194259Y507763D01*
X193683Y508626D01*
X193164Y509524D01*
X192705Y510455D01*
X192308Y511414D01*
X191974Y512397D01*
X191706Y513399D01*
X191503Y514417D01*
X191368Y515446D01*
X191300Y516481D01*
X191300Y517519D01*
X191368Y518554D01*
X191503Y519583D01*
X191706Y520601D01*
X191974Y521603D01*
X192308Y522586D01*
X192705Y523545D01*
X193164Y524476D01*
X193683Y525374D01*
X194259Y526237D01*
X194891Y527061D01*
X195575Y527841D01*
X196309Y528575D01*
X197089Y529259D01*
X197913Y529891D01*
X198776Y530467D01*
X199674Y530986D01*
X200605Y531445D01*
X201564Y531842D01*
X202547Y532176D01*
X203549Y532444D01*
X204567Y532647D01*
X205596Y532782D01*
X206631Y532850D01*
X207669Y532850D01*
X208704Y532782D01*
X209733Y532647D01*
X210751Y532444D01*
X211753Y532176D01*
X212736Y531842D01*
X213695Y531445D01*
X214626Y530986D01*
X215524Y530467D01*
X216387Y529891D01*
X217211Y529259D01*
X217991Y528575D01*
X218725Y527841D01*
X219409Y527061D01*
X220041Y526237D01*
X220617Y525374D01*
X221136Y524476D01*
X221595Y523545D01*
X221992Y522586D01*
X222326Y521603D01*
X222594Y520601D01*
X222797Y519583D01*
X222932Y518554D01*
X223000Y517519D01*
X223000Y516481D01*
X108700Y516481D02*
X108632Y515446D01*
X108497Y514417D01*
X108294Y513399D01*
X108026Y512397D01*
X107692Y511414D01*
X107295Y510455D01*
X106836Y509524D01*
X106317Y508626D01*
X105741Y507763D01*
X105109Y506939D01*
X104425Y506159D01*
X103691Y505425D01*
X102911Y504741D01*
X102087Y504109D01*
X101224Y503533D01*
X100326Y503014D01*
X99395Y502555D01*
X98436Y502158D01*
X97453Y501824D01*
X96451Y501556D01*
X95433Y501353D01*
X94404Y501218D01*
X93369Y501150D01*
X92331Y501150D01*
X91296Y501218D01*
X90267Y501353D01*
X89249Y501556D01*
X88247Y501824D01*
X87264Y502158D01*
X86305Y502555D01*
X85374Y503014D01*
X84476Y503533D01*
X83613Y504109D01*
X82789Y504741D01*
X82009Y505425D01*
X81275Y506159D01*
X80591Y506939D01*
X79959Y507763D01*
X79383Y508626D01*
X78864Y509524D01*
X78405Y510455D01*
X78008Y511414D01*
X77674Y512397D01*
X77406Y513399D01*
X77203Y514417D01*
X77068Y515446D01*
X77000Y516481D01*
X77000Y517519D01*
X77068Y518554D01*
X77203Y519583D01*
X77406Y520601D01*
X77674Y521603D01*
X78008Y522586D01*
X78405Y523545D01*
X78864Y524476D01*
X79383Y525374D01*
X79959Y526237D01*
X80591Y527061D01*
X81275Y527841D01*
X82009Y528575D01*
X82789Y529259D01*
X83613Y529891D01*
X84476Y530467D01*
X85374Y530986D01*
X86305Y531445D01*
X87264Y531842D01*
X88247Y532176D01*
X89249Y532444D01*
X90267Y532647D01*
X91296Y532782D01*
X92331Y532850D01*
X93369Y532850D01*
X94404Y532782D01*
X95433Y532647D01*
X96451Y532444D01*
X97453Y532176D01*
X98436Y531842D01*
X99395Y531445D01*
X100326Y530986D01*
X101224Y530467D01*
X102087Y529891D01*
X102911Y529259D01*
X103691Y528575D01*
X104425Y527841D01*
X105109Y527061D01*
X105741Y526237D01*
X106317Y525374D01*
X106836Y524476D01*
X107295Y523545D01*
X107692Y522586D01*
X108026Y521603D01*
X108294Y520601D01*
X108497Y519583D01*
X108632Y518554D01*
X108700Y517519D01*
X108700Y516481D01*
X223000Y716481D02*
X222932Y715446D01*
X222797Y714417D01*
X222594Y713399D01*
X222326Y712397D01*
X221992Y711414D01*
X221595Y710455D01*
X221136Y709524D01*
X220617Y708626D01*
X220041Y707763D01*
X219409Y706939D01*
X218725Y706159D01*
X217991Y705425D01*
X217211Y704741D01*
X216387Y704109D01*
X215524Y703533D01*
X214626Y703014D01*
X213695Y702555D01*
X212736Y702158D01*
X211753Y701824D01*
X210751Y701556D01*
X209733Y701353D01*
X208704Y701218D01*
X207669Y701150D01*
X206631Y701150D01*
X205596Y701218D01*
X204567Y701353D01*
X203549Y701556D01*
X202547Y701824D01*
X201564Y702158D01*
X200605Y702555D01*
X199674Y703014D01*
X198776Y703533D01*
X197913Y704109D01*
X197089Y704741D01*
X196309Y705425D01*
X195575Y706159D01*
X194891Y706939D01*
X194259Y707763D01*
X193683Y708626D01*
X193164Y709524D01*
X192705Y710455D01*
X192308Y711414D01*
X191974Y712397D01*
X191706Y713399D01*
X191503Y714417D01*
X191368Y715446D01*
X191300Y716481D01*
X191300Y717519D01*
X191368Y718554D01*
X191503Y719583D01*
X191706Y720601D01*
X191974Y721603D01*
X192308Y722586D01*
X192705Y723545D01*
X193164Y724476D01*
X193683Y725374D01*
X194259Y726237D01*
X194891Y727061D01*
X195575Y727841D01*
X196309Y728575D01*
X197089Y729259D01*
X197913Y729891D01*
X198776Y730467D01*
X199674Y730986D01*
X200605Y731445D01*
X201564Y731842D01*
X202547Y732176D01*
X203549Y732444D01*
X204567Y732647D01*
X205596Y732782D01*
X206631Y732850D01*
X207669Y732850D01*
X208704Y732782D01*
X209733Y732647D01*
X210751Y732444D01*
X211753Y732176D01*
X212736Y731842D01*
X213695Y731445D01*
X214626Y730986D01*
X215524Y730467D01*
X216387Y729891D01*
X217211Y729259D01*
X217991Y728575D01*
X218725Y727841D01*
X219409Y727061D01*
X220041Y726237D01*
X220617Y725374D01*
X221136Y724476D01*
X221595Y723545D01*
X221992Y722586D01*
X222326Y721603D01*
X222594Y720601D01*
X222797Y719583D01*
X222932Y718554D01*
X223000Y717519D01*
X223000Y716481D01*
X108700Y716481D02*
X108632Y715446D01*
X108497Y714417D01*
X108294Y713399D01*
X108026Y712397D01*
X107692Y711414D01*
X107295Y710455D01*
X106836Y709524D01*
X106317Y708626D01*
X105741Y707763D01*
X105109Y706939D01*
X104425Y706159D01*
X103691Y705425D01*
X102911Y704741D01*
X102087Y704109D01*
X101224Y703533D01*
X100326Y703014D01*
X99395Y702555D01*
X98436Y702158D01*
X97453Y701824D01*
X96451Y701556D01*
X95433Y701353D01*
X94404Y701218D01*
X93369Y701150D01*
X92331Y701150D01*
X91296Y701218D01*
X90267Y701353D01*
X89249Y701556D01*
X88247Y701824D01*
X87264Y702158D01*
X86305Y702555D01*
X85374Y703014D01*
X84476Y703533D01*
X83613Y704109D01*
X82789Y704741D01*
X82009Y705425D01*
X81275Y706159D01*
X80591Y706939D01*
X79959Y707763D01*
X79383Y708626D01*
X78864Y709524D01*
X78405Y710455D01*
X78008Y711414D01*
X77674Y712397D01*
X77406Y713399D01*
X77203Y714417D01*
X77068Y715446D01*
X77000Y716481D01*
X77000Y717519D01*
X77068Y718554D01*
X77203Y719583D01*
X77406Y720601D01*
X77674Y721603D01*
X78008Y722586D01*
X78405Y723545D01*
X78864Y724476D01*
X79383Y725374D01*
X79959Y726237D01*
X80591Y727061D01*
X81275Y727841D01*
X82009Y728575D01*
X82789Y729259D01*
X83613Y729891D01*
X84476Y730467D01*
X85374Y730986D01*
X86305Y731445D01*
X87264Y731842D01*
X88247Y732176D01*
X89249Y732444D01*
X90267Y732647D01*
X91296Y732782D01*
X92331Y732850D01*
X93369Y732850D01*
X94404Y732782D01*
X95433Y732647D01*
X96451Y732444D01*
X97453Y732176D01*
X98436Y731842D01*
X99395Y731445D01*
X100326Y730986D01*
X101224Y730467D01*
X102087Y729891D01*
X102911Y729259D01*
X103691Y728575D01*
X104425Y727841D01*
X105109Y727061D01*
X105741Y726237D01*
X106317Y725374D01*
X106836Y724476D01*
X107295Y723545D01*
X107692Y722586D01*
X108026Y721603D01*
X108294Y720601D01*
X108497Y719583D01*
X108632Y718554D01*
X108700Y717519D01*
X108700Y716481D01*
X693000Y716481D02*
X692932Y715446D01*
X692797Y714417D01*
X692594Y713399D01*
X692326Y712397D01*
X691992Y711414D01*
X691595Y710455D01*
X691136Y709524D01*
X690617Y708626D01*
X690041Y707763D01*
X689409Y706939D01*
X688725Y706159D01*
X687991Y705425D01*
X687211Y704741D01*
X686387Y704109D01*
X685524Y703533D01*
X684626Y703014D01*
X683695Y702555D01*
X682736Y702158D01*
X681753Y701824D01*
X680751Y701556D01*
X679733Y701353D01*
X678704Y701218D01*
X677669Y701150D01*
X676631Y701150D01*
X675596Y701218D01*
X674567Y701353D01*
X673549Y701556D01*
X672547Y701824D01*
X671564Y702158D01*
X670605Y702555D01*
X669674Y703014D01*
X668776Y703533D01*
X667913Y704109D01*
X667089Y704741D01*
X666309Y705425D01*
X665575Y706159D01*
X664891Y706939D01*
X664259Y707763D01*
X663683Y708626D01*
X663164Y709524D01*
X662705Y710455D01*
X662308Y711414D01*
X661974Y712397D01*
X661706Y713399D01*
X661503Y714417D01*
X661368Y715446D01*
X661300Y716481D01*
X661300Y717519D01*
X661368Y718554D01*
X661503Y719583D01*
X661706Y720601D01*
X661974Y721603D01*
X662308Y722586D01*
X662705Y723545D01*
X663164Y724476D01*
X663683Y725374D01*
X664259Y726237D01*
X664891Y727061D01*
X665575Y727841D01*
X666309Y728575D01*
X667089Y729259D01*
X667913Y729891D01*
X668776Y730467D01*
X669674Y730986D01*
X670605Y731445D01*
X671564Y731842D01*
X672547Y732176D01*
X673549Y732444D01*
X674567Y732647D01*
X675596Y732782D01*
X676631Y732850D01*
X677669Y732850D01*
X678704Y732782D01*
X679733Y732647D01*
X680751Y732444D01*
X681753Y732176D01*
X682736Y731842D01*
X683695Y731445D01*
X684626Y730986D01*
X685524Y730467D01*
X686387Y729891D01*
X687211Y729259D01*
X687991Y728575D01*
X688725Y727841D01*
X689409Y727061D01*
X690041Y726237D01*
X690617Y725374D01*
X691136Y724476D01*
X691595Y723545D01*
X691992Y722586D01*
X692326Y721603D01*
X692594Y720601D01*
X692797Y719583D01*
X692932Y718554D01*
X693000Y717519D01*
X693000Y716481D01*
X578700Y716481D02*
X578632Y715446D01*
X578497Y714417D01*
X578294Y713399D01*
X578026Y712397D01*
X577692Y711414D01*
X577295Y710455D01*
X576836Y709524D01*
X576317Y708626D01*
X575741Y707763D01*
X575109Y706939D01*
X574425Y706159D01*
X573691Y705425D01*
X572911Y704741D01*
X572087Y704109D01*
X571224Y703533D01*
X570326Y703014D01*
X569395Y702555D01*
X568436Y702158D01*
X567453Y701824D01*
X566451Y701556D01*
X565433Y701353D01*
X564404Y701218D01*
X563369Y701150D01*
X562331Y701150D01*
X561296Y701218D01*
X560267Y701353D01*
X559249Y701556D01*
X558247Y701824D01*
X557264Y702158D01*
X556305Y702555D01*
X555374Y703014D01*
X554476Y703533D01*
X553613Y704109D01*
X552789Y704741D01*
X552009Y705425D01*
X551275Y706159D01*
X550591Y706939D01*
X549959Y707763D01*
X549383Y708626D01*
X548864Y709524D01*
X548405Y710455D01*
X548008Y711414D01*
X547674Y712397D01*
X547406Y713399D01*
X547203Y714417D01*
X547068Y715446D01*
X547000Y716481D01*
X547000Y717519D01*
X547068Y718554D01*
X547203Y719583D01*
X547406Y720601D01*
X547674Y721603D01*
X548008Y722586D01*
X548405Y723545D01*
X548864Y724476D01*
X549383Y725374D01*
X549959Y726237D01*
X550591Y727061D01*
X551275Y727841D01*
X552009Y728575D01*
X552789Y729259D01*
X553613Y729891D01*
X554476Y730467D01*
X555374Y730986D01*
X556305Y731445D01*
X557264Y731842D01*
X558247Y732176D01*
X559249Y732444D01*
X560267Y732647D01*
X561296Y732782D01*
X562331Y732850D01*
X563369Y732850D01*
X564404Y732782D01*
X565433Y732647D01*
X566451Y732444D01*
X567453Y732176D01*
X568436Y731842D01*
X569395Y731445D01*
X570326Y730986D01*
X571224Y730467D01*
X572087Y729891D01*
X572911Y729259D01*
X573691Y728575D01*
X574425Y727841D01*
X575109Y727061D01*
X575741Y726237D01*
X576317Y725374D01*
X576836Y724476D01*
X577295Y723545D01*
X577692Y722586D01*
X578026Y721603D01*
X578294Y720601D01*
X578497Y719583D01*
X578632Y718554D01*
X578700Y717519D01*
X578700Y716481D01*
X693000Y916481D02*
X692932Y915446D01*
X692797Y914417D01*
X692594Y913399D01*
X692326Y912397D01*
X691992Y911414D01*
X691595Y910455D01*
X691136Y909524D01*
X690617Y908626D01*
X690041Y907763D01*
X689409Y906939D01*
X688725Y906159D01*
X687991Y905425D01*
X687211Y904741D01*
X686387Y904109D01*
X685524Y903533D01*
X684626Y903014D01*
X683695Y902555D01*
X682736Y902158D01*
X681753Y901824D01*
X680751Y901556D01*
X679733Y901353D01*
X678704Y901218D01*
X677669Y901150D01*
X676631Y901150D01*
X675596Y901218D01*
X674567Y901353D01*
X673549Y901556D01*
X672547Y901824D01*
X671564Y902158D01*
X670605Y902555D01*
X669674Y903014D01*
X668776Y903533D01*
X667913Y904109D01*
X667089Y904741D01*
X666309Y905425D01*
X665575Y906159D01*
X664891Y906939D01*
X664259Y907763D01*
X663683Y908626D01*
X663164Y909524D01*
X662705Y910455D01*
X662308Y911414D01*
X661974Y912397D01*
X661706Y913399D01*
X661503Y914417D01*
X661368Y915446D01*
X661300Y916481D01*
X661300Y917519D01*
X661368Y918554D01*
X661503Y919583D01*
X661706Y920601D01*
X661974Y921603D01*
X662308Y922586D01*
X662705Y923545D01*
X663164Y924476D01*
X663683Y925374D01*
X664259Y926237D01*
X664891Y927061D01*
X665575Y927841D01*
X666309Y928575D01*
X667089Y929259D01*
X667913Y929891D01*
X668776Y930467D01*
X669674Y930986D01*
X670605Y931445D01*
X671564Y931842D01*
X672547Y932176D01*
X673549Y932444D01*
X674567Y932647D01*
X675596Y932782D01*
X676631Y932850D01*
X677669Y932850D01*
X678704Y932782D01*
X679733Y932647D01*
X680751Y932444D01*
X681753Y932176D01*
X682736Y931842D01*
X683695Y931445D01*
X684626Y930986D01*
X685524Y930467D01*
X686387Y929891D01*
X687211Y929259D01*
X687991Y928575D01*
X688725Y927841D01*
X689409Y927061D01*
X690041Y926237D01*
X690617Y925374D01*
X691136Y924476D01*
X691595Y923545D01*
X691992Y922586D01*
X692326Y921603D01*
X692594Y920601D01*
X692797Y919583D01*
X692932Y918554D01*
X693000Y917519D01*
X693000Y916481D01*
X578700Y916481D02*
X578632Y915446D01*
X578497Y914417D01*
X578294Y913399D01*
X578026Y912397D01*
X577692Y911414D01*
X577295Y910455D01*
X576836Y909524D01*
X576317Y908626D01*
X575741Y907763D01*
X575109Y906939D01*
X574425Y906159D01*
X573691Y905425D01*
X572911Y904741D01*
X572087Y904109D01*
X571224Y903533D01*
X570326Y903014D01*
X569395Y902555D01*
X568436Y902158D01*
X567453Y901824D01*
X566451Y901556D01*
X565433Y901353D01*
X564404Y901218D01*
X563369Y901150D01*
X562331Y901150D01*
X561296Y901218D01*
X560267Y901353D01*
X559249Y901556D01*
X558247Y901824D01*
X557264Y902158D01*
X556305Y902555D01*
X555374Y903014D01*
X554476Y903533D01*
X553613Y904109D01*
X552789Y904741D01*
X552009Y905425D01*
X551275Y906159D01*
X550591Y906939D01*
X549959Y907763D01*
X549383Y908626D01*
X548864Y909524D01*
X548405Y910455D01*
X548008Y911414D01*
X547674Y912397D01*
X547406Y913399D01*
X547203Y914417D01*
X547068Y915446D01*
X547000Y916481D01*
X547000Y917519D01*
X547068Y918554D01*
X547203Y919583D01*
X547406Y920601D01*
X547674Y921603D01*
X548008Y922586D01*
X548405Y923545D01*
X548864Y924476D01*
X549383Y925374D01*
X549959Y926237D01*
X550591Y927061D01*
X551275Y927841D01*
X552009Y928575D01*
X552789Y929259D01*
X553613Y929891D01*
X554476Y930467D01*
X555374Y930986D01*
X556305Y931445D01*
X557264Y931842D01*
X558247Y932176D01*
X559249Y932444D01*
X560267Y932647D01*
X561296Y932782D01*
X562331Y932850D01*
X563369Y932850D01*
X564404Y932782D01*
X565433Y932647D01*
X566451Y932444D01*
X567453Y932176D01*
X568436Y931842D01*
X569395Y931445D01*
X570326Y930986D01*
X571224Y930467D01*
X572087Y929891D01*
X572911Y929259D01*
X573691Y928575D01*
X574425Y927841D01*
X575109Y927061D01*
X575741Y926237D01*
X576317Y925374D01*
X576836Y924476D01*
X577295Y923545D01*
X577692Y922586D01*
X578026Y921603D01*
X578294Y920601D01*
X578497Y919583D01*
X578632Y918554D01*
X578700Y917519D01*
X578700Y916481D01*
X923000Y316481D02*
X922932Y315446D01*
X922797Y314417D01*
X922594Y313399D01*
X922326Y312397D01*
X921992Y311414D01*
X921595Y310455D01*
X921136Y309524D01*
X920617Y308626D01*
X920041Y307763D01*
X919409Y306939D01*
X918725Y306159D01*
X917991Y305425D01*
X917211Y304741D01*
X916387Y304109D01*
X915524Y303533D01*
X914626Y303014D01*
X913695Y302555D01*
X912736Y302158D01*
X911753Y301824D01*
X910751Y301556D01*
X909733Y301353D01*
X908704Y301218D01*
X907669Y301150D01*
X906631Y301150D01*
X905596Y301218D01*
X904567Y301353D01*
X903549Y301556D01*
X902547Y301824D01*
X901564Y302158D01*
X900605Y302555D01*
X899674Y303014D01*
X898776Y303533D01*
X897913Y304109D01*
X897089Y304741D01*
X896309Y305425D01*
X895575Y306159D01*
X894891Y306939D01*
X894259Y307763D01*
X893683Y308626D01*
X893164Y309524D01*
X892705Y310455D01*
X892308Y311414D01*
X891974Y312397D01*
X891706Y313399D01*
X891503Y314417D01*
X891368Y315446D01*
X891300Y316481D01*
X891300Y317519D01*
X891368Y318554D01*
X891503Y319583D01*
X891706Y320601D01*
X891974Y321603D01*
X892308Y322586D01*
X892705Y323545D01*
X893164Y324476D01*
X893683Y325374D01*
X894259Y326237D01*
X894891Y327061D01*
X895575Y327841D01*
X896309Y328575D01*
X897089Y329259D01*
X897913Y329891D01*
X898776Y330467D01*
X899674Y330986D01*
X900605Y331445D01*
X901564Y331842D01*
X902547Y332176D01*
X903549Y332444D01*
X904567Y332647D01*
X905596Y332782D01*
X906631Y332850D01*
X907669Y332850D01*
X908704Y332782D01*
X909733Y332647D01*
X910751Y332444D01*
X911753Y332176D01*
X912736Y331842D01*
X913695Y331445D01*
X914626Y330986D01*
X915524Y330467D01*
X916387Y329891D01*
X917211Y329259D01*
X917991Y328575D01*
X918725Y327841D01*
X919409Y327061D01*
X920041Y326237D01*
X920617Y325374D01*
X921136Y324476D01*
X921595Y323545D01*
X921992Y322586D01*
X922326Y321603D01*
X922594Y320601D01*
X922797Y319583D01*
X922932Y318554D01*
X923000Y317519D01*
X923000Y316481D01*
X808700Y316481D02*
X808632Y315446D01*
X808497Y314417D01*
X808294Y313399D01*
X808026Y312397D01*
X807692Y311414D01*
X807295Y310455D01*
X806836Y309524D01*
X806317Y308626D01*
X805741Y307763D01*
X805109Y306939D01*
X804425Y306159D01*
X803691Y305425D01*
X802911Y304741D01*
X802087Y304109D01*
X801224Y303533D01*
X800326Y303014D01*
X799395Y302555D01*
X798436Y302158D01*
X797453Y301824D01*
X796451Y301556D01*
X795433Y301353D01*
X794404Y301218D01*
X793369Y301150D01*
X792331Y301150D01*
X791296Y301218D01*
X790267Y301353D01*
X789249Y301556D01*
X788247Y301824D01*
X787264Y302158D01*
X786305Y302555D01*
X785374Y303014D01*
X784476Y303533D01*
X783613Y304109D01*
X782789Y304741D01*
X782009Y305425D01*
X781275Y306159D01*
X780591Y306939D01*
X779959Y307763D01*
X779383Y308626D01*
X778864Y309524D01*
X778405Y310455D01*
X778008Y311414D01*
X777674Y312397D01*
X777406Y313399D01*
X777203Y314417D01*
X777068Y315446D01*
X777000Y316481D01*
X777000Y317519D01*
X777068Y318554D01*
X777203Y319583D01*
X777406Y320601D01*
X777674Y321603D01*
X778008Y322586D01*
X778405Y323545D01*
X778864Y324476D01*
X779383Y325374D01*
X779959Y326237D01*
X780591Y327061D01*
X781275Y327841D01*
X782009Y328575D01*
X782789Y329259D01*
X783613Y329891D01*
X784476Y330467D01*
X785374Y330986D01*
X786305Y331445D01*
X787264Y331842D01*
X788247Y332176D01*
X789249Y332444D01*
X790267Y332647D01*
X791296Y332782D01*
X792331Y332850D01*
X793369Y332850D01*
X794404Y332782D01*
X795433Y332647D01*
X796451Y332444D01*
X797453Y332176D01*
X798436Y331842D01*
X799395Y331445D01*
X800326Y330986D01*
X801224Y330467D01*
X802087Y329891D01*
X802911Y329259D01*
X803691Y328575D01*
X804425Y327841D01*
X805109Y327061D01*
X805741Y326237D01*
X806317Y325374D01*
X806836Y324476D01*
X807295Y323545D01*
X807692Y322586D01*
X808026Y321603D01*
X808294Y320601D01*
X808497Y319583D01*
X808632Y318554D01*
X808700Y317519D01*
X808700Y316481D01*
X923000Y516481D02*
X922932Y515446D01*
X922797Y514417D01*
X922594Y513399D01*
X922326Y512397D01*
X921992Y511414D01*
X921595Y510455D01*
X921136Y509524D01*
X920617Y508626D01*
X920041Y507763D01*
X919409Y506939D01*
X918725Y506159D01*
X917991Y505425D01*
X917211Y504741D01*
X916387Y504109D01*
X915524Y503533D01*
X914626Y503014D01*
X913695Y502555D01*
X912736Y502158D01*
X911753Y501824D01*
X910751Y501556D01*
X909733Y501353D01*
X908704Y501218D01*
X907669Y501150D01*
X906631Y501150D01*
X905596Y501218D01*
X904567Y501353D01*
X903549Y501556D01*
X902547Y501824D01*
X901564Y502158D01*
X900605Y502555D01*
X899674Y503014D01*
X898776Y503533D01*
X897913Y504109D01*
X897089Y504741D01*
X896309Y505425D01*
X895575Y506159D01*
X894891Y506939D01*
X894259Y507763D01*
X893683Y508626D01*
X893164Y509524D01*
X892705Y510455D01*
X892308Y511414D01*
X891974Y512397D01*
X891706Y513399D01*
X891503Y514417D01*
X891368Y515446D01*
X891300Y516481D01*
X891300Y517519D01*
X891368Y518554D01*
X891503Y519583D01*
X891706Y520601D01*
X891974Y521603D01*
X892308Y522586D01*
X892705Y523545D01*
X893164Y524476D01*
X893683Y525374D01*
X894259Y526237D01*
X894891Y527061D01*
X895575Y527841D01*
X896309Y528575D01*
X897089Y529259D01*
X897913Y529891D01*
X898776Y530467D01*
X899674Y530986D01*
X900605Y531445D01*
X901564Y531842D01*
X902547Y532176D01*
X903549Y532444D01*
X904567Y532647D01*
X905596Y532782D01*
X906631Y532850D01*
X907669Y532850D01*
X908704Y532782D01*
X909733Y532647D01*
X910751Y532444D01*
X911753Y532176D01*
X912736Y531842D01*
X913695Y531445D01*
X914626Y530986D01*
X915524Y530467D01*
X916387Y529891D01*
X917211Y529259D01*
X917991Y528575D01*
X918725Y527841D01*
X919409Y527061D01*
X920041Y526237D01*
X920617Y525374D01*
X921136Y524476D01*
X921595Y523545D01*
X921992Y522586D01*
X922326Y521603D01*
X922594Y520601D01*
X922797Y519583D01*
X922932Y518554D01*
X923000Y517519D01*
X923000Y516481D01*
X808700Y516481D02*
X808632Y515446D01*
X808497Y514417D01*
X808294Y513399D01*
X808026Y512397D01*
X807692Y511414D01*
X807295Y510455D01*
X806836Y509524D01*
X806317Y508626D01*
X805741Y507763D01*
X805109Y506939D01*
X804425Y506159D01*
X803691Y505425D01*
X802911Y504741D01*
X802087Y504109D01*
X801224Y503533D01*
X800326Y503014D01*
X799395Y502555D01*
X798436Y502158D01*
X797453Y501824D01*
X796451Y501556D01*
X795433Y501353D01*
X794404Y501218D01*
X793369Y501150D01*
X792331Y501150D01*
X791296Y501218D01*
X790267Y501353D01*
X789249Y501556D01*
X788247Y501824D01*
X787264Y502158D01*
X786305Y502555D01*
X785374Y503014D01*
X784476Y503533D01*
X783613Y504109D01*
X782789Y504741D01*
X782009Y505425D01*
X781275Y506159D01*
X780591Y506939D01*
X779959Y507763D01*
X779383Y508626D01*
X778864Y509524D01*
X778405Y510455D01*
X778008Y511414D01*
X777674Y512397D01*
X777406Y513399D01*
X777203Y514417D01*
X777068Y515446D01*
X777000Y516481D01*
X777000Y517519D01*
X777068Y518554D01*
X777203Y519583D01*
X777406Y520601D01*
X777674Y521603D01*
X778008Y522586D01*
X778405Y523545D01*
X778864Y524476D01*
X779383Y525374D01*
X779959Y526237D01*
X780591Y527061D01*
X781275Y527841D01*
X782009Y528575D01*
X782789Y529259D01*
X783613Y529891D01*
X784476Y530467D01*
X785374Y530986D01*
X786305Y531445D01*
X787264Y531842D01*
X788247Y532176D01*
X789249Y532444D01*
X790267Y532647D01*
X791296Y532782D01*
X792331Y532850D01*
X793369Y532850D01*
X794404Y532782D01*
X795433Y532647D01*
X796451Y532444D01*
X797453Y532176D01*
X798436Y531842D01*
X799395Y531445D01*
X800326Y530986D01*
X801224Y530467D01*
X802087Y529891D01*
X802911Y529259D01*
X803691Y528575D01*
X804425Y527841D01*
X805109Y527061D01*
X805741Y526237D01*
X806317Y525374D01*
X806836Y524476D01*
X807295Y523545D01*
X807692Y522586D01*
X808026Y521603D01*
X808294Y520601D01*
X808497Y519583D01*
X808632Y518554D01*
X808700Y517519D01*
X808700Y516481D01*
X923000Y716481D02*
X922932Y715446D01*
X922797Y714417D01*
X922594Y713399D01*
X922326Y712397D01*
X921992Y711414D01*
X921595Y710455D01*
X921136Y709524D01*
X920617Y708626D01*
X920041Y707763D01*
X919409Y706939D01*
X918725Y706159D01*
X917991Y705425D01*
X917211Y704741D01*
X916387Y704109D01*
X915524Y703533D01*
X914626Y703014D01*
X913695Y702555D01*
X912736Y702158D01*
X911753Y701824D01*
X910751Y701556D01*
X909733Y701353D01*
X908704Y701218D01*
X907669Y701150D01*
X906631Y701150D01*
X905596Y701218D01*
X904567Y701353D01*
X903549Y701556D01*
X902547Y701824D01*
X901564Y702158D01*
X900605Y702555D01*
X899674Y703014D01*
X898776Y703533D01*
X897913Y704109D01*
X897089Y704741D01*
X896309Y705425D01*
X895575Y706159D01*
X894891Y706939D01*
X894259Y707763D01*
X893683Y708626D01*
X893164Y709524D01*
X892705Y710455D01*
X892308Y711414D01*
X891974Y712397D01*
X891706Y713399D01*
X891503Y714417D01*
X891368Y715446D01*
X891300Y716481D01*
X891300Y717519D01*
X891368Y718554D01*
X891503Y719583D01*
X891706Y720601D01*
X891974Y721603D01*
X892308Y722586D01*
X892705Y723545D01*
X893164Y724476D01*
X893683Y725374D01*
X894259Y726237D01*
X894891Y727061D01*
X895575Y727841D01*
X896309Y728575D01*
X897089Y729259D01*
X897913Y729891D01*
X898776Y730467D01*
X899674Y730986D01*
X900605Y731445D01*
X901564Y731842D01*
X902547Y732176D01*
X903549Y732444D01*
X904567Y732647D01*
X905596Y732782D01*
X906631Y732850D01*
X907669Y732850D01*
X908704Y732782D01*
X909733Y732647D01*
X910751Y732444D01*
X911753Y732176D01*
X912736Y731842D01*
X913695Y731445D01*
X914626Y730986D01*
X915524Y730467D01*
X916387Y729891D01*
X917211Y729259D01*
X917991Y728575D01*
X918725Y727841D01*
X919409Y727061D01*
X920041Y726237D01*
X920617Y725374D01*
X921136Y724476D01*
X921595Y723545D01*
X921992Y722586D01*
X922326Y721603D01*
X922594Y720601D01*
X922797Y719583D01*
X922932Y718554D01*
X923000Y717519D01*
X923000Y716481D01*
X808700Y716481D02*
X808632Y715446D01*
X808497Y714417D01*
X808294Y713399D01*
X808026Y712397D01*
X807692Y711414D01*
X807295Y710455D01*
X806836Y709524D01*
X806317Y708626D01*
X805741Y707763D01*
X805109Y706939D01*
X804425Y706159D01*
X803691Y705425D01*
X802911Y704741D01*
X802087Y704109D01*
X801224Y703533D01*
X800326Y703014D01*
X799395Y702555D01*
X798436Y702158D01*
X797453Y701824D01*
X796451Y701556D01*
X795433Y701353D01*
X794404Y701218D01*
X793369Y701150D01*
X792331Y701150D01*
X791296Y701218D01*
X790267Y701353D01*
X789249Y701556D01*
X788247Y701824D01*
X787264Y702158D01*
X786305Y702555D01*
X785374Y703014D01*
X784476Y703533D01*
X783613Y704109D01*
X782789Y704741D01*
X782009Y705425D01*
X781275Y706159D01*
X780591Y706939D01*
X779959Y707763D01*
X779383Y708626D01*
X778864Y709524D01*
X778405Y710455D01*
X778008Y711414D01*
X777674Y712397D01*
X777406Y713399D01*
X777203Y714417D01*
X777068Y715446D01*
X777000Y716481D01*
X777000Y717519D01*
X777068Y718554D01*
X777203Y719583D01*
X777406Y720601D01*
X777674Y721603D01*
X778008Y722586D01*
X778405Y723545D01*
X778864Y724476D01*
X779383Y725374D01*
X779959Y726237D01*
X780591Y727061D01*
X781275Y727841D01*
X782009Y728575D01*
X782789Y729259D01*
X783613Y729891D01*
X784476Y730467D01*
X785374Y730986D01*
X786305Y731445D01*
X787264Y731842D01*
X788247Y732176D01*
X789249Y732444D01*
X790267Y732647D01*
X791296Y732782D01*
X792331Y732850D01*
X793369Y732850D01*
X794404Y732782D01*
X795433Y732647D01*
X796451Y732444D01*
X797453Y732176D01*
X798436Y731842D01*
X799395Y731445D01*
X800326Y730986D01*
X801224Y730467D01*
X802087Y729891D01*
X802911Y729259D01*
X803691Y728575D01*
X804425Y727841D01*
X805109Y727061D01*
X805741Y726237D01*
X806317Y725374D01*
X806836Y724476D01*
X807295Y723545D01*
X807692Y722586D01*
X808026Y721603D01*
X808294Y720601D01*
X808497Y719583D01*
X808632Y718554D01*
X808700Y717519D01*
X808700Y716481D01*
X923000Y916481D02*
X922932Y915446D01*
X922797Y914417D01*
X922594Y913399D01*
X922326Y912397D01*
X921992Y911414D01*
X921595Y910455D01*
X921136Y909524D01*
X920617Y908626D01*
X920041Y907763D01*
X919409Y906939D01*
X918725Y906159D01*
X917991Y905425D01*
X917211Y904741D01*
X916387Y904109D01*
X915524Y903533D01*
X914626Y903014D01*
X913695Y902555D01*
X912736Y902158D01*
X911753Y901824D01*
X910751Y901556D01*
X909733Y901353D01*
X908704Y901218D01*
X907669Y901150D01*
X906631Y901150D01*
X905596Y901218D01*
X904567Y901353D01*
X903549Y901556D01*
X902547Y901824D01*
X901564Y902158D01*
X900605Y902555D01*
X899674Y903014D01*
X898776Y903533D01*
X897913Y904109D01*
X897089Y904741D01*
X896309Y905425D01*
X895575Y906159D01*
X894891Y906939D01*
X894259Y907763D01*
X893683Y908626D01*
X893164Y909524D01*
X892705Y910455D01*
X892308Y911414D01*
X891974Y912397D01*
X891706Y913399D01*
X891503Y914417D01*
X891368Y915446D01*
X891300Y916481D01*
X891300Y917519D01*
X891368Y918554D01*
X891503Y919583D01*
X891706Y920601D01*
X891974Y921603D01*
X892308Y922586D01*
X892705Y923545D01*
X893164Y924476D01*
X893683Y925374D01*
X894259Y926237D01*
X894891Y927061D01*
X895575Y927841D01*
X896309Y928575D01*
X897089Y929259D01*
X897913Y929891D01*
X898776Y930467D01*
X899674Y930986D01*
X900605Y931445D01*
X901564Y931842D01*
X902547Y932176D01*
X903549Y932444D01*
X904567Y932647D01*
X905596Y932782D01*
X906631Y932850D01*
X907669Y932850D01*
X908704Y932782D01*
X909733Y932647D01*
X910751Y932444D01*
X911753Y932176D01*
X912736Y931842D01*
X913695Y931445D01*
X914626Y930986D01*
X915524Y930467D01*
X916387Y929891D01*
X917211Y929259D01*
X917991Y928575D01*
X918725Y927841D01*
X919409Y927061D01*
X920041Y926237D01*
X920617Y925374D01*
X921136Y924476D01*
X921595Y923545D01*
X921992Y922586D01*
X922326Y921603D01*
X922594Y920601D01*
X922797Y919583D01*
X922932Y918554D01*
X923000Y917519D01*
X923000Y916481D01*
X808700Y916481D02*
X808632Y915446D01*
X808497Y914417D01*
X808294Y913399D01*
X808026Y912397D01*
X807692Y911414D01*
X807295Y910455D01*
X806836Y909524D01*
X806317Y908626D01*
X805741Y907763D01*
X805109Y906939D01*
X804425Y906159D01*
X803691Y905425D01*
X802911Y904741D01*
X802087Y904109D01*
X801224Y903533D01*
X800326Y903014D01*
X799395Y902555D01*
X798436Y902158D01*
X797453Y901824D01*
X796451Y901556D01*
X795433Y901353D01*
X794404Y901218D01*
X793369Y901150D01*
X792331Y901150D01*
X791296Y901218D01*
X790267Y901353D01*
X789249Y901556D01*
X788247Y901824D01*
X787264Y902158D01*
X786305Y902555D01*
X785374Y903014D01*
X784476Y903533D01*
X783613Y904109D01*
X782789Y904741D01*
X782009Y905425D01*
X781275Y906159D01*
X780591Y906939D01*
X779959Y907763D01*
X779383Y908626D01*
X778864Y909524D01*
X778405Y910455D01*
X778008Y911414D01*
X777674Y912397D01*
X777406Y913399D01*
X777203Y914417D01*
X777068Y915446D01*
X777000Y916481D01*
X777000Y917519D01*
X777068Y918554D01*
X777203Y919583D01*
X777406Y920601D01*
X777674Y921603D01*
X778008Y922586D01*
X778405Y923545D01*
X778864Y924476D01*
X779383Y925374D01*
X779959Y926237D01*
X780591Y927061D01*
X781275Y927841D01*
X782009Y928575D01*
X782789Y929259D01*
X783613Y929891D01*
X784476Y930467D01*
X785374Y930986D01*
X786305Y931445D01*
X787264Y931842D01*
X788247Y932176D01*
X789249Y932444D01*
X790267Y932647D01*
X791296Y932782D01*
X792331Y932850D01*
X793369Y932850D01*
X794404Y932782D01*
X795433Y932647D01*
X796451Y932444D01*
X797453Y932176D01*
X798436Y931842D01*
X799395Y931445D01*
X800326Y930986D01*
X801224Y930467D01*
X802087Y929891D01*
X802911Y929259D01*
X803691Y928575D01*
X804425Y927841D01*
X805109Y927061D01*
X805741Y926237D01*
X806317Y925374D01*
X806836Y924476D01*
X807295Y923545D01*
X807692Y922586D01*
X808026Y921603D01*
X808294Y920601D01*
X808497Y919583D01*
X808632Y918554D01*
X808700Y917519D01*
X808700Y916481D01*
M02*
