G04 EAGLE Gerber RS-274X export*
G75*
%MOMM*%
%FSLAX34Y34*%
%LPD*%
%INSilkscreen Top*%
%IPPOS*%
%AMOC8*
5,1,8,0,0,1.08239X$1,22.5*%
G01*
%ADD10C,0.762000*%
%ADD11C,1.500000*%
%ADD12C,0.177800*%
%ADD13C,0.406400*%
%ADD14C,0.200000*%


D10*
X135873Y148810D02*
X150000Y191190D01*
X164127Y148810D01*
X160595Y159405D02*
X139405Y159405D01*
X368228Y172354D02*
X380000Y172354D01*
X380287Y172351D01*
X380573Y172340D01*
X380859Y172323D01*
X381145Y172298D01*
X381430Y172267D01*
X381714Y172229D01*
X381997Y172183D01*
X382279Y172131D01*
X382560Y172072D01*
X382839Y172007D01*
X383116Y171934D01*
X383392Y171855D01*
X383665Y171769D01*
X383936Y171676D01*
X384205Y171577D01*
X384472Y171472D01*
X384736Y171359D01*
X384997Y171241D01*
X385255Y171116D01*
X385510Y170985D01*
X385761Y170848D01*
X386010Y170704D01*
X386254Y170555D01*
X386495Y170400D01*
X386733Y170239D01*
X386966Y170072D01*
X387195Y169899D01*
X387419Y169722D01*
X387640Y169538D01*
X387856Y169349D01*
X388067Y169156D01*
X388273Y168957D01*
X388475Y168753D01*
X388671Y168544D01*
X388862Y168330D01*
X389049Y168112D01*
X389229Y167890D01*
X389404Y167663D01*
X389574Y167432D01*
X389738Y167196D01*
X389896Y166957D01*
X390048Y166715D01*
X390195Y166468D01*
X390335Y166218D01*
X390469Y165965D01*
X390597Y165708D01*
X390719Y165449D01*
X390834Y165186D01*
X390943Y164921D01*
X391046Y164653D01*
X391141Y164383D01*
X391231Y164111D01*
X391313Y163836D01*
X391389Y163560D01*
X391458Y163281D01*
X391521Y163001D01*
X391576Y162720D01*
X391625Y162438D01*
X391667Y162154D01*
X391701Y161870D01*
X391729Y161584D01*
X391750Y161298D01*
X391764Y161012D01*
X391771Y160725D01*
X391771Y160439D01*
X391764Y160152D01*
X391750Y159866D01*
X391729Y159580D01*
X391701Y159294D01*
X391667Y159010D01*
X391625Y158726D01*
X391576Y158444D01*
X391521Y158163D01*
X391458Y157883D01*
X391389Y157604D01*
X391313Y157328D01*
X391231Y157053D01*
X391141Y156781D01*
X391046Y156511D01*
X390943Y156243D01*
X390834Y155978D01*
X390719Y155715D01*
X390597Y155456D01*
X390469Y155199D01*
X390335Y154946D01*
X390195Y154696D01*
X390048Y154449D01*
X389896Y154207D01*
X389738Y153968D01*
X389574Y153732D01*
X389404Y153501D01*
X389229Y153274D01*
X389049Y153052D01*
X388862Y152834D01*
X388671Y152620D01*
X388475Y152411D01*
X388273Y152207D01*
X388067Y152008D01*
X387856Y151815D01*
X387640Y151626D01*
X387419Y151442D01*
X387195Y151265D01*
X386966Y151092D01*
X386733Y150925D01*
X386495Y150764D01*
X386254Y150609D01*
X386010Y150460D01*
X385761Y150316D01*
X385510Y150179D01*
X385255Y150048D01*
X384997Y149923D01*
X384736Y149805D01*
X384472Y149692D01*
X384205Y149587D01*
X383936Y149488D01*
X383665Y149395D01*
X383392Y149309D01*
X383116Y149230D01*
X382839Y149157D01*
X382560Y149092D01*
X382279Y149033D01*
X381997Y148981D01*
X381714Y148935D01*
X381430Y148897D01*
X381145Y148866D01*
X380859Y148841D01*
X380573Y148824D01*
X380287Y148813D01*
X380000Y148810D01*
X368228Y148810D01*
X368228Y191190D01*
X380000Y191190D01*
X380229Y191187D01*
X380459Y191179D01*
X380687Y191165D01*
X380916Y191145D01*
X381144Y191120D01*
X381371Y191090D01*
X381598Y191053D01*
X381823Y191012D01*
X382048Y190965D01*
X382271Y190912D01*
X382493Y190854D01*
X382713Y190791D01*
X382932Y190722D01*
X383149Y190648D01*
X383364Y190569D01*
X383578Y190484D01*
X383789Y190394D01*
X383998Y190300D01*
X384204Y190200D01*
X384408Y190095D01*
X384609Y189985D01*
X384808Y189870D01*
X385004Y189751D01*
X385197Y189627D01*
X385386Y189498D01*
X385573Y189364D01*
X385756Y189226D01*
X385936Y189084D01*
X386112Y188937D01*
X386285Y188786D01*
X386454Y188631D01*
X386619Y188472D01*
X386780Y188309D01*
X386937Y188142D01*
X387090Y187971D01*
X387239Y187796D01*
X387384Y187618D01*
X387524Y187437D01*
X387660Y187252D01*
X387791Y187064D01*
X387917Y186873D01*
X388039Y186678D01*
X388156Y186481D01*
X388268Y186281D01*
X388376Y186078D01*
X388478Y185873D01*
X388576Y185665D01*
X388668Y185455D01*
X388755Y185243D01*
X388837Y185029D01*
X388914Y184813D01*
X388985Y184595D01*
X389051Y184375D01*
X389112Y184154D01*
X389167Y183932D01*
X389217Y183708D01*
X389261Y183483D01*
X389300Y183257D01*
X389334Y183030D01*
X389362Y182802D01*
X389384Y182574D01*
X389401Y182345D01*
X389412Y182116D01*
X389417Y181887D01*
X389417Y181657D01*
X389412Y181428D01*
X389401Y181199D01*
X389384Y180970D01*
X389362Y180742D01*
X389334Y180514D01*
X389300Y180287D01*
X389261Y180061D01*
X389217Y179836D01*
X389167Y179612D01*
X389112Y179390D01*
X389051Y179169D01*
X388985Y178949D01*
X388914Y178731D01*
X388837Y178515D01*
X388755Y178301D01*
X388668Y178089D01*
X388576Y177879D01*
X388478Y177671D01*
X388376Y177466D01*
X388268Y177263D01*
X388156Y177063D01*
X388039Y176866D01*
X387917Y176671D01*
X387791Y176480D01*
X387660Y176292D01*
X387524Y176107D01*
X387384Y175926D01*
X387239Y175748D01*
X387090Y175573D01*
X386937Y175402D01*
X386780Y175235D01*
X386619Y175072D01*
X386454Y174913D01*
X386285Y174758D01*
X386112Y174607D01*
X385936Y174460D01*
X385756Y174318D01*
X385573Y174180D01*
X385386Y174046D01*
X385197Y173917D01*
X385004Y173793D01*
X384808Y173674D01*
X384609Y173559D01*
X384408Y173449D01*
X384204Y173344D01*
X383998Y173244D01*
X383789Y173150D01*
X383578Y173060D01*
X383364Y172975D01*
X383149Y172896D01*
X382932Y172822D01*
X382713Y172753D01*
X382493Y172690D01*
X382271Y172632D01*
X382048Y172579D01*
X381823Y172532D01*
X381598Y172491D01*
X381371Y172454D01*
X381144Y172424D01*
X380916Y172399D01*
X380687Y172379D01*
X380459Y172365D01*
X380229Y172357D01*
X380000Y172354D01*
X620000Y148810D02*
X629418Y148810D01*
X620000Y148810D02*
X619772Y148813D01*
X619545Y148821D01*
X619318Y148835D01*
X619091Y148854D01*
X618865Y148879D01*
X618639Y148909D01*
X618414Y148944D01*
X618191Y148985D01*
X617968Y149032D01*
X617746Y149084D01*
X617526Y149141D01*
X617307Y149203D01*
X617090Y149271D01*
X616874Y149344D01*
X616660Y149422D01*
X616449Y149505D01*
X616239Y149594D01*
X616031Y149687D01*
X615826Y149785D01*
X615623Y149889D01*
X615423Y149997D01*
X615225Y150110D01*
X615031Y150228D01*
X614839Y150350D01*
X614650Y150477D01*
X614464Y150609D01*
X614282Y150745D01*
X614103Y150885D01*
X613927Y151030D01*
X613755Y151179D01*
X613586Y151331D01*
X613421Y151488D01*
X613260Y151649D01*
X613103Y151814D01*
X612951Y151983D01*
X612802Y152155D01*
X612657Y152331D01*
X612517Y152510D01*
X612381Y152692D01*
X612249Y152878D01*
X612122Y153067D01*
X612000Y153259D01*
X611882Y153453D01*
X611769Y153651D01*
X611661Y153851D01*
X611557Y154054D01*
X611459Y154259D01*
X611366Y154467D01*
X611277Y154677D01*
X611194Y154888D01*
X611116Y155102D01*
X611043Y155318D01*
X610975Y155535D01*
X610913Y155754D01*
X610856Y155974D01*
X610804Y156196D01*
X610757Y156419D01*
X610716Y156642D01*
X610681Y156867D01*
X610651Y157093D01*
X610626Y157319D01*
X610607Y157546D01*
X610593Y157773D01*
X610585Y158000D01*
X610582Y158228D01*
X610582Y181772D01*
X610585Y182003D01*
X610593Y182234D01*
X610608Y182465D01*
X610627Y182695D01*
X610653Y182925D01*
X610684Y183154D01*
X610721Y183382D01*
X610763Y183609D01*
X610811Y183835D01*
X610864Y184060D01*
X610923Y184284D01*
X610988Y184506D01*
X611057Y184726D01*
X611133Y184945D01*
X611213Y185161D01*
X611299Y185376D01*
X611390Y185589D01*
X611486Y185799D01*
X611588Y186006D01*
X611694Y186212D01*
X611806Y186414D01*
X611922Y186614D01*
X612043Y186811D01*
X612169Y187004D01*
X612300Y187195D01*
X612435Y187382D01*
X612575Y187566D01*
X612720Y187747D01*
X612869Y187924D01*
X613022Y188097D01*
X613179Y188266D01*
X613340Y188432D01*
X613506Y188593D01*
X613675Y188750D01*
X613848Y188903D01*
X614025Y189052D01*
X614206Y189197D01*
X614390Y189337D01*
X614577Y189472D01*
X614768Y189603D01*
X614961Y189729D01*
X615158Y189850D01*
X615358Y189966D01*
X615560Y190078D01*
X615766Y190184D01*
X615973Y190286D01*
X616183Y190382D01*
X616396Y190473D01*
X616610Y190559D01*
X616827Y190639D01*
X617046Y190715D01*
X617266Y190784D01*
X617488Y190849D01*
X617712Y190908D01*
X617936Y190961D01*
X618163Y191009D01*
X618390Y191051D01*
X618618Y191088D01*
X618847Y191119D01*
X619077Y191145D01*
X619307Y191164D01*
X619538Y191179D01*
X619769Y191187D01*
X620000Y191190D01*
X629418Y191190D01*
X838228Y191190D02*
X838228Y148810D01*
X838228Y191190D02*
X850000Y191190D01*
X850284Y191187D01*
X850569Y191176D01*
X850853Y191159D01*
X851136Y191135D01*
X851419Y191104D01*
X851701Y191066D01*
X851982Y191022D01*
X852262Y190971D01*
X852540Y190913D01*
X852817Y190848D01*
X853093Y190777D01*
X853366Y190698D01*
X853638Y190614D01*
X853907Y190523D01*
X854174Y190425D01*
X854439Y190321D01*
X854701Y190210D01*
X854961Y190094D01*
X855217Y189971D01*
X855471Y189842D01*
X855721Y189706D01*
X855968Y189565D01*
X856211Y189418D01*
X856451Y189265D01*
X856687Y189106D01*
X856919Y188942D01*
X857148Y188772D01*
X857371Y188596D01*
X857591Y188416D01*
X857806Y188229D01*
X858017Y188038D01*
X858223Y187842D01*
X858424Y187641D01*
X858620Y187435D01*
X858811Y187224D01*
X858998Y187009D01*
X859178Y186789D01*
X859354Y186566D01*
X859524Y186337D01*
X859688Y186105D01*
X859847Y185869D01*
X860000Y185629D01*
X860147Y185386D01*
X860288Y185139D01*
X860424Y184889D01*
X860553Y184635D01*
X860676Y184379D01*
X860792Y184119D01*
X860903Y183857D01*
X861007Y183592D01*
X861105Y183325D01*
X861196Y183056D01*
X861280Y182784D01*
X861359Y182511D01*
X861430Y182235D01*
X861495Y181958D01*
X861553Y181680D01*
X861604Y181400D01*
X861648Y181119D01*
X861686Y180837D01*
X861717Y180554D01*
X861741Y180271D01*
X861758Y179987D01*
X861769Y179702D01*
X861772Y179418D01*
X861772Y160582D01*
X861768Y160293D01*
X861758Y160004D01*
X861740Y159716D01*
X861715Y159428D01*
X861683Y159141D01*
X861645Y158855D01*
X861599Y158569D01*
X861546Y158285D01*
X861486Y158003D01*
X861419Y157722D01*
X861346Y157442D01*
X861265Y157165D01*
X861178Y156889D01*
X861084Y156616D01*
X860983Y156345D01*
X860876Y156077D01*
X860762Y155812D01*
X860642Y155549D01*
X860515Y155289D01*
X860382Y155033D01*
X860243Y154780D01*
X860097Y154530D01*
X859946Y154284D01*
X859788Y154042D01*
X859625Y153804D01*
X859455Y153569D01*
X859280Y153340D01*
X859100Y153114D01*
X858914Y152893D01*
X858722Y152676D01*
X858526Y152465D01*
X858324Y152258D01*
X858117Y152056D01*
X857906Y151860D01*
X857689Y151668D01*
X857468Y151482D01*
X857243Y151302D01*
X857013Y151127D01*
X856778Y150957D01*
X856540Y150794D01*
X856298Y150636D01*
X856052Y150485D01*
X855802Y150339D01*
X855549Y150200D01*
X855293Y150067D01*
X855033Y149940D01*
X854771Y149820D01*
X854505Y149706D01*
X854237Y149599D01*
X853966Y149498D01*
X853693Y149404D01*
X853417Y149317D01*
X853140Y149236D01*
X852860Y149163D01*
X852579Y149096D01*
X852297Y149036D01*
X852013Y148983D01*
X851727Y148937D01*
X851441Y148899D01*
X851154Y148867D01*
X850866Y148842D01*
X850578Y148824D01*
X850289Y148814D01*
X850000Y148810D01*
X838228Y148810D01*
X40000Y321190D02*
X28228Y311772D01*
X40000Y321190D02*
X40000Y278810D01*
X28228Y278810D02*
X51772Y278810D01*
X51772Y450595D02*
X51769Y450851D01*
X51760Y451107D01*
X51744Y451362D01*
X51723Y451618D01*
X51695Y451872D01*
X51661Y452126D01*
X51621Y452379D01*
X51575Y452631D01*
X51522Y452881D01*
X51464Y453131D01*
X51400Y453378D01*
X51330Y453625D01*
X51253Y453869D01*
X51171Y454112D01*
X51083Y454352D01*
X50990Y454590D01*
X50890Y454826D01*
X50785Y455060D01*
X50675Y455291D01*
X50558Y455519D01*
X50437Y455744D01*
X50310Y455966D01*
X50177Y456185D01*
X50039Y456401D01*
X49897Y456614D01*
X49749Y456823D01*
X49596Y457028D01*
X49438Y457229D01*
X49275Y457427D01*
X49107Y457621D01*
X48935Y457810D01*
X48759Y457996D01*
X48578Y458177D01*
X48392Y458353D01*
X48203Y458525D01*
X48009Y458693D01*
X47811Y458856D01*
X47610Y459014D01*
X47405Y459167D01*
X47196Y459315D01*
X46983Y459457D01*
X46767Y459595D01*
X46548Y459728D01*
X46326Y459855D01*
X46101Y459976D01*
X45873Y460093D01*
X45642Y460203D01*
X45408Y460308D01*
X45172Y460408D01*
X44934Y460501D01*
X44694Y460589D01*
X44451Y460671D01*
X44207Y460748D01*
X43960Y460818D01*
X43713Y460882D01*
X43463Y460940D01*
X43213Y460993D01*
X42961Y461039D01*
X42708Y461079D01*
X42454Y461113D01*
X42200Y461141D01*
X41944Y461162D01*
X41689Y461178D01*
X41433Y461187D01*
X41177Y461190D01*
X40848Y461186D01*
X40519Y461174D01*
X40190Y461154D01*
X39862Y461126D01*
X39535Y461091D01*
X39209Y461047D01*
X38884Y460995D01*
X38560Y460936D01*
X38238Y460869D01*
X37917Y460794D01*
X37598Y460711D01*
X37282Y460621D01*
X36968Y460523D01*
X36656Y460417D01*
X36347Y460304D01*
X36040Y460184D01*
X35737Y460056D01*
X35437Y459920D01*
X35140Y459778D01*
X34847Y459629D01*
X34557Y459472D01*
X34272Y459308D01*
X33990Y459138D01*
X33712Y458961D01*
X33439Y458777D01*
X33171Y458587D01*
X32907Y458390D01*
X32648Y458187D01*
X32394Y457977D01*
X32145Y457762D01*
X31901Y457540D01*
X31663Y457313D01*
X31430Y457080D01*
X31204Y456842D01*
X30982Y456598D01*
X30767Y456349D01*
X30558Y456094D01*
X30355Y455835D01*
X30159Y455571D01*
X29969Y455302D01*
X29785Y455029D01*
X29608Y454751D01*
X29438Y454469D01*
X29275Y454184D01*
X29119Y453894D01*
X28970Y453600D01*
X28828Y453303D01*
X28693Y453003D01*
X28565Y452700D01*
X28445Y452393D01*
X28332Y452084D01*
X28227Y451772D01*
X48240Y442354D02*
X48440Y442549D01*
X48635Y442749D01*
X48825Y442954D01*
X49010Y443163D01*
X49190Y443377D01*
X49364Y443595D01*
X49533Y443817D01*
X49697Y444043D01*
X49855Y444274D01*
X50007Y444508D01*
X50154Y444746D01*
X50294Y444987D01*
X50429Y445231D01*
X50557Y445479D01*
X50680Y445730D01*
X50796Y445984D01*
X50906Y446241D01*
X51010Y446500D01*
X51107Y446762D01*
X51198Y447026D01*
X51282Y447292D01*
X51360Y447560D01*
X51431Y447830D01*
X51496Y448102D01*
X51553Y448375D01*
X51605Y448650D01*
X51649Y448926D01*
X51686Y449202D01*
X51717Y449480D01*
X51741Y449758D01*
X51758Y450037D01*
X51769Y450316D01*
X51772Y450595D01*
X48241Y442354D02*
X28228Y418810D01*
X51772Y418810D01*
X40000Y678810D02*
X28228Y678810D01*
X40000Y678810D02*
X40287Y678813D01*
X40573Y678824D01*
X40859Y678841D01*
X41145Y678866D01*
X41430Y678897D01*
X41714Y678935D01*
X41997Y678981D01*
X42279Y679033D01*
X42560Y679092D01*
X42839Y679157D01*
X43116Y679230D01*
X43392Y679309D01*
X43665Y679395D01*
X43936Y679488D01*
X44205Y679587D01*
X44472Y679692D01*
X44736Y679805D01*
X44997Y679923D01*
X45255Y680048D01*
X45510Y680179D01*
X45761Y680316D01*
X46010Y680460D01*
X46254Y680609D01*
X46495Y680764D01*
X46733Y680925D01*
X46966Y681092D01*
X47195Y681265D01*
X47419Y681442D01*
X47640Y681626D01*
X47856Y681815D01*
X48067Y682008D01*
X48273Y682207D01*
X48475Y682411D01*
X48671Y682620D01*
X48862Y682834D01*
X49049Y683052D01*
X49229Y683274D01*
X49404Y683501D01*
X49574Y683732D01*
X49738Y683968D01*
X49896Y684207D01*
X50048Y684449D01*
X50195Y684696D01*
X50335Y684946D01*
X50469Y685199D01*
X50597Y685456D01*
X50719Y685715D01*
X50834Y685978D01*
X50943Y686243D01*
X51046Y686511D01*
X51141Y686781D01*
X51231Y687053D01*
X51313Y687328D01*
X51389Y687604D01*
X51458Y687883D01*
X51521Y688163D01*
X51576Y688444D01*
X51625Y688726D01*
X51667Y689010D01*
X51701Y689294D01*
X51729Y689580D01*
X51750Y689866D01*
X51764Y690152D01*
X51771Y690439D01*
X51771Y690725D01*
X51764Y691012D01*
X51750Y691298D01*
X51729Y691584D01*
X51701Y691870D01*
X51667Y692154D01*
X51625Y692438D01*
X51576Y692720D01*
X51521Y693001D01*
X51458Y693281D01*
X51389Y693560D01*
X51313Y693836D01*
X51231Y694111D01*
X51141Y694383D01*
X51046Y694653D01*
X50943Y694921D01*
X50834Y695186D01*
X50719Y695449D01*
X50597Y695708D01*
X50469Y695965D01*
X50335Y696218D01*
X50195Y696468D01*
X50048Y696715D01*
X49896Y696957D01*
X49738Y697196D01*
X49574Y697432D01*
X49404Y697663D01*
X49229Y697890D01*
X49049Y698112D01*
X48862Y698330D01*
X48671Y698544D01*
X48475Y698753D01*
X48273Y698957D01*
X48067Y699156D01*
X47856Y699349D01*
X47640Y699538D01*
X47419Y699722D01*
X47195Y699899D01*
X46966Y700072D01*
X46733Y700239D01*
X46495Y700400D01*
X46254Y700555D01*
X46010Y700704D01*
X45761Y700848D01*
X45510Y700985D01*
X45255Y701116D01*
X44997Y701241D01*
X44736Y701359D01*
X44472Y701472D01*
X44205Y701577D01*
X43936Y701676D01*
X43665Y701769D01*
X43392Y701855D01*
X43116Y701934D01*
X42839Y702007D01*
X42560Y702072D01*
X42279Y702131D01*
X41997Y702183D01*
X41714Y702229D01*
X41430Y702267D01*
X41145Y702298D01*
X40859Y702323D01*
X40573Y702340D01*
X40287Y702351D01*
X40000Y702354D01*
X42354Y721190D02*
X28228Y721190D01*
X42354Y721190D02*
X42583Y721187D01*
X42813Y721179D01*
X43041Y721165D01*
X43270Y721145D01*
X43498Y721120D01*
X43725Y721090D01*
X43952Y721053D01*
X44177Y721012D01*
X44402Y720965D01*
X44625Y720912D01*
X44847Y720854D01*
X45067Y720791D01*
X45286Y720722D01*
X45503Y720648D01*
X45718Y720569D01*
X45932Y720484D01*
X46143Y720394D01*
X46352Y720300D01*
X46558Y720200D01*
X46762Y720095D01*
X46963Y719985D01*
X47162Y719870D01*
X47358Y719751D01*
X47551Y719627D01*
X47740Y719498D01*
X47927Y719364D01*
X48110Y719226D01*
X48290Y719084D01*
X48466Y718937D01*
X48639Y718786D01*
X48808Y718631D01*
X48973Y718472D01*
X49134Y718309D01*
X49291Y718142D01*
X49444Y717971D01*
X49593Y717796D01*
X49738Y717618D01*
X49878Y717437D01*
X50014Y717252D01*
X50145Y717064D01*
X50271Y716873D01*
X50393Y716678D01*
X50510Y716481D01*
X50622Y716281D01*
X50730Y716078D01*
X50832Y715873D01*
X50930Y715665D01*
X51022Y715455D01*
X51109Y715243D01*
X51191Y715029D01*
X51268Y714813D01*
X51339Y714595D01*
X51405Y714375D01*
X51466Y714154D01*
X51521Y713932D01*
X51571Y713708D01*
X51615Y713483D01*
X51654Y713257D01*
X51688Y713030D01*
X51716Y712802D01*
X51738Y712574D01*
X51755Y712345D01*
X51766Y712116D01*
X51771Y711887D01*
X51771Y711657D01*
X51766Y711428D01*
X51755Y711199D01*
X51738Y710970D01*
X51716Y710742D01*
X51688Y710514D01*
X51654Y710287D01*
X51615Y710061D01*
X51571Y709836D01*
X51521Y709612D01*
X51466Y709390D01*
X51405Y709169D01*
X51339Y708949D01*
X51268Y708731D01*
X51191Y708515D01*
X51109Y708301D01*
X51022Y708089D01*
X50930Y707879D01*
X50832Y707671D01*
X50730Y707466D01*
X50622Y707263D01*
X50510Y707063D01*
X50393Y706866D01*
X50271Y706671D01*
X50145Y706480D01*
X50014Y706292D01*
X49878Y706107D01*
X49738Y705926D01*
X49593Y705748D01*
X49444Y705573D01*
X49291Y705402D01*
X49134Y705235D01*
X48973Y705072D01*
X48808Y704913D01*
X48639Y704758D01*
X48466Y704607D01*
X48290Y704460D01*
X48110Y704318D01*
X47927Y704180D01*
X47740Y704046D01*
X47551Y703917D01*
X47358Y703793D01*
X47162Y703674D01*
X46963Y703559D01*
X46762Y703449D01*
X46558Y703344D01*
X46352Y703244D01*
X46143Y703150D01*
X45932Y703060D01*
X45718Y702975D01*
X45503Y702896D01*
X45286Y702822D01*
X45067Y702753D01*
X44847Y702690D01*
X44625Y702632D01*
X44402Y702579D01*
X44177Y702532D01*
X43952Y702491D01*
X43725Y702454D01*
X43498Y702424D01*
X43270Y702399D01*
X43041Y702379D01*
X42813Y702365D01*
X42583Y702357D01*
X42354Y702354D01*
X32937Y702354D01*
X28228Y888228D02*
X37646Y921190D01*
X28228Y888228D02*
X51772Y888228D01*
X44709Y897646D02*
X44709Y878810D01*
X948228Y311772D02*
X960000Y321190D01*
X960000Y278810D01*
X948228Y278810D02*
X971772Y278810D01*
X971772Y450595D02*
X971769Y450851D01*
X971760Y451107D01*
X971744Y451362D01*
X971723Y451618D01*
X971695Y451872D01*
X971661Y452126D01*
X971621Y452379D01*
X971575Y452631D01*
X971522Y452881D01*
X971464Y453131D01*
X971400Y453378D01*
X971330Y453625D01*
X971253Y453869D01*
X971171Y454112D01*
X971083Y454352D01*
X970990Y454590D01*
X970890Y454826D01*
X970785Y455060D01*
X970675Y455291D01*
X970558Y455519D01*
X970437Y455744D01*
X970310Y455966D01*
X970177Y456185D01*
X970039Y456401D01*
X969897Y456614D01*
X969749Y456823D01*
X969596Y457028D01*
X969438Y457229D01*
X969275Y457427D01*
X969107Y457621D01*
X968935Y457810D01*
X968759Y457996D01*
X968578Y458177D01*
X968392Y458353D01*
X968203Y458525D01*
X968009Y458693D01*
X967811Y458856D01*
X967610Y459014D01*
X967405Y459167D01*
X967196Y459315D01*
X966983Y459457D01*
X966767Y459595D01*
X966548Y459728D01*
X966326Y459855D01*
X966101Y459976D01*
X965873Y460093D01*
X965642Y460203D01*
X965408Y460308D01*
X965172Y460408D01*
X964934Y460501D01*
X964694Y460589D01*
X964451Y460671D01*
X964207Y460748D01*
X963960Y460818D01*
X963713Y460882D01*
X963463Y460940D01*
X963213Y460993D01*
X962961Y461039D01*
X962708Y461079D01*
X962454Y461113D01*
X962200Y461141D01*
X961944Y461162D01*
X961689Y461178D01*
X961433Y461187D01*
X961177Y461190D01*
X960848Y461186D01*
X960519Y461174D01*
X960190Y461154D01*
X959862Y461126D01*
X959535Y461091D01*
X959209Y461047D01*
X958884Y460995D01*
X958560Y460936D01*
X958238Y460869D01*
X957917Y460794D01*
X957598Y460711D01*
X957282Y460621D01*
X956968Y460523D01*
X956656Y460417D01*
X956347Y460304D01*
X956040Y460184D01*
X955737Y460056D01*
X955437Y459920D01*
X955140Y459778D01*
X954847Y459629D01*
X954557Y459472D01*
X954272Y459308D01*
X953990Y459138D01*
X953712Y458961D01*
X953439Y458777D01*
X953171Y458587D01*
X952907Y458390D01*
X952648Y458187D01*
X952394Y457977D01*
X952145Y457762D01*
X951901Y457540D01*
X951663Y457313D01*
X951430Y457080D01*
X951204Y456842D01*
X950982Y456598D01*
X950767Y456349D01*
X950558Y456094D01*
X950355Y455835D01*
X950159Y455571D01*
X949969Y455302D01*
X949785Y455029D01*
X949608Y454751D01*
X949438Y454469D01*
X949275Y454184D01*
X949119Y453894D01*
X948970Y453600D01*
X948828Y453303D01*
X948693Y453003D01*
X948565Y452700D01*
X948445Y452393D01*
X948332Y452084D01*
X948227Y451772D01*
X968240Y442354D02*
X968440Y442549D01*
X968635Y442749D01*
X968825Y442954D01*
X969010Y443163D01*
X969190Y443377D01*
X969364Y443595D01*
X969533Y443817D01*
X969697Y444043D01*
X969855Y444274D01*
X970007Y444508D01*
X970154Y444746D01*
X970294Y444987D01*
X970429Y445231D01*
X970557Y445479D01*
X970680Y445730D01*
X970796Y445984D01*
X970906Y446241D01*
X971010Y446500D01*
X971107Y446762D01*
X971198Y447026D01*
X971282Y447292D01*
X971360Y447560D01*
X971431Y447830D01*
X971496Y448102D01*
X971553Y448375D01*
X971605Y448650D01*
X971649Y448926D01*
X971686Y449202D01*
X971717Y449480D01*
X971741Y449758D01*
X971758Y450037D01*
X971769Y450316D01*
X971772Y450595D01*
X968241Y442354D02*
X948228Y418810D01*
X971772Y418810D01*
X960000Y678810D02*
X948228Y678810D01*
X960000Y678810D02*
X960287Y678813D01*
X960573Y678824D01*
X960859Y678841D01*
X961145Y678866D01*
X961430Y678897D01*
X961714Y678935D01*
X961997Y678981D01*
X962279Y679033D01*
X962560Y679092D01*
X962839Y679157D01*
X963116Y679230D01*
X963392Y679309D01*
X963665Y679395D01*
X963936Y679488D01*
X964205Y679587D01*
X964472Y679692D01*
X964736Y679805D01*
X964997Y679923D01*
X965255Y680048D01*
X965510Y680179D01*
X965761Y680316D01*
X966010Y680460D01*
X966254Y680609D01*
X966495Y680764D01*
X966733Y680925D01*
X966966Y681092D01*
X967195Y681265D01*
X967419Y681442D01*
X967640Y681626D01*
X967856Y681815D01*
X968067Y682008D01*
X968273Y682207D01*
X968475Y682411D01*
X968671Y682620D01*
X968862Y682834D01*
X969049Y683052D01*
X969229Y683274D01*
X969404Y683501D01*
X969574Y683732D01*
X969738Y683968D01*
X969896Y684207D01*
X970048Y684449D01*
X970195Y684696D01*
X970335Y684946D01*
X970469Y685199D01*
X970597Y685456D01*
X970719Y685715D01*
X970834Y685978D01*
X970943Y686243D01*
X971046Y686511D01*
X971141Y686781D01*
X971231Y687053D01*
X971313Y687328D01*
X971389Y687604D01*
X971458Y687883D01*
X971521Y688163D01*
X971576Y688444D01*
X971625Y688726D01*
X971667Y689010D01*
X971701Y689294D01*
X971729Y689580D01*
X971750Y689866D01*
X971764Y690152D01*
X971771Y690439D01*
X971771Y690725D01*
X971764Y691012D01*
X971750Y691298D01*
X971729Y691584D01*
X971701Y691870D01*
X971667Y692154D01*
X971625Y692438D01*
X971576Y692720D01*
X971521Y693001D01*
X971458Y693281D01*
X971389Y693560D01*
X971313Y693836D01*
X971231Y694111D01*
X971141Y694383D01*
X971046Y694653D01*
X970943Y694921D01*
X970834Y695186D01*
X970719Y695449D01*
X970597Y695708D01*
X970469Y695965D01*
X970335Y696218D01*
X970195Y696468D01*
X970048Y696715D01*
X969896Y696957D01*
X969738Y697196D01*
X969574Y697432D01*
X969404Y697663D01*
X969229Y697890D01*
X969049Y698112D01*
X968862Y698330D01*
X968671Y698544D01*
X968475Y698753D01*
X968273Y698957D01*
X968067Y699156D01*
X967856Y699349D01*
X967640Y699538D01*
X967419Y699722D01*
X967195Y699899D01*
X966966Y700072D01*
X966733Y700239D01*
X966495Y700400D01*
X966254Y700555D01*
X966010Y700704D01*
X965761Y700848D01*
X965510Y700985D01*
X965255Y701116D01*
X964997Y701241D01*
X964736Y701359D01*
X964472Y701472D01*
X964205Y701577D01*
X963936Y701676D01*
X963665Y701769D01*
X963392Y701855D01*
X963116Y701934D01*
X962839Y702007D01*
X962560Y702072D01*
X962279Y702131D01*
X961997Y702183D01*
X961714Y702229D01*
X961430Y702267D01*
X961145Y702298D01*
X960859Y702323D01*
X960573Y702340D01*
X960287Y702351D01*
X960000Y702354D01*
X962354Y721190D02*
X948228Y721190D01*
X962354Y721190D02*
X962583Y721187D01*
X962813Y721179D01*
X963041Y721165D01*
X963270Y721145D01*
X963498Y721120D01*
X963725Y721090D01*
X963952Y721053D01*
X964177Y721012D01*
X964402Y720965D01*
X964625Y720912D01*
X964847Y720854D01*
X965067Y720791D01*
X965286Y720722D01*
X965503Y720648D01*
X965718Y720569D01*
X965932Y720484D01*
X966143Y720394D01*
X966352Y720300D01*
X966558Y720200D01*
X966762Y720095D01*
X966963Y719985D01*
X967162Y719870D01*
X967358Y719751D01*
X967551Y719627D01*
X967740Y719498D01*
X967927Y719364D01*
X968110Y719226D01*
X968290Y719084D01*
X968466Y718937D01*
X968639Y718786D01*
X968808Y718631D01*
X968973Y718472D01*
X969134Y718309D01*
X969291Y718142D01*
X969444Y717971D01*
X969593Y717796D01*
X969738Y717618D01*
X969878Y717437D01*
X970014Y717252D01*
X970145Y717064D01*
X970271Y716873D01*
X970393Y716678D01*
X970510Y716481D01*
X970622Y716281D01*
X970730Y716078D01*
X970832Y715873D01*
X970930Y715665D01*
X971022Y715455D01*
X971109Y715243D01*
X971191Y715029D01*
X971268Y714813D01*
X971339Y714595D01*
X971405Y714375D01*
X971466Y714154D01*
X971521Y713932D01*
X971571Y713708D01*
X971615Y713483D01*
X971654Y713257D01*
X971688Y713030D01*
X971716Y712802D01*
X971738Y712574D01*
X971755Y712345D01*
X971766Y712116D01*
X971771Y711887D01*
X971771Y711657D01*
X971766Y711428D01*
X971755Y711199D01*
X971738Y710970D01*
X971716Y710742D01*
X971688Y710514D01*
X971654Y710287D01*
X971615Y710061D01*
X971571Y709836D01*
X971521Y709612D01*
X971466Y709390D01*
X971405Y709169D01*
X971339Y708949D01*
X971268Y708731D01*
X971191Y708515D01*
X971109Y708301D01*
X971022Y708089D01*
X970930Y707879D01*
X970832Y707671D01*
X970730Y707466D01*
X970622Y707263D01*
X970510Y707063D01*
X970393Y706866D01*
X970271Y706671D01*
X970145Y706480D01*
X970014Y706292D01*
X969878Y706107D01*
X969738Y705926D01*
X969593Y705748D01*
X969444Y705573D01*
X969291Y705402D01*
X969134Y705235D01*
X968973Y705072D01*
X968808Y704913D01*
X968639Y704758D01*
X968466Y704607D01*
X968290Y704460D01*
X968110Y704318D01*
X967927Y704180D01*
X967740Y704046D01*
X967551Y703917D01*
X967358Y703793D01*
X967162Y703674D01*
X966963Y703559D01*
X966762Y703449D01*
X966558Y703344D01*
X966352Y703244D01*
X966143Y703150D01*
X965932Y703060D01*
X965718Y702975D01*
X965503Y702896D01*
X965286Y702822D01*
X965067Y702753D01*
X964847Y702690D01*
X964625Y702632D01*
X964402Y702579D01*
X964177Y702532D01*
X963952Y702491D01*
X963725Y702454D01*
X963498Y702424D01*
X963270Y702399D01*
X963041Y702379D01*
X962813Y702365D01*
X962583Y702357D01*
X962354Y702354D01*
X952937Y702354D01*
X948228Y888228D02*
X957646Y921190D01*
X948228Y888228D02*
X971772Y888228D01*
X964709Y897646D02*
X964709Y878810D01*
D11*
X920000Y400000D02*
X80000Y400000D01*
X80000Y600000D02*
X920000Y600000D01*
X920000Y800000D02*
X80000Y800000D01*
X270000Y980000D02*
X270000Y220000D01*
X500000Y220000D02*
X500000Y980000D01*
X740000Y980000D02*
X740000Y220000D01*
D10*
X604127Y45291D02*
X575873Y45291D01*
X735873Y45291D02*
X764127Y45291D01*
X750000Y31164D02*
X750000Y59418D01*
D12*
X215889Y30461D02*
X215889Y19539D01*
X215889Y30461D02*
X218923Y30461D01*
X219031Y30459D01*
X219139Y30453D01*
X219247Y30444D01*
X219355Y30430D01*
X219462Y30413D01*
X219568Y30392D01*
X219673Y30367D01*
X219778Y30338D01*
X219881Y30306D01*
X219983Y30270D01*
X220084Y30230D01*
X220183Y30187D01*
X220281Y30140D01*
X220377Y30090D01*
X220471Y30036D01*
X220563Y29979D01*
X220653Y29919D01*
X220741Y29856D01*
X220827Y29789D01*
X220910Y29720D01*
X220990Y29648D01*
X221068Y29572D01*
X221144Y29494D01*
X221216Y29414D01*
X221285Y29331D01*
X221352Y29245D01*
X221415Y29157D01*
X221475Y29067D01*
X221532Y28975D01*
X221586Y28881D01*
X221636Y28785D01*
X221683Y28687D01*
X221726Y28588D01*
X221766Y28487D01*
X221802Y28385D01*
X221834Y28282D01*
X221863Y28177D01*
X221888Y28072D01*
X221909Y27966D01*
X221926Y27859D01*
X221940Y27751D01*
X221949Y27643D01*
X221955Y27535D01*
X221957Y27427D01*
X221955Y27319D01*
X221949Y27211D01*
X221940Y27103D01*
X221926Y26995D01*
X221909Y26888D01*
X221888Y26782D01*
X221863Y26677D01*
X221834Y26572D01*
X221802Y26469D01*
X221766Y26367D01*
X221726Y26266D01*
X221683Y26167D01*
X221636Y26069D01*
X221586Y25973D01*
X221532Y25879D01*
X221475Y25787D01*
X221415Y25697D01*
X221352Y25609D01*
X221285Y25523D01*
X221216Y25440D01*
X221144Y25360D01*
X221068Y25282D01*
X220990Y25206D01*
X220910Y25134D01*
X220827Y25065D01*
X220741Y24998D01*
X220653Y24935D01*
X220563Y24875D01*
X220471Y24818D01*
X220377Y24764D01*
X220281Y24714D01*
X220183Y24667D01*
X220084Y24624D01*
X219983Y24584D01*
X219881Y24548D01*
X219778Y24516D01*
X219673Y24487D01*
X219568Y24462D01*
X219462Y24441D01*
X219355Y24424D01*
X219247Y24410D01*
X219139Y24401D01*
X219031Y24395D01*
X218923Y24393D01*
X215889Y24393D01*
X219530Y24393D02*
X221957Y19539D01*
X227630Y19539D02*
X232484Y19539D01*
X227630Y19539D02*
X227630Y30461D01*
X232484Y30461D01*
X231270Y25607D02*
X227630Y25607D01*
X236517Y30461D02*
X240158Y19539D01*
X243798Y30461D01*
X247855Y20146D02*
X247855Y19539D01*
X247855Y20146D02*
X248462Y20146D01*
X248462Y19539D01*
X247855Y19539D01*
X218923Y50461D02*
X215889Y48034D01*
X218923Y50461D02*
X218923Y39539D01*
X215889Y39539D02*
X221957Y39539D01*
X227319Y41966D02*
X229746Y50461D01*
X227319Y41966D02*
X233387Y41966D01*
X231566Y44393D02*
X231566Y39539D01*
X238142Y39539D02*
X241783Y50461D01*
X245424Y39539D01*
X244513Y42270D02*
X239052Y42270D01*
X250334Y43786D02*
X257616Y43786D01*
X263133Y45000D02*
X263136Y45215D01*
X263143Y45430D01*
X263156Y45644D01*
X263174Y45858D01*
X263197Y46072D01*
X263225Y46285D01*
X263258Y46497D01*
X263297Y46708D01*
X263340Y46919D01*
X263388Y47128D01*
X263442Y47336D01*
X263500Y47543D01*
X263563Y47749D01*
X263631Y47952D01*
X263704Y48155D01*
X263782Y48355D01*
X263864Y48553D01*
X263951Y48750D01*
X264043Y48944D01*
X264075Y49031D01*
X264111Y49117D01*
X264150Y49201D01*
X264192Y49284D01*
X264238Y49365D01*
X264287Y49443D01*
X264340Y49520D01*
X264395Y49594D01*
X264453Y49666D01*
X264515Y49736D01*
X264579Y49803D01*
X264646Y49867D01*
X264716Y49929D01*
X264788Y49987D01*
X264862Y50043D01*
X264939Y50095D01*
X265017Y50144D01*
X265098Y50190D01*
X265181Y50233D01*
X265265Y50272D01*
X265351Y50307D01*
X265438Y50339D01*
X265526Y50368D01*
X265616Y50392D01*
X265706Y50413D01*
X265797Y50430D01*
X265889Y50444D01*
X265982Y50453D01*
X266074Y50459D01*
X266167Y50461D01*
X266260Y50459D01*
X266352Y50453D01*
X266445Y50444D01*
X266537Y50430D01*
X266628Y50413D01*
X266718Y50392D01*
X266808Y50368D01*
X266896Y50339D01*
X266983Y50307D01*
X267069Y50272D01*
X267153Y50233D01*
X267236Y50190D01*
X267317Y50144D01*
X267395Y50095D01*
X267472Y50043D01*
X267546Y49987D01*
X267618Y49929D01*
X267688Y49867D01*
X267755Y49803D01*
X267819Y49736D01*
X267881Y49666D01*
X267939Y49594D01*
X267995Y49520D01*
X268047Y49443D01*
X268096Y49365D01*
X268142Y49284D01*
X268184Y49201D01*
X268223Y49117D01*
X268259Y49031D01*
X268291Y48944D01*
X268290Y48944D02*
X268382Y48750D01*
X268469Y48553D01*
X268551Y48355D01*
X268629Y48154D01*
X268702Y47952D01*
X268770Y47749D01*
X268833Y47543D01*
X268891Y47336D01*
X268945Y47128D01*
X268993Y46919D01*
X269036Y46708D01*
X269075Y46497D01*
X269108Y46285D01*
X269136Y46072D01*
X269159Y45858D01*
X269177Y45644D01*
X269190Y45430D01*
X269197Y45215D01*
X269200Y45000D01*
X263133Y45000D02*
X263136Y44785D01*
X263143Y44570D01*
X263156Y44356D01*
X263174Y44142D01*
X263197Y43928D01*
X263225Y43715D01*
X263258Y43503D01*
X263297Y43291D01*
X263340Y43081D01*
X263388Y42872D01*
X263442Y42663D01*
X263500Y42457D01*
X263563Y42251D01*
X263631Y42047D01*
X263704Y41845D01*
X263782Y41645D01*
X263864Y41446D01*
X263951Y41250D01*
X264043Y41056D01*
X264075Y40969D01*
X264111Y40883D01*
X264150Y40799D01*
X264192Y40716D01*
X264238Y40635D01*
X264287Y40557D01*
X264340Y40480D01*
X264395Y40406D01*
X264453Y40334D01*
X264515Y40264D01*
X264579Y40197D01*
X264646Y40133D01*
X264716Y40071D01*
X264788Y40013D01*
X264862Y39957D01*
X264939Y39905D01*
X265017Y39856D01*
X265098Y39810D01*
X265181Y39767D01*
X265265Y39728D01*
X265351Y39693D01*
X265438Y39661D01*
X265526Y39632D01*
X265616Y39608D01*
X265706Y39587D01*
X265797Y39570D01*
X265889Y39556D01*
X265982Y39547D01*
X266074Y39541D01*
X266167Y39539D01*
X268291Y41056D02*
X268383Y41250D01*
X268470Y41446D01*
X268552Y41645D01*
X268630Y41845D01*
X268703Y42047D01*
X268771Y42251D01*
X268834Y42457D01*
X268892Y42663D01*
X268946Y42872D01*
X268994Y43081D01*
X269037Y43291D01*
X269076Y43503D01*
X269109Y43715D01*
X269137Y43928D01*
X269160Y44142D01*
X269178Y44356D01*
X269191Y44570D01*
X269198Y44785D01*
X269201Y45000D01*
X268291Y41056D02*
X268259Y40969D01*
X268223Y40883D01*
X268184Y40799D01*
X268142Y40716D01*
X268096Y40635D01*
X268047Y40557D01*
X267994Y40480D01*
X267939Y40406D01*
X267881Y40334D01*
X267819Y40264D01*
X267755Y40197D01*
X267688Y40133D01*
X267618Y40071D01*
X267546Y40013D01*
X267472Y39957D01*
X267395Y39905D01*
X267317Y39856D01*
X267236Y39810D01*
X267153Y39767D01*
X267069Y39728D01*
X266983Y39693D01*
X266896Y39661D01*
X266808Y39632D01*
X266718Y39608D01*
X266628Y39587D01*
X266537Y39570D01*
X266445Y39556D01*
X266352Y39547D01*
X266260Y39541D01*
X266167Y39539D01*
X263740Y41966D02*
X268594Y48034D01*
X274563Y45000D02*
X274566Y45215D01*
X274573Y45430D01*
X274586Y45644D01*
X274604Y45858D01*
X274627Y46072D01*
X274655Y46285D01*
X274688Y46497D01*
X274727Y46708D01*
X274770Y46919D01*
X274818Y47128D01*
X274872Y47336D01*
X274930Y47543D01*
X274993Y47749D01*
X275061Y47952D01*
X275134Y48155D01*
X275212Y48355D01*
X275294Y48553D01*
X275381Y48750D01*
X275473Y48944D01*
X275505Y49031D01*
X275541Y49117D01*
X275580Y49201D01*
X275622Y49284D01*
X275668Y49365D01*
X275717Y49443D01*
X275770Y49520D01*
X275825Y49594D01*
X275883Y49666D01*
X275945Y49736D01*
X276009Y49803D01*
X276076Y49867D01*
X276146Y49929D01*
X276218Y49987D01*
X276292Y50043D01*
X276369Y50095D01*
X276447Y50144D01*
X276528Y50190D01*
X276611Y50233D01*
X276695Y50272D01*
X276781Y50307D01*
X276868Y50339D01*
X276956Y50368D01*
X277046Y50392D01*
X277136Y50413D01*
X277227Y50430D01*
X277319Y50444D01*
X277412Y50453D01*
X277504Y50459D01*
X277597Y50461D01*
X277690Y50459D01*
X277782Y50453D01*
X277875Y50444D01*
X277967Y50430D01*
X278058Y50413D01*
X278148Y50392D01*
X278238Y50368D01*
X278326Y50339D01*
X278413Y50307D01*
X278499Y50272D01*
X278583Y50233D01*
X278666Y50190D01*
X278747Y50144D01*
X278825Y50095D01*
X278902Y50043D01*
X278976Y49987D01*
X279048Y49929D01*
X279118Y49867D01*
X279185Y49803D01*
X279249Y49736D01*
X279311Y49666D01*
X279369Y49594D01*
X279425Y49520D01*
X279477Y49443D01*
X279526Y49365D01*
X279572Y49284D01*
X279614Y49201D01*
X279653Y49117D01*
X279689Y49031D01*
X279721Y48944D01*
X279720Y48944D02*
X279812Y48750D01*
X279899Y48553D01*
X279981Y48355D01*
X280059Y48154D01*
X280132Y47952D01*
X280200Y47749D01*
X280263Y47543D01*
X280321Y47336D01*
X280375Y47128D01*
X280423Y46919D01*
X280466Y46708D01*
X280505Y46497D01*
X280538Y46285D01*
X280566Y46072D01*
X280589Y45858D01*
X280607Y45644D01*
X280620Y45430D01*
X280627Y45215D01*
X280630Y45000D01*
X274563Y45000D02*
X274566Y44785D01*
X274573Y44570D01*
X274586Y44356D01*
X274604Y44142D01*
X274627Y43928D01*
X274655Y43715D01*
X274688Y43503D01*
X274727Y43291D01*
X274770Y43081D01*
X274818Y42872D01*
X274872Y42663D01*
X274930Y42457D01*
X274993Y42251D01*
X275061Y42047D01*
X275134Y41845D01*
X275212Y41645D01*
X275294Y41446D01*
X275381Y41250D01*
X275473Y41056D01*
X275505Y40969D01*
X275541Y40883D01*
X275580Y40799D01*
X275622Y40716D01*
X275668Y40635D01*
X275717Y40557D01*
X275770Y40480D01*
X275825Y40406D01*
X275883Y40334D01*
X275945Y40264D01*
X276009Y40197D01*
X276076Y40133D01*
X276146Y40071D01*
X276218Y40013D01*
X276292Y39957D01*
X276369Y39905D01*
X276447Y39856D01*
X276528Y39810D01*
X276611Y39767D01*
X276695Y39728D01*
X276781Y39693D01*
X276868Y39661D01*
X276956Y39632D01*
X277046Y39608D01*
X277136Y39587D01*
X277227Y39570D01*
X277319Y39556D01*
X277412Y39547D01*
X277504Y39541D01*
X277597Y39539D01*
X279721Y41056D02*
X279813Y41250D01*
X279900Y41446D01*
X279982Y41645D01*
X280060Y41845D01*
X280133Y42047D01*
X280201Y42251D01*
X280264Y42457D01*
X280322Y42663D01*
X280376Y42872D01*
X280424Y43081D01*
X280467Y43291D01*
X280506Y43503D01*
X280539Y43715D01*
X280567Y43928D01*
X280590Y44142D01*
X280608Y44356D01*
X280621Y44570D01*
X280628Y44785D01*
X280631Y45000D01*
X279721Y41056D02*
X279689Y40969D01*
X279653Y40883D01*
X279614Y40799D01*
X279572Y40716D01*
X279526Y40635D01*
X279477Y40557D01*
X279424Y40480D01*
X279369Y40406D01*
X279311Y40334D01*
X279249Y40264D01*
X279185Y40197D01*
X279118Y40133D01*
X279048Y40071D01*
X278976Y40013D01*
X278902Y39957D01*
X278825Y39905D01*
X278747Y39856D01*
X278666Y39810D01*
X278583Y39767D01*
X278499Y39728D01*
X278413Y39693D01*
X278326Y39661D01*
X278238Y39632D01*
X278148Y39608D01*
X278058Y39587D01*
X277967Y39570D01*
X277875Y39556D01*
X277782Y39547D01*
X277690Y39541D01*
X277597Y39539D01*
X275170Y41966D02*
X280024Y48034D01*
X285993Y39539D02*
X289634Y39539D01*
X289732Y39541D01*
X289829Y39547D01*
X289927Y39557D01*
X290023Y39570D01*
X290119Y39588D01*
X290215Y39610D01*
X290309Y39635D01*
X290403Y39664D01*
X290495Y39697D01*
X290585Y39733D01*
X290674Y39773D01*
X290762Y39817D01*
X290848Y39864D01*
X290931Y39915D01*
X291013Y39969D01*
X291092Y40026D01*
X291169Y40086D01*
X291243Y40149D01*
X291315Y40216D01*
X291384Y40285D01*
X291451Y40357D01*
X291514Y40431D01*
X291574Y40508D01*
X291631Y40587D01*
X291685Y40669D01*
X291736Y40753D01*
X291783Y40838D01*
X291827Y40926D01*
X291867Y41015D01*
X291903Y41105D01*
X291936Y41197D01*
X291965Y41291D01*
X291990Y41385D01*
X292012Y41481D01*
X292030Y41577D01*
X292043Y41673D01*
X292053Y41771D01*
X292059Y41868D01*
X292061Y41966D01*
X292061Y43180D01*
X292059Y43278D01*
X292053Y43375D01*
X292043Y43473D01*
X292030Y43569D01*
X292012Y43665D01*
X291990Y43761D01*
X291965Y43855D01*
X291936Y43949D01*
X291903Y44041D01*
X291867Y44131D01*
X291827Y44220D01*
X291783Y44308D01*
X291736Y44394D01*
X291685Y44477D01*
X291631Y44559D01*
X291574Y44638D01*
X291514Y44715D01*
X291451Y44789D01*
X291384Y44861D01*
X291315Y44930D01*
X291243Y44997D01*
X291169Y45060D01*
X291092Y45120D01*
X291013Y45177D01*
X290931Y45231D01*
X290848Y45282D01*
X290762Y45329D01*
X290674Y45373D01*
X290585Y45413D01*
X290495Y45449D01*
X290403Y45482D01*
X290309Y45511D01*
X290215Y45536D01*
X290119Y45558D01*
X290023Y45576D01*
X289927Y45589D01*
X289829Y45599D01*
X289732Y45605D01*
X289634Y45607D01*
X285993Y45607D01*
X285993Y50461D01*
X292061Y50461D01*
X269530Y30461D02*
X265889Y19539D01*
X273170Y19539D02*
X269530Y30461D01*
X272260Y22270D02*
X266799Y22270D01*
X277926Y28034D02*
X280960Y30461D01*
X280960Y19539D01*
X277926Y19539D02*
X283994Y19539D01*
D13*
X790000Y90000D02*
X790000Y110000D01*
X890000Y110000D02*
X890000Y90000D01*
X860000Y140000D02*
X820000Y140000D01*
X820000Y60000D02*
X860000Y60000D01*
D14*
X457800Y383000D02*
X302200Y383000D01*
X457800Y383000D02*
X457800Y217000D01*
X302200Y217000D01*
X302200Y383000D01*
X438000Y253600D02*
X438002Y253663D01*
X438008Y253725D01*
X438018Y253787D01*
X438031Y253849D01*
X438049Y253909D01*
X438070Y253968D01*
X438095Y254026D01*
X438124Y254082D01*
X438156Y254136D01*
X438191Y254188D01*
X438229Y254237D01*
X438271Y254285D01*
X438315Y254329D01*
X438363Y254371D01*
X438412Y254409D01*
X438464Y254444D01*
X438518Y254476D01*
X438574Y254505D01*
X438632Y254530D01*
X438691Y254551D01*
X438751Y254569D01*
X438813Y254582D01*
X438875Y254592D01*
X438937Y254598D01*
X439000Y254600D01*
X439063Y254598D01*
X439125Y254592D01*
X439187Y254582D01*
X439249Y254569D01*
X439309Y254551D01*
X439368Y254530D01*
X439426Y254505D01*
X439482Y254476D01*
X439536Y254444D01*
X439588Y254409D01*
X439637Y254371D01*
X439685Y254329D01*
X439729Y254285D01*
X439771Y254237D01*
X439809Y254188D01*
X439844Y254136D01*
X439876Y254082D01*
X439905Y254026D01*
X439930Y253968D01*
X439951Y253909D01*
X439969Y253849D01*
X439982Y253787D01*
X439992Y253725D01*
X439998Y253663D01*
X440000Y253600D01*
X439998Y253537D01*
X439992Y253475D01*
X439982Y253413D01*
X439969Y253351D01*
X439951Y253291D01*
X439930Y253232D01*
X439905Y253174D01*
X439876Y253118D01*
X439844Y253064D01*
X439809Y253012D01*
X439771Y252963D01*
X439729Y252915D01*
X439685Y252871D01*
X439637Y252829D01*
X439588Y252791D01*
X439536Y252756D01*
X439482Y252724D01*
X439426Y252695D01*
X439368Y252670D01*
X439309Y252649D01*
X439249Y252631D01*
X439187Y252618D01*
X439125Y252608D01*
X439063Y252602D01*
X439000Y252600D01*
X438937Y252602D01*
X438875Y252608D01*
X438813Y252618D01*
X438751Y252631D01*
X438691Y252649D01*
X438632Y252670D01*
X438574Y252695D01*
X438518Y252724D01*
X438464Y252756D01*
X438412Y252791D01*
X438363Y252829D01*
X438315Y252871D01*
X438271Y252915D01*
X438229Y252963D01*
X438191Y253012D01*
X438156Y253064D01*
X438124Y253118D01*
X438095Y253174D01*
X438070Y253232D01*
X438049Y253291D01*
X438031Y253351D01*
X438018Y253413D01*
X438008Y253475D01*
X438002Y253537D01*
X438000Y253600D01*
X457800Y983000D02*
X302200Y983000D01*
X457800Y983000D02*
X457800Y817000D01*
X302200Y817000D01*
X302200Y983000D01*
X438000Y853600D02*
X438002Y853663D01*
X438008Y853725D01*
X438018Y853787D01*
X438031Y853849D01*
X438049Y853909D01*
X438070Y853968D01*
X438095Y854026D01*
X438124Y854082D01*
X438156Y854136D01*
X438191Y854188D01*
X438229Y854237D01*
X438271Y854285D01*
X438315Y854329D01*
X438363Y854371D01*
X438412Y854409D01*
X438464Y854444D01*
X438518Y854476D01*
X438574Y854505D01*
X438632Y854530D01*
X438691Y854551D01*
X438751Y854569D01*
X438813Y854582D01*
X438875Y854592D01*
X438937Y854598D01*
X439000Y854600D01*
X439063Y854598D01*
X439125Y854592D01*
X439187Y854582D01*
X439249Y854569D01*
X439309Y854551D01*
X439368Y854530D01*
X439426Y854505D01*
X439482Y854476D01*
X439536Y854444D01*
X439588Y854409D01*
X439637Y854371D01*
X439685Y854329D01*
X439729Y854285D01*
X439771Y854237D01*
X439809Y854188D01*
X439844Y854136D01*
X439876Y854082D01*
X439905Y854026D01*
X439930Y853968D01*
X439951Y853909D01*
X439969Y853849D01*
X439982Y853787D01*
X439992Y853725D01*
X439998Y853663D01*
X440000Y853600D01*
X439998Y853537D01*
X439992Y853475D01*
X439982Y853413D01*
X439969Y853351D01*
X439951Y853291D01*
X439930Y853232D01*
X439905Y853174D01*
X439876Y853118D01*
X439844Y853064D01*
X439809Y853012D01*
X439771Y852963D01*
X439729Y852915D01*
X439685Y852871D01*
X439637Y852829D01*
X439588Y852791D01*
X439536Y852756D01*
X439482Y852724D01*
X439426Y852695D01*
X439368Y852670D01*
X439309Y852649D01*
X439249Y852631D01*
X439187Y852618D01*
X439125Y852608D01*
X439063Y852602D01*
X439000Y852600D01*
X438937Y852602D01*
X438875Y852608D01*
X438813Y852618D01*
X438751Y852631D01*
X438691Y852649D01*
X438632Y852670D01*
X438574Y852695D01*
X438518Y852724D01*
X438464Y852756D01*
X438412Y852791D01*
X438363Y852829D01*
X438315Y852871D01*
X438271Y852915D01*
X438229Y852963D01*
X438191Y853012D01*
X438156Y853064D01*
X438124Y853118D01*
X438095Y853174D01*
X438070Y853232D01*
X438049Y853291D01*
X438031Y853351D01*
X438018Y853413D01*
X438008Y853475D01*
X438002Y853537D01*
X438000Y853600D01*
X227800Y983000D02*
X72200Y983000D01*
X227800Y983000D02*
X227800Y817000D01*
X72200Y817000D01*
X72200Y983000D01*
X208000Y853600D02*
X208002Y853663D01*
X208008Y853725D01*
X208018Y853787D01*
X208031Y853849D01*
X208049Y853909D01*
X208070Y853968D01*
X208095Y854026D01*
X208124Y854082D01*
X208156Y854136D01*
X208191Y854188D01*
X208229Y854237D01*
X208271Y854285D01*
X208315Y854329D01*
X208363Y854371D01*
X208412Y854409D01*
X208464Y854444D01*
X208518Y854476D01*
X208574Y854505D01*
X208632Y854530D01*
X208691Y854551D01*
X208751Y854569D01*
X208813Y854582D01*
X208875Y854592D01*
X208937Y854598D01*
X209000Y854600D01*
X209063Y854598D01*
X209125Y854592D01*
X209187Y854582D01*
X209249Y854569D01*
X209309Y854551D01*
X209368Y854530D01*
X209426Y854505D01*
X209482Y854476D01*
X209536Y854444D01*
X209588Y854409D01*
X209637Y854371D01*
X209685Y854329D01*
X209729Y854285D01*
X209771Y854237D01*
X209809Y854188D01*
X209844Y854136D01*
X209876Y854082D01*
X209905Y854026D01*
X209930Y853968D01*
X209951Y853909D01*
X209969Y853849D01*
X209982Y853787D01*
X209992Y853725D01*
X209998Y853663D01*
X210000Y853600D01*
X209998Y853537D01*
X209992Y853475D01*
X209982Y853413D01*
X209969Y853351D01*
X209951Y853291D01*
X209930Y853232D01*
X209905Y853174D01*
X209876Y853118D01*
X209844Y853064D01*
X209809Y853012D01*
X209771Y852963D01*
X209729Y852915D01*
X209685Y852871D01*
X209637Y852829D01*
X209588Y852791D01*
X209536Y852756D01*
X209482Y852724D01*
X209426Y852695D01*
X209368Y852670D01*
X209309Y852649D01*
X209249Y852631D01*
X209187Y852618D01*
X209125Y852608D01*
X209063Y852602D01*
X209000Y852600D01*
X208937Y852602D01*
X208875Y852608D01*
X208813Y852618D01*
X208751Y852631D01*
X208691Y852649D01*
X208632Y852670D01*
X208574Y852695D01*
X208518Y852724D01*
X208464Y852756D01*
X208412Y852791D01*
X208363Y852829D01*
X208315Y852871D01*
X208271Y852915D01*
X208229Y852963D01*
X208191Y853012D01*
X208156Y853064D01*
X208124Y853118D01*
X208095Y853174D01*
X208070Y853232D01*
X208049Y853291D01*
X208031Y853351D01*
X208018Y853413D01*
X208008Y853475D01*
X208002Y853537D01*
X208000Y853600D01*
D13*
X450000Y110000D02*
X450000Y90000D01*
X550000Y90000D02*
X550000Y110000D01*
X520000Y140000D02*
X480000Y140000D01*
X480000Y60000D02*
X520000Y60000D01*
D14*
X542200Y383000D02*
X697800Y383000D01*
X697800Y217000D01*
X542200Y217000D01*
X542200Y383000D01*
X678000Y253600D02*
X678002Y253663D01*
X678008Y253725D01*
X678018Y253787D01*
X678031Y253849D01*
X678049Y253909D01*
X678070Y253968D01*
X678095Y254026D01*
X678124Y254082D01*
X678156Y254136D01*
X678191Y254188D01*
X678229Y254237D01*
X678271Y254285D01*
X678315Y254329D01*
X678363Y254371D01*
X678412Y254409D01*
X678464Y254444D01*
X678518Y254476D01*
X678574Y254505D01*
X678632Y254530D01*
X678691Y254551D01*
X678751Y254569D01*
X678813Y254582D01*
X678875Y254592D01*
X678937Y254598D01*
X679000Y254600D01*
X679063Y254598D01*
X679125Y254592D01*
X679187Y254582D01*
X679249Y254569D01*
X679309Y254551D01*
X679368Y254530D01*
X679426Y254505D01*
X679482Y254476D01*
X679536Y254444D01*
X679588Y254409D01*
X679637Y254371D01*
X679685Y254329D01*
X679729Y254285D01*
X679771Y254237D01*
X679809Y254188D01*
X679844Y254136D01*
X679876Y254082D01*
X679905Y254026D01*
X679930Y253968D01*
X679951Y253909D01*
X679969Y253849D01*
X679982Y253787D01*
X679992Y253725D01*
X679998Y253663D01*
X680000Y253600D01*
X679998Y253537D01*
X679992Y253475D01*
X679982Y253413D01*
X679969Y253351D01*
X679951Y253291D01*
X679930Y253232D01*
X679905Y253174D01*
X679876Y253118D01*
X679844Y253064D01*
X679809Y253012D01*
X679771Y252963D01*
X679729Y252915D01*
X679685Y252871D01*
X679637Y252829D01*
X679588Y252791D01*
X679536Y252756D01*
X679482Y252724D01*
X679426Y252695D01*
X679368Y252670D01*
X679309Y252649D01*
X679249Y252631D01*
X679187Y252618D01*
X679125Y252608D01*
X679063Y252602D01*
X679000Y252600D01*
X678937Y252602D01*
X678875Y252608D01*
X678813Y252618D01*
X678751Y252631D01*
X678691Y252649D01*
X678632Y252670D01*
X678574Y252695D01*
X678518Y252724D01*
X678464Y252756D01*
X678412Y252791D01*
X678363Y252829D01*
X678315Y252871D01*
X678271Y252915D01*
X678229Y252963D01*
X678191Y253012D01*
X678156Y253064D01*
X678124Y253118D01*
X678095Y253174D01*
X678070Y253232D01*
X678049Y253291D01*
X678031Y253351D01*
X678018Y253413D01*
X678008Y253475D01*
X678002Y253537D01*
X678000Y253600D01*
X227800Y383000D02*
X72200Y383000D01*
X227800Y383000D02*
X227800Y217000D01*
X72200Y217000D01*
X72200Y383000D01*
X208000Y253600D02*
X208002Y253663D01*
X208008Y253725D01*
X208018Y253787D01*
X208031Y253849D01*
X208049Y253909D01*
X208070Y253968D01*
X208095Y254026D01*
X208124Y254082D01*
X208156Y254136D01*
X208191Y254188D01*
X208229Y254237D01*
X208271Y254285D01*
X208315Y254329D01*
X208363Y254371D01*
X208412Y254409D01*
X208464Y254444D01*
X208518Y254476D01*
X208574Y254505D01*
X208632Y254530D01*
X208691Y254551D01*
X208751Y254569D01*
X208813Y254582D01*
X208875Y254592D01*
X208937Y254598D01*
X209000Y254600D01*
X209063Y254598D01*
X209125Y254592D01*
X209187Y254582D01*
X209249Y254569D01*
X209309Y254551D01*
X209368Y254530D01*
X209426Y254505D01*
X209482Y254476D01*
X209536Y254444D01*
X209588Y254409D01*
X209637Y254371D01*
X209685Y254329D01*
X209729Y254285D01*
X209771Y254237D01*
X209809Y254188D01*
X209844Y254136D01*
X209876Y254082D01*
X209905Y254026D01*
X209930Y253968D01*
X209951Y253909D01*
X209969Y253849D01*
X209982Y253787D01*
X209992Y253725D01*
X209998Y253663D01*
X210000Y253600D01*
X209998Y253537D01*
X209992Y253475D01*
X209982Y253413D01*
X209969Y253351D01*
X209951Y253291D01*
X209930Y253232D01*
X209905Y253174D01*
X209876Y253118D01*
X209844Y253064D01*
X209809Y253012D01*
X209771Y252963D01*
X209729Y252915D01*
X209685Y252871D01*
X209637Y252829D01*
X209588Y252791D01*
X209536Y252756D01*
X209482Y252724D01*
X209426Y252695D01*
X209368Y252670D01*
X209309Y252649D01*
X209249Y252631D01*
X209187Y252618D01*
X209125Y252608D01*
X209063Y252602D01*
X209000Y252600D01*
X208937Y252602D01*
X208875Y252608D01*
X208813Y252618D01*
X208751Y252631D01*
X208691Y252649D01*
X208632Y252670D01*
X208574Y252695D01*
X208518Y252724D01*
X208464Y252756D01*
X208412Y252791D01*
X208363Y252829D01*
X208315Y252871D01*
X208271Y252915D01*
X208229Y252963D01*
X208191Y253012D01*
X208156Y253064D01*
X208124Y253118D01*
X208095Y253174D01*
X208070Y253232D01*
X208049Y253291D01*
X208031Y253351D01*
X208018Y253413D01*
X208008Y253475D01*
X208002Y253537D01*
X208000Y253600D01*
X302200Y783000D02*
X457800Y783000D01*
X457800Y617000D01*
X302200Y617000D01*
X302200Y783000D01*
X438000Y653600D02*
X438002Y653663D01*
X438008Y653725D01*
X438018Y653787D01*
X438031Y653849D01*
X438049Y653909D01*
X438070Y653968D01*
X438095Y654026D01*
X438124Y654082D01*
X438156Y654136D01*
X438191Y654188D01*
X438229Y654237D01*
X438271Y654285D01*
X438315Y654329D01*
X438363Y654371D01*
X438412Y654409D01*
X438464Y654444D01*
X438518Y654476D01*
X438574Y654505D01*
X438632Y654530D01*
X438691Y654551D01*
X438751Y654569D01*
X438813Y654582D01*
X438875Y654592D01*
X438937Y654598D01*
X439000Y654600D01*
X439063Y654598D01*
X439125Y654592D01*
X439187Y654582D01*
X439249Y654569D01*
X439309Y654551D01*
X439368Y654530D01*
X439426Y654505D01*
X439482Y654476D01*
X439536Y654444D01*
X439588Y654409D01*
X439637Y654371D01*
X439685Y654329D01*
X439729Y654285D01*
X439771Y654237D01*
X439809Y654188D01*
X439844Y654136D01*
X439876Y654082D01*
X439905Y654026D01*
X439930Y653968D01*
X439951Y653909D01*
X439969Y653849D01*
X439982Y653787D01*
X439992Y653725D01*
X439998Y653663D01*
X440000Y653600D01*
X439998Y653537D01*
X439992Y653475D01*
X439982Y653413D01*
X439969Y653351D01*
X439951Y653291D01*
X439930Y653232D01*
X439905Y653174D01*
X439876Y653118D01*
X439844Y653064D01*
X439809Y653012D01*
X439771Y652963D01*
X439729Y652915D01*
X439685Y652871D01*
X439637Y652829D01*
X439588Y652791D01*
X439536Y652756D01*
X439482Y652724D01*
X439426Y652695D01*
X439368Y652670D01*
X439309Y652649D01*
X439249Y652631D01*
X439187Y652618D01*
X439125Y652608D01*
X439063Y652602D01*
X439000Y652600D01*
X438937Y652602D01*
X438875Y652608D01*
X438813Y652618D01*
X438751Y652631D01*
X438691Y652649D01*
X438632Y652670D01*
X438574Y652695D01*
X438518Y652724D01*
X438464Y652756D01*
X438412Y652791D01*
X438363Y652829D01*
X438315Y652871D01*
X438271Y652915D01*
X438229Y652963D01*
X438191Y653012D01*
X438156Y653064D01*
X438124Y653118D01*
X438095Y653174D01*
X438070Y653232D01*
X438049Y653291D01*
X438031Y653351D01*
X438018Y653413D01*
X438008Y653475D01*
X438002Y653537D01*
X438000Y653600D01*
X457800Y583000D02*
X302200Y583000D01*
X457800Y583000D02*
X457800Y417000D01*
X302200Y417000D01*
X302200Y583000D01*
X438000Y453600D02*
X438002Y453663D01*
X438008Y453725D01*
X438018Y453787D01*
X438031Y453849D01*
X438049Y453909D01*
X438070Y453968D01*
X438095Y454026D01*
X438124Y454082D01*
X438156Y454136D01*
X438191Y454188D01*
X438229Y454237D01*
X438271Y454285D01*
X438315Y454329D01*
X438363Y454371D01*
X438412Y454409D01*
X438464Y454444D01*
X438518Y454476D01*
X438574Y454505D01*
X438632Y454530D01*
X438691Y454551D01*
X438751Y454569D01*
X438813Y454582D01*
X438875Y454592D01*
X438937Y454598D01*
X439000Y454600D01*
X439063Y454598D01*
X439125Y454592D01*
X439187Y454582D01*
X439249Y454569D01*
X439309Y454551D01*
X439368Y454530D01*
X439426Y454505D01*
X439482Y454476D01*
X439536Y454444D01*
X439588Y454409D01*
X439637Y454371D01*
X439685Y454329D01*
X439729Y454285D01*
X439771Y454237D01*
X439809Y454188D01*
X439844Y454136D01*
X439876Y454082D01*
X439905Y454026D01*
X439930Y453968D01*
X439951Y453909D01*
X439969Y453849D01*
X439982Y453787D01*
X439992Y453725D01*
X439998Y453663D01*
X440000Y453600D01*
X439998Y453537D01*
X439992Y453475D01*
X439982Y453413D01*
X439969Y453351D01*
X439951Y453291D01*
X439930Y453232D01*
X439905Y453174D01*
X439876Y453118D01*
X439844Y453064D01*
X439809Y453012D01*
X439771Y452963D01*
X439729Y452915D01*
X439685Y452871D01*
X439637Y452829D01*
X439588Y452791D01*
X439536Y452756D01*
X439482Y452724D01*
X439426Y452695D01*
X439368Y452670D01*
X439309Y452649D01*
X439249Y452631D01*
X439187Y452618D01*
X439125Y452608D01*
X439063Y452602D01*
X439000Y452600D01*
X438937Y452602D01*
X438875Y452608D01*
X438813Y452618D01*
X438751Y452631D01*
X438691Y452649D01*
X438632Y452670D01*
X438574Y452695D01*
X438518Y452724D01*
X438464Y452756D01*
X438412Y452791D01*
X438363Y452829D01*
X438315Y452871D01*
X438271Y452915D01*
X438229Y452963D01*
X438191Y453012D01*
X438156Y453064D01*
X438124Y453118D01*
X438095Y453174D01*
X438070Y453232D01*
X438049Y453291D01*
X438031Y453351D01*
X438018Y453413D01*
X438008Y453475D01*
X438002Y453537D01*
X438000Y453600D01*
X542200Y583000D02*
X697800Y583000D01*
X697800Y417000D01*
X542200Y417000D01*
X542200Y583000D01*
X678000Y453600D02*
X678002Y453663D01*
X678008Y453725D01*
X678018Y453787D01*
X678031Y453849D01*
X678049Y453909D01*
X678070Y453968D01*
X678095Y454026D01*
X678124Y454082D01*
X678156Y454136D01*
X678191Y454188D01*
X678229Y454237D01*
X678271Y454285D01*
X678315Y454329D01*
X678363Y454371D01*
X678412Y454409D01*
X678464Y454444D01*
X678518Y454476D01*
X678574Y454505D01*
X678632Y454530D01*
X678691Y454551D01*
X678751Y454569D01*
X678813Y454582D01*
X678875Y454592D01*
X678937Y454598D01*
X679000Y454600D01*
X679063Y454598D01*
X679125Y454592D01*
X679187Y454582D01*
X679249Y454569D01*
X679309Y454551D01*
X679368Y454530D01*
X679426Y454505D01*
X679482Y454476D01*
X679536Y454444D01*
X679588Y454409D01*
X679637Y454371D01*
X679685Y454329D01*
X679729Y454285D01*
X679771Y454237D01*
X679809Y454188D01*
X679844Y454136D01*
X679876Y454082D01*
X679905Y454026D01*
X679930Y453968D01*
X679951Y453909D01*
X679969Y453849D01*
X679982Y453787D01*
X679992Y453725D01*
X679998Y453663D01*
X680000Y453600D01*
X679998Y453537D01*
X679992Y453475D01*
X679982Y453413D01*
X679969Y453351D01*
X679951Y453291D01*
X679930Y453232D01*
X679905Y453174D01*
X679876Y453118D01*
X679844Y453064D01*
X679809Y453012D01*
X679771Y452963D01*
X679729Y452915D01*
X679685Y452871D01*
X679637Y452829D01*
X679588Y452791D01*
X679536Y452756D01*
X679482Y452724D01*
X679426Y452695D01*
X679368Y452670D01*
X679309Y452649D01*
X679249Y452631D01*
X679187Y452618D01*
X679125Y452608D01*
X679063Y452602D01*
X679000Y452600D01*
X678937Y452602D01*
X678875Y452608D01*
X678813Y452618D01*
X678751Y452631D01*
X678691Y452649D01*
X678632Y452670D01*
X678574Y452695D01*
X678518Y452724D01*
X678464Y452756D01*
X678412Y452791D01*
X678363Y452829D01*
X678315Y452871D01*
X678271Y452915D01*
X678229Y452963D01*
X678191Y453012D01*
X678156Y453064D01*
X678124Y453118D01*
X678095Y453174D01*
X678070Y453232D01*
X678049Y453291D01*
X678031Y453351D01*
X678018Y453413D01*
X678008Y453475D01*
X678002Y453537D01*
X678000Y453600D01*
X227800Y583000D02*
X72200Y583000D01*
X227800Y583000D02*
X227800Y417000D01*
X72200Y417000D01*
X72200Y583000D01*
X208000Y453600D02*
X208002Y453663D01*
X208008Y453725D01*
X208018Y453787D01*
X208031Y453849D01*
X208049Y453909D01*
X208070Y453968D01*
X208095Y454026D01*
X208124Y454082D01*
X208156Y454136D01*
X208191Y454188D01*
X208229Y454237D01*
X208271Y454285D01*
X208315Y454329D01*
X208363Y454371D01*
X208412Y454409D01*
X208464Y454444D01*
X208518Y454476D01*
X208574Y454505D01*
X208632Y454530D01*
X208691Y454551D01*
X208751Y454569D01*
X208813Y454582D01*
X208875Y454592D01*
X208937Y454598D01*
X209000Y454600D01*
X209063Y454598D01*
X209125Y454592D01*
X209187Y454582D01*
X209249Y454569D01*
X209309Y454551D01*
X209368Y454530D01*
X209426Y454505D01*
X209482Y454476D01*
X209536Y454444D01*
X209588Y454409D01*
X209637Y454371D01*
X209685Y454329D01*
X209729Y454285D01*
X209771Y454237D01*
X209809Y454188D01*
X209844Y454136D01*
X209876Y454082D01*
X209905Y454026D01*
X209930Y453968D01*
X209951Y453909D01*
X209969Y453849D01*
X209982Y453787D01*
X209992Y453725D01*
X209998Y453663D01*
X210000Y453600D01*
X209998Y453537D01*
X209992Y453475D01*
X209982Y453413D01*
X209969Y453351D01*
X209951Y453291D01*
X209930Y453232D01*
X209905Y453174D01*
X209876Y453118D01*
X209844Y453064D01*
X209809Y453012D01*
X209771Y452963D01*
X209729Y452915D01*
X209685Y452871D01*
X209637Y452829D01*
X209588Y452791D01*
X209536Y452756D01*
X209482Y452724D01*
X209426Y452695D01*
X209368Y452670D01*
X209309Y452649D01*
X209249Y452631D01*
X209187Y452618D01*
X209125Y452608D01*
X209063Y452602D01*
X209000Y452600D01*
X208937Y452602D01*
X208875Y452608D01*
X208813Y452618D01*
X208751Y452631D01*
X208691Y452649D01*
X208632Y452670D01*
X208574Y452695D01*
X208518Y452724D01*
X208464Y452756D01*
X208412Y452791D01*
X208363Y452829D01*
X208315Y452871D01*
X208271Y452915D01*
X208229Y452963D01*
X208191Y453012D01*
X208156Y453064D01*
X208124Y453118D01*
X208095Y453174D01*
X208070Y453232D01*
X208049Y453291D01*
X208031Y453351D01*
X208018Y453413D01*
X208008Y453475D01*
X208002Y453537D01*
X208000Y453600D01*
X227800Y783000D02*
X72200Y783000D01*
X227800Y783000D02*
X227800Y617000D01*
X72200Y617000D01*
X72200Y783000D01*
X208000Y653600D02*
X208002Y653663D01*
X208008Y653725D01*
X208018Y653787D01*
X208031Y653849D01*
X208049Y653909D01*
X208070Y653968D01*
X208095Y654026D01*
X208124Y654082D01*
X208156Y654136D01*
X208191Y654188D01*
X208229Y654237D01*
X208271Y654285D01*
X208315Y654329D01*
X208363Y654371D01*
X208412Y654409D01*
X208464Y654444D01*
X208518Y654476D01*
X208574Y654505D01*
X208632Y654530D01*
X208691Y654551D01*
X208751Y654569D01*
X208813Y654582D01*
X208875Y654592D01*
X208937Y654598D01*
X209000Y654600D01*
X209063Y654598D01*
X209125Y654592D01*
X209187Y654582D01*
X209249Y654569D01*
X209309Y654551D01*
X209368Y654530D01*
X209426Y654505D01*
X209482Y654476D01*
X209536Y654444D01*
X209588Y654409D01*
X209637Y654371D01*
X209685Y654329D01*
X209729Y654285D01*
X209771Y654237D01*
X209809Y654188D01*
X209844Y654136D01*
X209876Y654082D01*
X209905Y654026D01*
X209930Y653968D01*
X209951Y653909D01*
X209969Y653849D01*
X209982Y653787D01*
X209992Y653725D01*
X209998Y653663D01*
X210000Y653600D01*
X209998Y653537D01*
X209992Y653475D01*
X209982Y653413D01*
X209969Y653351D01*
X209951Y653291D01*
X209930Y653232D01*
X209905Y653174D01*
X209876Y653118D01*
X209844Y653064D01*
X209809Y653012D01*
X209771Y652963D01*
X209729Y652915D01*
X209685Y652871D01*
X209637Y652829D01*
X209588Y652791D01*
X209536Y652756D01*
X209482Y652724D01*
X209426Y652695D01*
X209368Y652670D01*
X209309Y652649D01*
X209249Y652631D01*
X209187Y652618D01*
X209125Y652608D01*
X209063Y652602D01*
X209000Y652600D01*
X208937Y652602D01*
X208875Y652608D01*
X208813Y652618D01*
X208751Y652631D01*
X208691Y652649D01*
X208632Y652670D01*
X208574Y652695D01*
X208518Y652724D01*
X208464Y652756D01*
X208412Y652791D01*
X208363Y652829D01*
X208315Y652871D01*
X208271Y652915D01*
X208229Y652963D01*
X208191Y653012D01*
X208156Y653064D01*
X208124Y653118D01*
X208095Y653174D01*
X208070Y653232D01*
X208049Y653291D01*
X208031Y653351D01*
X208018Y653413D01*
X208008Y653475D01*
X208002Y653537D01*
X208000Y653600D01*
X542200Y783000D02*
X697800Y783000D01*
X697800Y617000D01*
X542200Y617000D01*
X542200Y783000D01*
X678000Y653600D02*
X678002Y653663D01*
X678008Y653725D01*
X678018Y653787D01*
X678031Y653849D01*
X678049Y653909D01*
X678070Y653968D01*
X678095Y654026D01*
X678124Y654082D01*
X678156Y654136D01*
X678191Y654188D01*
X678229Y654237D01*
X678271Y654285D01*
X678315Y654329D01*
X678363Y654371D01*
X678412Y654409D01*
X678464Y654444D01*
X678518Y654476D01*
X678574Y654505D01*
X678632Y654530D01*
X678691Y654551D01*
X678751Y654569D01*
X678813Y654582D01*
X678875Y654592D01*
X678937Y654598D01*
X679000Y654600D01*
X679063Y654598D01*
X679125Y654592D01*
X679187Y654582D01*
X679249Y654569D01*
X679309Y654551D01*
X679368Y654530D01*
X679426Y654505D01*
X679482Y654476D01*
X679536Y654444D01*
X679588Y654409D01*
X679637Y654371D01*
X679685Y654329D01*
X679729Y654285D01*
X679771Y654237D01*
X679809Y654188D01*
X679844Y654136D01*
X679876Y654082D01*
X679905Y654026D01*
X679930Y653968D01*
X679951Y653909D01*
X679969Y653849D01*
X679982Y653787D01*
X679992Y653725D01*
X679998Y653663D01*
X680000Y653600D01*
X679998Y653537D01*
X679992Y653475D01*
X679982Y653413D01*
X679969Y653351D01*
X679951Y653291D01*
X679930Y653232D01*
X679905Y653174D01*
X679876Y653118D01*
X679844Y653064D01*
X679809Y653012D01*
X679771Y652963D01*
X679729Y652915D01*
X679685Y652871D01*
X679637Y652829D01*
X679588Y652791D01*
X679536Y652756D01*
X679482Y652724D01*
X679426Y652695D01*
X679368Y652670D01*
X679309Y652649D01*
X679249Y652631D01*
X679187Y652618D01*
X679125Y652608D01*
X679063Y652602D01*
X679000Y652600D01*
X678937Y652602D01*
X678875Y652608D01*
X678813Y652618D01*
X678751Y652631D01*
X678691Y652649D01*
X678632Y652670D01*
X678574Y652695D01*
X678518Y652724D01*
X678464Y652756D01*
X678412Y652791D01*
X678363Y652829D01*
X678315Y652871D01*
X678271Y652915D01*
X678229Y652963D01*
X678191Y653012D01*
X678156Y653064D01*
X678124Y653118D01*
X678095Y653174D01*
X678070Y653232D01*
X678049Y653291D01*
X678031Y653351D01*
X678018Y653413D01*
X678008Y653475D01*
X678002Y653537D01*
X678000Y653600D01*
X697800Y983000D02*
X542200Y983000D01*
X697800Y983000D02*
X697800Y817000D01*
X542200Y817000D01*
X542200Y983000D01*
X678000Y853600D02*
X678002Y853663D01*
X678008Y853725D01*
X678018Y853787D01*
X678031Y853849D01*
X678049Y853909D01*
X678070Y853968D01*
X678095Y854026D01*
X678124Y854082D01*
X678156Y854136D01*
X678191Y854188D01*
X678229Y854237D01*
X678271Y854285D01*
X678315Y854329D01*
X678363Y854371D01*
X678412Y854409D01*
X678464Y854444D01*
X678518Y854476D01*
X678574Y854505D01*
X678632Y854530D01*
X678691Y854551D01*
X678751Y854569D01*
X678813Y854582D01*
X678875Y854592D01*
X678937Y854598D01*
X679000Y854600D01*
X679063Y854598D01*
X679125Y854592D01*
X679187Y854582D01*
X679249Y854569D01*
X679309Y854551D01*
X679368Y854530D01*
X679426Y854505D01*
X679482Y854476D01*
X679536Y854444D01*
X679588Y854409D01*
X679637Y854371D01*
X679685Y854329D01*
X679729Y854285D01*
X679771Y854237D01*
X679809Y854188D01*
X679844Y854136D01*
X679876Y854082D01*
X679905Y854026D01*
X679930Y853968D01*
X679951Y853909D01*
X679969Y853849D01*
X679982Y853787D01*
X679992Y853725D01*
X679998Y853663D01*
X680000Y853600D01*
X679998Y853537D01*
X679992Y853475D01*
X679982Y853413D01*
X679969Y853351D01*
X679951Y853291D01*
X679930Y853232D01*
X679905Y853174D01*
X679876Y853118D01*
X679844Y853064D01*
X679809Y853012D01*
X679771Y852963D01*
X679729Y852915D01*
X679685Y852871D01*
X679637Y852829D01*
X679588Y852791D01*
X679536Y852756D01*
X679482Y852724D01*
X679426Y852695D01*
X679368Y852670D01*
X679309Y852649D01*
X679249Y852631D01*
X679187Y852618D01*
X679125Y852608D01*
X679063Y852602D01*
X679000Y852600D01*
X678937Y852602D01*
X678875Y852608D01*
X678813Y852618D01*
X678751Y852631D01*
X678691Y852649D01*
X678632Y852670D01*
X678574Y852695D01*
X678518Y852724D01*
X678464Y852756D01*
X678412Y852791D01*
X678363Y852829D01*
X678315Y852871D01*
X678271Y852915D01*
X678229Y852963D01*
X678191Y853012D01*
X678156Y853064D01*
X678124Y853118D01*
X678095Y853174D01*
X678070Y853232D01*
X678049Y853291D01*
X678031Y853351D01*
X678018Y853413D01*
X678008Y853475D01*
X678002Y853537D01*
X678000Y853600D01*
X772200Y383000D02*
X927800Y383000D01*
X927800Y217000D01*
X772200Y217000D01*
X772200Y383000D01*
X908000Y253600D02*
X908002Y253663D01*
X908008Y253725D01*
X908018Y253787D01*
X908031Y253849D01*
X908049Y253909D01*
X908070Y253968D01*
X908095Y254026D01*
X908124Y254082D01*
X908156Y254136D01*
X908191Y254188D01*
X908229Y254237D01*
X908271Y254285D01*
X908315Y254329D01*
X908363Y254371D01*
X908412Y254409D01*
X908464Y254444D01*
X908518Y254476D01*
X908574Y254505D01*
X908632Y254530D01*
X908691Y254551D01*
X908751Y254569D01*
X908813Y254582D01*
X908875Y254592D01*
X908937Y254598D01*
X909000Y254600D01*
X909063Y254598D01*
X909125Y254592D01*
X909187Y254582D01*
X909249Y254569D01*
X909309Y254551D01*
X909368Y254530D01*
X909426Y254505D01*
X909482Y254476D01*
X909536Y254444D01*
X909588Y254409D01*
X909637Y254371D01*
X909685Y254329D01*
X909729Y254285D01*
X909771Y254237D01*
X909809Y254188D01*
X909844Y254136D01*
X909876Y254082D01*
X909905Y254026D01*
X909930Y253968D01*
X909951Y253909D01*
X909969Y253849D01*
X909982Y253787D01*
X909992Y253725D01*
X909998Y253663D01*
X910000Y253600D01*
X909998Y253537D01*
X909992Y253475D01*
X909982Y253413D01*
X909969Y253351D01*
X909951Y253291D01*
X909930Y253232D01*
X909905Y253174D01*
X909876Y253118D01*
X909844Y253064D01*
X909809Y253012D01*
X909771Y252963D01*
X909729Y252915D01*
X909685Y252871D01*
X909637Y252829D01*
X909588Y252791D01*
X909536Y252756D01*
X909482Y252724D01*
X909426Y252695D01*
X909368Y252670D01*
X909309Y252649D01*
X909249Y252631D01*
X909187Y252618D01*
X909125Y252608D01*
X909063Y252602D01*
X909000Y252600D01*
X908937Y252602D01*
X908875Y252608D01*
X908813Y252618D01*
X908751Y252631D01*
X908691Y252649D01*
X908632Y252670D01*
X908574Y252695D01*
X908518Y252724D01*
X908464Y252756D01*
X908412Y252791D01*
X908363Y252829D01*
X908315Y252871D01*
X908271Y252915D01*
X908229Y252963D01*
X908191Y253012D01*
X908156Y253064D01*
X908124Y253118D01*
X908095Y253174D01*
X908070Y253232D01*
X908049Y253291D01*
X908031Y253351D01*
X908018Y253413D01*
X908008Y253475D01*
X908002Y253537D01*
X908000Y253600D01*
X927800Y583000D02*
X772200Y583000D01*
X927800Y583000D02*
X927800Y417000D01*
X772200Y417000D01*
X772200Y583000D01*
X908000Y453600D02*
X908002Y453663D01*
X908008Y453725D01*
X908018Y453787D01*
X908031Y453849D01*
X908049Y453909D01*
X908070Y453968D01*
X908095Y454026D01*
X908124Y454082D01*
X908156Y454136D01*
X908191Y454188D01*
X908229Y454237D01*
X908271Y454285D01*
X908315Y454329D01*
X908363Y454371D01*
X908412Y454409D01*
X908464Y454444D01*
X908518Y454476D01*
X908574Y454505D01*
X908632Y454530D01*
X908691Y454551D01*
X908751Y454569D01*
X908813Y454582D01*
X908875Y454592D01*
X908937Y454598D01*
X909000Y454600D01*
X909063Y454598D01*
X909125Y454592D01*
X909187Y454582D01*
X909249Y454569D01*
X909309Y454551D01*
X909368Y454530D01*
X909426Y454505D01*
X909482Y454476D01*
X909536Y454444D01*
X909588Y454409D01*
X909637Y454371D01*
X909685Y454329D01*
X909729Y454285D01*
X909771Y454237D01*
X909809Y454188D01*
X909844Y454136D01*
X909876Y454082D01*
X909905Y454026D01*
X909930Y453968D01*
X909951Y453909D01*
X909969Y453849D01*
X909982Y453787D01*
X909992Y453725D01*
X909998Y453663D01*
X910000Y453600D01*
X909998Y453537D01*
X909992Y453475D01*
X909982Y453413D01*
X909969Y453351D01*
X909951Y453291D01*
X909930Y453232D01*
X909905Y453174D01*
X909876Y453118D01*
X909844Y453064D01*
X909809Y453012D01*
X909771Y452963D01*
X909729Y452915D01*
X909685Y452871D01*
X909637Y452829D01*
X909588Y452791D01*
X909536Y452756D01*
X909482Y452724D01*
X909426Y452695D01*
X909368Y452670D01*
X909309Y452649D01*
X909249Y452631D01*
X909187Y452618D01*
X909125Y452608D01*
X909063Y452602D01*
X909000Y452600D01*
X908937Y452602D01*
X908875Y452608D01*
X908813Y452618D01*
X908751Y452631D01*
X908691Y452649D01*
X908632Y452670D01*
X908574Y452695D01*
X908518Y452724D01*
X908464Y452756D01*
X908412Y452791D01*
X908363Y452829D01*
X908315Y452871D01*
X908271Y452915D01*
X908229Y452963D01*
X908191Y453012D01*
X908156Y453064D01*
X908124Y453118D01*
X908095Y453174D01*
X908070Y453232D01*
X908049Y453291D01*
X908031Y453351D01*
X908018Y453413D01*
X908008Y453475D01*
X908002Y453537D01*
X908000Y453600D01*
X927800Y783000D02*
X772200Y783000D01*
X927800Y783000D02*
X927800Y617000D01*
X772200Y617000D01*
X772200Y783000D01*
X908000Y653600D02*
X908002Y653663D01*
X908008Y653725D01*
X908018Y653787D01*
X908031Y653849D01*
X908049Y653909D01*
X908070Y653968D01*
X908095Y654026D01*
X908124Y654082D01*
X908156Y654136D01*
X908191Y654188D01*
X908229Y654237D01*
X908271Y654285D01*
X908315Y654329D01*
X908363Y654371D01*
X908412Y654409D01*
X908464Y654444D01*
X908518Y654476D01*
X908574Y654505D01*
X908632Y654530D01*
X908691Y654551D01*
X908751Y654569D01*
X908813Y654582D01*
X908875Y654592D01*
X908937Y654598D01*
X909000Y654600D01*
X909063Y654598D01*
X909125Y654592D01*
X909187Y654582D01*
X909249Y654569D01*
X909309Y654551D01*
X909368Y654530D01*
X909426Y654505D01*
X909482Y654476D01*
X909536Y654444D01*
X909588Y654409D01*
X909637Y654371D01*
X909685Y654329D01*
X909729Y654285D01*
X909771Y654237D01*
X909809Y654188D01*
X909844Y654136D01*
X909876Y654082D01*
X909905Y654026D01*
X909930Y653968D01*
X909951Y653909D01*
X909969Y653849D01*
X909982Y653787D01*
X909992Y653725D01*
X909998Y653663D01*
X910000Y653600D01*
X909998Y653537D01*
X909992Y653475D01*
X909982Y653413D01*
X909969Y653351D01*
X909951Y653291D01*
X909930Y653232D01*
X909905Y653174D01*
X909876Y653118D01*
X909844Y653064D01*
X909809Y653012D01*
X909771Y652963D01*
X909729Y652915D01*
X909685Y652871D01*
X909637Y652829D01*
X909588Y652791D01*
X909536Y652756D01*
X909482Y652724D01*
X909426Y652695D01*
X909368Y652670D01*
X909309Y652649D01*
X909249Y652631D01*
X909187Y652618D01*
X909125Y652608D01*
X909063Y652602D01*
X909000Y652600D01*
X908937Y652602D01*
X908875Y652608D01*
X908813Y652618D01*
X908751Y652631D01*
X908691Y652649D01*
X908632Y652670D01*
X908574Y652695D01*
X908518Y652724D01*
X908464Y652756D01*
X908412Y652791D01*
X908363Y652829D01*
X908315Y652871D01*
X908271Y652915D01*
X908229Y652963D01*
X908191Y653012D01*
X908156Y653064D01*
X908124Y653118D01*
X908095Y653174D01*
X908070Y653232D01*
X908049Y653291D01*
X908031Y653351D01*
X908018Y653413D01*
X908008Y653475D01*
X908002Y653537D01*
X908000Y653600D01*
X927800Y983000D02*
X772200Y983000D01*
X927800Y983000D02*
X927800Y817000D01*
X772200Y817000D01*
X772200Y983000D01*
X908000Y853600D02*
X908002Y853663D01*
X908008Y853725D01*
X908018Y853787D01*
X908031Y853849D01*
X908049Y853909D01*
X908070Y853968D01*
X908095Y854026D01*
X908124Y854082D01*
X908156Y854136D01*
X908191Y854188D01*
X908229Y854237D01*
X908271Y854285D01*
X908315Y854329D01*
X908363Y854371D01*
X908412Y854409D01*
X908464Y854444D01*
X908518Y854476D01*
X908574Y854505D01*
X908632Y854530D01*
X908691Y854551D01*
X908751Y854569D01*
X908813Y854582D01*
X908875Y854592D01*
X908937Y854598D01*
X909000Y854600D01*
X909063Y854598D01*
X909125Y854592D01*
X909187Y854582D01*
X909249Y854569D01*
X909309Y854551D01*
X909368Y854530D01*
X909426Y854505D01*
X909482Y854476D01*
X909536Y854444D01*
X909588Y854409D01*
X909637Y854371D01*
X909685Y854329D01*
X909729Y854285D01*
X909771Y854237D01*
X909809Y854188D01*
X909844Y854136D01*
X909876Y854082D01*
X909905Y854026D01*
X909930Y853968D01*
X909951Y853909D01*
X909969Y853849D01*
X909982Y853787D01*
X909992Y853725D01*
X909998Y853663D01*
X910000Y853600D01*
X909998Y853537D01*
X909992Y853475D01*
X909982Y853413D01*
X909969Y853351D01*
X909951Y853291D01*
X909930Y853232D01*
X909905Y853174D01*
X909876Y853118D01*
X909844Y853064D01*
X909809Y853012D01*
X909771Y852963D01*
X909729Y852915D01*
X909685Y852871D01*
X909637Y852829D01*
X909588Y852791D01*
X909536Y852756D01*
X909482Y852724D01*
X909426Y852695D01*
X909368Y852670D01*
X909309Y852649D01*
X909249Y852631D01*
X909187Y852618D01*
X909125Y852608D01*
X909063Y852602D01*
X909000Y852600D01*
X908937Y852602D01*
X908875Y852608D01*
X908813Y852618D01*
X908751Y852631D01*
X908691Y852649D01*
X908632Y852670D01*
X908574Y852695D01*
X908518Y852724D01*
X908464Y852756D01*
X908412Y852791D01*
X908363Y852829D01*
X908315Y852871D01*
X908271Y852915D01*
X908229Y852963D01*
X908191Y853012D01*
X908156Y853064D01*
X908124Y853118D01*
X908095Y853174D01*
X908070Y853232D01*
X908049Y853291D01*
X908031Y853351D01*
X908018Y853413D01*
X908008Y853475D01*
X908002Y853537D01*
X908000Y853600D01*
M02*
