G04 EAGLE Gerber RS-274X export*
G75*
%MOMM*%
%FSLAX34Y34*%
%LPD*%
%INSilkscreen Top*%
%IPPOS*%
%AMOC8*
5,1,8,0,0,1.08239X$1,22.5*%
G01*
%ADD10C,0.203200*%
%ADD11C,0.406400*%
%ADD12C,0.177800*%
%ADD13C,0.500000*%
%ADD14R,0.480000X0.020000*%
%ADD15R,0.460000X0.020000*%
%ADD16R,0.820000X0.020000*%
%ADD17R,0.800000X0.020000*%
%ADD18R,1.060000X0.020000*%
%ADD19R,1.020000X0.020000*%
%ADD20R,1.260000X0.020000*%
%ADD21R,1.180000X0.020000*%
%ADD22R,1.420000X0.020000*%
%ADD23R,1.340000X0.020000*%
%ADD24R,1.540000X0.020000*%
%ADD25R,1.480000X0.020000*%
%ADD26R,1.660000X0.020000*%
%ADD27R,1.580000X0.020000*%
%ADD28R,1.780000X0.020000*%
%ADD29R,1.680000X0.020000*%
%ADD30R,1.880000X0.020000*%
%ADD31R,1.240000X0.020000*%
%ADD32R,1.280000X0.020000*%
%ADD33R,1.960000X0.020000*%
%ADD34R,2.060000X0.020000*%
%ADD35R,2.140000X0.020000*%
%ADD36R,2.040000X0.020000*%
%ADD37R,1.300000X0.020000*%
%ADD38R,2.200000X0.020000*%
%ADD39R,2.120000X0.020000*%
%ADD40R,2.280000X0.020000*%
%ADD41R,2.180000X0.020000*%
%ADD42R,2.360000X0.020000*%
%ADD43R,2.260000X0.020000*%
%ADD44R,2.440000X0.020000*%
%ADD45R,2.340000X0.020000*%
%ADD46R,2.480000X0.020000*%
%ADD47R,2.380000X0.020000*%
%ADD48R,2.540000X0.020000*%
%ADD49R,2.460000X0.020000*%
%ADD50R,2.600000X0.020000*%
%ADD51R,2.500000X0.020000*%
%ADD52R,2.660000X0.020000*%
%ADD53R,2.560000X0.020000*%
%ADD54R,2.720000X0.020000*%
%ADD55R,2.620000X0.020000*%
%ADD56R,2.760000X0.020000*%
%ADD57R,2.820000X0.020000*%
%ADD58R,2.700000X0.020000*%
%ADD59R,2.860000X0.020000*%
%ADD60R,2.900000X0.020000*%
%ADD61R,2.800000X0.020000*%
%ADD62R,2.980000X0.020000*%
%ADD63R,3.020000X0.020000*%
%ADD64R,3.060000X0.020000*%
%ADD65R,2.940000X0.020000*%
%ADD66R,3.100000X0.020000*%
%ADD67R,3.140000X0.020000*%
%ADD68R,3.180000X0.020000*%
%ADD69R,3.220000X0.020000*%
%ADD70R,3.080000X0.020000*%
%ADD71R,3.260000X0.020000*%
%ADD72R,3.120000X0.020000*%
%ADD73R,3.300000X0.020000*%
%ADD74R,3.160000X0.020000*%
%ADD75R,3.340000X0.020000*%
%ADD76R,3.200000X0.020000*%
%ADD77R,3.360000X0.020000*%
%ADD78R,3.240000X0.020000*%
%ADD79R,3.400000X0.020000*%
%ADD80R,3.280000X0.020000*%
%ADD81R,3.440000X0.020000*%
%ADD82R,3.460000X0.020000*%
%ADD83R,3.320000X0.020000*%
%ADD84R,3.500000X0.020000*%
%ADD85R,3.520000X0.020000*%
%ADD86R,3.560000X0.020000*%
%ADD87R,3.420000X0.020000*%
%ADD88R,3.580000X0.020000*%
%ADD89R,3.620000X0.020000*%
%ADD90R,3.480000X0.020000*%
%ADD91R,3.640000X0.020000*%
%ADD92R,3.680000X0.020000*%
%ADD93R,3.540000X0.020000*%
%ADD94R,3.700000X0.020000*%
%ADD95R,3.740000X0.020000*%
%ADD96R,3.600000X0.020000*%
%ADD97R,3.780000X0.020000*%
%ADD98R,3.800000X0.020000*%
%ADD99R,3.820000X0.020000*%
%ADD100R,3.860000X0.020000*%
%ADD101R,3.720000X0.020000*%
%ADD102R,3.900000X0.020000*%
%ADD103R,3.940000X0.020000*%
%ADD104R,3.980000X0.020000*%
%ADD105R,1.920000X0.020000*%
%ADD106R,1.820000X0.020000*%
%ADD107R,1.740000X0.020000*%
%ADD108R,1.800000X0.020000*%
%ADD109R,1.760000X0.020000*%
%ADD110R,1.600000X0.020000*%
%ADD111R,1.720000X0.020000*%
%ADD112R,1.700000X0.020000*%
%ADD113R,1.620000X0.020000*%
%ADD114R,1.500000X0.020000*%
%ADD115R,1.640000X0.020000*%
%ADD116R,1.440000X0.020000*%
%ADD117R,1.560000X0.020000*%
%ADD118R,1.460000X0.020000*%
%ADD119R,1.520000X0.020000*%
%ADD120R,1.380000X0.020000*%
%ADD121R,1.360000X0.020000*%
%ADD122R,1.400000X0.020000*%
%ADD123R,1.320000X0.020000*%
%ADD124R,1.220000X0.020000*%
%ADD125R,5.200000X0.020000*%
%ADD126R,1.160000X0.020000*%
%ADD127R,5.180000X0.020000*%
%ADD128R,1.120000X0.020000*%
%ADD129R,5.160000X0.020000*%
%ADD130R,1.080000X0.020000*%
%ADD131R,5.140000X0.020000*%
%ADD132R,0.980000X0.020000*%
%ADD133R,5.120000X0.020000*%
%ADD134R,0.920000X0.020000*%
%ADD135R,0.860000X0.020000*%
%ADD136R,5.080000X0.020000*%
%ADD137R,0.780000X0.020000*%
%ADD138R,1.200000X0.020000*%
%ADD139R,5.060000X0.020000*%
%ADD140R,0.720000X0.020000*%
%ADD141R,5.040000X0.020000*%
%ADD142R,0.680000X0.020000*%
%ADD143R,0.640000X0.020000*%
%ADD144R,5.000000X0.020000*%
%ADD145R,0.580000X0.020000*%
%ADD146R,0.540000X0.020000*%
%ADD147R,4.980000X0.020000*%
%ADD148R,0.500000X0.020000*%
%ADD149R,4.960000X0.020000*%
%ADD150R,0.400000X0.020000*%
%ADD151R,4.940000X0.020000*%
%ADD152R,0.360000X0.020000*%
%ADD153R,4.920000X0.020000*%
%ADD154R,0.320000X0.020000*%
%ADD155R,0.260000X0.020000*%
%ADD156R,4.880000X0.020000*%
%ADD157R,0.220000X0.020000*%
%ADD158R,0.180000X0.020000*%
%ADD159R,4.860000X0.020000*%
%ADD160R,0.140000X0.020000*%
%ADD161R,4.840000X0.020000*%
%ADD162R,0.080000X0.020000*%
%ADD163R,0.040000X0.020000*%
%ADD164R,4.800000X0.020000*%
%ADD165R,4.780000X0.020000*%
%ADD166R,4.760000X0.020000*%
%ADD167R,4.740000X0.020000*%
%ADD168R,4.720000X0.020000*%
%ADD169R,4.680000X0.020000*%
%ADD170R,4.660000X0.020000*%
%ADD171R,4.640000X0.020000*%
%ADD172R,4.600000X0.020000*%
%ADD173R,4.580000X0.020000*%
%ADD174R,4.560000X0.020000*%
%ADD175R,4.540000X0.020000*%
%ADD176R,4.520000X0.020000*%
%ADD177R,4.480000X0.020000*%
%ADD178R,4.460000X0.020000*%
%ADD179R,4.440000X0.020000*%
%ADD180R,4.400000X0.020000*%
%ADD181R,4.380000X0.020000*%
%ADD182R,4.360000X0.020000*%
%ADD183R,4.340000X0.020000*%
%ADD184R,4.320000X0.020000*%
%ADD185R,4.280000X0.020000*%
%ADD186R,1.840000X0.020000*%
%ADD187R,1.860000X0.020000*%
%ADD188R,1.900000X0.020000*%
%ADD189R,2.580000X0.020000*%
%ADD190R,0.020000X0.020000*%
%ADD191R,2.520000X0.020000*%
%ADD192R,0.120000X0.020000*%
%ADD193R,0.160000X0.020000*%
%ADD194R,0.300000X0.020000*%
%ADD195R,2.420000X0.020000*%
%ADD196R,0.340000X0.020000*%
%ADD197R,2.400000X0.020000*%
%ADD198R,0.380000X0.020000*%
%ADD199R,0.420000X0.020000*%
%ADD200R,2.320000X0.020000*%
%ADD201R,0.620000X0.020000*%
%ADD202R,2.300000X0.020000*%
%ADD203R,0.760000X0.020000*%
%ADD204R,2.240000X0.020000*%
%ADD205R,0.840000X0.020000*%
%ADD206R,2.220000X0.020000*%
%ADD207R,0.900000X0.020000*%
%ADD208R,0.940000X0.020000*%
%ADD209R,2.160000X0.020000*%
%ADD210R,1.100000X0.020000*%
%ADD211R,2.100000X0.020000*%
%ADD212R,2.080000X0.020000*%
%ADD213R,2.020000X0.020000*%
%ADD214R,2.000000X0.020000*%
%ADD215R,1.980000X0.020000*%
%ADD216R,1.940000X0.020000*%
%ADD217R,3.380000X0.020000*%
%ADD218R,2.960000X0.020000*%
%ADD219R,2.920000X0.020000*%
%ADD220R,2.880000X0.020000*%
%ADD221R,2.840000X0.020000*%
%ADD222R,2.680000X0.020000*%
%ADD223C,0.304800*%
%ADD224C,0.200000*%
%ADD225C,0.127000*%
%ADD226C,1.000000*%
%ADD227C,0.152400*%
%ADD228C,0.565681*%
%ADD229C,0.101600*%
%ADD230R,0.800000X0.400000*%
%ADD231C,0.254000*%
%ADD232R,0.300000X0.150000*%
%ADD233R,0.300000X0.300000*%

G36*
X760036Y48218D02*
X760036Y48218D01*
X760171Y48216D01*
X760236Y48228D01*
X760302Y48231D01*
X760434Y48265D01*
X760566Y48289D01*
X760628Y48314D01*
X760693Y48331D01*
X760815Y48389D01*
X760940Y48439D01*
X760996Y48476D01*
X761056Y48505D01*
X761164Y48586D01*
X761277Y48660D01*
X761324Y48707D01*
X761377Y48747D01*
X761467Y48848D01*
X761563Y48943D01*
X761601Y48998D01*
X761645Y49048D01*
X761740Y49206D01*
X761788Y49277D01*
X761799Y49302D01*
X761817Y49332D01*
X771977Y69652D01*
X772007Y69731D01*
X772043Y69800D01*
X772043Y69801D01*
X772047Y69807D01*
X772079Y69919D01*
X772120Y70028D01*
X772134Y70112D01*
X772158Y70194D01*
X772168Y70310D01*
X772187Y70425D01*
X772184Y70510D01*
X772191Y70596D01*
X772177Y70711D01*
X772174Y70827D01*
X772154Y70911D01*
X772144Y70995D01*
X772108Y71106D01*
X772081Y71219D01*
X772046Y71297D01*
X772019Y71378D01*
X771962Y71480D01*
X771914Y71585D01*
X771863Y71654D01*
X771821Y71729D01*
X771745Y71817D01*
X771677Y71911D01*
X771614Y71969D01*
X771558Y72034D01*
X771466Y72105D01*
X771381Y72184D01*
X771307Y72228D01*
X771240Y72280D01*
X771136Y72332D01*
X771036Y72392D01*
X770956Y72422D01*
X770880Y72460D01*
X770767Y72490D01*
X770658Y72529D01*
X770573Y72542D01*
X770491Y72564D01*
X770344Y72576D01*
X770260Y72589D01*
X770216Y72587D01*
X770160Y72591D01*
X749840Y72591D01*
X749755Y72583D01*
X749669Y72584D01*
X749555Y72563D01*
X749439Y72551D01*
X749358Y72526D01*
X749274Y72511D01*
X749166Y72467D01*
X749054Y72433D01*
X748979Y72392D01*
X748900Y72361D01*
X748803Y72297D01*
X748700Y72241D01*
X748635Y72187D01*
X748563Y72140D01*
X748480Y72058D01*
X748391Y71984D01*
X748338Y71917D01*
X748277Y71857D01*
X748212Y71761D01*
X748139Y71670D01*
X748100Y71594D01*
X748052Y71523D01*
X748007Y71416D01*
X747953Y71313D01*
X747930Y71231D01*
X747897Y71152D01*
X747874Y71037D01*
X747842Y70926D01*
X747835Y70841D01*
X747818Y70757D01*
X747819Y70640D01*
X747809Y70524D01*
X747819Y70440D01*
X747819Y70354D01*
X747842Y70240D01*
X747856Y70125D01*
X747882Y70043D01*
X747900Y69960D01*
X747954Y69823D01*
X747981Y69742D01*
X747984Y69736D01*
X747985Y69734D01*
X748003Y69701D01*
X748023Y69652D01*
X758183Y49332D01*
X758219Y49275D01*
X758246Y49215D01*
X758326Y49105D01*
X758398Y48991D01*
X758444Y48943D01*
X758483Y48889D01*
X758583Y48798D01*
X758676Y48700D01*
X758730Y48662D01*
X758779Y48616D01*
X758895Y48546D01*
X759006Y48469D01*
X759067Y48442D01*
X759124Y48408D01*
X759251Y48362D01*
X759375Y48307D01*
X759439Y48293D01*
X759502Y48271D01*
X759636Y48251D01*
X759768Y48222D01*
X759835Y48221D01*
X759900Y48211D01*
X760036Y48218D01*
G37*
G36*
X545907Y772221D02*
X545907Y772221D01*
X545909Y772220D01*
X545952Y772240D01*
X545996Y772258D01*
X545996Y772260D01*
X545998Y772261D01*
X546031Y772346D01*
X546031Y774886D01*
X546030Y774888D01*
X546031Y774890D01*
X546011Y774933D01*
X545993Y774977D01*
X545991Y774977D01*
X545990Y774979D01*
X545905Y775012D01*
X542095Y775012D01*
X542093Y775011D01*
X542091Y775012D01*
X542048Y774992D01*
X542004Y774974D01*
X542004Y774972D01*
X542002Y774971D01*
X541969Y774886D01*
X541969Y772346D01*
X541970Y772344D01*
X541969Y772342D01*
X541989Y772299D01*
X542007Y772255D01*
X542009Y772255D01*
X542010Y772253D01*
X542095Y772220D01*
X545905Y772220D01*
X545907Y772221D01*
G37*
G36*
X487656Y705970D02*
X487656Y705970D01*
X487658Y705969D01*
X487701Y705989D01*
X487745Y706007D01*
X487745Y706009D01*
X487747Y706010D01*
X487780Y706095D01*
X487780Y709905D01*
X487779Y709907D01*
X487780Y709909D01*
X487760Y709952D01*
X487742Y709996D01*
X487740Y709996D01*
X487739Y709998D01*
X487654Y710031D01*
X485114Y710031D01*
X485112Y710030D01*
X485110Y710031D01*
X485067Y710011D01*
X485023Y709993D01*
X485023Y709991D01*
X485021Y709990D01*
X484988Y709905D01*
X484988Y706095D01*
X484989Y706093D01*
X484988Y706091D01*
X485008Y706048D01*
X485026Y706004D01*
X485028Y706004D01*
X485029Y706002D01*
X485114Y705969D01*
X487654Y705969D01*
X487656Y705970D01*
G37*
G36*
X594888Y697970D02*
X594888Y697970D01*
X594890Y697969D01*
X594933Y697989D01*
X594977Y698007D01*
X594977Y698009D01*
X594979Y698010D01*
X595012Y698095D01*
X595012Y701905D01*
X595011Y701907D01*
X595012Y701909D01*
X594992Y701952D01*
X594974Y701996D01*
X594972Y701996D01*
X594971Y701998D01*
X594886Y702031D01*
X592346Y702031D01*
X592344Y702030D01*
X592342Y702031D01*
X592299Y702011D01*
X592255Y701993D01*
X592255Y701991D01*
X592253Y701990D01*
X592220Y701905D01*
X592220Y698095D01*
X592221Y698093D01*
X592220Y698091D01*
X592240Y698048D01*
X592258Y698004D01*
X592260Y698004D01*
X592261Y698002D01*
X592346Y697969D01*
X594886Y697969D01*
X594888Y697970D01*
G37*
D10*
X36459Y371371D02*
X39086Y373997D01*
X44339Y373997D01*
X46966Y371371D01*
X46966Y368744D01*
X44339Y366117D01*
X41712Y366117D01*
X44339Y366117D02*
X46966Y363490D01*
X46966Y360863D01*
X44339Y358236D01*
X39086Y358236D01*
X36459Y360863D01*
X52830Y363490D02*
X52830Y373997D01*
X52830Y363490D02*
X58084Y358236D01*
X63338Y363490D01*
X63338Y373997D01*
X69202Y371371D02*
X71829Y373997D01*
X77082Y373997D01*
X79709Y371371D01*
X79709Y368744D01*
X77082Y366117D01*
X74456Y366117D01*
X77082Y366117D02*
X79709Y363490D01*
X79709Y360863D01*
X77082Y358236D01*
X71829Y358236D01*
X69202Y360863D01*
X74644Y431777D02*
X85152Y431777D01*
X74644Y431777D02*
X74644Y423897D01*
X79898Y426524D01*
X82525Y426524D01*
X85152Y423897D01*
X85152Y418643D01*
X82525Y416016D01*
X77271Y416016D01*
X74644Y418643D01*
X91016Y421270D02*
X91016Y431777D01*
X91016Y421270D02*
X96270Y416016D01*
X101524Y421270D01*
X101524Y431777D01*
D11*
X110000Y410000D02*
X70000Y410000D01*
X80000Y380000D02*
X40000Y380000D01*
D12*
X125878Y90889D02*
X139111Y90889D01*
X125878Y90889D02*
X125878Y97506D01*
X128083Y99711D01*
X132494Y99711D01*
X134700Y97506D01*
X134700Y90889D01*
X134700Y95300D02*
X139111Y99711D01*
X125878Y104701D02*
X125878Y113523D01*
X125878Y104701D02*
X139111Y104701D01*
X139111Y113523D01*
X132494Y109112D02*
X132494Y104701D01*
X125878Y125129D02*
X128083Y127335D01*
X125878Y125129D02*
X125878Y120718D01*
X128083Y118513D01*
X130289Y118513D01*
X132494Y120718D01*
X132494Y125129D01*
X134700Y127335D01*
X136905Y127335D01*
X139111Y125129D01*
X139111Y120718D01*
X136905Y118513D01*
X125878Y132324D02*
X125878Y141147D01*
X125878Y132324D02*
X139111Y132324D01*
X139111Y141147D01*
X132494Y136735D02*
X132494Y132324D01*
X125878Y150547D02*
X139111Y150547D01*
X125878Y146136D02*
X125878Y154958D01*
X295878Y90889D02*
X309111Y90889D01*
X295878Y90889D02*
X295878Y97506D01*
X298083Y99711D01*
X302494Y99711D01*
X304700Y97506D01*
X304700Y90889D01*
X304700Y95300D02*
X309111Y99711D01*
X309111Y104701D02*
X295878Y104701D01*
X295878Y111317D01*
X298083Y113523D01*
X300289Y113523D01*
X302494Y111317D01*
X304700Y113523D01*
X306905Y113523D01*
X309111Y111317D01*
X309111Y104701D01*
X302494Y104701D02*
X302494Y111317D01*
X295878Y118513D02*
X295878Y127335D01*
X298083Y127335D01*
X306905Y118513D01*
X309111Y118513D01*
X429355Y133389D02*
X429355Y146622D01*
X429355Y140006D02*
X438177Y140006D01*
X438177Y146622D02*
X438177Y133389D01*
X443167Y146622D02*
X451989Y146622D01*
X443167Y146622D02*
X443167Y133389D01*
X451989Y133389D01*
X447578Y140006D02*
X443167Y140006D01*
X456979Y146622D02*
X456979Y133389D01*
X465801Y133389D01*
X470791Y133389D02*
X470791Y146622D01*
X470791Y133389D02*
X479613Y133389D01*
X486808Y146622D02*
X491219Y146622D01*
X486808Y146622D02*
X484602Y144417D01*
X484602Y135595D01*
X486808Y133389D01*
X491219Y133389D01*
X493425Y135595D01*
X493425Y144417D01*
X491219Y146622D01*
X512226Y146622D02*
X512226Y133389D01*
X516637Y137800D01*
X521048Y133389D01*
X521048Y146622D01*
X528243Y146622D02*
X532654Y146622D01*
X528243Y146622D02*
X526038Y144417D01*
X526038Y135595D01*
X528243Y133389D01*
X532654Y133389D01*
X534860Y135595D01*
X534860Y144417D01*
X532654Y146622D01*
X539849Y146622D02*
X539849Y133389D01*
X539849Y146622D02*
X546466Y146622D01*
X548672Y144417D01*
X548672Y140006D01*
X546466Y137800D01*
X539849Y137800D01*
X544261Y137800D02*
X548672Y133389D01*
X553661Y133389D02*
X553661Y146622D01*
X553661Y133389D02*
X562483Y133389D01*
X567473Y133389D02*
X567473Y146622D01*
X567473Y133389D02*
X574090Y133389D01*
X576295Y135595D01*
X576295Y144417D01*
X574090Y146622D01*
X567473Y146622D01*
X581285Y135595D02*
X581285Y133389D01*
X581285Y140006D02*
X581285Y148828D01*
X316360Y835889D02*
X316360Y849122D01*
X322976Y849122D01*
X325182Y846917D01*
X325182Y842506D01*
X322976Y840300D01*
X316360Y840300D01*
X320771Y840300D02*
X325182Y835889D01*
X330171Y849122D02*
X338993Y849122D01*
X330171Y849122D02*
X330171Y835889D01*
X338993Y835889D01*
X334582Y842506D02*
X330171Y842506D01*
X350600Y849122D02*
X352805Y846917D01*
X350600Y849122D02*
X346189Y849122D01*
X343983Y846917D01*
X343983Y844711D01*
X346189Y842506D01*
X350600Y842506D01*
X352805Y840300D01*
X352805Y838095D01*
X350600Y835889D01*
X346189Y835889D01*
X343983Y838095D01*
X357795Y849122D02*
X366617Y849122D01*
X357795Y849122D02*
X357795Y835889D01*
X366617Y835889D01*
X362206Y842506D02*
X357795Y842506D01*
X376018Y849122D02*
X376018Y835889D01*
X371607Y849122D02*
X380429Y849122D01*
X885383Y242076D02*
X883178Y239870D01*
X883178Y235459D01*
X885383Y233254D01*
X894205Y233254D01*
X896411Y235459D01*
X896411Y239870D01*
X894205Y242076D01*
X889794Y242076D01*
X889794Y237665D01*
X883178Y247065D02*
X896411Y247065D01*
X896411Y255888D02*
X883178Y247065D01*
X883178Y255888D02*
X896411Y255888D01*
X896411Y260877D02*
X883178Y260877D01*
X896411Y260877D02*
X896411Y267494D01*
X894205Y269699D01*
X885383Y269699D01*
X883178Y267494D01*
X883178Y260877D01*
X866000Y233254D02*
X857178Y233254D01*
X866000Y233254D02*
X870411Y237665D01*
X866000Y242076D01*
X857178Y242076D01*
X857178Y247065D02*
X870411Y247065D01*
X870411Y253682D01*
X868205Y255888D01*
X859383Y255888D01*
X857178Y253682D01*
X857178Y247065D01*
X857178Y260877D02*
X870411Y260877D01*
X870411Y267494D01*
X868205Y269699D01*
X859383Y269699D01*
X857178Y267494D01*
X857178Y260877D01*
D11*
X773400Y710800D02*
X773400Y762200D01*
X800800Y761800D02*
X800800Y710800D01*
X826200Y710800D02*
X826200Y761800D01*
X852600Y761800D02*
X852600Y710800D01*
X838800Y634800D02*
X787800Y634800D01*
X787800Y609400D02*
X838800Y609400D01*
X838800Y584000D02*
X787800Y584000D01*
X787800Y558600D02*
X838800Y558600D01*
X838800Y533200D02*
X787800Y533200D01*
X787800Y507800D02*
X838800Y507800D01*
X838800Y482400D02*
X787800Y482400D01*
X787800Y457000D02*
X838800Y457000D01*
X838800Y431600D02*
X787800Y431600D01*
X787800Y406200D02*
X838800Y406200D01*
X838800Y380800D02*
X787800Y380800D01*
X787800Y355400D02*
X838800Y355400D01*
X838800Y330000D02*
X787800Y330000D01*
X787800Y304600D02*
X838800Y304600D01*
X838800Y279200D02*
X787800Y279200D01*
X914800Y279200D02*
X965800Y279200D01*
X965800Y634800D02*
X914800Y634800D01*
X914800Y609400D02*
X965800Y609400D01*
X965800Y584000D02*
X914800Y584000D01*
X914800Y558600D02*
X965800Y558600D01*
X965800Y533200D02*
X914800Y533200D01*
X914800Y507800D02*
X965800Y507800D01*
X965800Y482400D02*
X914800Y482400D01*
X914800Y457000D02*
X965800Y457000D01*
X965800Y431600D02*
X914800Y431600D01*
X914800Y406200D02*
X965800Y406200D01*
X965800Y380800D02*
X914800Y380800D01*
X914800Y355400D02*
X965800Y355400D01*
X965800Y330000D02*
X914800Y330000D01*
X914800Y304600D02*
X965800Y304600D01*
X872800Y277600D02*
X877800Y630800D01*
X852400Y631600D02*
X852400Y278400D01*
X898200Y282600D02*
X903200Y630800D01*
D10*
X436016Y580846D02*
X436016Y571016D01*
X436016Y580846D02*
X440931Y585761D01*
X445846Y580846D01*
X445846Y571016D01*
X445846Y578388D02*
X436016Y578388D01*
X456367Y571016D02*
X456367Y585761D01*
X451452Y585761D02*
X461282Y585761D01*
X466888Y580846D02*
X466888Y571016D01*
X466888Y580846D02*
X469346Y580846D01*
X471803Y578388D01*
X471803Y571016D01*
X471803Y578388D02*
X474260Y580846D01*
X476718Y578388D01*
X476718Y571016D01*
X484782Y571016D02*
X489696Y571016D01*
X484782Y571016D02*
X482324Y573473D01*
X482324Y578388D01*
X484782Y580846D01*
X489696Y580846D01*
X492154Y578388D01*
X492154Y575931D01*
X482324Y575931D01*
X502675Y566101D02*
X505133Y566101D01*
X507590Y568559D01*
X507590Y580846D01*
X500218Y580846D01*
X497760Y578388D01*
X497760Y573473D01*
X500218Y571016D01*
X507590Y571016D01*
X515654Y580846D02*
X520569Y580846D01*
X523026Y578388D01*
X523026Y571016D01*
X515654Y571016D01*
X513196Y573473D01*
X515654Y575931D01*
X523026Y575931D01*
X528632Y583303D02*
X531090Y585761D01*
X536005Y585761D01*
X538462Y583303D01*
X538462Y580846D01*
X536005Y578388D01*
X533547Y578388D01*
X536005Y578388D02*
X538462Y575931D01*
X538462Y573473D01*
X536005Y571016D01*
X531090Y571016D01*
X528632Y573473D01*
X544068Y571016D02*
X553898Y571016D01*
X544068Y571016D02*
X553898Y580846D01*
X553898Y583303D01*
X551441Y585761D01*
X546526Y585761D01*
X544068Y583303D01*
X559505Y583303D02*
X561962Y585761D01*
X566877Y585761D01*
X569334Y583303D01*
X569334Y580846D01*
X566877Y578388D01*
X569334Y575931D01*
X569334Y573473D01*
X566877Y571016D01*
X561962Y571016D01*
X559505Y573473D01*
X559505Y575931D01*
X561962Y578388D01*
X559505Y580846D01*
X559505Y583303D01*
X561962Y578388D02*
X566877Y578388D01*
X574941Y571016D02*
X574941Y585761D01*
X582313Y585761D01*
X584770Y583303D01*
X584770Y578388D01*
X582313Y575931D01*
X574941Y575931D01*
X590377Y578388D02*
X600206Y578388D01*
X605813Y580846D02*
X605813Y571016D01*
X605813Y580846D02*
X610728Y585761D01*
X615642Y580846D01*
X615642Y571016D01*
X615642Y578388D02*
X605813Y578388D01*
X621249Y573473D02*
X621249Y585761D01*
X621249Y573473D02*
X623706Y571016D01*
X628621Y571016D01*
X631078Y573473D01*
X631078Y585761D01*
X436016Y480761D02*
X436016Y466016D01*
X436016Y480761D02*
X443388Y480761D01*
X445846Y478303D01*
X445846Y473388D01*
X443388Y470931D01*
X436016Y470931D01*
X451452Y466016D02*
X456367Y466016D01*
X453909Y466016D02*
X453909Y480761D01*
X451452Y480761D02*
X456367Y480761D01*
X469115Y480761D02*
X471572Y478303D01*
X469115Y480761D02*
X464200Y480761D01*
X461743Y478303D01*
X461743Y468473D01*
X464200Y466016D01*
X469115Y466016D01*
X471572Y468473D01*
X477179Y475846D02*
X482094Y480761D01*
X482094Y466016D01*
X477179Y466016D02*
X487009Y466016D01*
X497530Y478303D02*
X502445Y480761D01*
X497530Y478303D02*
X492615Y473388D01*
X492615Y468473D01*
X495072Y466016D01*
X499987Y466016D01*
X502445Y468473D01*
X502445Y470931D01*
X499987Y473388D01*
X492615Y473388D01*
X508051Y466016D02*
X508051Y480761D01*
X517881Y480761D01*
X512966Y473388D02*
X508051Y473388D01*
X523487Y475846D02*
X528402Y480761D01*
X528402Y466016D01*
X523487Y466016D02*
X533317Y466016D01*
X538923Y478303D02*
X541380Y480761D01*
X546295Y480761D01*
X548753Y478303D01*
X548753Y475846D01*
X546295Y473388D01*
X548753Y470931D01*
X548753Y468473D01*
X546295Y466016D01*
X541380Y466016D01*
X538923Y468473D01*
X538923Y470931D01*
X541380Y473388D01*
X538923Y475846D01*
X538923Y478303D01*
X541380Y473388D02*
X546295Y473388D01*
X554359Y466016D02*
X564189Y466016D01*
X554359Y466016D02*
X564189Y475846D01*
X564189Y478303D01*
X561731Y480761D01*
X556817Y480761D01*
X554359Y478303D01*
X569795Y468473D02*
X572253Y466016D01*
X577167Y466016D01*
X579625Y468473D01*
X579625Y478303D01*
X577167Y480761D01*
X572253Y480761D01*
X569795Y478303D01*
X569795Y475846D01*
X572253Y473388D01*
X579625Y473388D01*
D12*
X883178Y652870D02*
X885383Y655076D01*
X883178Y652870D02*
X883178Y648459D01*
X885383Y646254D01*
X894205Y646254D01*
X896411Y648459D01*
X896411Y652870D01*
X894205Y655076D01*
X889794Y655076D01*
X889794Y650665D01*
X883178Y660065D02*
X896411Y660065D01*
X896411Y668888D02*
X883178Y660065D01*
X883178Y668888D02*
X896411Y668888D01*
X896411Y673877D02*
X883178Y673877D01*
X896411Y673877D02*
X896411Y680494D01*
X894205Y682699D01*
X885383Y682699D01*
X883178Y680494D01*
X883178Y673877D01*
X866000Y646254D02*
X857178Y646254D01*
X866000Y646254D02*
X870411Y650665D01*
X866000Y655076D01*
X857178Y655076D01*
X857178Y660065D02*
X870411Y660065D01*
X870411Y666682D01*
X868205Y668888D01*
X859383Y668888D01*
X857178Y666682D01*
X857178Y660065D01*
X857178Y673877D02*
X870411Y673877D01*
X870411Y680494D01*
X868205Y682699D01*
X859383Y682699D01*
X857178Y680494D01*
X857178Y673877D01*
X330171Y604122D02*
X330171Y590889D01*
X330171Y604122D02*
X336788Y604122D01*
X338993Y601917D01*
X338993Y597506D01*
X336788Y595300D01*
X330171Y595300D01*
X343983Y590889D02*
X343983Y604122D01*
X343983Y590889D02*
X350600Y590889D01*
X352805Y593095D01*
X352805Y601917D01*
X350600Y604122D01*
X343983Y604122D01*
X364411Y604122D02*
X364411Y590889D01*
X357795Y597506D02*
X364411Y604122D01*
X366617Y597506D02*
X357795Y597506D01*
D13*
X838200Y777240D02*
X838200Y792480D01*
X812800Y792480D02*
X812800Y777240D01*
X787400Y777240D02*
X787400Y792480D01*
D11*
X265000Y90000D02*
X230000Y90000D01*
X215000Y115000D02*
X215000Y130000D01*
X230000Y155000D02*
X265000Y155000D01*
X280000Y130000D02*
X280000Y115000D01*
D10*
X386816Y447549D02*
X386816Y457379D01*
X386816Y447549D02*
X391731Y442634D01*
X396646Y447549D01*
X396646Y457379D01*
X402252Y457379D02*
X402252Y442634D01*
X409624Y442634D01*
X412082Y445091D01*
X412082Y454921D01*
X409624Y457379D01*
X402252Y457379D01*
X417688Y457379D02*
X417688Y442634D01*
X425060Y442634D01*
X427518Y445091D01*
X427518Y454921D01*
X425060Y457379D01*
X417688Y457379D01*
X577316Y457379D02*
X577316Y447549D01*
X582231Y442634D01*
X587146Y447549D01*
X587146Y457379D01*
X600124Y457379D02*
X602582Y454921D01*
X600124Y457379D02*
X595209Y457379D01*
X592752Y454921D01*
X592752Y452464D01*
X595209Y450006D01*
X600124Y450006D01*
X602582Y447549D01*
X602582Y445091D01*
X600124Y442634D01*
X595209Y442634D01*
X592752Y445091D01*
X615560Y457379D02*
X618018Y454921D01*
X615560Y457379D02*
X610646Y457379D01*
X608188Y454921D01*
X608188Y452464D01*
X610646Y450006D01*
X615560Y450006D01*
X618018Y447549D01*
X618018Y445091D01*
X615560Y442634D01*
X610646Y442634D01*
X608188Y445091D01*
X386816Y431979D02*
X386816Y417234D01*
X386816Y431979D02*
X394188Y431979D01*
X396646Y429521D01*
X396646Y424606D01*
X394188Y422149D01*
X386816Y422149D01*
X391731Y422149D02*
X396646Y417234D01*
X402252Y417234D02*
X402252Y427064D01*
X407167Y431979D01*
X412082Y427064D01*
X412082Y417234D01*
X412082Y424606D02*
X402252Y424606D01*
X417688Y431979D02*
X427518Y431979D01*
X417688Y431979D02*
X417688Y424606D01*
X422603Y427064D01*
X425060Y427064D01*
X427518Y424606D01*
X427518Y419691D01*
X425060Y417234D01*
X420146Y417234D01*
X417688Y419691D01*
X386816Y406579D02*
X386816Y391834D01*
X386816Y406579D02*
X394188Y406579D01*
X396646Y404121D01*
X396646Y399206D01*
X394188Y396749D01*
X386816Y396749D01*
X391731Y396749D02*
X396646Y391834D01*
X402252Y391834D02*
X402252Y401664D01*
X407167Y406579D01*
X412082Y401664D01*
X412082Y391834D01*
X412082Y399206D02*
X402252Y399206D01*
X425060Y391834D02*
X425060Y406579D01*
X417688Y399206D01*
X427518Y399206D01*
X386816Y381179D02*
X386816Y366434D01*
X386816Y381179D02*
X394188Y381179D01*
X396646Y378721D01*
X396646Y373806D01*
X394188Y371349D01*
X386816Y371349D01*
X391731Y371349D02*
X396646Y366434D01*
X402252Y366434D02*
X402252Y376264D01*
X407167Y381179D01*
X412082Y376264D01*
X412082Y366434D01*
X412082Y373806D02*
X402252Y373806D01*
X417688Y378721D02*
X420146Y381179D01*
X425060Y381179D01*
X427518Y378721D01*
X427518Y376264D01*
X425060Y373806D01*
X422603Y373806D01*
X425060Y373806D02*
X427518Y371349D01*
X427518Y368891D01*
X425060Y366434D01*
X420146Y366434D01*
X417688Y368891D01*
X386816Y355779D02*
X386816Y341034D01*
X386816Y355779D02*
X394188Y355779D01*
X396646Y353321D01*
X396646Y348406D01*
X394188Y345949D01*
X386816Y345949D01*
X391731Y345949D02*
X396646Y341034D01*
X409624Y355779D02*
X412082Y353321D01*
X409624Y355779D02*
X404709Y355779D01*
X402252Y353321D01*
X402252Y343491D01*
X404709Y341034D01*
X409624Y341034D01*
X412082Y343491D01*
X417688Y355779D02*
X427518Y355779D01*
X417688Y355779D02*
X417688Y348406D01*
X422603Y350864D01*
X425060Y350864D01*
X427518Y348406D01*
X427518Y343491D01*
X425060Y341034D01*
X420146Y341034D01*
X417688Y343491D01*
X386816Y330379D02*
X386816Y315634D01*
X386816Y330379D02*
X394188Y330379D01*
X396646Y327921D01*
X396646Y323006D01*
X394188Y320549D01*
X386816Y320549D01*
X391731Y320549D02*
X396646Y315634D01*
X409624Y330379D02*
X412082Y327921D01*
X409624Y330379D02*
X404709Y330379D01*
X402252Y327921D01*
X402252Y318091D01*
X404709Y315634D01*
X409624Y315634D01*
X412082Y318091D01*
X425060Y315634D02*
X425060Y330379D01*
X417688Y323006D01*
X427518Y323006D01*
X386816Y304979D02*
X386816Y290234D01*
X386816Y304979D02*
X394188Y304979D01*
X396646Y302521D01*
X396646Y297606D01*
X394188Y295149D01*
X386816Y295149D01*
X391731Y295149D02*
X396646Y290234D01*
X409624Y304979D02*
X412082Y302521D01*
X409624Y304979D02*
X404709Y304979D01*
X402252Y302521D01*
X402252Y292691D01*
X404709Y290234D01*
X409624Y290234D01*
X412082Y292691D01*
X417688Y302521D02*
X420146Y304979D01*
X425060Y304979D01*
X427518Y302521D01*
X427518Y300064D01*
X425060Y297606D01*
X422603Y297606D01*
X425060Y297606D02*
X427518Y295149D01*
X427518Y292691D01*
X425060Y290234D01*
X420146Y290234D01*
X417688Y292691D01*
X386816Y279579D02*
X386816Y264834D01*
X386816Y279579D02*
X394188Y279579D01*
X396646Y277121D01*
X396646Y272206D01*
X394188Y269749D01*
X386816Y269749D01*
X391731Y269749D02*
X396646Y264834D01*
X409624Y279579D02*
X412082Y277121D01*
X409624Y279579D02*
X404709Y279579D01*
X402252Y277121D01*
X402252Y267291D01*
X404709Y264834D01*
X409624Y264834D01*
X412082Y267291D01*
X422603Y277121D02*
X427518Y279579D01*
X422603Y277121D02*
X417688Y272206D01*
X417688Y267291D01*
X420146Y264834D01*
X425060Y264834D01*
X427518Y267291D01*
X427518Y269749D01*
X425060Y272206D01*
X417688Y272206D01*
X386816Y254179D02*
X386816Y239434D01*
X386816Y254179D02*
X394188Y254179D01*
X396646Y251721D01*
X396646Y246806D01*
X394188Y244349D01*
X386816Y244349D01*
X391731Y244349D02*
X396646Y239434D01*
X409624Y254179D02*
X412082Y251721D01*
X409624Y254179D02*
X404709Y254179D01*
X402252Y251721D01*
X402252Y241891D01*
X404709Y239434D01*
X409624Y239434D01*
X412082Y241891D01*
X417688Y254179D02*
X427518Y254179D01*
X427518Y251721D01*
X417688Y241891D01*
X417688Y239434D01*
X386816Y228779D02*
X386816Y214034D01*
X386816Y228779D02*
X394188Y228779D01*
X396646Y226321D01*
X396646Y221406D01*
X394188Y218949D01*
X386816Y218949D01*
X391731Y218949D02*
X396646Y214034D01*
X402252Y214034D02*
X402252Y228779D01*
X409624Y228779D01*
X412082Y226321D01*
X412082Y223864D01*
X409624Y221406D01*
X412082Y218949D01*
X412082Y216491D01*
X409624Y214034D01*
X402252Y214034D01*
X402252Y221406D02*
X409624Y221406D01*
X417688Y228779D02*
X427518Y228779D01*
X427518Y226321D01*
X417688Y216491D01*
X417688Y214034D01*
X577316Y417234D02*
X577316Y431979D01*
X584688Y431979D01*
X587146Y429521D01*
X587146Y424606D01*
X584688Y422149D01*
X577316Y422149D01*
X582231Y422149D02*
X587146Y417234D01*
X592752Y417234D02*
X592752Y427064D01*
X597667Y431979D01*
X602582Y427064D01*
X602582Y417234D01*
X602582Y424606D02*
X592752Y424606D01*
X608188Y419691D02*
X608188Y429521D01*
X610646Y431979D01*
X615560Y431979D01*
X618018Y429521D01*
X618018Y419691D01*
X615560Y417234D01*
X610646Y417234D01*
X608188Y419691D01*
X618018Y429521D01*
X577316Y406579D02*
X577316Y391834D01*
X577316Y406579D02*
X584688Y406579D01*
X587146Y404121D01*
X587146Y399206D01*
X584688Y396749D01*
X577316Y396749D01*
X582231Y396749D02*
X587146Y391834D01*
X592752Y391834D02*
X592752Y401664D01*
X597667Y406579D01*
X602582Y401664D01*
X602582Y391834D01*
X602582Y399206D02*
X592752Y399206D01*
X608188Y401664D02*
X613103Y406579D01*
X613103Y391834D01*
X608188Y391834D02*
X618018Y391834D01*
X577316Y355779D02*
X577316Y341034D01*
X577316Y355779D02*
X584688Y355779D01*
X587146Y353321D01*
X587146Y348406D01*
X584688Y345949D01*
X577316Y345949D01*
X582231Y345949D02*
X587146Y341034D01*
X600124Y355779D02*
X602582Y353321D01*
X600124Y355779D02*
X595209Y355779D01*
X592752Y353321D01*
X592752Y343491D01*
X595209Y341034D01*
X600124Y341034D01*
X602582Y343491D01*
X608188Y343491D02*
X608188Y353321D01*
X610646Y355779D01*
X615560Y355779D01*
X618018Y353321D01*
X618018Y343491D01*
X615560Y341034D01*
X610646Y341034D01*
X608188Y343491D01*
X618018Y353321D01*
X577316Y366434D02*
X577316Y381179D01*
X584688Y381179D01*
X587146Y378721D01*
X587146Y373806D01*
X584688Y371349D01*
X577316Y371349D01*
X582231Y371349D02*
X587146Y366434D01*
X592752Y366434D02*
X592752Y376264D01*
X597667Y381179D01*
X602582Y376264D01*
X602582Y366434D01*
X602582Y373806D02*
X592752Y373806D01*
X608188Y366434D02*
X618018Y366434D01*
X608188Y366434D02*
X618018Y376264D01*
X618018Y378721D01*
X615560Y381179D01*
X610646Y381179D01*
X608188Y378721D01*
X577316Y330379D02*
X577316Y315634D01*
X577316Y330379D02*
X584688Y330379D01*
X587146Y327921D01*
X587146Y323006D01*
X584688Y320549D01*
X577316Y320549D01*
X582231Y320549D02*
X587146Y315634D01*
X600124Y330379D02*
X602582Y327921D01*
X600124Y330379D02*
X595209Y330379D01*
X592752Y327921D01*
X592752Y318091D01*
X595209Y315634D01*
X600124Y315634D01*
X602582Y318091D01*
X608188Y325464D02*
X613103Y330379D01*
X613103Y315634D01*
X608188Y315634D02*
X618018Y315634D01*
X577316Y304979D02*
X577316Y290234D01*
X577316Y304979D02*
X584688Y304979D01*
X587146Y302521D01*
X587146Y297606D01*
X584688Y295149D01*
X577316Y295149D01*
X582231Y295149D02*
X587146Y290234D01*
X600124Y304979D02*
X602582Y302521D01*
X600124Y304979D02*
X595209Y304979D01*
X592752Y302521D01*
X592752Y292691D01*
X595209Y290234D01*
X600124Y290234D01*
X602582Y292691D01*
X608188Y290234D02*
X618018Y290234D01*
X608188Y290234D02*
X618018Y300064D01*
X618018Y302521D01*
X615560Y304979D01*
X610646Y304979D01*
X608188Y302521D01*
X577316Y279579D02*
X577316Y264834D01*
X577316Y279579D02*
X584688Y279579D01*
X587146Y277121D01*
X587146Y272206D01*
X584688Y269749D01*
X577316Y269749D01*
X582231Y269749D02*
X587146Y264834D01*
X592752Y264834D02*
X592752Y279579D01*
X600124Y279579D01*
X602582Y277121D01*
X602582Y274664D01*
X600124Y272206D01*
X602582Y269749D01*
X602582Y267291D01*
X600124Y264834D01*
X592752Y264834D01*
X592752Y272206D02*
X600124Y272206D01*
X615560Y264834D02*
X615560Y279579D01*
X608188Y272206D01*
X618018Y272206D01*
X577316Y254179D02*
X577316Y239434D01*
X577316Y254179D02*
X584688Y254179D01*
X587146Y251721D01*
X587146Y246806D01*
X584688Y244349D01*
X577316Y244349D01*
X582231Y244349D02*
X587146Y239434D01*
X592752Y239434D02*
X592752Y254179D01*
X600124Y254179D01*
X602582Y251721D01*
X602582Y249264D01*
X600124Y246806D01*
X602582Y244349D01*
X602582Y241891D01*
X600124Y239434D01*
X592752Y239434D01*
X592752Y246806D02*
X600124Y246806D01*
X608188Y254179D02*
X618018Y254179D01*
X608188Y254179D02*
X608188Y246806D01*
X613103Y249264D01*
X615560Y249264D01*
X618018Y246806D01*
X618018Y241891D01*
X615560Y239434D01*
X610646Y239434D01*
X608188Y241891D01*
X577316Y228779D02*
X577316Y214034D01*
X577316Y228779D02*
X584688Y228779D01*
X587146Y226321D01*
X587146Y221406D01*
X584688Y218949D01*
X577316Y218949D01*
X582231Y218949D02*
X587146Y214034D01*
X592752Y214034D02*
X592752Y228779D01*
X600124Y228779D01*
X602582Y226321D01*
X602582Y223864D01*
X600124Y221406D01*
X602582Y218949D01*
X602582Y216491D01*
X600124Y214034D01*
X592752Y214034D01*
X592752Y221406D02*
X600124Y221406D01*
X613103Y226321D02*
X618018Y228779D01*
X613103Y226321D02*
X608188Y221406D01*
X608188Y216491D01*
X610646Y214034D01*
X615560Y214034D01*
X618018Y216491D01*
X618018Y218949D01*
X615560Y221406D01*
X608188Y221406D01*
D14*
X356300Y52900D03*
D15*
X550000Y52500D03*
D16*
X356400Y53100D03*
D17*
X550100Y52700D03*
D18*
X356400Y53300D03*
D19*
X550000Y52900D03*
D20*
X356400Y53500D03*
D21*
X550000Y53100D03*
D22*
X356400Y53700D03*
D23*
X550000Y53300D03*
D24*
X356400Y53900D03*
D25*
X550100Y53500D03*
D26*
X356400Y54100D03*
D27*
X550000Y53700D03*
D28*
X356400Y54300D03*
D29*
X550100Y53900D03*
D30*
X356300Y54500D03*
D31*
X453100Y52900D03*
D28*
X550000Y54100D03*
D32*
X633100Y52700D03*
X682700Y52700D03*
D33*
X356300Y54700D03*
D20*
X453000Y53100D03*
D30*
X550100Y54300D03*
D32*
X633300Y52900D03*
X682500Y52900D03*
D34*
X356400Y54900D03*
D20*
X453000Y53300D03*
D33*
X550100Y54500D03*
D32*
X633300Y53100D03*
X682500Y53100D03*
D35*
X356400Y55100D03*
D20*
X453000Y53500D03*
D36*
X550100Y54700D03*
D37*
X633400Y53300D03*
D32*
X682500Y53300D03*
D38*
X356300Y55300D03*
D20*
X453000Y53700D03*
D39*
X550100Y54900D03*
D32*
X633500Y53500D03*
X682300Y53500D03*
D40*
X356300Y55500D03*
D20*
X453000Y53900D03*
D41*
X550000Y55100D03*
D32*
X633500Y53700D03*
X682300Y53700D03*
D42*
X356300Y55700D03*
D20*
X453000Y54100D03*
D43*
X550000Y55300D03*
D32*
X633700Y53900D03*
X682300Y53900D03*
D44*
X356300Y55900D03*
D20*
X453000Y54300D03*
D45*
X550000Y55500D03*
D32*
X633700Y54100D03*
X682100Y54100D03*
D46*
X356300Y56100D03*
D20*
X453000Y54500D03*
D47*
X550000Y55700D03*
D37*
X633800Y54300D03*
D32*
X682100Y54300D03*
D48*
X356200Y56300D03*
D20*
X453000Y54700D03*
D49*
X550000Y55900D03*
D32*
X633900Y54500D03*
X681900Y54500D03*
D50*
X356300Y56500D03*
D20*
X453000Y54900D03*
D51*
X550000Y56100D03*
D32*
X633900Y54700D03*
X681900Y54700D03*
D52*
X356200Y56700D03*
D20*
X453000Y55100D03*
D53*
X549900Y56300D03*
D32*
X634100Y54900D03*
X681900Y54900D03*
D54*
X356300Y56900D03*
D20*
X453000Y55300D03*
D55*
X550000Y56500D03*
D32*
X634100Y55100D03*
X681700Y55100D03*
D56*
X356300Y57100D03*
D20*
X453000Y55500D03*
D52*
X550000Y56700D03*
D32*
X634100Y55300D03*
X681700Y55300D03*
D57*
X356200Y57300D03*
D20*
X453000Y55700D03*
D58*
X550000Y56900D03*
D32*
X634300Y55500D03*
D20*
X681600Y55500D03*
D59*
X356200Y57500D03*
D20*
X453000Y55900D03*
D56*
X549900Y57100D03*
D32*
X634300Y55700D03*
X681500Y55700D03*
D60*
X356200Y57700D03*
D20*
X453000Y56100D03*
D61*
X549900Y57300D03*
D37*
X634400Y55900D03*
D32*
X681500Y55900D03*
D62*
X356200Y57900D03*
D20*
X453000Y56300D03*
D59*
X550000Y57500D03*
D32*
X634500Y56100D03*
X681300Y56100D03*
D63*
X356200Y58100D03*
D20*
X453000Y56500D03*
D60*
X550000Y57700D03*
D32*
X634500Y56300D03*
X681300Y56300D03*
D64*
X356200Y58300D03*
D20*
X453000Y56700D03*
D65*
X550000Y57900D03*
D32*
X634700Y56500D03*
X681300Y56500D03*
D66*
X356200Y58500D03*
D20*
X453000Y56900D03*
D62*
X550000Y58100D03*
D32*
X634700Y56700D03*
X681100Y56700D03*
D67*
X356200Y58700D03*
D20*
X453000Y57100D03*
D63*
X550000Y58300D03*
D37*
X634800Y56900D03*
D32*
X681100Y56900D03*
D68*
X356200Y58900D03*
D20*
X453000Y57300D03*
D64*
X550000Y58500D03*
D32*
X634900Y57100D03*
X680900Y57100D03*
D69*
X356200Y59100D03*
D20*
X453000Y57500D03*
D70*
X549900Y58700D03*
D32*
X634900Y57300D03*
X680900Y57300D03*
D71*
X356200Y59300D03*
D20*
X453000Y57700D03*
D72*
X549900Y58900D03*
D32*
X635100Y57500D03*
X680900Y57500D03*
D73*
X356200Y59500D03*
D20*
X453000Y57900D03*
D74*
X549900Y59100D03*
D32*
X635100Y57700D03*
X680700Y57700D03*
D75*
X356200Y59700D03*
D20*
X453000Y58100D03*
D76*
X549900Y59300D03*
D37*
X635200Y57900D03*
D32*
X680700Y57900D03*
D77*
X356100Y59900D03*
D20*
X453000Y58300D03*
D78*
X549900Y59500D03*
D32*
X635300Y58100D03*
D20*
X680600Y58100D03*
D79*
X356100Y60100D03*
D20*
X453000Y58500D03*
D80*
X549900Y59700D03*
D32*
X635300Y58300D03*
X680500Y58300D03*
D81*
X356100Y60300D03*
D20*
X453000Y58700D03*
D73*
X549800Y59900D03*
D37*
X635400Y58500D03*
D32*
X680500Y58500D03*
D82*
X356200Y60500D03*
D20*
X453000Y58900D03*
D83*
X549900Y60100D03*
D32*
X635500Y58700D03*
X680300Y58700D03*
D84*
X356200Y60700D03*
D20*
X453000Y59100D03*
D77*
X549900Y60300D03*
D37*
X635600Y58900D03*
D32*
X680300Y58900D03*
D85*
X356100Y60900D03*
D20*
X453000Y59300D03*
D79*
X549900Y60500D03*
D32*
X635700Y59100D03*
X680300Y59100D03*
D86*
X356100Y61100D03*
D20*
X453000Y59500D03*
D87*
X549800Y60700D03*
D32*
X635700Y59300D03*
X680100Y59300D03*
D88*
X356200Y61300D03*
D20*
X453000Y59700D03*
D82*
X549800Y60900D03*
D37*
X635800Y59500D03*
D32*
X680100Y59500D03*
D89*
X356200Y61500D03*
D20*
X453000Y59900D03*
D90*
X549900Y61100D03*
D32*
X635900Y59700D03*
D20*
X680000Y59700D03*
D91*
X356100Y61700D03*
D20*
X453000Y60100D03*
D84*
X549800Y61300D03*
D37*
X636000Y59900D03*
D32*
X679900Y59900D03*
D92*
X356100Y61900D03*
D20*
X453000Y60300D03*
D93*
X549800Y61500D03*
D32*
X636100Y60100D03*
X679900Y60100D03*
D94*
X356200Y62100D03*
D20*
X453000Y60500D03*
D86*
X549700Y61700D03*
D32*
X636100Y60300D03*
X679700Y60300D03*
D95*
X356200Y62300D03*
D20*
X453000Y60700D03*
D88*
X549800Y61900D03*
D37*
X636200Y60500D03*
D32*
X679700Y60500D03*
D95*
X356200Y62500D03*
D20*
X453000Y60900D03*
D96*
X549700Y62100D03*
D32*
X636300Y60700D03*
D20*
X679600Y60700D03*
D97*
X356200Y62700D03*
D20*
X453000Y61100D03*
D91*
X549700Y62300D03*
D37*
X636400Y60900D03*
D32*
X679500Y60900D03*
D98*
X356100Y62900D03*
D20*
X453000Y61300D03*
D91*
X549700Y62500D03*
D37*
X636400Y61100D03*
D32*
X679500Y61100D03*
D99*
X356200Y63100D03*
D20*
X453000Y61500D03*
D92*
X549700Y62700D03*
D32*
X636500Y61300D03*
D20*
X679400Y61300D03*
D100*
X356200Y63300D03*
D20*
X453000Y61700D03*
D94*
X549600Y62900D03*
D37*
X636600Y61500D03*
D32*
X679300Y61500D03*
D100*
X356200Y63500D03*
D20*
X453000Y61900D03*
D101*
X549700Y63100D03*
D32*
X636700Y61700D03*
X679300Y61700D03*
D102*
X356200Y63700D03*
D20*
X453000Y62100D03*
D95*
X549600Y63300D03*
D37*
X636800Y61900D03*
D32*
X679100Y61900D03*
D102*
X356200Y63900D03*
D20*
X453000Y62300D03*
D97*
X549600Y63500D03*
D37*
X636800Y62100D03*
D32*
X679100Y62100D03*
D103*
X356200Y64100D03*
D20*
X453000Y62500D03*
D97*
X549600Y63700D03*
D32*
X636900Y62300D03*
D20*
X679000Y62300D03*
D103*
X356200Y64300D03*
D20*
X453000Y62700D03*
D99*
X549600Y63900D03*
D37*
X637000Y62500D03*
D32*
X678900Y62500D03*
D104*
X356200Y64500D03*
D20*
X453000Y62900D03*
D99*
X549600Y64100D03*
D32*
X637100Y62700D03*
X678900Y62700D03*
D105*
X345900Y64700D03*
D33*
X366300Y64700D03*
D20*
X453000Y63100D03*
D106*
X539400Y64300D03*
D26*
X560400Y64300D03*
D37*
X637200Y62900D03*
D32*
X678700Y62900D03*
D107*
X345000Y64900D03*
D108*
X367300Y64900D03*
D20*
X453000Y63300D03*
D109*
X538900Y64500D03*
D110*
X560900Y64500D03*
D37*
X637200Y63100D03*
D32*
X678700Y63100D03*
D29*
X344500Y65100D03*
D111*
X367700Y65100D03*
D20*
X453000Y63500D03*
D112*
X538600Y64700D03*
D24*
X561200Y64700D03*
D32*
X637300Y63300D03*
D20*
X678600Y63300D03*
D113*
X344200Y65300D03*
D29*
X368100Y65300D03*
D20*
X453000Y63700D03*
D29*
X538300Y64900D03*
D114*
X561400Y64900D03*
D37*
X637400Y63500D03*
D32*
X678500Y63500D03*
D27*
X343800Y65500D03*
D113*
X368400Y65500D03*
D20*
X453000Y63900D03*
D115*
X538100Y65100D03*
D25*
X561700Y65100D03*
D37*
X637400Y63700D03*
D32*
X678500Y63700D03*
D24*
X343600Y65700D03*
D27*
X368600Y65700D03*
D20*
X453000Y64100D03*
D113*
X537800Y65300D03*
D116*
X561900Y65300D03*
D37*
X637600Y63900D03*
D20*
X678400Y63900D03*
D114*
X343400Y65900D03*
D117*
X368900Y65900D03*
D20*
X453000Y64300D03*
D27*
X537600Y65500D03*
D22*
X562000Y65500D03*
D37*
X637600Y64100D03*
D32*
X678300Y64100D03*
D118*
X343200Y66100D03*
D119*
X369100Y66100D03*
D20*
X453000Y64500D03*
D27*
X537400Y65700D03*
D120*
X562200Y65700D03*
D32*
X637700Y64300D03*
X678300Y64300D03*
D118*
X343000Y66300D03*
D119*
X369300Y66300D03*
D20*
X453000Y64700D03*
D24*
X537200Y65900D03*
D120*
X562400Y65900D03*
D37*
X637800Y64500D03*
D32*
X678100Y64500D03*
D116*
X342900Y66500D03*
D25*
X369500Y66500D03*
D20*
X453000Y64900D03*
D24*
X537000Y66100D03*
D121*
X562500Y66100D03*
D37*
X637800Y64700D03*
D32*
X678100Y64700D03*
D122*
X342700Y66700D03*
D118*
X369600Y66700D03*
D20*
X453000Y65100D03*
D119*
X536900Y66300D03*
D23*
X562600Y66300D03*
D37*
X638000Y64900D03*
D20*
X678000Y64900D03*
D122*
X342500Y66900D03*
D116*
X369700Y66900D03*
D20*
X453000Y65300D03*
D114*
X536800Y66500D03*
D123*
X562700Y66500D03*
D37*
X638000Y65100D03*
D32*
X677900Y65100D03*
D120*
X342400Y67100D03*
D22*
X370000Y67100D03*
D20*
X453000Y65500D03*
D116*
X536700Y66700D03*
D123*
X562900Y66700D03*
D32*
X638100Y65300D03*
X677900Y65300D03*
D121*
X342300Y67300D03*
D122*
X370100Y67300D03*
D20*
X453000Y65700D03*
D120*
X536800Y66900D03*
D37*
X563000Y66900D03*
X638200Y65500D03*
D20*
X677800Y65500D03*
D23*
X342200Y67500D03*
D120*
X370200Y67500D03*
D20*
X453000Y65900D03*
D123*
X536900Y67100D03*
D32*
X563100Y67100D03*
D37*
X638200Y65700D03*
D32*
X677700Y65700D03*
D123*
X342100Y67700D03*
D120*
X370400Y67700D03*
D20*
X453000Y66100D03*
D32*
X536900Y67300D03*
X563100Y67300D03*
D37*
X638400Y65900D03*
D20*
X677600Y65900D03*
D23*
X342000Y67900D03*
D121*
X370500Y67900D03*
D20*
X453000Y66300D03*
D124*
X537000Y67500D03*
D20*
X563200Y67500D03*
D125*
X657900Y66100D03*
D123*
X341900Y68100D03*
D121*
X370500Y68100D03*
D20*
X453000Y66500D03*
D126*
X537100Y67700D03*
D31*
X563300Y67700D03*
D127*
X658000Y66300D03*
D37*
X341800Y68300D03*
D23*
X370600Y68300D03*
D20*
X453000Y66700D03*
D128*
X537100Y67900D03*
D20*
X563400Y67900D03*
D129*
X657900Y66500D03*
D32*
X341700Y68500D03*
D123*
X370700Y68500D03*
D20*
X453000Y66900D03*
D130*
X537300Y68100D03*
D31*
X563500Y68100D03*
D129*
X657900Y66700D03*
D37*
X341600Y68700D03*
D23*
X370800Y68700D03*
D20*
X453000Y67100D03*
D19*
X537400Y68300D03*
D31*
X563500Y68300D03*
D131*
X658000Y66900D03*
D32*
X341500Y68900D03*
D123*
X370900Y68900D03*
D20*
X453000Y67300D03*
D132*
X537400Y68500D03*
D124*
X563600Y68500D03*
D133*
X657900Y67100D03*
D32*
X341500Y69100D03*
D37*
X371000Y69100D03*
D20*
X453000Y67500D03*
D134*
X537500Y68700D03*
D124*
X563600Y68700D03*
D133*
X657900Y67300D03*
D20*
X341400Y69300D03*
D37*
X371000Y69300D03*
D20*
X453000Y67700D03*
D135*
X537600Y68900D03*
D124*
X563600Y68900D03*
D136*
X657900Y67500D03*
D20*
X341400Y69500D03*
D32*
X371100Y69500D03*
D20*
X453000Y67900D03*
D16*
X537600Y69100D03*
D124*
X563600Y69100D03*
D136*
X657900Y67700D03*
D31*
X341300Y69700D03*
D32*
X371100Y69700D03*
D20*
X453000Y68100D03*
D137*
X537800Y69300D03*
D138*
X563700Y69300D03*
D139*
X658000Y67900D03*
D20*
X341200Y69900D03*
D32*
X371300Y69900D03*
D20*
X453000Y68300D03*
D140*
X537900Y69500D03*
D138*
X563700Y69500D03*
D141*
X657900Y68100D03*
D20*
X341200Y70100D03*
D32*
X371300Y70100D03*
D20*
X453000Y68500D03*
D142*
X537900Y69700D03*
D138*
X563700Y69700D03*
D141*
X657900Y68300D03*
D31*
X341100Y70300D03*
D32*
X371300Y70300D03*
D20*
X453000Y68700D03*
D143*
X538100Y69900D03*
D138*
X563700Y69900D03*
D144*
X657900Y68500D03*
D31*
X341100Y70500D03*
D20*
X371400Y70500D03*
X453000Y68900D03*
D145*
X538200Y70100D03*
D124*
X563800Y70100D03*
D144*
X657900Y68700D03*
D31*
X341100Y70700D03*
D20*
X371400Y70700D03*
X453000Y69100D03*
D146*
X538200Y70300D03*
D124*
X563800Y70300D03*
D147*
X658000Y68900D03*
D124*
X341000Y70900D03*
D20*
X371400Y70900D03*
X453000Y69300D03*
D148*
X538400Y70500D03*
D124*
X563800Y70500D03*
D149*
X657900Y69100D03*
D124*
X341000Y71100D03*
D20*
X371400Y71100D03*
X453000Y69500D03*
D15*
X538400Y70700D03*
D124*
X563800Y70700D03*
D149*
X657900Y69300D03*
D31*
X340900Y71300D03*
X371500Y71300D03*
D20*
X453000Y69700D03*
D150*
X538500Y70900D03*
D124*
X563800Y70900D03*
D151*
X658000Y69500D03*
D31*
X340900Y71500D03*
X371500Y71500D03*
D20*
X453000Y69900D03*
D152*
X538700Y71100D03*
D124*
X563800Y71100D03*
D153*
X657900Y69700D03*
D31*
X340900Y71700D03*
D20*
X371600Y71700D03*
X453000Y70100D03*
D154*
X538700Y71300D03*
D124*
X563800Y71300D03*
D153*
X657900Y69900D03*
D31*
X340900Y71900D03*
D20*
X371600Y71900D03*
X453000Y70300D03*
D155*
X538800Y71500D03*
D124*
X563600Y71500D03*
D156*
X657900Y70100D03*
D124*
X340800Y72100D03*
D20*
X371600Y72100D03*
X453000Y70500D03*
D157*
X539000Y71700D03*
D124*
X563600Y71700D03*
D156*
X657900Y70300D03*
D124*
X340800Y72300D03*
D31*
X371700Y72300D03*
D20*
X453000Y70700D03*
D158*
X539000Y71900D03*
D124*
X563600Y71900D03*
D159*
X658000Y70500D03*
D124*
X340800Y72500D03*
D31*
X371700Y72500D03*
D20*
X453000Y70900D03*
D160*
X539200Y72100D03*
D124*
X563600Y72100D03*
D161*
X657900Y70700D03*
D124*
X340800Y72700D03*
D31*
X371700Y72700D03*
D20*
X453000Y71100D03*
D162*
X539300Y72300D03*
D31*
X563500Y72300D03*
D161*
X657900Y70900D03*
D124*
X340800Y72900D03*
D31*
X371700Y72900D03*
D20*
X453000Y71300D03*
D163*
X539300Y72500D03*
D31*
X563500Y72500D03*
D164*
X657900Y71100D03*
D31*
X340700Y73100D03*
X371700Y73100D03*
D20*
X453000Y71500D03*
X563400Y72700D03*
D164*
X657900Y71300D03*
D31*
X340700Y73300D03*
X371700Y73300D03*
D20*
X453000Y71700D03*
X563400Y72900D03*
D165*
X658000Y71500D03*
D31*
X340700Y73500D03*
X371700Y73500D03*
D20*
X453000Y71900D03*
X563400Y73100D03*
D166*
X657900Y71700D03*
D124*
X340600Y73700D03*
D31*
X371700Y73700D03*
D20*
X453000Y72100D03*
D32*
X563300Y73300D03*
D166*
X657900Y71900D03*
D124*
X340600Y73900D03*
D31*
X371700Y73900D03*
D20*
X453000Y72300D03*
D32*
X563300Y73500D03*
D167*
X658000Y72100D03*
D124*
X340600Y74100D03*
X371800Y74100D03*
D20*
X453000Y72500D03*
D32*
X563100Y73700D03*
D168*
X657900Y72300D03*
D124*
X340600Y74300D03*
X371800Y74300D03*
D20*
X453000Y72700D03*
D37*
X563000Y73900D03*
D168*
X657900Y72500D03*
D124*
X340600Y74500D03*
D31*
X371900Y74500D03*
D20*
X453000Y72900D03*
D37*
X563000Y74100D03*
D169*
X657900Y72700D03*
D124*
X340600Y74700D03*
D31*
X371900Y74700D03*
D20*
X453000Y73100D03*
D123*
X562900Y74300D03*
D169*
X657900Y72900D03*
D124*
X340600Y74900D03*
D31*
X371900Y74900D03*
D20*
X453000Y73300D03*
D23*
X562800Y74500D03*
D170*
X658000Y73100D03*
D124*
X340600Y75100D03*
D31*
X371900Y75100D03*
D20*
X453000Y73500D03*
D23*
X562800Y74700D03*
D171*
X657900Y73300D03*
D124*
X340600Y75300D03*
D31*
X371900Y75300D03*
D20*
X453000Y73700D03*
D23*
X562600Y74900D03*
D171*
X657900Y73500D03*
D124*
X340600Y75500D03*
D31*
X371900Y75500D03*
D20*
X453000Y73900D03*
D121*
X562500Y75100D03*
D172*
X657900Y73700D03*
D124*
X340600Y75700D03*
D31*
X371900Y75700D03*
D20*
X453000Y74100D03*
D120*
X562400Y75300D03*
D172*
X657900Y73900D03*
D124*
X340600Y75900D03*
D31*
X371900Y75900D03*
D20*
X453000Y74300D03*
D122*
X562300Y75500D03*
D173*
X658000Y74100D03*
D124*
X340600Y76100D03*
D31*
X371900Y76100D03*
D20*
X453000Y74500D03*
D122*
X562100Y75700D03*
D174*
X657900Y74300D03*
D31*
X340500Y76300D03*
X371900Y76300D03*
D20*
X453000Y74700D03*
D22*
X562000Y75900D03*
D174*
X657900Y74500D03*
D31*
X340500Y76500D03*
X371900Y76500D03*
D20*
X453000Y74900D03*
D22*
X562000Y76100D03*
D175*
X658000Y74700D03*
D31*
X340500Y76700D03*
X371900Y76700D03*
D20*
X453000Y75100D03*
D22*
X561800Y76300D03*
D176*
X657900Y74900D03*
D31*
X340500Y76900D03*
X371900Y76900D03*
D20*
X453000Y75300D03*
D116*
X561700Y76500D03*
D176*
X657900Y75100D03*
D31*
X340500Y77100D03*
X371900Y77100D03*
D20*
X453000Y75500D03*
D118*
X561600Y76700D03*
D177*
X657900Y75300D03*
D31*
X340500Y77300D03*
X371900Y77300D03*
D20*
X453000Y75700D03*
D118*
X561400Y76900D03*
D177*
X657900Y75500D03*
D31*
X340500Y77500D03*
X371900Y77500D03*
D20*
X453000Y75900D03*
D25*
X561300Y77100D03*
D178*
X658000Y75700D03*
D31*
X340500Y77700D03*
X371900Y77700D03*
D20*
X453000Y76100D03*
D119*
X561100Y77300D03*
D179*
X657900Y75900D03*
D31*
X340500Y77900D03*
X371900Y77900D03*
D20*
X453000Y76300D03*
D119*
X560900Y77500D03*
D179*
X657900Y76100D03*
D31*
X340500Y78100D03*
X371900Y78100D03*
D20*
X453000Y76500D03*
D24*
X560800Y77700D03*
D180*
X657900Y76300D03*
D31*
X340500Y78300D03*
X371900Y78300D03*
D20*
X453000Y76700D03*
D24*
X560600Y77900D03*
D180*
X657900Y76500D03*
D31*
X340500Y78500D03*
X371900Y78500D03*
D20*
X453000Y76900D03*
D117*
X560500Y78100D03*
D181*
X658000Y76700D03*
D31*
X340500Y78700D03*
X371900Y78700D03*
D20*
X453000Y77100D03*
D27*
X560400Y78300D03*
D182*
X657900Y76900D03*
D31*
X340500Y78900D03*
X371900Y78900D03*
D20*
X453000Y77300D03*
D27*
X560200Y78500D03*
D182*
X657900Y77100D03*
D31*
X340500Y79100D03*
X371900Y79100D03*
D20*
X453000Y77500D03*
D110*
X560100Y78700D03*
D183*
X658000Y77300D03*
D31*
X340500Y79300D03*
X371900Y79300D03*
D20*
X453000Y77700D03*
D110*
X559900Y78900D03*
D184*
X657900Y77500D03*
D31*
X340500Y79500D03*
X371900Y79500D03*
D20*
X453000Y77900D03*
D115*
X559700Y79100D03*
D184*
X657900Y77700D03*
D31*
X340500Y79700D03*
X371900Y79700D03*
D20*
X453000Y78100D03*
D115*
X559500Y79300D03*
D185*
X657900Y77900D03*
D31*
X340500Y79900D03*
X371900Y79900D03*
D20*
X453000Y78300D03*
D26*
X559400Y79500D03*
D37*
X643000Y78100D03*
D32*
X672900Y78100D03*
D31*
X340500Y80100D03*
X371900Y80100D03*
D20*
X453000Y78500D03*
D26*
X559200Y79700D03*
D32*
X643100Y78300D03*
X672900Y78300D03*
D31*
X340500Y80300D03*
X371900Y80300D03*
D20*
X453000Y78700D03*
D29*
X559100Y79900D03*
D37*
X643200Y78500D03*
D20*
X672800Y78500D03*
D31*
X340500Y80500D03*
X371900Y80500D03*
D20*
X453000Y78900D03*
D29*
X558900Y80100D03*
D37*
X643200Y78700D03*
D32*
X672700Y78700D03*
D31*
X340500Y80700D03*
X371900Y80700D03*
D20*
X453000Y79100D03*
D112*
X558600Y80300D03*
D32*
X643300Y78900D03*
D20*
X672600Y78900D03*
D31*
X340500Y80900D03*
X371900Y80900D03*
D20*
X453000Y79300D03*
D111*
X558500Y80500D03*
D37*
X643400Y79100D03*
D32*
X672500Y79100D03*
D31*
X340500Y81100D03*
X371900Y81100D03*
D20*
X453000Y79500D03*
D111*
X558300Y80700D03*
D32*
X643500Y79300D03*
X672500Y79300D03*
D31*
X340500Y81300D03*
X371900Y81300D03*
D20*
X453000Y79700D03*
D111*
X558100Y80900D03*
D32*
X643500Y79500D03*
D20*
X672400Y79500D03*
D31*
X340500Y81500D03*
X371900Y81500D03*
D20*
X453000Y79900D03*
D107*
X558000Y81100D03*
D37*
X643600Y79700D03*
D32*
X672300Y79700D03*
D31*
X340500Y81700D03*
X371900Y81700D03*
D20*
X453000Y80100D03*
D109*
X557700Y81300D03*
D32*
X643700Y79900D03*
X672300Y79900D03*
D31*
X340500Y81900D03*
X371900Y81900D03*
D20*
X453000Y80300D03*
D109*
X557500Y81500D03*
D37*
X643800Y80100D03*
D32*
X672100Y80100D03*
D31*
X340500Y82100D03*
X371900Y82100D03*
D20*
X453000Y80500D03*
D28*
X557400Y81700D03*
D37*
X643800Y80300D03*
D32*
X672100Y80300D03*
D31*
X340500Y82300D03*
X371900Y82300D03*
D20*
X453000Y80700D03*
D28*
X557200Y81900D03*
D32*
X643900Y80500D03*
D20*
X672000Y80500D03*
D31*
X340500Y82500D03*
X371900Y82500D03*
D20*
X453000Y80900D03*
D28*
X557000Y82100D03*
D37*
X644000Y80700D03*
D32*
X671900Y80700D03*
D31*
X340500Y82700D03*
X371900Y82700D03*
D20*
X453000Y81100D03*
D108*
X556700Y82300D03*
D32*
X644100Y80900D03*
X671900Y80900D03*
D31*
X340500Y82900D03*
X371900Y82900D03*
D20*
X453000Y81300D03*
D106*
X556600Y82500D03*
D37*
X644200Y81100D03*
D20*
X671800Y81100D03*
D31*
X340500Y83100D03*
X371900Y83100D03*
D20*
X453000Y81500D03*
D106*
X556400Y82700D03*
D37*
X644200Y81300D03*
D32*
X671700Y81300D03*
D31*
X340500Y83300D03*
X371900Y83300D03*
D20*
X453000Y81700D03*
D106*
X556200Y82900D03*
D32*
X644300Y81500D03*
D20*
X671600Y81500D03*
D31*
X340500Y83500D03*
X371900Y83500D03*
D20*
X453000Y81900D03*
D106*
X556000Y83100D03*
D37*
X644400Y81700D03*
D32*
X671500Y81700D03*
D31*
X340500Y83700D03*
X371900Y83700D03*
D20*
X453000Y82100D03*
D186*
X555700Y83300D03*
D32*
X644500Y81900D03*
X671500Y81900D03*
D31*
X340500Y83900D03*
X371900Y83900D03*
D20*
X453000Y82300D03*
D187*
X555600Y83500D03*
D32*
X644500Y82100D03*
D20*
X671400Y82100D03*
D31*
X340500Y84100D03*
X371900Y84100D03*
D20*
X453000Y82500D03*
D187*
X555400Y83700D03*
D37*
X644600Y82300D03*
D32*
X671300Y82300D03*
D31*
X340500Y84300D03*
X371900Y84300D03*
D20*
X453000Y82700D03*
D187*
X555200Y83900D03*
D32*
X644700Y82500D03*
X671300Y82500D03*
D31*
X340500Y84500D03*
X371900Y84500D03*
D20*
X453000Y82900D03*
D187*
X555000Y84100D03*
D37*
X644800Y82700D03*
D32*
X671100Y82700D03*
D31*
X340500Y84700D03*
X371900Y84700D03*
D20*
X453000Y83100D03*
D187*
X554800Y84300D03*
D32*
X644900Y82900D03*
X671100Y82900D03*
D31*
X340500Y84900D03*
X371900Y84900D03*
D20*
X453000Y83300D03*
D30*
X554500Y84500D03*
D32*
X644900Y83100D03*
D20*
X671000Y83100D03*
D31*
X340500Y85100D03*
X371900Y85100D03*
D20*
X453000Y83500D03*
D30*
X554300Y84700D03*
D37*
X645000Y83300D03*
D32*
X670900Y83300D03*
D31*
X340500Y85300D03*
X371900Y85300D03*
D20*
X453000Y83700D03*
D30*
X554100Y84900D03*
D32*
X645100Y83500D03*
X670900Y83500D03*
D31*
X340500Y85500D03*
X371900Y85500D03*
D20*
X453000Y83900D03*
D30*
X553900Y85100D03*
D37*
X645200Y83700D03*
D32*
X670700Y83700D03*
D31*
X340500Y85700D03*
X371900Y85700D03*
D20*
X453000Y84100D03*
D30*
X553700Y85300D03*
D37*
X645200Y83900D03*
D32*
X670700Y83900D03*
D31*
X340500Y85900D03*
X371900Y85900D03*
D20*
X453000Y84300D03*
D30*
X553500Y85500D03*
D32*
X645300Y84100D03*
D20*
X670600Y84100D03*
D31*
X340500Y86100D03*
X371900Y86100D03*
D20*
X453000Y84500D03*
D188*
X553200Y85700D03*
D37*
X645400Y84300D03*
D32*
X670500Y84300D03*
D31*
X340500Y86300D03*
X371900Y86300D03*
D20*
X453000Y84700D03*
D188*
X553000Y85900D03*
D32*
X645500Y84500D03*
X670500Y84500D03*
D31*
X340500Y86500D03*
X371900Y86500D03*
D20*
X453000Y84900D03*
D188*
X552800Y86100D03*
D37*
X645600Y84700D03*
D20*
X670400Y84700D03*
D31*
X340500Y86700D03*
X371900Y86700D03*
D20*
X453000Y85100D03*
D188*
X552600Y86300D03*
D37*
X645600Y84900D03*
D32*
X670300Y84900D03*
D31*
X340500Y86900D03*
X371900Y86900D03*
D20*
X453000Y85300D03*
D188*
X552400Y86500D03*
D32*
X645700Y85100D03*
X670300Y85100D03*
D31*
X340500Y87100D03*
X371900Y87100D03*
D20*
X453000Y85500D03*
D188*
X552200Y86700D03*
D37*
X645800Y85300D03*
D32*
X670100Y85300D03*
D31*
X340500Y87300D03*
X371900Y87300D03*
D20*
X453000Y85700D03*
D188*
X552000Y86900D03*
D32*
X645900Y85500D03*
X670100Y85500D03*
D31*
X340500Y87500D03*
X371900Y87500D03*
D20*
X453000Y85900D03*
D188*
X551800Y87100D03*
D32*
X645900Y85700D03*
D20*
X670000Y85700D03*
D31*
X340500Y87700D03*
X371900Y87700D03*
D20*
X453000Y86100D03*
D188*
X551600Y87300D03*
D37*
X646000Y85900D03*
D32*
X669900Y85900D03*
D31*
X340500Y87900D03*
X371900Y87900D03*
D20*
X453000Y86300D03*
D188*
X551400Y87500D03*
D32*
X646100Y86100D03*
X669900Y86100D03*
D31*
X340500Y88100D03*
X371900Y88100D03*
D20*
X453000Y86500D03*
D105*
X551100Y87700D03*
D37*
X646200Y86300D03*
D32*
X669700Y86300D03*
D31*
X340500Y88300D03*
X371900Y88300D03*
D20*
X453000Y86700D03*
D188*
X550800Y87900D03*
D37*
X646200Y86500D03*
D32*
X669700Y86500D03*
D31*
X340500Y88500D03*
X371900Y88500D03*
D20*
X453000Y86900D03*
D188*
X550600Y88100D03*
D32*
X646300Y86700D03*
D20*
X669600Y86700D03*
D31*
X340500Y88700D03*
X371900Y88700D03*
D20*
X453000Y87100D03*
D188*
X550400Y88300D03*
D37*
X646400Y86900D03*
D32*
X669500Y86900D03*
D31*
X340500Y88900D03*
X371900Y88900D03*
D20*
X453000Y87300D03*
D188*
X550200Y88500D03*
D32*
X646500Y87100D03*
X669500Y87100D03*
D31*
X340500Y89100D03*
X371900Y89100D03*
D20*
X453000Y87500D03*
D188*
X550000Y88700D03*
D37*
X646600Y87300D03*
D20*
X669400Y87300D03*
D31*
X340500Y89300D03*
X371900Y89300D03*
D20*
X453000Y87700D03*
D188*
X549800Y88900D03*
D37*
X646600Y87500D03*
D32*
X669300Y87500D03*
D31*
X340500Y89500D03*
X371900Y89500D03*
D20*
X453000Y87900D03*
D188*
X549600Y89100D03*
D32*
X646700Y87700D03*
X669300Y87700D03*
D31*
X340500Y89700D03*
X371900Y89700D03*
D20*
X453000Y88100D03*
D30*
X549300Y89300D03*
D37*
X646800Y87900D03*
D32*
X669100Y87900D03*
D31*
X340500Y89900D03*
X371900Y89900D03*
D20*
X453000Y88300D03*
D30*
X549100Y89500D03*
D32*
X646900Y88100D03*
X669100Y88100D03*
D31*
X340500Y90100D03*
X371900Y90100D03*
D20*
X453000Y88500D03*
D30*
X548900Y89700D03*
D37*
X647000Y88300D03*
D20*
X669000Y88300D03*
D31*
X340500Y90300D03*
X371900Y90300D03*
D20*
X453000Y88700D03*
D30*
X548700Y89900D03*
D37*
X647000Y88500D03*
D32*
X668900Y88500D03*
D31*
X340500Y90500D03*
X371900Y90500D03*
D20*
X453000Y88900D03*
D30*
X548500Y90100D03*
D32*
X647100Y88700D03*
X668900Y88700D03*
D31*
X340500Y90700D03*
X371900Y90700D03*
D20*
X453000Y89100D03*
D187*
X548200Y90300D03*
D37*
X647200Y88900D03*
D32*
X668700Y88900D03*
D31*
X340500Y90900D03*
X371900Y90900D03*
D20*
X453000Y89300D03*
D187*
X548000Y90500D03*
D37*
X647200Y89100D03*
D32*
X668700Y89100D03*
D31*
X340500Y91100D03*
X371900Y91100D03*
D20*
X453000Y89500D03*
D187*
X547800Y90700D03*
D32*
X647300Y89300D03*
D20*
X668600Y89300D03*
D31*
X340500Y91300D03*
X371900Y91300D03*
D20*
X453000Y89700D03*
D187*
X547600Y90900D03*
D37*
X647400Y89500D03*
D32*
X668500Y89500D03*
D31*
X340500Y91500D03*
X371900Y91500D03*
D20*
X453000Y89900D03*
D187*
X547400Y91100D03*
D32*
X647500Y89700D03*
X668500Y89700D03*
D31*
X340500Y91700D03*
X371900Y91700D03*
D20*
X453000Y90100D03*
D187*
X547200Y91300D03*
D37*
X647600Y89900D03*
D20*
X668400Y89900D03*
D31*
X340500Y91900D03*
X371900Y91900D03*
D20*
X453000Y90300D03*
D106*
X547000Y91500D03*
D37*
X647600Y90100D03*
D32*
X668300Y90100D03*
D31*
X340500Y92100D03*
X371900Y92100D03*
D20*
X453000Y90500D03*
D106*
X546800Y91700D03*
D32*
X647700Y90300D03*
X668300Y90300D03*
D31*
X340500Y92300D03*
X371900Y92300D03*
D20*
X453000Y90700D03*
D106*
X546600Y91900D03*
D37*
X647800Y90500D03*
D32*
X668100Y90500D03*
D31*
X340500Y92500D03*
X371900Y92500D03*
D20*
X453000Y90900D03*
D106*
X546400Y92100D03*
D32*
X647900Y90700D03*
X668100Y90700D03*
D31*
X340500Y92700D03*
X371900Y92700D03*
D20*
X453000Y91100D03*
D106*
X546200Y92300D03*
D37*
X648000Y90900D03*
D20*
X668000Y90900D03*
D31*
X340500Y92900D03*
X371900Y92900D03*
D20*
X453000Y91300D03*
D108*
X545900Y92500D03*
D37*
X648000Y91100D03*
D32*
X667900Y91100D03*
D31*
X340500Y93100D03*
X371900Y93100D03*
D20*
X453000Y91500D03*
D108*
X545700Y92700D03*
D32*
X648100Y91300D03*
X667900Y91300D03*
D31*
X340500Y93300D03*
X371900Y93300D03*
D20*
X453000Y91700D03*
D108*
X545500Y92900D03*
D37*
X648200Y91500D03*
D32*
X667700Y91500D03*
D31*
X340500Y93500D03*
X371900Y93500D03*
D20*
X453000Y91900D03*
D28*
X545400Y93100D03*
D37*
X648200Y91700D03*
D32*
X667700Y91700D03*
D31*
X340500Y93700D03*
X371900Y93700D03*
D20*
X453000Y92100D03*
D28*
X545200Y93300D03*
D37*
X648400Y91900D03*
D20*
X667600Y91900D03*
D31*
X340500Y93900D03*
X371900Y93900D03*
D20*
X453000Y92300D03*
D28*
X545000Y93500D03*
D37*
X648400Y92100D03*
D32*
X667500Y92100D03*
D31*
X340500Y94100D03*
X371900Y94100D03*
D20*
X453000Y92500D03*
D109*
X544700Y93700D03*
D32*
X648500Y92300D03*
X667500Y92300D03*
D31*
X340500Y94300D03*
X371900Y94300D03*
D20*
X453000Y92700D03*
D107*
X544600Y93900D03*
D37*
X648600Y92500D03*
D20*
X667400Y92500D03*
D31*
X340500Y94500D03*
X371900Y94500D03*
D20*
X453000Y92900D03*
D107*
X544400Y94100D03*
D37*
X648600Y92700D03*
D32*
X667300Y92700D03*
D31*
X340500Y94700D03*
X371900Y94700D03*
D20*
X453000Y93100D03*
D107*
X544200Y94300D03*
D32*
X648700Y92900D03*
X667300Y92900D03*
D31*
X340500Y94900D03*
X371900Y94900D03*
D20*
X453000Y93300D03*
D107*
X544000Y94500D03*
D37*
X648800Y93100D03*
D32*
X667100Y93100D03*
D31*
X340500Y95100D03*
X371900Y95100D03*
D20*
X453000Y93500D03*
D111*
X543900Y94700D03*
D32*
X648900Y93300D03*
X667100Y93300D03*
D31*
X340500Y95300D03*
X371900Y95300D03*
D20*
X453000Y93700D03*
D112*
X543600Y94900D03*
D37*
X649000Y93500D03*
D20*
X667000Y93500D03*
D31*
X340500Y95500D03*
X371900Y95500D03*
D20*
X453000Y93900D03*
D112*
X543400Y95100D03*
D37*
X649000Y93700D03*
D32*
X666900Y93700D03*
D31*
X340500Y95700D03*
X371900Y95700D03*
D20*
X453000Y94100D03*
D29*
X543300Y95300D03*
D32*
X649100Y93900D03*
X666900Y93900D03*
D31*
X340500Y95900D03*
X371900Y95900D03*
D20*
X453000Y94300D03*
D29*
X543100Y95500D03*
D37*
X649200Y94100D03*
D32*
X666700Y94100D03*
D31*
X340500Y96100D03*
X371900Y96100D03*
D20*
X453000Y94500D03*
D26*
X543000Y95700D03*
D37*
X649200Y94300D03*
D32*
X666700Y94300D03*
D31*
X340500Y96300D03*
X371900Y96300D03*
D20*
X453000Y94700D03*
D26*
X542800Y95900D03*
D37*
X649400Y94500D03*
D20*
X666600Y94500D03*
D31*
X340500Y96500D03*
X371900Y96500D03*
D20*
X453000Y94900D03*
D26*
X542600Y96100D03*
D37*
X649400Y94700D03*
D32*
X666500Y94700D03*
D31*
X340500Y96700D03*
X371900Y96700D03*
D20*
X453000Y95100D03*
D113*
X542400Y96300D03*
D32*
X649500Y94900D03*
X666500Y94900D03*
D31*
X340500Y96900D03*
X371900Y96900D03*
D20*
X453000Y95300D03*
D113*
X542200Y96500D03*
D37*
X649600Y95100D03*
D32*
X666300Y95100D03*
D31*
X340500Y97100D03*
X371900Y97100D03*
D20*
X453000Y95500D03*
D110*
X542100Y96700D03*
D37*
X649600Y95300D03*
D32*
X666300Y95300D03*
D31*
X340500Y97300D03*
X371900Y97300D03*
D20*
X453000Y95700D03*
D110*
X541900Y96900D03*
D32*
X649700Y95500D03*
X666300Y95500D03*
D31*
X340500Y97500D03*
X371900Y97500D03*
D20*
X453000Y95900D03*
D27*
X541800Y97100D03*
D37*
X649800Y95700D03*
D32*
X666100Y95700D03*
D31*
X340500Y97700D03*
X371900Y97700D03*
D20*
X453000Y96100D03*
D27*
X541600Y97300D03*
D32*
X649900Y95900D03*
X666100Y95900D03*
D31*
X340500Y97900D03*
X371900Y97900D03*
D20*
X453000Y96300D03*
D117*
X541500Y97500D03*
D37*
X650000Y96100D03*
D20*
X666000Y96100D03*
D31*
X340500Y98100D03*
X371900Y98100D03*
D20*
X453000Y96500D03*
D24*
X541400Y97700D03*
D37*
X650000Y96300D03*
D32*
X665900Y96300D03*
D31*
X340500Y98300D03*
X371900Y98300D03*
D20*
X453000Y96700D03*
D119*
X541100Y97900D03*
D32*
X650100Y96500D03*
X665900Y96500D03*
D31*
X340500Y98500D03*
X371900Y98500D03*
D20*
X453000Y96900D03*
D114*
X541000Y98100D03*
D37*
X650200Y96700D03*
D32*
X665700Y96700D03*
D31*
X340500Y98700D03*
X371900Y98700D03*
D20*
X453000Y97100D03*
D114*
X540800Y98300D03*
D37*
X650200Y96900D03*
D32*
X665700Y96900D03*
D31*
X340500Y98900D03*
X371900Y98900D03*
D20*
X453000Y97300D03*
D25*
X540700Y98500D03*
D37*
X650400Y97100D03*
D20*
X665600Y97100D03*
D31*
X340500Y99100D03*
X371900Y99100D03*
D20*
X453000Y97500D03*
D25*
X540500Y98700D03*
D37*
X650400Y97300D03*
D32*
X665500Y97300D03*
D31*
X340500Y99300D03*
X371900Y99300D03*
D20*
X453000Y97700D03*
D118*
X540400Y98900D03*
D32*
X650500Y97500D03*
X665500Y97500D03*
D31*
X340500Y99500D03*
X371900Y99500D03*
D20*
X453000Y97900D03*
D116*
X540300Y99100D03*
D37*
X650600Y97700D03*
D32*
X665300Y97700D03*
D31*
X340500Y99700D03*
X371900Y99700D03*
D20*
X453000Y98100D03*
D116*
X540100Y99300D03*
D37*
X650600Y97900D03*
D32*
X665300Y97900D03*
D31*
X340500Y99900D03*
X371900Y99900D03*
D20*
X453000Y98300D03*
D22*
X540000Y99500D03*
D37*
X650800Y98100D03*
D32*
X665300Y98100D03*
D31*
X340500Y100100D03*
X371900Y100100D03*
D20*
X453000Y98500D03*
D122*
X539900Y99700D03*
D37*
X650800Y98300D03*
D32*
X665100Y98300D03*
D31*
X340500Y100300D03*
X371900Y100300D03*
D20*
X453000Y98700D03*
D122*
X539700Y99900D03*
D32*
X650900Y98500D03*
X665100Y98500D03*
D31*
X340500Y100500D03*
X371900Y100500D03*
D20*
X453000Y98900D03*
D120*
X539600Y100100D03*
D37*
X651000Y98700D03*
D20*
X665000Y98700D03*
D31*
X340500Y100700D03*
X371900Y100700D03*
D20*
X453000Y99100D03*
D121*
X539500Y100300D03*
D37*
X651000Y98900D03*
D32*
X664900Y98900D03*
D31*
X340500Y100900D03*
X371900Y100900D03*
D20*
X453000Y99300D03*
D23*
X539400Y100500D03*
D32*
X651100Y99100D03*
X664900Y99100D03*
D31*
X340500Y101100D03*
X371900Y101100D03*
D20*
X453000Y99500D03*
D23*
X539200Y100700D03*
D37*
X651200Y99300D03*
D32*
X664700Y99300D03*
D31*
X340500Y101300D03*
X371900Y101300D03*
D20*
X453000Y99700D03*
D123*
X539100Y100900D03*
D37*
X651200Y99500D03*
D32*
X664700Y99500D03*
D31*
X340500Y101500D03*
X371900Y101500D03*
D20*
X453000Y99900D03*
D37*
X539000Y101100D03*
X651400Y99700D03*
D20*
X664600Y99700D03*
D31*
X340500Y101700D03*
X371900Y101700D03*
D20*
X453000Y100100D03*
D32*
X538900Y101300D03*
D37*
X651400Y99900D03*
D32*
X664500Y99900D03*
D31*
X340500Y101900D03*
X371900Y101900D03*
D20*
X453000Y100300D03*
D32*
X538900Y101500D03*
D189*
X658000Y100100D03*
D31*
X340500Y102100D03*
X371900Y102100D03*
D20*
X453000Y100500D03*
D32*
X538700Y101700D03*
D53*
X657900Y100300D03*
D31*
X340500Y102300D03*
X371900Y102300D03*
D20*
X453000Y100700D03*
X538600Y101900D03*
D53*
X657900Y100500D03*
D31*
X340500Y102500D03*
X371900Y102500D03*
D20*
X453000Y100900D03*
X538600Y102100D03*
D190*
X559600Y102100D03*
D48*
X658000Y100700D03*
D31*
X340500Y102700D03*
X371900Y102700D03*
D20*
X453000Y101100D03*
D31*
X538500Y102300D03*
D162*
X559700Y102300D03*
D191*
X657900Y100900D03*
D31*
X340500Y102900D03*
X371900Y102900D03*
D20*
X453000Y101300D03*
D31*
X538500Y102500D03*
D192*
X559700Y102500D03*
D51*
X658000Y101100D03*
D31*
X340500Y103100D03*
X371900Y103100D03*
D20*
X453000Y101500D03*
D31*
X538500Y102700D03*
D193*
X559700Y102700D03*
D46*
X657900Y101300D03*
D31*
X340500Y103300D03*
X371900Y103300D03*
D20*
X453000Y101700D03*
D124*
X538400Y102900D03*
D158*
X559800Y102900D03*
D46*
X657900Y101500D03*
D31*
X340500Y103500D03*
X371900Y103500D03*
D20*
X453000Y101900D03*
D124*
X538400Y103100D03*
D157*
X559800Y103100D03*
D49*
X658000Y101700D03*
D31*
X340500Y103700D03*
X371900Y103700D03*
D20*
X453000Y102100D03*
D124*
X538400Y103300D03*
D155*
X559800Y103300D03*
D44*
X657900Y101900D03*
D31*
X340500Y103900D03*
X371900Y103900D03*
D20*
X453000Y102300D03*
D138*
X538300Y103500D03*
D194*
X559800Y103500D03*
D195*
X658000Y102100D03*
D31*
X340500Y104100D03*
X371900Y104100D03*
D20*
X453000Y102500D03*
D124*
X538200Y103700D03*
D196*
X559800Y103700D03*
D197*
X657900Y102300D03*
D31*
X340500Y104300D03*
X371900Y104300D03*
D20*
X453000Y102700D03*
D124*
X538200Y103900D03*
D198*
X560000Y103900D03*
D197*
X657900Y102500D03*
D31*
X340500Y104500D03*
X371900Y104500D03*
D20*
X453000Y102900D03*
D124*
X538200Y104100D03*
D199*
X560000Y104100D03*
D47*
X658000Y102700D03*
D31*
X340500Y104700D03*
X371900Y104700D03*
D20*
X453000Y103100D03*
D124*
X538200Y104300D03*
D15*
X560000Y104300D03*
D42*
X657900Y102900D03*
D31*
X340500Y104900D03*
X371900Y104900D03*
D20*
X453000Y103300D03*
D124*
X538200Y104500D03*
D148*
X560000Y104500D03*
D42*
X657900Y103100D03*
D31*
X340500Y105100D03*
X371900Y105100D03*
D20*
X453000Y103500D03*
D138*
X538300Y104700D03*
D146*
X560000Y104700D03*
D45*
X658000Y103300D03*
D31*
X340500Y105300D03*
X371900Y105300D03*
D20*
X453000Y103700D03*
D138*
X538300Y104900D03*
D145*
X560000Y104900D03*
D200*
X657900Y103500D03*
D31*
X340500Y105500D03*
X371900Y105500D03*
D20*
X453000Y103900D03*
D138*
X538300Y105100D03*
D201*
X560000Y105100D03*
D202*
X658000Y103700D03*
D31*
X340500Y105700D03*
X371900Y105700D03*
D20*
X453000Y104100D03*
D124*
X538400Y105300D03*
D142*
X560100Y105300D03*
D40*
X657900Y103900D03*
D31*
X340500Y105900D03*
X371900Y105900D03*
D20*
X453000Y104300D03*
D124*
X538400Y105500D03*
D140*
X560100Y105500D03*
D40*
X657900Y104100D03*
D31*
X340500Y106100D03*
X371900Y106100D03*
D20*
X453000Y104500D03*
D124*
X538400Y105700D03*
D203*
X560100Y105700D03*
D43*
X658000Y104300D03*
D31*
X340500Y106300D03*
X371900Y106300D03*
D20*
X453000Y104700D03*
D31*
X538500Y105900D03*
D17*
X560100Y105900D03*
D204*
X657900Y104500D03*
D31*
X340500Y106500D03*
X371900Y106500D03*
D20*
X453000Y104900D03*
D31*
X538500Y106100D03*
D205*
X560100Y106100D03*
D206*
X658000Y104700D03*
D31*
X340500Y106700D03*
X371900Y106700D03*
D20*
X453000Y105100D03*
X538600Y106300D03*
D207*
X560000Y106300D03*
D38*
X657900Y104900D03*
D31*
X340500Y106900D03*
X371900Y106900D03*
D20*
X453000Y105300D03*
D32*
X538700Y106500D03*
D208*
X560000Y106500D03*
D38*
X657900Y105100D03*
D31*
X340500Y107100D03*
X371900Y107100D03*
D88*
X453200Y105500D03*
D32*
X538900Y106700D03*
D132*
X560000Y106700D03*
D41*
X658000Y105300D03*
D31*
X340500Y107300D03*
X371900Y107300D03*
D88*
X453200Y105700D03*
D37*
X539000Y106900D03*
D18*
X560000Y106900D03*
D209*
X657900Y105500D03*
D31*
X340500Y107500D03*
X371900Y107500D03*
D88*
X453200Y105900D03*
D123*
X539100Y107100D03*
D210*
X560000Y107100D03*
D209*
X657900Y105700D03*
D31*
X340500Y107700D03*
X371900Y107700D03*
D88*
X453200Y106100D03*
D23*
X539200Y107300D03*
D126*
X559900Y107300D03*
D35*
X658000Y105900D03*
D31*
X340500Y107900D03*
X371900Y107900D03*
D88*
X453200Y106300D03*
D121*
X539300Y107500D03*
D138*
X559900Y107500D03*
D39*
X657900Y106100D03*
D31*
X340500Y108100D03*
X371900Y108100D03*
D88*
X453200Y106500D03*
D121*
X539500Y107700D03*
D20*
X559800Y107700D03*
D211*
X658000Y106300D03*
D31*
X340500Y108300D03*
X371900Y108300D03*
D88*
X453200Y106700D03*
D122*
X539700Y107900D03*
D23*
X559600Y107900D03*
D212*
X657900Y106500D03*
D31*
X340500Y108500D03*
X371900Y108500D03*
D88*
X453200Y106900D03*
D116*
X539900Y108100D03*
D122*
X559500Y108100D03*
D212*
X657900Y106700D03*
D31*
X340500Y108700D03*
X371900Y108700D03*
D88*
X453200Y107100D03*
D114*
X540200Y108300D03*
D25*
X559300Y108300D03*
D34*
X658000Y106900D03*
D31*
X340500Y108900D03*
X371900Y108900D03*
D88*
X453200Y107300D03*
D117*
X540700Y108500D03*
D110*
X559100Y108500D03*
D36*
X657900Y107100D03*
D31*
X340500Y109100D03*
X371900Y109100D03*
D88*
X453200Y107500D03*
D81*
X550100Y108700D03*
D213*
X658000Y107300D03*
D31*
X340500Y109300D03*
X371900Y109300D03*
D88*
X453200Y107700D03*
D82*
X550200Y108900D03*
D214*
X657900Y107500D03*
D31*
X340500Y109500D03*
X371900Y109500D03*
D88*
X453200Y107900D03*
D82*
X550400Y109100D03*
D214*
X657900Y107700D03*
D31*
X340500Y109700D03*
X371900Y109700D03*
D88*
X453200Y108100D03*
D90*
X550500Y109300D03*
D215*
X658000Y107900D03*
D31*
X340500Y109900D03*
X371900Y109900D03*
D88*
X453200Y108300D03*
D84*
X550600Y109500D03*
D33*
X657900Y108100D03*
D31*
X340500Y110100D03*
X371900Y110100D03*
D88*
X453200Y108500D03*
D84*
X550800Y109700D03*
D33*
X657900Y108300D03*
D31*
X340500Y110300D03*
X371900Y110300D03*
D88*
X453200Y108700D03*
D85*
X550900Y109900D03*
D216*
X658000Y108500D03*
D31*
X340500Y110500D03*
X371900Y110500D03*
D88*
X453200Y108900D03*
D85*
X550900Y110100D03*
D105*
X657900Y108700D03*
D31*
X340500Y110700D03*
X371900Y110700D03*
D88*
X453200Y109100D03*
D90*
X550900Y110300D03*
D188*
X658000Y108900D03*
D31*
X340500Y110900D03*
X371900Y110900D03*
D88*
X453200Y109300D03*
D90*
X550900Y110500D03*
D30*
X657900Y109100D03*
D31*
X340500Y111100D03*
X371900Y111100D03*
D88*
X453200Y109500D03*
D81*
X550900Y110700D03*
D30*
X657900Y109300D03*
D31*
X340500Y111300D03*
X371900Y111300D03*
D88*
X453200Y109700D03*
D87*
X550800Y110900D03*
D187*
X658000Y109500D03*
D31*
X340500Y111500D03*
X371900Y111500D03*
D88*
X453200Y109900D03*
D217*
X550800Y111100D03*
D186*
X657900Y109700D03*
D31*
X340500Y111700D03*
X371900Y111700D03*
D88*
X453200Y110100D03*
D77*
X550700Y111300D03*
D106*
X658000Y109900D03*
D31*
X340500Y111900D03*
X371900Y111900D03*
D88*
X453200Y110300D03*
D83*
X550700Y111500D03*
D108*
X657900Y110100D03*
D31*
X340500Y112100D03*
X371900Y112100D03*
D88*
X453200Y110500D03*
D73*
X550600Y111700D03*
D108*
X657900Y110300D03*
D31*
X340500Y112300D03*
X371900Y112300D03*
D88*
X453200Y110700D03*
D71*
X550600Y111900D03*
D28*
X658000Y110500D03*
D31*
X340500Y112500D03*
X371900Y112500D03*
D88*
X453200Y110900D03*
D69*
X550600Y112100D03*
D109*
X657900Y110700D03*
D31*
X340500Y112700D03*
X371900Y112700D03*
D88*
X453200Y111100D03*
D76*
X550500Y112300D03*
D109*
X657900Y110900D03*
D31*
X340500Y112900D03*
X371900Y112900D03*
D88*
X453200Y111300D03*
D74*
X550500Y112500D03*
D107*
X658000Y111100D03*
D31*
X340500Y113100D03*
X371900Y113100D03*
D88*
X453200Y111500D03*
D72*
X550500Y112700D03*
D111*
X657900Y111300D03*
D31*
X340500Y113300D03*
X371900Y113300D03*
D88*
X453200Y111700D03*
D66*
X550400Y112900D03*
D112*
X658000Y111500D03*
D31*
X340500Y113500D03*
X371900Y113500D03*
D88*
X453200Y111900D03*
D64*
X550400Y113100D03*
D29*
X657900Y111700D03*
D31*
X340500Y113700D03*
X371900Y113700D03*
D88*
X453200Y112100D03*
D63*
X550400Y113300D03*
D29*
X657900Y111900D03*
D31*
X340500Y113900D03*
X371900Y113900D03*
D88*
X453200Y112300D03*
D62*
X550400Y113500D03*
D26*
X658000Y112100D03*
D31*
X340500Y114100D03*
X371900Y114100D03*
D88*
X453200Y112500D03*
D218*
X550300Y113700D03*
D115*
X657900Y112300D03*
D31*
X340500Y114300D03*
X371900Y114300D03*
D88*
X453200Y112700D03*
D219*
X550300Y113900D03*
D113*
X658000Y112500D03*
D31*
X340500Y114500D03*
X371900Y114500D03*
D88*
X453200Y112900D03*
D220*
X550300Y114100D03*
D110*
X657900Y112700D03*
D31*
X340500Y114700D03*
X371900Y114700D03*
D88*
X453200Y113100D03*
D221*
X550300Y114300D03*
D110*
X657900Y112900D03*
D31*
X340500Y114900D03*
X371900Y114900D03*
D88*
X453200Y113300D03*
D61*
X550300Y114500D03*
D27*
X658000Y113100D03*
D31*
X340500Y115100D03*
X371900Y115100D03*
D88*
X453200Y113500D03*
D56*
X550300Y114700D03*
D117*
X657900Y113300D03*
D31*
X340500Y115300D03*
X371900Y115300D03*
D88*
X453200Y113700D03*
D54*
X550300Y114900D03*
D117*
X657900Y113500D03*
D31*
X340500Y115500D03*
X371900Y115500D03*
D88*
X453200Y113900D03*
D222*
X550300Y115100D03*
D24*
X658000Y113700D03*
D31*
X340500Y115700D03*
X371900Y115700D03*
D88*
X453200Y114100D03*
D55*
X550200Y115300D03*
D119*
X657900Y113900D03*
D31*
X340500Y115900D03*
X371900Y115900D03*
D88*
X453200Y114300D03*
D189*
X550200Y115500D03*
D114*
X658000Y114100D03*
D31*
X340500Y116100D03*
X371900Y116100D03*
D88*
X453200Y114500D03*
D48*
X550200Y115700D03*
D25*
X657900Y114300D03*
D31*
X340500Y116300D03*
X371900Y116300D03*
D88*
X453200Y114700D03*
D51*
X550200Y115900D03*
D25*
X657900Y114500D03*
D31*
X340500Y116500D03*
X371900Y116500D03*
D88*
X453200Y114900D03*
D44*
X550100Y116100D03*
D118*
X658000Y114700D03*
D31*
X340500Y116700D03*
X371900Y116700D03*
D88*
X453200Y115100D03*
D197*
X550100Y116300D03*
D116*
X657900Y114900D03*
D31*
X340500Y116900D03*
X371900Y116900D03*
D88*
X453200Y115300D03*
D42*
X550100Y116500D03*
D22*
X658000Y115100D03*
D31*
X340500Y117100D03*
X371900Y117100D03*
D88*
X453200Y115500D03*
D40*
X550100Y116700D03*
D122*
X657900Y115300D03*
D31*
X340500Y117300D03*
X371900Y117300D03*
D88*
X453200Y115700D03*
D204*
X550100Y116900D03*
D122*
X657900Y115500D03*
D31*
X340500Y117500D03*
X371900Y117500D03*
D88*
X453200Y115900D03*
D41*
X550000Y117100D03*
D120*
X658000Y115700D03*
D31*
X340500Y117700D03*
X371900Y117700D03*
D88*
X453200Y116100D03*
D39*
X550100Y117300D03*
D121*
X657900Y115900D03*
D31*
X340500Y117900D03*
X371900Y117900D03*
D88*
X453200Y116300D03*
D34*
X550000Y117500D03*
D121*
X657900Y116100D03*
D31*
X340500Y118100D03*
X371900Y118100D03*
D88*
X453200Y116500D03*
D215*
X550000Y117700D03*
D23*
X658000Y116300D03*
D31*
X340500Y118300D03*
X371900Y118300D03*
D88*
X453200Y116700D03*
D216*
X550000Y117900D03*
D123*
X657900Y116500D03*
D31*
X340500Y118500D03*
X371900Y118500D03*
D88*
X453200Y116900D03*
D187*
X550000Y118100D03*
D37*
X658000Y116700D03*
D31*
X340500Y118700D03*
X371900Y118700D03*
D88*
X453200Y117100D03*
D28*
X550000Y118300D03*
D32*
X657900Y116900D03*
D31*
X340500Y118900D03*
X371900Y118900D03*
D88*
X453200Y117300D03*
D112*
X550000Y118500D03*
D32*
X657900Y117100D03*
D31*
X340500Y119100D03*
X371900Y119100D03*
D88*
X453200Y117500D03*
D113*
X550000Y118700D03*
D20*
X658000Y117300D03*
D119*
X549900Y118900D03*
D22*
X550000Y119100D03*
D123*
X549900Y119300D03*
D138*
X549900Y119500D03*
D18*
X549800Y119700D03*
D134*
X549900Y119900D03*
D140*
X549900Y120100D03*
D150*
X549900Y120300D03*
D223*
X357800Y55300D02*
X356800Y56300D01*
X356800Y58300D01*
D10*
X109736Y324412D02*
X111939Y326615D01*
X116346Y326615D01*
X118549Y324412D01*
X118549Y322209D01*
X116346Y320006D01*
X114142Y320006D01*
X116346Y320006D02*
X118549Y317802D01*
X118549Y315599D01*
X116346Y313396D01*
X111939Y313396D01*
X109736Y315599D01*
X123769Y322209D02*
X128175Y313396D01*
X132582Y322209D01*
X137802Y324412D02*
X140005Y326615D01*
X144411Y326615D01*
X146614Y324412D01*
X146614Y322209D01*
X144411Y320006D01*
X142208Y320006D01*
X144411Y320006D02*
X146614Y317802D01*
X146614Y315599D01*
X144411Y313396D01*
X140005Y313396D01*
X137802Y315599D01*
X109736Y301215D02*
X109736Y287996D01*
X116346Y287996D01*
X118549Y290199D01*
X118549Y299012D01*
X116346Y301215D01*
X109736Y301215D01*
X128175Y301215D02*
X128175Y287996D01*
X123769Y301215D02*
X132582Y301215D01*
X137802Y301215D02*
X137802Y287996D01*
X137802Y301215D02*
X144411Y301215D01*
X146614Y299012D01*
X146614Y294606D01*
X144411Y292402D01*
X137802Y292402D01*
X142208Y292402D02*
X146614Y287996D01*
X84336Y275815D02*
X84336Y262596D01*
X88742Y271409D02*
X84336Y275815D01*
X88742Y271409D02*
X93149Y275815D01*
X93149Y262596D01*
X104978Y275815D02*
X107182Y273612D01*
X104978Y275815D02*
X100572Y275815D01*
X98369Y273612D01*
X98369Y264799D01*
X100572Y262596D01*
X104978Y262596D01*
X107182Y264799D01*
X112402Y264799D02*
X112402Y275815D01*
X112402Y264799D02*
X114605Y262596D01*
X119011Y262596D01*
X121214Y264799D01*
X121214Y275815D01*
X126434Y264799D02*
X126434Y262596D01*
X126434Y264799D02*
X128638Y264799D01*
X128638Y262596D01*
X126434Y262596D01*
X137857Y262596D02*
X137857Y275815D01*
X133451Y275815D02*
X142264Y275815D01*
X147484Y275815D02*
X156296Y262596D01*
X147484Y262596D02*
X156296Y275815D01*
X84336Y250415D02*
X84336Y237196D01*
X88742Y246009D02*
X84336Y250415D01*
X88742Y246009D02*
X93149Y250415D01*
X93149Y237196D01*
X104978Y250415D02*
X107182Y248212D01*
X104978Y250415D02*
X100572Y250415D01*
X98369Y248212D01*
X98369Y239399D01*
X100572Y237196D01*
X104978Y237196D01*
X107182Y239399D01*
X112402Y239399D02*
X112402Y250415D01*
X112402Y239399D02*
X114605Y237196D01*
X119011Y237196D01*
X121214Y239399D01*
X121214Y250415D01*
X126434Y239399D02*
X126434Y237196D01*
X126434Y239399D02*
X128638Y239399D01*
X128638Y237196D01*
X126434Y237196D01*
X133451Y237196D02*
X133451Y250415D01*
X140060Y250415D01*
X142264Y248212D01*
X142264Y243806D01*
X140060Y241602D01*
X133451Y241602D01*
X137857Y241602D02*
X142264Y237196D01*
X156296Y237196D02*
X147484Y250415D01*
X156296Y250415D02*
X147484Y237196D01*
X118549Y222812D02*
X116346Y225015D01*
X111939Y225015D01*
X109736Y222812D01*
X109736Y213999D01*
X111939Y211796D01*
X116346Y211796D01*
X118549Y213999D01*
X118549Y218406D01*
X114142Y218406D01*
X123769Y211796D02*
X123769Y225015D01*
X132582Y211796D01*
X132582Y225015D01*
X137802Y225015D02*
X137802Y211796D01*
X144411Y211796D01*
X146614Y213999D01*
X146614Y222812D01*
X144411Y225015D01*
X137802Y225015D01*
X118549Y199615D02*
X109736Y199615D01*
X109736Y193006D01*
X114142Y195209D01*
X116346Y195209D01*
X118549Y193006D01*
X118549Y188599D01*
X116346Y186396D01*
X111939Y186396D01*
X109736Y188599D01*
X123769Y195209D02*
X128175Y186396D01*
X132582Y195209D01*
X137802Y197412D02*
X137802Y188599D01*
X137802Y197412D02*
X140005Y199615D01*
X144411Y199615D01*
X146614Y197412D01*
X146614Y188599D01*
X144411Y186396D01*
X140005Y186396D01*
X137802Y188599D01*
X146614Y197412D01*
D11*
X190000Y337780D02*
X-500Y337780D01*
X-500Y175220D02*
X190000Y175220D01*
X-500Y175220D02*
X-500Y337780D01*
X190000Y337780D02*
X190000Y330160D01*
X190000Y182840D02*
X190000Y175220D01*
D224*
X437000Y430000D02*
X473000Y430000D01*
X473000Y450000D01*
X437000Y450000D01*
X437000Y430000D01*
D225*
X479503Y443372D02*
X480793Y442082D01*
X479503Y443372D02*
X476924Y443372D01*
X475635Y442082D01*
X475635Y436924D01*
X476924Y435635D01*
X479503Y435635D01*
X480793Y436924D01*
X483922Y435635D02*
X489080Y435635D01*
X483922Y435635D02*
X489080Y440793D01*
X489080Y442082D01*
X487790Y443372D01*
X485211Y443372D01*
X483922Y442082D01*
D224*
X473000Y410000D02*
X437000Y410000D01*
X473000Y410000D02*
X473000Y430000D01*
X437000Y430000D01*
X437000Y410000D01*
D225*
X479503Y423372D02*
X480793Y422082D01*
X479503Y423372D02*
X476924Y423372D01*
X475635Y422082D01*
X475635Y416924D01*
X476924Y415635D01*
X479503Y415635D01*
X480793Y416924D01*
X483922Y422082D02*
X485211Y423372D01*
X487790Y423372D01*
X489080Y422082D01*
X489080Y420793D01*
X487790Y419503D01*
X486501Y419503D01*
X487790Y419503D02*
X489080Y418214D01*
X489080Y416924D01*
X487790Y415635D01*
X485211Y415635D01*
X483922Y416924D01*
D223*
X462000Y394000D02*
X462000Y266000D01*
X538000Y266000D02*
X538000Y394000D01*
X468080Y394000D02*
X468080Y266000D01*
X468080Y394000D02*
X538000Y394000D01*
X468080Y394000D02*
X462000Y394000D01*
X468080Y266000D02*
X538000Y266000D01*
X468080Y266000D02*
X462000Y266000D01*
D226*
X450000Y399000D03*
D225*
X500000Y342700D02*
X500000Y317300D01*
X512700Y330000D02*
X487300Y330000D01*
X462635Y399091D02*
X462635Y406372D01*
X462635Y399091D02*
X464091Y397635D01*
X467004Y397635D01*
X468460Y399091D01*
X468460Y406372D01*
X471843Y404916D02*
X473299Y406372D01*
X476212Y406372D01*
X477668Y404916D01*
X477668Y403460D01*
X476212Y402004D01*
X474755Y402004D01*
X476212Y402004D02*
X477668Y400547D01*
X477668Y399091D01*
X476212Y397635D01*
X473299Y397635D01*
X471843Y399091D01*
D224*
X540000Y248000D02*
X540000Y212000D01*
X540000Y248000D02*
X520000Y248000D01*
X520000Y212000D01*
X540000Y212000D01*
D225*
X526918Y199219D02*
X525628Y197929D01*
X525628Y195350D01*
X526918Y194061D01*
X532076Y194061D01*
X533365Y195350D01*
X533365Y197929D01*
X532076Y199219D01*
X528207Y202348D02*
X525628Y204927D01*
X533365Y204927D01*
X533365Y202348D02*
X533365Y207506D01*
D224*
X480000Y212000D02*
X480000Y248000D01*
X480000Y212000D02*
X500000Y212000D01*
X500000Y248000D01*
X480000Y248000D01*
D225*
X485628Y194061D02*
X493365Y194061D01*
X485628Y194061D02*
X485628Y197929D01*
X486918Y199219D01*
X489497Y199219D01*
X490786Y197929D01*
X490786Y194061D01*
X490786Y196640D02*
X493365Y199219D01*
X488207Y202348D02*
X485628Y204927D01*
X493365Y204927D01*
X493365Y202348D02*
X493365Y207506D01*
D224*
X460000Y212000D02*
X460000Y248000D01*
X460000Y212000D02*
X480000Y212000D01*
X480000Y248000D01*
X460000Y248000D01*
D225*
X465628Y194061D02*
X473365Y194061D01*
X465628Y194061D02*
X465628Y197929D01*
X466918Y199219D01*
X469497Y199219D01*
X470786Y197929D01*
X470786Y194061D01*
X470786Y196640D02*
X473365Y199219D01*
X473365Y202348D02*
X473365Y207506D01*
X473365Y202348D02*
X468207Y207506D01*
X466918Y207506D01*
X465628Y206216D01*
X465628Y203637D01*
X466918Y202348D01*
D224*
X500000Y212000D02*
X500000Y248000D01*
X500000Y212000D02*
X520000Y212000D01*
X520000Y248000D01*
X500000Y248000D01*
D225*
X505628Y194061D02*
X513365Y194061D01*
X505628Y194061D02*
X505628Y197929D01*
X506918Y199219D01*
X509497Y199219D01*
X510786Y197929D01*
X510786Y194061D01*
X510786Y196640D02*
X513365Y199219D01*
X506918Y202348D02*
X505628Y203637D01*
X505628Y206216D01*
X506918Y207506D01*
X508207Y207506D01*
X509497Y206216D01*
X509497Y204927D01*
X509497Y206216D02*
X510786Y207506D01*
X512076Y207506D01*
X513365Y206216D01*
X513365Y203637D01*
X512076Y202348D01*
D224*
X283000Y230000D02*
X247000Y230000D01*
X283000Y230000D02*
X283000Y250000D01*
X247000Y250000D01*
X247000Y230000D01*
D225*
X290635Y235635D02*
X290635Y243372D01*
X294503Y243372D01*
X295793Y242082D01*
X295793Y239503D01*
X294503Y238214D01*
X290635Y238214D01*
X293214Y238214D02*
X295793Y235635D01*
X298922Y242082D02*
X300211Y243372D01*
X302790Y243372D01*
X304080Y242082D01*
X304080Y240793D01*
X302790Y239503D01*
X304080Y238214D01*
X304080Y236924D01*
X302790Y235635D01*
X300211Y235635D01*
X298922Y236924D01*
X298922Y238214D01*
X300211Y239503D01*
X298922Y240793D01*
X298922Y242082D01*
X300211Y239503D02*
X302790Y239503D01*
D224*
X283000Y210000D02*
X247000Y210000D01*
X247000Y190000D01*
X283000Y190000D01*
X283000Y210000D01*
D225*
X290635Y203372D02*
X290635Y195635D01*
X290635Y203372D02*
X294503Y203372D01*
X295793Y202082D01*
X295793Y199503D01*
X294503Y198214D01*
X290635Y198214D01*
X293214Y198214D02*
X295793Y195635D01*
X298922Y203372D02*
X304080Y203372D01*
X298922Y203372D02*
X298922Y199503D01*
X301501Y200793D01*
X302790Y200793D01*
X304080Y199503D01*
X304080Y196924D01*
X302790Y195635D01*
X300211Y195635D01*
X298922Y196924D01*
D224*
X145000Y138000D02*
X145000Y102000D01*
X165000Y102000D01*
X165000Y138000D01*
X145000Y138000D01*
D225*
X151628Y149503D02*
X152918Y150793D01*
X151628Y149503D02*
X151628Y146924D01*
X152918Y145635D01*
X158076Y145635D01*
X159365Y146924D01*
X159365Y149503D01*
X158076Y150793D01*
X152918Y156501D02*
X151628Y159080D01*
X152918Y156501D02*
X155497Y153922D01*
X158076Y153922D01*
X159365Y155211D01*
X159365Y157790D01*
X158076Y159080D01*
X156786Y159080D01*
X155497Y157790D01*
X155497Y153922D01*
D224*
X895000Y707000D02*
X895000Y743000D01*
X895000Y707000D02*
X915000Y707000D01*
X915000Y743000D01*
X895000Y743000D01*
D225*
X901628Y745635D02*
X909365Y745635D01*
X901628Y745635D02*
X901628Y749503D01*
X902918Y750793D01*
X905497Y750793D01*
X906786Y749503D01*
X906786Y745635D01*
X906786Y748214D02*
X909365Y750793D01*
X901628Y753922D02*
X901628Y759080D01*
X902918Y759080D01*
X908076Y753922D01*
X909365Y753922D01*
D224*
X875000Y743000D02*
X875000Y707000D01*
X895000Y707000D01*
X895000Y743000D01*
X875000Y743000D01*
D225*
X881628Y745635D02*
X889365Y745635D01*
X881628Y745635D02*
X881628Y749503D01*
X882918Y750793D01*
X885497Y750793D01*
X886786Y749503D01*
X886786Y745635D01*
X886786Y748214D02*
X889365Y750793D01*
X882918Y756501D02*
X881628Y759080D01*
X882918Y756501D02*
X885497Y753922D01*
X888076Y753922D01*
X889365Y755211D01*
X889365Y757790D01*
X888076Y759080D01*
X886786Y759080D01*
X885497Y757790D01*
X885497Y753922D01*
D224*
X855000Y743000D02*
X855000Y707000D01*
X875000Y707000D01*
X875000Y743000D01*
X855000Y743000D01*
D225*
X861628Y749503D02*
X862918Y750793D01*
X861628Y749503D02*
X861628Y746924D01*
X862918Y745635D01*
X868076Y745635D01*
X869365Y746924D01*
X869365Y749503D01*
X868076Y750793D01*
X861628Y753922D02*
X861628Y759080D01*
X861628Y753922D02*
X865497Y753922D01*
X864207Y756501D01*
X864207Y757790D01*
X865497Y759080D01*
X868076Y759080D01*
X869365Y757790D01*
X869365Y755211D01*
X868076Y753922D01*
X39418Y423335D02*
X37935Y424818D01*
X39418Y423335D02*
X40901Y423335D01*
X42384Y424818D01*
X42384Y432233D01*
X40901Y432233D02*
X43867Y432233D01*
X47290Y430750D02*
X48773Y432233D01*
X51739Y432233D01*
X53222Y430750D01*
X53222Y429267D01*
X51739Y427784D01*
X53222Y426301D01*
X53222Y424818D01*
X51739Y423335D01*
X48773Y423335D01*
X47290Y424818D01*
X47290Y426301D01*
X48773Y427784D01*
X47290Y429267D01*
X47290Y430750D01*
X48773Y427784D02*
X51739Y427784D01*
D11*
X60000Y90000D02*
X95000Y90000D01*
X45000Y115000D02*
X45000Y130000D01*
X60000Y155000D02*
X95000Y155000D01*
X110000Y130000D02*
X110000Y115000D01*
D224*
X247000Y230000D02*
X283000Y230000D01*
X247000Y230000D02*
X247000Y210000D01*
X283000Y210000D01*
X283000Y230000D01*
D225*
X290635Y223372D02*
X290635Y215635D01*
X290635Y223372D02*
X294503Y223372D01*
X295793Y222082D01*
X295793Y219503D01*
X294503Y218214D01*
X290635Y218214D01*
X293214Y218214D02*
X295793Y215635D01*
X298922Y216924D02*
X300211Y215635D01*
X302790Y215635D01*
X304080Y216924D01*
X304080Y222082D01*
X302790Y223372D01*
X300211Y223372D01*
X298922Y222082D01*
X298922Y220793D01*
X300211Y219503D01*
X304080Y219503D01*
D224*
X170000Y138000D02*
X170000Y102000D01*
X190000Y102000D01*
X190000Y138000D01*
X170000Y138000D01*
D225*
X176628Y149503D02*
X177918Y150793D01*
X176628Y149503D02*
X176628Y146924D01*
X177918Y145635D01*
X183076Y145635D01*
X184365Y146924D01*
X184365Y149503D01*
X183076Y150793D01*
X184365Y157790D02*
X176628Y157790D01*
X180497Y153922D01*
X180497Y159080D01*
D227*
X576830Y683170D02*
X576830Y686218D01*
X576830Y756830D02*
X573782Y756830D01*
X503170Y756830D02*
X503170Y753782D01*
X503170Y683170D02*
X506218Y683170D01*
X573782Y683170D02*
X576830Y683170D01*
X576830Y753782D02*
X576830Y756830D01*
X506218Y756830D02*
X503170Y756830D01*
X503170Y686218D02*
X503170Y683170D01*
D228*
X500000Y678000D03*
D225*
X540000Y714000D02*
X540000Y726000D01*
X546000Y720000D02*
X534000Y720000D01*
D224*
X571000Y689000D02*
X571000Y751000D01*
X509000Y751000D01*
X509000Y689000D01*
X571000Y689000D01*
D229*
X483306Y685508D02*
X477374Y685508D01*
X483306Y685508D02*
X484492Y686694D01*
X484492Y689067D01*
X483306Y690253D01*
X477374Y690253D01*
X478560Y695365D02*
X477374Y697738D01*
X478560Y695365D02*
X480933Y692992D01*
X483306Y692992D01*
X484492Y694179D01*
X484492Y696551D01*
X483306Y697738D01*
X482119Y697738D01*
X480933Y696551D01*
X480933Y692992D01*
D10*
X923573Y741843D02*
X925352Y740064D01*
X923573Y741843D02*
X920014Y741843D01*
X918234Y740064D01*
X918234Y732946D01*
X920014Y731166D01*
X923573Y731166D01*
X925352Y732946D01*
X925352Y736505D01*
X921793Y736505D01*
X929928Y741843D02*
X929928Y731166D01*
X937046Y731166D02*
X929928Y741843D01*
X937046Y741843D02*
X937046Y731166D01*
X941622Y731166D02*
X941622Y741843D01*
X941622Y731166D02*
X946961Y731166D01*
X948740Y732946D01*
X948740Y740064D01*
X946961Y741843D01*
X941622Y741843D01*
X918234Y716443D02*
X918234Y709325D01*
X921793Y705766D01*
X925352Y709325D01*
X925352Y716443D01*
X929928Y716443D02*
X929928Y705766D01*
X935267Y705766D01*
X937046Y707546D01*
X937046Y714664D01*
X935267Y716443D01*
X929928Y716443D01*
X941622Y716443D02*
X941622Y705766D01*
X946961Y705766D01*
X948740Y707546D01*
X948740Y714664D01*
X946961Y716443D01*
X941622Y716443D01*
X923573Y691043D02*
X925352Y689264D01*
X923573Y691043D02*
X920014Y691043D01*
X918234Y689264D01*
X918234Y687484D01*
X920014Y685705D01*
X923573Y685705D01*
X925352Y683925D01*
X925352Y682146D01*
X923573Y680366D01*
X920014Y680366D01*
X918234Y682146D01*
X929928Y680366D02*
X929928Y691043D01*
X929928Y680366D02*
X935267Y680366D01*
X937046Y682146D01*
X937046Y689264D01*
X935267Y691043D01*
X929928Y691043D01*
X941622Y687484D02*
X941622Y680366D01*
X941622Y687484D02*
X945181Y691043D01*
X948740Y687484D01*
X948740Y680366D01*
X948740Y685705D02*
X941622Y685705D01*
X923573Y665643D02*
X925352Y663864D01*
X923573Y665643D02*
X920014Y665643D01*
X918234Y663864D01*
X918234Y662084D01*
X920014Y660305D01*
X923573Y660305D01*
X925352Y658525D01*
X925352Y656746D01*
X923573Y654966D01*
X920014Y654966D01*
X918234Y656746D01*
X935267Y665643D02*
X937046Y663864D01*
X935267Y665643D02*
X931708Y665643D01*
X929928Y663864D01*
X929928Y656746D01*
X931708Y654966D01*
X935267Y654966D01*
X937046Y656746D01*
X941622Y654966D02*
X941622Y665643D01*
X941622Y654966D02*
X948740Y654966D01*
D11*
X980240Y652680D02*
X980240Y744120D01*
D10*
X923573Y220343D02*
X925352Y218564D01*
X923573Y220343D02*
X920014Y220343D01*
X918234Y218564D01*
X918234Y211446D01*
X920014Y209666D01*
X923573Y209666D01*
X925352Y211446D01*
X925352Y215005D01*
X921793Y215005D01*
X929928Y220343D02*
X929928Y209666D01*
X937046Y209666D02*
X929928Y220343D01*
X937046Y220343D02*
X937046Y209666D01*
X941622Y209666D02*
X941622Y220343D01*
X941622Y209666D02*
X946961Y209666D01*
X948740Y211446D01*
X948740Y218564D01*
X946961Y220343D01*
X941622Y220343D01*
X918234Y194943D02*
X918234Y187825D01*
X921793Y184266D01*
X925352Y187825D01*
X925352Y194943D01*
X929928Y194943D02*
X929928Y184266D01*
X935267Y184266D01*
X937046Y186046D01*
X937046Y193164D01*
X935267Y194943D01*
X929928Y194943D01*
X941622Y194943D02*
X941622Y184266D01*
X946961Y184266D01*
X948740Y186046D01*
X948740Y193164D01*
X946961Y194943D01*
X941622Y194943D01*
X871458Y169543D02*
X871458Y158866D01*
X871458Y169543D02*
X876797Y169543D01*
X878576Y167764D01*
X878576Y164205D01*
X876797Y162425D01*
X871458Y162425D01*
X875017Y162425D02*
X878576Y158866D01*
X888491Y169543D02*
X890270Y167764D01*
X888491Y169543D02*
X884932Y169543D01*
X883152Y167764D01*
X883152Y160646D01*
X884932Y158866D01*
X888491Y158866D01*
X890270Y160646D01*
X894846Y158866D02*
X901964Y158866D01*
X894846Y158866D02*
X901964Y165984D01*
X901964Y167764D01*
X900185Y169543D01*
X896626Y169543D01*
X894846Y167764D01*
X906540Y158866D02*
X913658Y169543D01*
X918234Y165984D02*
X918234Y158866D01*
X918234Y165984D02*
X921793Y169543D01*
X925352Y165984D01*
X925352Y158866D01*
X925352Y164205D02*
X918234Y164205D01*
X929928Y169543D02*
X929928Y158866D01*
X937046Y158866D02*
X929928Y169543D01*
X937046Y169543D02*
X937046Y158866D01*
X945181Y167764D02*
X948740Y169543D01*
X945181Y167764D02*
X941622Y164205D01*
X941622Y160646D01*
X943401Y158866D01*
X946960Y158866D01*
X948740Y160646D01*
X948740Y162425D01*
X946960Y164205D01*
X941622Y164205D01*
X871458Y144143D02*
X871458Y133466D01*
X871458Y144143D02*
X876797Y144143D01*
X878576Y142364D01*
X878576Y138805D01*
X876797Y137025D01*
X871458Y137025D01*
X875017Y137025D02*
X878576Y133466D01*
X888491Y144143D02*
X890270Y142364D01*
X888491Y144143D02*
X884932Y144143D01*
X883152Y142364D01*
X883152Y135246D01*
X884932Y133466D01*
X888491Y133466D01*
X890270Y135246D01*
X894846Y142364D02*
X896626Y144143D01*
X900185Y144143D01*
X901964Y142364D01*
X901964Y140584D01*
X900185Y138805D01*
X898405Y138805D01*
X900185Y138805D02*
X901964Y137025D01*
X901964Y135246D01*
X900185Y133466D01*
X896626Y133466D01*
X894846Y135246D01*
X906540Y133466D02*
X913658Y144143D01*
X918234Y140584D02*
X918234Y133466D01*
X918234Y140584D02*
X921793Y144143D01*
X925352Y140584D01*
X925352Y133466D01*
X925352Y138805D02*
X918234Y138805D01*
X929928Y144143D02*
X929928Y133466D01*
X937046Y133466D02*
X929928Y144143D01*
X937046Y144143D02*
X937046Y133466D01*
X941622Y144143D02*
X948740Y144143D01*
X948740Y142364D01*
X941622Y135246D01*
X941622Y133466D01*
X859764Y118743D02*
X859764Y108066D01*
X859764Y118743D02*
X865103Y118743D01*
X866882Y116964D01*
X866882Y113405D01*
X865103Y111625D01*
X859764Y111625D01*
X863323Y111625D02*
X866882Y108066D01*
X871458Y108066D02*
X871458Y118743D01*
X876797Y118743D01*
X878576Y116964D01*
X878576Y115184D01*
X876797Y113405D01*
X878576Y111625D01*
X878576Y109846D01*
X876797Y108066D01*
X871458Y108066D01*
X871458Y113405D02*
X876797Y113405D01*
X883152Y118743D02*
X890270Y118743D01*
X883152Y118743D02*
X883152Y113405D01*
X886711Y115184D01*
X888491Y115184D01*
X890270Y113405D01*
X890270Y109846D01*
X888491Y108066D01*
X884932Y108066D01*
X883152Y109846D01*
X894846Y108066D02*
X901964Y118743D01*
X906540Y115184D02*
X906540Y108066D01*
X906540Y115184D02*
X910099Y118743D01*
X913658Y115184D01*
X913658Y108066D01*
X913658Y113405D02*
X906540Y113405D01*
X918234Y118743D02*
X918234Y108066D01*
X925352Y108066D02*
X918234Y118743D01*
X925352Y118743D02*
X925352Y108066D01*
X929928Y115184D02*
X933487Y118743D01*
X933487Y108066D01*
X929928Y108066D02*
X937046Y108066D01*
X941622Y115184D02*
X945181Y118743D01*
X945181Y108066D01*
X941622Y108066D02*
X948740Y108066D01*
D11*
X980240Y105780D02*
X980240Y222620D01*
D224*
X607000Y622000D02*
X563000Y622000D01*
X563000Y656000D01*
X607000Y656000D01*
X607000Y622000D01*
X602000Y660000D02*
X602002Y660063D01*
X602008Y660125D01*
X602018Y660187D01*
X602031Y660249D01*
X602049Y660309D01*
X602070Y660368D01*
X602095Y660426D01*
X602124Y660482D01*
X602156Y660536D01*
X602191Y660588D01*
X602229Y660637D01*
X602271Y660685D01*
X602315Y660729D01*
X602363Y660771D01*
X602412Y660809D01*
X602464Y660844D01*
X602518Y660876D01*
X602574Y660905D01*
X602632Y660930D01*
X602691Y660951D01*
X602751Y660969D01*
X602813Y660982D01*
X602875Y660992D01*
X602937Y660998D01*
X603000Y661000D01*
X603063Y660998D01*
X603125Y660992D01*
X603187Y660982D01*
X603249Y660969D01*
X603309Y660951D01*
X603368Y660930D01*
X603426Y660905D01*
X603482Y660876D01*
X603536Y660844D01*
X603588Y660809D01*
X603637Y660771D01*
X603685Y660729D01*
X603729Y660685D01*
X603771Y660637D01*
X603809Y660588D01*
X603844Y660536D01*
X603876Y660482D01*
X603905Y660426D01*
X603930Y660368D01*
X603951Y660309D01*
X603969Y660249D01*
X603982Y660187D01*
X603992Y660125D01*
X603998Y660063D01*
X604000Y660000D01*
X603998Y659937D01*
X603992Y659875D01*
X603982Y659813D01*
X603969Y659751D01*
X603951Y659691D01*
X603930Y659632D01*
X603905Y659574D01*
X603876Y659518D01*
X603844Y659464D01*
X603809Y659412D01*
X603771Y659363D01*
X603729Y659315D01*
X603685Y659271D01*
X603637Y659229D01*
X603588Y659191D01*
X603536Y659156D01*
X603482Y659124D01*
X603426Y659095D01*
X603368Y659070D01*
X603309Y659049D01*
X603249Y659031D01*
X603187Y659018D01*
X603125Y659008D01*
X603063Y659002D01*
X603000Y659000D01*
X602937Y659002D01*
X602875Y659008D01*
X602813Y659018D01*
X602751Y659031D01*
X602691Y659049D01*
X602632Y659070D01*
X602574Y659095D01*
X602518Y659124D01*
X602464Y659156D01*
X602412Y659191D01*
X602363Y659229D01*
X602315Y659271D01*
X602271Y659315D01*
X602229Y659363D01*
X602191Y659412D01*
X602156Y659464D01*
X602124Y659518D01*
X602095Y659574D01*
X602070Y659632D01*
X602049Y659691D01*
X602031Y659751D01*
X602018Y659813D01*
X602008Y659875D01*
X602002Y659937D01*
X602000Y660000D01*
D229*
X563560Y605508D02*
X562374Y605508D01*
X563560Y605508D02*
X565933Y607881D01*
X563560Y610253D01*
X562374Y610253D01*
X565933Y607881D02*
X569492Y607881D01*
X564747Y612992D02*
X562374Y615365D01*
X569492Y615365D01*
X569492Y612992D02*
X569492Y617738D01*
D224*
X575000Y604000D02*
X607000Y604000D01*
X575000Y604000D02*
X575000Y622000D01*
X607000Y622000D01*
X607000Y604000D01*
D229*
X580285Y598312D02*
X579099Y599498D01*
X576726Y599498D01*
X575540Y598312D01*
X575540Y593566D01*
X576726Y592380D01*
X579099Y592380D01*
X580285Y593566D01*
X583024Y599498D02*
X587769Y599498D01*
X587769Y598312D01*
X583024Y593566D01*
X583024Y592380D01*
D224*
X607000Y622000D02*
X607000Y654000D01*
X625000Y654000D01*
X625000Y622000D01*
X607000Y622000D01*
D229*
X630502Y642099D02*
X631688Y643285D01*
X630502Y642099D02*
X630502Y639726D01*
X631688Y638540D01*
X636434Y638540D01*
X637620Y639726D01*
X637620Y642099D01*
X636434Y643285D01*
X631688Y646024D02*
X630502Y647210D01*
X630502Y649583D01*
X631688Y650769D01*
X632875Y650769D01*
X634061Y649583D01*
X635247Y650769D01*
X636434Y650769D01*
X637620Y649583D01*
X637620Y647210D01*
X636434Y646024D01*
X635247Y646024D01*
X634061Y647210D01*
X632875Y646024D01*
X631688Y646024D01*
X634061Y647210D02*
X634061Y649583D01*
D224*
X484000Y188000D02*
X484000Y181000D01*
X484000Y188000D02*
X493000Y188000D01*
X507000Y188000D02*
X516000Y188000D01*
X516000Y181000D01*
X484000Y169000D02*
X484000Y162000D01*
X493000Y162000D01*
X516000Y162000D02*
X516000Y169000D01*
X516000Y162000D02*
X507000Y162000D01*
D230*
X507000Y158000D03*
D229*
X520508Y165508D02*
X520508Y172626D01*
X520508Y165508D02*
X525253Y165508D01*
X527992Y172626D02*
X532738Y172626D01*
X527992Y172626D02*
X527992Y165508D01*
X532738Y165508D01*
X530365Y169067D02*
X527992Y169067D01*
X535476Y172626D02*
X535476Y165508D01*
X539035Y165508D01*
X540222Y166694D01*
X540222Y171440D01*
X539035Y172626D01*
X535476Y172626D01*
X542960Y170253D02*
X545333Y172626D01*
X545333Y165508D01*
X542960Y165508D02*
X547706Y165508D01*
D231*
X280000Y730000D02*
X25000Y730000D01*
X25000Y460000D02*
X280000Y460000D01*
X25000Y460000D02*
X25000Y730000D01*
X280000Y730000D02*
X280000Y460000D01*
D12*
X23889Y736711D02*
X23889Y743998D01*
X25711Y745820D01*
X29355Y745820D01*
X31177Y743998D01*
X31177Y736711D01*
X29355Y734889D01*
X25711Y734889D01*
X23889Y736711D01*
X31177Y743998D01*
X35583Y736711D02*
X35583Y734889D01*
X35583Y736711D02*
X37405Y736711D01*
X37405Y734889D01*
X35583Y734889D01*
X41430Y736711D02*
X43252Y734889D01*
X46896Y734889D01*
X48717Y736711D01*
X48717Y743998D01*
X46896Y745820D01*
X43252Y745820D01*
X41430Y743998D01*
X41430Y742177D01*
X43252Y740355D01*
X48717Y740355D01*
X56768Y743998D02*
X60411Y745820D01*
X56768Y743998D02*
X53124Y740355D01*
X53124Y736711D01*
X54946Y734889D01*
X58590Y734889D01*
X60411Y736711D01*
X60411Y738533D01*
X58590Y740355D01*
X53124Y740355D01*
X66640Y743998D02*
X66640Y747642D01*
X66640Y743998D02*
X64818Y742177D01*
X70284Y743998D02*
X70284Y747642D01*
X70284Y743998D02*
X68462Y742177D01*
X88079Y745820D02*
X91722Y745820D01*
X88079Y745820D02*
X86257Y743998D01*
X86257Y736711D01*
X88079Y734889D01*
X91722Y734889D01*
X93544Y736711D01*
X93544Y743998D01*
X91722Y745820D01*
X97951Y745820D02*
X97951Y734889D01*
X105238Y734889D01*
X109645Y745820D02*
X116932Y745820D01*
X109645Y745820D02*
X109645Y734889D01*
X116932Y734889D01*
X113289Y740355D02*
X109645Y740355D01*
X121339Y745820D02*
X121339Y734889D01*
X126804Y734889D01*
X128626Y736711D01*
X128626Y743998D01*
X126804Y745820D01*
X121339Y745820D01*
X144727Y745820D02*
X144727Y734889D01*
X148370Y742177D02*
X144727Y745820D01*
X148370Y742177D02*
X152014Y745820D01*
X152014Y734889D01*
X158243Y734889D02*
X161886Y734889D01*
X163708Y736711D01*
X163708Y740355D01*
X161886Y742177D01*
X158243Y742177D01*
X156421Y740355D01*
X156421Y736711D01*
X158243Y734889D01*
X175402Y734889D02*
X175402Y745820D01*
X175402Y734889D02*
X169936Y734889D01*
X168115Y736711D01*
X168115Y740355D01*
X169936Y742177D01*
X175402Y742177D01*
X179809Y742177D02*
X179809Y736711D01*
X181630Y734889D01*
X187096Y734889D01*
X187096Y742177D01*
X191503Y745820D02*
X193324Y745820D01*
X193324Y734889D01*
X191503Y734889D02*
X195146Y734889D01*
X201120Y734889D02*
X204764Y734889D01*
X201120Y734889D02*
X199299Y736711D01*
X199299Y740355D01*
X201120Y742177D01*
X204764Y742177D01*
X206586Y740355D01*
X206586Y738533D01*
X199299Y738533D01*
X222686Y738533D02*
X226330Y734889D01*
X222686Y738533D02*
X222686Y742177D01*
X226330Y745820D01*
X230482Y742177D02*
X230482Y734889D01*
X230482Y742177D02*
X234126Y745820D01*
X237770Y742177D01*
X237770Y734889D01*
X237770Y740355D02*
X230482Y740355D01*
X242176Y745820D02*
X242176Y734889D01*
X249464Y734889D01*
X257514Y734889D02*
X257514Y745820D01*
X253870Y745820D02*
X261158Y745820D01*
X269208Y738533D02*
X265564Y734889D01*
X269208Y738533D02*
X269208Y742177D01*
X265564Y745820D01*
D227*
X142260Y667980D02*
X134802Y667980D01*
X142260Y667980D02*
X145988Y671709D01*
X142260Y675437D01*
X134802Y675437D01*
X134802Y679674D02*
X145988Y679674D01*
X145988Y685267D01*
X144124Y687131D01*
X136667Y687131D01*
X134802Y685267D01*
X134802Y679674D01*
X134802Y691368D02*
X145988Y691368D01*
X145988Y696961D01*
X144124Y698825D01*
X136667Y698825D01*
X134802Y696961D01*
X134802Y691368D01*
X111267Y675437D02*
X109402Y673573D01*
X109402Y669844D01*
X111267Y667980D01*
X118724Y667980D01*
X120588Y669844D01*
X120588Y673573D01*
X118724Y675437D01*
X114995Y675437D01*
X114995Y671709D01*
X120588Y679674D02*
X109402Y679674D01*
X120588Y687131D01*
X109402Y687131D01*
X109402Y691368D02*
X120588Y691368D01*
X120588Y696961D01*
X118724Y698825D01*
X111267Y698825D01*
X109402Y696961D01*
X109402Y691368D01*
X160202Y673573D02*
X162067Y675437D01*
X160202Y673573D02*
X160202Y669844D01*
X162067Y667980D01*
X163931Y667980D01*
X165795Y669844D01*
X165795Y673573D01*
X167660Y675437D01*
X169524Y675437D01*
X171388Y673573D01*
X171388Y669844D01*
X169524Y667980D01*
X160202Y685267D02*
X162067Y687131D01*
X160202Y685267D02*
X160202Y681538D01*
X162067Y679674D01*
X169524Y679674D01*
X171388Y681538D01*
X171388Y685267D01*
X169524Y687131D01*
X171388Y691368D02*
X160202Y691368D01*
X171388Y691368D02*
X171388Y698825D01*
X187467Y675437D02*
X185602Y673573D01*
X185602Y669844D01*
X187467Y667980D01*
X189331Y667980D01*
X191195Y669844D01*
X191195Y673573D01*
X193060Y675437D01*
X194924Y675437D01*
X196788Y673573D01*
X196788Y669844D01*
X194924Y667980D01*
X196788Y679674D02*
X185602Y679674D01*
X196788Y679674D02*
X196788Y685267D01*
X194924Y687131D01*
X187467Y687131D01*
X185602Y685267D01*
X185602Y679674D01*
X189331Y691368D02*
X196788Y691368D01*
X189331Y691368D02*
X185602Y695096D01*
X189331Y698825D01*
X196788Y698825D01*
X191195Y698825D02*
X191195Y691368D01*
D224*
X412000Y785000D02*
X448000Y785000D01*
X448000Y805000D01*
X412000Y805000D01*
X412000Y785000D01*
D229*
X392801Y798312D02*
X391615Y799498D01*
X389242Y799498D01*
X388056Y798312D01*
X388056Y793566D01*
X389242Y792380D01*
X391615Y792380D01*
X392801Y793566D01*
X395540Y797125D02*
X397912Y799498D01*
X397912Y792380D01*
X395540Y792380D02*
X400285Y792380D01*
X403024Y798312D02*
X404210Y799498D01*
X406583Y799498D01*
X407769Y798312D01*
X407769Y797125D01*
X406583Y795939D01*
X405397Y795939D01*
X406583Y795939D02*
X407769Y794753D01*
X407769Y793566D01*
X406583Y792380D01*
X404210Y792380D01*
X403024Y793566D01*
D11*
X315000Y805000D02*
X315000Y770000D01*
X340000Y820000D02*
X355000Y820000D01*
X380000Y805000D02*
X380000Y770000D01*
X355000Y755000D02*
X340000Y755000D01*
D224*
X412000Y785000D02*
X448000Y785000D01*
X412000Y785000D02*
X412000Y765000D01*
X448000Y765000D01*
X448000Y785000D01*
D229*
X388056Y779498D02*
X388056Y772380D01*
X388056Y779498D02*
X391615Y779498D01*
X392801Y778312D01*
X392801Y775939D01*
X391615Y774753D01*
X388056Y774753D01*
X390428Y774753D02*
X392801Y772380D01*
X395540Y777125D02*
X397912Y779498D01*
X397912Y772380D01*
X395540Y772380D02*
X400285Y772380D01*
X406583Y772380D02*
X406583Y779498D01*
X403024Y775939D01*
X407769Y775939D01*
D224*
X595000Y777000D02*
X595000Y813000D01*
X595000Y777000D02*
X615000Y777000D01*
X615000Y813000D01*
X595000Y813000D01*
D225*
X601628Y815635D02*
X609365Y815635D01*
X601628Y815635D02*
X601628Y819503D01*
X602918Y820793D01*
X605497Y820793D01*
X606786Y819503D01*
X606786Y815635D01*
X606786Y818214D02*
X609365Y820793D01*
X604207Y823922D02*
X601628Y826501D01*
X609365Y826501D01*
X609365Y823922D02*
X609365Y829080D01*
X601628Y832209D02*
X601628Y837367D01*
X601628Y832209D02*
X605497Y832209D01*
X604207Y834788D01*
X604207Y836077D01*
X605497Y837367D01*
X608076Y837367D01*
X609365Y836077D01*
X609365Y833499D01*
X608076Y832209D01*
D224*
X595000Y813000D02*
X595000Y777000D01*
X595000Y813000D02*
X575000Y813000D01*
X575000Y777000D01*
X595000Y777000D01*
D225*
X581628Y819503D02*
X582918Y820793D01*
X581628Y819503D02*
X581628Y816924D01*
X582918Y815635D01*
X588076Y815635D01*
X589365Y816924D01*
X589365Y819503D01*
X588076Y820793D01*
X584207Y823922D02*
X581628Y826501D01*
X589365Y826501D01*
X589365Y823922D02*
X589365Y829080D01*
X589365Y836077D02*
X581628Y836077D01*
X585497Y832209D01*
X585497Y837367D01*
D224*
X575000Y813000D02*
X575000Y777000D01*
X575000Y813000D02*
X555000Y813000D01*
X555000Y777000D01*
X575000Y777000D01*
D225*
X561628Y819503D02*
X562918Y820793D01*
X561628Y819503D02*
X561628Y816924D01*
X562918Y815635D01*
X568076Y815635D01*
X569365Y816924D01*
X569365Y819503D01*
X568076Y820793D01*
X564207Y823922D02*
X561628Y826501D01*
X569365Y826501D01*
X569365Y823922D02*
X569365Y829080D01*
X569365Y832209D02*
X569365Y837367D01*
X569365Y832209D02*
X564207Y837367D01*
X562918Y837367D01*
X561628Y836077D01*
X561628Y833499D01*
X562918Y832209D01*
D224*
X540000Y658000D02*
X540000Y622000D01*
X560000Y622000D01*
X560000Y658000D01*
X540000Y658000D01*
D225*
X546240Y600041D02*
X544951Y598751D01*
X544951Y596172D01*
X546240Y594883D01*
X551398Y594883D01*
X552687Y596172D01*
X552687Y598751D01*
X551398Y600041D01*
X547530Y603170D02*
X544951Y605749D01*
X552687Y605749D01*
X552687Y603170D02*
X552687Y608328D01*
X551398Y611457D02*
X546240Y611457D01*
X544951Y612746D01*
X544951Y615325D01*
X546240Y616615D01*
X551398Y616615D01*
X552687Y615325D01*
X552687Y612746D01*
X551398Y611457D01*
X546240Y616615D01*
D224*
X520000Y622000D02*
X520000Y658000D01*
X520000Y622000D02*
X540000Y622000D01*
X540000Y658000D01*
X520000Y658000D01*
D225*
X526240Y608328D02*
X524951Y607038D01*
X524951Y604459D01*
X526240Y603170D01*
X531398Y603170D01*
X532687Y604459D01*
X532687Y607038D01*
X531398Y608328D01*
X531398Y611457D02*
X532687Y612746D01*
X532687Y615325D01*
X531398Y616615D01*
X526240Y616615D01*
X524951Y615325D01*
X524951Y612746D01*
X526240Y611457D01*
X527530Y611457D01*
X528819Y612746D01*
X528819Y616615D01*
D224*
X448000Y745000D02*
X412000Y745000D01*
X448000Y745000D02*
X448000Y765000D01*
X412000Y765000D01*
X412000Y745000D01*
D229*
X388056Y752380D02*
X388056Y759498D01*
X391615Y759498D01*
X392801Y758312D01*
X392801Y755939D01*
X391615Y754753D01*
X388056Y754753D01*
X390428Y754753D02*
X392801Y752380D01*
X395540Y757125D02*
X397912Y759498D01*
X397912Y752380D01*
X395540Y752380D02*
X400285Y752380D01*
X403024Y758312D02*
X404210Y759498D01*
X406583Y759498D01*
X407769Y758312D01*
X407769Y757125D01*
X406583Y755939D01*
X405397Y755939D01*
X406583Y755939D02*
X407769Y754753D01*
X407769Y753566D01*
X406583Y752380D01*
X404210Y752380D01*
X403024Y753566D01*
D10*
X111939Y651615D02*
X109736Y649412D01*
X111939Y651615D02*
X116346Y651615D01*
X118549Y649412D01*
X118549Y647209D01*
X116346Y645006D01*
X114142Y645006D01*
X116346Y645006D02*
X118549Y642802D01*
X118549Y640599D01*
X116346Y638396D01*
X111939Y638396D01*
X109736Y640599D01*
X123769Y647209D02*
X128175Y638396D01*
X132582Y647209D01*
X137802Y649412D02*
X140005Y651615D01*
X144411Y651615D01*
X146614Y649412D01*
X146614Y647209D01*
X144411Y645006D01*
X142208Y645006D01*
X144411Y645006D02*
X146614Y642802D01*
X146614Y640599D01*
X144411Y638396D01*
X140005Y638396D01*
X137802Y640599D01*
X109736Y626215D02*
X109736Y612996D01*
X116346Y612996D01*
X118549Y615199D01*
X118549Y624012D01*
X116346Y626215D01*
X109736Y626215D01*
X128175Y626215D02*
X128175Y612996D01*
X123769Y626215D02*
X132582Y626215D01*
X137802Y626215D02*
X137802Y612996D01*
X137802Y626215D02*
X144411Y626215D01*
X146614Y624012D01*
X146614Y619606D01*
X144411Y617402D01*
X137802Y617402D01*
X142208Y617402D02*
X146614Y612996D01*
X84336Y600815D02*
X84336Y587596D01*
X88742Y596409D02*
X84336Y600815D01*
X88742Y596409D02*
X93149Y600815D01*
X93149Y587596D01*
X104978Y600815D02*
X107182Y598612D01*
X104978Y600815D02*
X100572Y600815D01*
X98369Y598612D01*
X98369Y589799D01*
X100572Y587596D01*
X104978Y587596D01*
X107182Y589799D01*
X112402Y589799D02*
X112402Y600815D01*
X112402Y589799D02*
X114605Y587596D01*
X119011Y587596D01*
X121214Y589799D01*
X121214Y600815D01*
X126434Y589799D02*
X126434Y587596D01*
X126434Y589799D02*
X128638Y589799D01*
X128638Y587596D01*
X126434Y587596D01*
X137857Y587596D02*
X137857Y600815D01*
X133451Y600815D02*
X142264Y600815D01*
X147484Y600815D02*
X156296Y587596D01*
X147484Y587596D02*
X156296Y600815D01*
X84336Y575415D02*
X84336Y562196D01*
X88742Y571009D02*
X84336Y575415D01*
X88742Y571009D02*
X93149Y575415D01*
X93149Y562196D01*
X104978Y575415D02*
X107182Y573212D01*
X104978Y575415D02*
X100572Y575415D01*
X98369Y573212D01*
X98369Y564399D01*
X100572Y562196D01*
X104978Y562196D01*
X107182Y564399D01*
X112402Y564399D02*
X112402Y575415D01*
X112402Y564399D02*
X114605Y562196D01*
X119011Y562196D01*
X121214Y564399D01*
X121214Y575415D01*
X126434Y564399D02*
X126434Y562196D01*
X126434Y564399D02*
X128638Y564399D01*
X128638Y562196D01*
X126434Y562196D01*
X133451Y562196D02*
X133451Y575415D01*
X140060Y575415D01*
X142264Y573212D01*
X142264Y568806D01*
X140060Y566602D01*
X133451Y566602D01*
X137857Y566602D02*
X142264Y562196D01*
X156296Y562196D02*
X147484Y575415D01*
X156296Y575415D02*
X147484Y562196D01*
X118549Y547812D02*
X116346Y550015D01*
X111939Y550015D01*
X109736Y547812D01*
X109736Y538999D01*
X111939Y536796D01*
X116346Y536796D01*
X118549Y538999D01*
X118549Y543406D01*
X114142Y543406D01*
X123769Y536796D02*
X123769Y550015D01*
X132582Y536796D01*
X132582Y550015D01*
X137802Y550015D02*
X137802Y536796D01*
X144411Y536796D01*
X146614Y538999D01*
X146614Y547812D01*
X144411Y550015D01*
X137802Y550015D01*
X118549Y524615D02*
X109736Y524615D01*
X109736Y518006D01*
X114142Y520209D01*
X116346Y520209D01*
X118549Y518006D01*
X118549Y513599D01*
X116346Y511396D01*
X111939Y511396D01*
X109736Y513599D01*
X123769Y520209D02*
X128175Y511396D01*
X132582Y520209D01*
X137802Y522412D02*
X137802Y513599D01*
X137802Y522412D02*
X140005Y524615D01*
X144411Y524615D01*
X146614Y522412D01*
X146614Y513599D01*
X144411Y511396D01*
X140005Y511396D01*
X137802Y513599D01*
X146614Y522412D01*
D11*
X190000Y662780D02*
X-500Y662780D01*
X-500Y500220D02*
X190000Y500220D01*
X-500Y500220D02*
X-500Y662780D01*
X190000Y662780D02*
X190000Y655160D01*
X190000Y507840D02*
X190000Y500220D01*
D224*
X81000Y770500D02*
X0Y770500D01*
X0Y865000D01*
X148500Y865000D01*
X148500Y847000D01*
X148500Y793000D02*
X148500Y770500D01*
X139500Y770500D01*
D12*
X166905Y753265D02*
X169111Y755471D01*
X169111Y757677D01*
X166905Y759882D01*
X155878Y759882D01*
X155878Y757677D02*
X155878Y762088D01*
X155878Y767077D02*
X155878Y775899D01*
X158083Y775899D01*
X166905Y767077D01*
X169111Y767077D01*
D224*
X248000Y862000D02*
X248000Y863000D01*
X248000Y881000D02*
X248000Y886000D01*
X248000Y904000D02*
X248000Y909000D01*
X248000Y927000D02*
X248000Y928000D01*
X248000Y862000D02*
X204000Y862000D01*
X204000Y874000D01*
X204000Y916000D02*
X204000Y928000D01*
X248000Y928000D01*
D229*
X233540Y858498D02*
X233540Y852566D01*
X234726Y851380D01*
X237099Y851380D01*
X238285Y852566D01*
X238285Y858498D01*
X241024Y857312D02*
X242210Y858498D01*
X244583Y858498D01*
X245769Y857312D01*
X245769Y856125D01*
X244583Y854939D01*
X245769Y853753D01*
X245769Y852566D01*
X244583Y851380D01*
X242210Y851380D01*
X241024Y852566D01*
X241024Y853753D01*
X242210Y854939D01*
X241024Y856125D01*
X241024Y857312D01*
X242210Y854939D02*
X244583Y854939D01*
D224*
X277000Y905000D02*
X313000Y905000D01*
X313000Y925000D01*
X277000Y925000D01*
X277000Y905000D01*
D225*
X282793Y934082D02*
X281503Y935372D01*
X278924Y935372D01*
X277635Y934082D01*
X277635Y928924D01*
X278924Y927635D01*
X281503Y927635D01*
X282793Y928924D01*
X285922Y927635D02*
X291080Y927635D01*
X285922Y927635D02*
X291080Y932793D01*
X291080Y934082D01*
X289790Y935372D01*
X287211Y935372D01*
X285922Y934082D01*
X294209Y934082D02*
X294209Y928924D01*
X294209Y934082D02*
X295499Y935372D01*
X298077Y935372D01*
X299367Y934082D01*
X299367Y928924D01*
X298077Y927635D01*
X295499Y927635D01*
X294209Y928924D01*
X299367Y934082D01*
D224*
X313000Y885000D02*
X277000Y885000D01*
X313000Y885000D02*
X313000Y905000D01*
X277000Y905000D01*
X277000Y885000D01*
D225*
X281503Y880372D02*
X282793Y879082D01*
X281503Y880372D02*
X278924Y880372D01*
X277635Y879082D01*
X277635Y873924D01*
X278924Y872635D01*
X281503Y872635D01*
X282793Y873924D01*
X285922Y872635D02*
X291080Y872635D01*
X285922Y872635D02*
X291080Y877793D01*
X291080Y879082D01*
X289790Y880372D01*
X287211Y880372D01*
X285922Y879082D01*
X294209Y872635D02*
X299367Y872635D01*
X294209Y872635D02*
X299367Y877793D01*
X299367Y879082D01*
X298077Y880372D01*
X295499Y880372D01*
X294209Y879082D01*
D224*
X303000Y795000D02*
X267000Y795000D01*
X303000Y795000D02*
X303000Y815000D01*
X267000Y815000D01*
X267000Y795000D01*
D225*
X271503Y790372D02*
X272793Y789082D01*
X271503Y790372D02*
X268924Y790372D01*
X267635Y789082D01*
X267635Y783924D01*
X268924Y782635D01*
X271503Y782635D01*
X272793Y783924D01*
X275922Y782635D02*
X281080Y782635D01*
X275922Y782635D02*
X281080Y787793D01*
X281080Y789082D01*
X279790Y790372D01*
X277211Y790372D01*
X275922Y789082D01*
X284209Y789082D02*
X285499Y790372D01*
X288077Y790372D01*
X289367Y789082D01*
X289367Y787793D01*
X288077Y786503D01*
X286788Y786503D01*
X288077Y786503D02*
X289367Y785214D01*
X289367Y783924D01*
X288077Y782635D01*
X285499Y782635D01*
X284209Y783924D01*
D224*
X267000Y815000D02*
X303000Y815000D01*
X303000Y835000D01*
X267000Y835000D01*
X267000Y815000D01*
D225*
X272793Y844082D02*
X271503Y845372D01*
X268924Y845372D01*
X267635Y844082D01*
X267635Y838924D01*
X268924Y837635D01*
X271503Y837635D01*
X272793Y838924D01*
X275922Y837635D02*
X281080Y837635D01*
X275922Y837635D02*
X281080Y842793D01*
X281080Y844082D01*
X279790Y845372D01*
X277211Y845372D01*
X275922Y844082D01*
X284209Y842793D02*
X286788Y845372D01*
X286788Y837635D01*
X284209Y837635D02*
X289367Y837635D01*
D224*
X677400Y604600D02*
X713400Y604600D01*
X713400Y624600D01*
X677400Y624600D01*
X677400Y604600D01*
D225*
X678035Y627235D02*
X678035Y634972D01*
X681903Y634972D01*
X683193Y633682D01*
X683193Y631103D01*
X681903Y629814D01*
X678035Y629814D01*
X680614Y629814D02*
X683193Y627235D01*
X686322Y632393D02*
X688901Y634972D01*
X688901Y627235D01*
X686322Y627235D02*
X691480Y627235D01*
X694609Y627235D02*
X699767Y627235D01*
X694609Y627235D02*
X699767Y632393D01*
X699767Y633682D01*
X698477Y634972D01*
X695899Y634972D01*
X694609Y633682D01*
D232*
X693900Y588600D03*
X693900Y600600D03*
D233*
X693900Y594600D03*
D224*
X679400Y584600D02*
X679400Y604600D01*
X712400Y604600D01*
X712400Y584600D01*
X679400Y584600D01*
D229*
X680971Y582098D02*
X680971Y574980D01*
X685717Y574980D01*
X688456Y582098D02*
X693201Y582098D01*
X688456Y582098D02*
X688456Y574980D01*
X693201Y574980D01*
X690828Y578539D02*
X688456Y578539D01*
X695940Y582098D02*
X695940Y574980D01*
X699499Y574980D01*
X700685Y576166D01*
X700685Y580912D01*
X699499Y582098D01*
X695940Y582098D01*
X703424Y574980D02*
X708169Y574980D01*
X703424Y574980D02*
X708169Y579725D01*
X708169Y580912D01*
X706983Y582098D01*
X704610Y582098D01*
X703424Y580912D01*
D224*
X278000Y395000D02*
X242000Y395000D01*
X242000Y375000D01*
X278000Y375000D01*
X278000Y395000D01*
D225*
X280635Y388372D02*
X280635Y380635D01*
X280635Y388372D02*
X284503Y388372D01*
X285793Y387082D01*
X285793Y384503D01*
X284503Y383214D01*
X280635Y383214D01*
X283214Y383214D02*
X285793Y380635D01*
X288922Y385793D02*
X291501Y388372D01*
X291501Y380635D01*
X288922Y380635D02*
X294080Y380635D01*
X299788Y387082D02*
X302367Y388372D01*
X299788Y387082D02*
X297209Y384503D01*
X297209Y381924D01*
X298499Y380635D01*
X301077Y380635D01*
X302367Y381924D01*
X302367Y383214D01*
X301077Y384503D01*
X297209Y384503D01*
D232*
X261500Y366000D03*
X261500Y354000D03*
D233*
X261500Y360000D03*
D224*
X276000Y370000D02*
X276000Y350000D01*
X243000Y350000D01*
X243000Y370000D01*
X276000Y370000D01*
D229*
X280508Y362626D02*
X280508Y355508D01*
X285253Y355508D01*
X287992Y362626D02*
X292738Y362626D01*
X287992Y362626D02*
X287992Y355508D01*
X292738Y355508D01*
X290365Y359067D02*
X287992Y359067D01*
X295476Y362626D02*
X295476Y355508D01*
X299035Y355508D01*
X300222Y356694D01*
X300222Y361440D01*
X299035Y362626D01*
X295476Y362626D01*
X302960Y361440D02*
X304147Y362626D01*
X306520Y362626D01*
X307706Y361440D01*
X307706Y360253D01*
X306520Y359067D01*
X305333Y359067D01*
X306520Y359067D02*
X307706Y357881D01*
X307706Y356694D01*
X306520Y355508D01*
X304147Y355508D01*
X302960Y356694D01*
D224*
X412000Y725000D02*
X448000Y725000D01*
X448000Y745000D01*
X412000Y745000D01*
X412000Y725000D01*
D225*
X390932Y738082D02*
X389642Y739372D01*
X387063Y739372D01*
X385774Y738082D01*
X385774Y732924D01*
X387063Y731635D01*
X389642Y731635D01*
X390932Y732924D01*
X394061Y736793D02*
X396640Y739372D01*
X396640Y731635D01*
X394061Y731635D02*
X399219Y731635D01*
X402348Y739372D02*
X407506Y739372D01*
X402348Y739372D02*
X402348Y735503D01*
X404927Y736793D01*
X406216Y736793D01*
X407506Y735503D01*
X407506Y732924D01*
X406216Y731635D01*
X403637Y731635D01*
X402348Y732924D01*
D11*
X315000Y670000D02*
X315000Y635000D01*
X340000Y685000D02*
X355000Y685000D01*
X380000Y670000D02*
X380000Y635000D01*
X355000Y620000D02*
X340000Y620000D01*
D224*
X412000Y640000D02*
X448000Y640000D01*
X412000Y640000D02*
X412000Y620000D01*
X448000Y620000D01*
X448000Y640000D01*
D225*
X385774Y634372D02*
X385774Y626635D01*
X385774Y634372D02*
X389642Y634372D01*
X390932Y633082D01*
X390932Y630503D01*
X389642Y629214D01*
X385774Y629214D01*
X388353Y629214D02*
X390932Y626635D01*
X394061Y631793D02*
X396640Y634372D01*
X396640Y626635D01*
X394061Y626635D02*
X399219Y626635D01*
X402348Y631793D02*
X404927Y634372D01*
X404927Y626635D01*
X402348Y626635D02*
X407506Y626635D01*
D224*
X412000Y660000D02*
X448000Y660000D01*
X448000Y680000D01*
X412000Y680000D01*
X412000Y660000D01*
D229*
X392801Y673312D02*
X391615Y674498D01*
X389242Y674498D01*
X388056Y673312D01*
X388056Y668566D01*
X389242Y667380D01*
X391615Y667380D01*
X392801Y668566D01*
X395540Y672125D02*
X397912Y674498D01*
X397912Y667380D01*
X395540Y667380D02*
X400285Y667380D01*
X403024Y672125D02*
X405397Y674498D01*
X405397Y667380D01*
X407769Y667380D02*
X403024Y667380D01*
D231*
X135500Y967500D02*
X125000Y960000D01*
X135500Y953000D02*
X135500Y967500D01*
X125000Y960000D02*
X135500Y953000D01*
D224*
X160000Y972000D02*
X97000Y972000D01*
X97000Y948000D01*
X160000Y948000D01*
D231*
X124500Y953000D02*
X124500Y967500D01*
D227*
X72374Y964248D02*
X72374Y953062D01*
X77967Y953062D01*
X79831Y954926D01*
X79831Y962383D01*
X77967Y964248D01*
X72374Y964248D01*
X89661Y964248D02*
X89661Y953062D01*
X84068Y958655D02*
X89661Y964248D01*
X91525Y958655D02*
X84068Y958655D01*
D231*
X124500Y917500D02*
X135000Y925000D01*
X124500Y932000D02*
X124500Y917500D01*
X135000Y925000D02*
X124500Y932000D01*
D224*
X100000Y913000D02*
X163000Y913000D01*
X163000Y937000D01*
X100000Y937000D01*
D231*
X135500Y932000D02*
X135500Y917500D01*
D227*
X72374Y918062D02*
X72374Y929248D01*
X72374Y918062D02*
X77967Y918062D01*
X79831Y919926D01*
X79831Y927383D01*
X77967Y929248D01*
X72374Y929248D01*
X84068Y925519D02*
X87797Y929248D01*
X87797Y918062D01*
X91525Y918062D02*
X84068Y918062D01*
D231*
X175500Y442500D02*
X165000Y435000D01*
X175500Y428000D02*
X175500Y442500D01*
X165000Y435000D02*
X175500Y428000D01*
D224*
X200000Y447000D02*
X137000Y447000D01*
X137000Y423000D01*
X200000Y423000D01*
D231*
X164500Y428000D02*
X164500Y442500D01*
D227*
X205762Y441948D02*
X205762Y430762D01*
X211355Y430762D01*
X213219Y432626D01*
X213219Y440083D01*
X211355Y441948D01*
X205762Y441948D01*
X217456Y430762D02*
X224913Y430762D01*
X217456Y430762D02*
X224913Y438219D01*
X224913Y440083D01*
X223049Y441948D01*
X219320Y441948D01*
X217456Y440083D01*
D231*
X175500Y367500D02*
X165000Y360000D01*
X175500Y353000D02*
X175500Y367500D01*
X165000Y360000D02*
X175500Y353000D01*
D224*
X200000Y372000D02*
X137000Y372000D01*
X137000Y348000D01*
X200000Y348000D01*
D231*
X164500Y353000D02*
X164500Y367500D01*
D227*
X205762Y366948D02*
X205762Y355762D01*
X211355Y355762D01*
X213219Y357626D01*
X213219Y365083D01*
X211355Y366948D01*
X205762Y366948D01*
X217456Y365083D02*
X219320Y366948D01*
X223049Y366948D01*
X224913Y365083D01*
X224913Y363219D01*
X223049Y361355D01*
X221184Y361355D01*
X223049Y361355D02*
X224913Y359491D01*
X224913Y357626D01*
X223049Y355762D01*
X219320Y355762D01*
X217456Y357626D01*
D224*
X238000Y772000D02*
X238000Y773000D01*
X238000Y791000D02*
X238000Y796000D01*
X238000Y814000D02*
X238000Y819000D01*
X238000Y837000D02*
X238000Y838000D01*
X238000Y772000D02*
X194000Y772000D01*
X194000Y784000D01*
X194000Y826000D02*
X194000Y838000D01*
X238000Y838000D01*
D229*
X223540Y768498D02*
X223540Y762566D01*
X224726Y761380D01*
X227099Y761380D01*
X228285Y762566D01*
X228285Y768498D01*
X231024Y762566D02*
X232210Y761380D01*
X234583Y761380D01*
X235769Y762566D01*
X235769Y767312D01*
X234583Y768498D01*
X232210Y768498D01*
X231024Y767312D01*
X231024Y766125D01*
X232210Y764939D01*
X235769Y764939D01*
D231*
X135500Y897500D02*
X125000Y890000D01*
X135500Y883000D02*
X135500Y897500D01*
X125000Y890000D02*
X135500Y883000D01*
D224*
X160000Y902000D02*
X97000Y902000D01*
X97000Y878000D01*
X160000Y878000D01*
D231*
X124500Y883000D02*
X124500Y897500D01*
D227*
X72374Y894248D02*
X72374Y883062D01*
X77967Y883062D01*
X79831Y884926D01*
X79831Y892383D01*
X77967Y894248D01*
X72374Y894248D01*
X84068Y894248D02*
X91525Y894248D01*
X91525Y892383D01*
X84068Y884926D01*
X84068Y883062D01*
D10*
X349657Y868173D02*
X351436Y869952D01*
X349657Y868173D02*
X349657Y864614D01*
X351436Y862834D01*
X358555Y862834D01*
X360334Y864614D01*
X360334Y868173D01*
X358555Y869952D01*
X354995Y869952D01*
X354995Y866393D01*
X349657Y874528D02*
X360334Y874528D01*
X360334Y881646D02*
X349657Y874528D01*
X349657Y881646D02*
X360334Y881646D01*
X360334Y886222D02*
X349657Y886222D01*
X360334Y886222D02*
X360334Y891561D01*
X358555Y893340D01*
X351436Y893340D01*
X349657Y891561D01*
X349657Y886222D01*
X375057Y862834D02*
X382175Y862834D01*
X385734Y866393D01*
X382175Y869952D01*
X375057Y869952D01*
X375057Y874528D02*
X385734Y874528D01*
X385734Y879867D01*
X383955Y881646D01*
X376836Y881646D01*
X375057Y879867D01*
X375057Y874528D01*
X375057Y886222D02*
X385734Y886222D01*
X385734Y891561D01*
X383955Y893340D01*
X376836Y893340D01*
X375057Y891561D01*
X375057Y886222D01*
D11*
X347380Y955240D02*
X540420Y955240D01*
D10*
X411134Y827752D02*
X400457Y827752D01*
X400457Y833091D01*
X402236Y834870D01*
X405795Y834870D01*
X407575Y833091D01*
X407575Y827752D01*
X400457Y844785D02*
X402236Y846564D01*
X400457Y844785D02*
X400457Y841226D01*
X402236Y839446D01*
X409355Y839446D01*
X411134Y841226D01*
X411134Y844785D01*
X409355Y846564D01*
X402236Y851140D02*
X400457Y852919D01*
X400457Y856479D01*
X402236Y858258D01*
X404016Y858258D01*
X405795Y856479D01*
X405795Y854699D01*
X405795Y856479D02*
X407575Y858258D01*
X409355Y858258D01*
X411134Y856479D01*
X411134Y852919D01*
X409355Y851140D01*
X411134Y862834D02*
X400457Y869952D01*
X404016Y874528D02*
X411134Y874528D01*
X404016Y874528D02*
X400457Y878087D01*
X404016Y881646D01*
X411134Y881646D01*
X405795Y881646D02*
X405795Y874528D01*
X402236Y886222D02*
X400457Y888001D01*
X400457Y891560D01*
X402236Y893340D01*
X404016Y893340D01*
X405795Y891560D01*
X405795Y889781D01*
X405795Y891560D02*
X407575Y893340D01*
X409355Y893340D01*
X411134Y891560D01*
X411134Y888001D01*
X409355Y886222D01*
X425857Y827752D02*
X436534Y827752D01*
X425857Y827752D02*
X425857Y833091D01*
X427636Y834870D01*
X431195Y834870D01*
X432975Y833091D01*
X432975Y827752D01*
X425857Y844785D02*
X427636Y846564D01*
X425857Y844785D02*
X425857Y841226D01*
X427636Y839446D01*
X434755Y839446D01*
X436534Y841226D01*
X436534Y844785D01*
X434755Y846564D01*
X436534Y851140D02*
X436534Y858258D01*
X436534Y851140D02*
X429416Y858258D01*
X427636Y858258D01*
X425857Y856479D01*
X425857Y852919D01*
X427636Y851140D01*
X436534Y862834D02*
X425857Y869952D01*
X429416Y874528D02*
X436534Y874528D01*
X429416Y874528D02*
X425857Y878087D01*
X429416Y881646D01*
X436534Y881646D01*
X431195Y881646D02*
X431195Y874528D01*
X436534Y886222D02*
X436534Y893340D01*
X436534Y886222D02*
X429416Y893340D01*
X427636Y893340D01*
X425857Y891560D01*
X425857Y888001D01*
X427636Y886222D01*
X451257Y827752D02*
X461934Y827752D01*
X451257Y827752D02*
X451257Y833091D01*
X453036Y834870D01*
X456595Y834870D01*
X458375Y833091D01*
X458375Y827752D01*
X451257Y844785D02*
X453036Y846564D01*
X451257Y844785D02*
X451257Y841226D01*
X453036Y839446D01*
X460155Y839446D01*
X461934Y841226D01*
X461934Y844785D01*
X460155Y846564D01*
X454816Y851140D02*
X451257Y854699D01*
X461934Y854699D01*
X461934Y851140D02*
X461934Y858258D01*
X461934Y862834D02*
X451257Y869952D01*
X454816Y874528D02*
X461934Y874528D01*
X454816Y874528D02*
X451257Y878087D01*
X454816Y881646D01*
X461934Y881646D01*
X456595Y881646D02*
X456595Y874528D01*
X454816Y886222D02*
X451257Y889781D01*
X461934Y889781D01*
X461934Y886222D02*
X461934Y893340D01*
X476657Y827752D02*
X487334Y827752D01*
X476657Y827752D02*
X476657Y833091D01*
X478436Y834870D01*
X481995Y834870D01*
X483775Y833091D01*
X483775Y827752D01*
X476657Y844785D02*
X478436Y846564D01*
X476657Y844785D02*
X476657Y841226D01*
X478436Y839446D01*
X485555Y839446D01*
X487334Y841226D01*
X487334Y844785D01*
X485555Y846564D01*
X485555Y851140D02*
X478436Y851140D01*
X476657Y852919D01*
X476657Y856479D01*
X478436Y858258D01*
X485555Y858258D01*
X487334Y856479D01*
X487334Y852919D01*
X485555Y851140D01*
X478436Y858258D01*
X487334Y862834D02*
X476657Y869952D01*
X480216Y874528D02*
X487334Y874528D01*
X480216Y874528D02*
X476657Y878087D01*
X480216Y881646D01*
X487334Y881646D01*
X481995Y881646D02*
X481995Y874528D01*
X485555Y886222D02*
X478436Y886222D01*
X476657Y888001D01*
X476657Y891560D01*
X478436Y893340D01*
X485555Y893340D01*
X487334Y891560D01*
X487334Y888001D01*
X485555Y886222D01*
X478436Y893340D01*
X505616Y816058D02*
X512734Y816058D01*
X505616Y816058D02*
X502057Y819617D01*
X505616Y823176D01*
X512734Y823176D01*
X507395Y823176D02*
X507395Y816058D01*
X502057Y827752D02*
X512734Y827752D01*
X512734Y833091D01*
X510955Y834870D01*
X503836Y834870D01*
X502057Y833091D01*
X502057Y827752D01*
X502057Y844785D02*
X503836Y846564D01*
X502057Y844785D02*
X502057Y841226D01*
X503836Y839446D01*
X510955Y839446D01*
X512734Y841226D01*
X512734Y844785D01*
X510955Y846564D01*
X502057Y851140D02*
X502057Y858258D01*
X503836Y858258D01*
X510955Y851140D01*
X512734Y851140D01*
X512734Y862834D02*
X502057Y869952D01*
X505616Y874528D02*
X512734Y874528D01*
X505616Y874528D02*
X502057Y878087D01*
X505616Y881646D01*
X512734Y881646D01*
X507395Y881646D02*
X507395Y874528D01*
X502057Y886222D02*
X502057Y893340D01*
X503836Y893340D01*
X510955Y886222D01*
X512734Y886222D01*
X531016Y816058D02*
X538134Y816058D01*
X531016Y816058D02*
X527457Y819617D01*
X531016Y823176D01*
X538134Y823176D01*
X532795Y823176D02*
X532795Y816058D01*
X527457Y827752D02*
X538134Y827752D01*
X538134Y833091D01*
X536355Y834870D01*
X529236Y834870D01*
X527457Y833091D01*
X527457Y827752D01*
X527457Y844785D02*
X529236Y846564D01*
X527457Y844785D02*
X527457Y841226D01*
X529236Y839446D01*
X536355Y839446D01*
X538134Y841226D01*
X538134Y844785D01*
X536355Y846564D01*
X529236Y854699D02*
X527457Y858258D01*
X529236Y854699D02*
X532795Y851140D01*
X536355Y851140D01*
X538134Y852919D01*
X538134Y856479D01*
X536355Y858258D01*
X534575Y858258D01*
X532795Y856479D01*
X532795Y851140D01*
X538134Y862834D02*
X527457Y869952D01*
X531016Y874528D02*
X538134Y874528D01*
X531016Y874528D02*
X527457Y878087D01*
X531016Y881646D01*
X538134Y881646D01*
X532795Y881646D02*
X532795Y874528D01*
X529236Y889781D02*
X527457Y893340D01*
X529236Y889781D02*
X532795Y886222D01*
X536355Y886222D01*
X538134Y888001D01*
X538134Y891560D01*
X536355Y893340D01*
X534575Y893340D01*
X532795Y891560D01*
X532795Y886222D01*
D226*
X645400Y684600D03*
D224*
X725400Y694600D02*
X725400Y759600D01*
X645400Y759600D01*
X645400Y694600D01*
X725400Y694600D01*
D12*
X639511Y697695D02*
X637305Y695489D01*
X639511Y697695D02*
X639511Y699900D01*
X637305Y702106D01*
X626278Y702106D01*
X626278Y704311D02*
X626278Y699900D01*
X628483Y709301D02*
X626278Y711506D01*
X626278Y715917D01*
X628483Y718123D01*
X630689Y718123D01*
X632894Y715917D01*
X632894Y713712D01*
X632894Y715917D02*
X635100Y718123D01*
X637305Y718123D01*
X639511Y715917D01*
X639511Y711506D01*
X637305Y709301D01*
D227*
X654802Y647484D02*
X665988Y647484D01*
X658531Y651213D02*
X654802Y647484D01*
X658531Y651213D02*
X654802Y654941D01*
X665988Y654941D01*
X665988Y659178D02*
X665988Y662907D01*
X665988Y661042D02*
X654802Y661042D01*
X654802Y659178D02*
X654802Y662907D01*
X654802Y672567D02*
X656667Y674431D01*
X654802Y672567D02*
X654802Y668838D01*
X656667Y666974D01*
X658531Y666974D01*
X660395Y668838D01*
X660395Y672567D01*
X662260Y674431D01*
X664124Y674431D01*
X665988Y672567D01*
X665988Y668838D01*
X664124Y666974D01*
X654802Y680532D02*
X654802Y684261D01*
X654802Y680532D02*
X656667Y678668D01*
X664124Y678668D01*
X665988Y680532D01*
X665988Y684261D01*
X664124Y686125D01*
X656667Y686125D01*
X654802Y684261D01*
X654802Y765362D02*
X662260Y765362D01*
X665988Y769091D01*
X662260Y772819D01*
X654802Y772819D01*
X654802Y777056D02*
X665988Y777056D01*
X665988Y782649D01*
X664124Y784513D01*
X656667Y784513D01*
X654802Y782649D01*
X654802Y777056D01*
X654802Y788750D02*
X665988Y788750D01*
X665988Y794343D01*
X664124Y796207D01*
X656667Y796207D01*
X654802Y794343D01*
X654802Y788750D01*
X681667Y662737D02*
X679802Y660873D01*
X679802Y657144D01*
X681667Y655280D01*
X683531Y655280D01*
X685395Y657144D01*
X685395Y660873D01*
X687260Y662737D01*
X689124Y662737D01*
X690988Y660873D01*
X690988Y657144D01*
X689124Y655280D01*
X679802Y672567D02*
X681667Y674431D01*
X679802Y672567D02*
X679802Y668838D01*
X681667Y666974D01*
X689124Y666974D01*
X690988Y668838D01*
X690988Y672567D01*
X689124Y674431D01*
X690988Y678668D02*
X679802Y678668D01*
X679802Y686125D02*
X687260Y678668D01*
X685395Y680532D02*
X690988Y686125D01*
X690988Y765362D02*
X679802Y765362D01*
X683531Y769091D01*
X679802Y772819D01*
X690988Y772819D01*
X679802Y778920D02*
X679802Y782649D01*
X679802Y778920D02*
X681667Y777056D01*
X689124Y777056D01*
X690988Y778920D01*
X690988Y782649D01*
X689124Y784513D01*
X681667Y784513D01*
X679802Y782649D01*
X679802Y794343D02*
X681667Y796207D01*
X679802Y794343D02*
X679802Y790614D01*
X681667Y788750D01*
X683531Y788750D01*
X685395Y790614D01*
X685395Y794343D01*
X687260Y796207D01*
X689124Y796207D01*
X690988Y794343D01*
X690988Y790614D01*
X689124Y788750D01*
X690988Y800444D02*
X690988Y804172D01*
X690988Y802308D02*
X679802Y802308D01*
X679802Y800444D02*
X679802Y804172D01*
X704802Y631892D02*
X715988Y631892D01*
X704802Y631892D02*
X704802Y637485D01*
X706667Y639349D01*
X710395Y639349D01*
X712260Y637485D01*
X712260Y631892D01*
X712260Y635621D02*
X715988Y639349D01*
X704802Y643586D02*
X704802Y651043D01*
X704802Y643586D02*
X715988Y643586D01*
X715988Y651043D01*
X710395Y647315D02*
X710395Y643586D01*
X704802Y660873D02*
X706667Y662737D01*
X704802Y660873D02*
X704802Y657144D01*
X706667Y655280D01*
X708531Y655280D01*
X710395Y657144D01*
X710395Y660873D01*
X712260Y662737D01*
X714124Y662737D01*
X715988Y660873D01*
X715988Y657144D01*
X714124Y655280D01*
X704802Y666974D02*
X704802Y674431D01*
X704802Y666974D02*
X715988Y666974D01*
X715988Y674431D01*
X710395Y670702D02*
X710395Y666974D01*
X715988Y682396D02*
X704802Y682396D01*
X704802Y678668D02*
X704802Y686125D01*
X704802Y770955D02*
X706667Y772819D01*
X704802Y770955D02*
X704802Y767226D01*
X706667Y765362D01*
X714124Y765362D01*
X715988Y767226D01*
X715988Y770955D01*
X714124Y772819D01*
X710395Y772819D01*
X710395Y769091D01*
X715988Y777056D02*
X704802Y777056D01*
X715988Y784513D01*
X704802Y784513D01*
X704802Y788750D02*
X715988Y788750D01*
X715988Y794343D01*
X714124Y796207D01*
X706667Y796207D01*
X704802Y794343D01*
X704802Y788750D01*
D224*
X278000Y445000D02*
X242000Y445000D01*
X242000Y425000D01*
X278000Y425000D01*
X278000Y445000D01*
D225*
X284503Y438372D02*
X285793Y437082D01*
X284503Y438372D02*
X281924Y438372D01*
X280635Y437082D01*
X280635Y431924D01*
X281924Y430635D01*
X284503Y430635D01*
X285793Y431924D01*
X288922Y435793D02*
X291501Y438372D01*
X291501Y430635D01*
X288922Y430635D02*
X294080Y430635D01*
X299788Y437082D02*
X302367Y438372D01*
X299788Y437082D02*
X297209Y434503D01*
X297209Y431924D01*
X298499Y430635D01*
X301077Y430635D01*
X302367Y431924D01*
X302367Y433214D01*
X301077Y434503D01*
X297209Y434503D01*
D224*
X278000Y420000D02*
X242000Y420000D01*
X242000Y400000D01*
X278000Y400000D01*
X278000Y420000D01*
D225*
X284503Y413372D02*
X285793Y412082D01*
X284503Y413372D02*
X281924Y413372D01*
X280635Y412082D01*
X280635Y406924D01*
X281924Y405635D01*
X284503Y405635D01*
X285793Y406924D01*
X288922Y410793D02*
X291501Y413372D01*
X291501Y405635D01*
X288922Y405635D02*
X294080Y405635D01*
X297209Y413372D02*
X302367Y413372D01*
X302367Y412082D01*
X297209Y406924D01*
X297209Y405635D01*
D224*
X283000Y190000D02*
X247000Y190000D01*
X247000Y170000D01*
X283000Y170000D01*
X283000Y190000D01*
D225*
X290635Y183372D02*
X290635Y175635D01*
X290635Y183372D02*
X294503Y183372D01*
X295793Y182082D01*
X295793Y179503D01*
X294503Y178214D01*
X290635Y178214D01*
X293214Y178214D02*
X295793Y175635D01*
X302790Y175635D02*
X302790Y183372D01*
X298922Y179503D01*
X304080Y179503D01*
D224*
X412000Y660000D02*
X448000Y660000D01*
X412000Y660000D02*
X412000Y640000D01*
X448000Y640000D01*
X448000Y660000D01*
D225*
X385774Y654372D02*
X385774Y646635D01*
X385774Y654372D02*
X389642Y654372D01*
X390932Y653082D01*
X390932Y650503D01*
X389642Y649214D01*
X385774Y649214D01*
X388353Y649214D02*
X390932Y646635D01*
X394061Y651793D02*
X396640Y654372D01*
X396640Y646635D01*
X394061Y646635D02*
X399219Y646635D01*
X402348Y647924D02*
X402348Y653082D01*
X403637Y654372D01*
X406216Y654372D01*
X407506Y653082D01*
X407506Y647924D01*
X406216Y646635D01*
X403637Y646635D01*
X402348Y647924D01*
X407506Y653082D01*
D224*
X200000Y932000D02*
X200000Y968000D01*
X180000Y968000D01*
X180000Y932000D01*
X200000Y932000D01*
D225*
X170918Y937793D02*
X169628Y936503D01*
X169628Y933924D01*
X170918Y932635D01*
X176076Y932635D01*
X177365Y933924D01*
X177365Y936503D01*
X176076Y937793D01*
X172207Y940922D02*
X169628Y943501D01*
X177365Y943501D01*
X177365Y940922D02*
X177365Y946080D01*
X170918Y949209D02*
X169628Y950499D01*
X169628Y953077D01*
X170918Y954367D01*
X172207Y954367D01*
X173497Y953077D01*
X174786Y954367D01*
X176076Y954367D01*
X177365Y953077D01*
X177365Y950499D01*
X176076Y949209D01*
X174786Y949209D01*
X173497Y950499D01*
X172207Y949209D01*
X170918Y949209D01*
X173497Y950499D02*
X173497Y953077D01*
D224*
X235000Y968000D02*
X235000Y932000D01*
X235000Y968000D02*
X215000Y968000D01*
X215000Y932000D01*
X235000Y932000D01*
D225*
X205918Y937793D02*
X204628Y936503D01*
X204628Y933924D01*
X205918Y932635D01*
X211076Y932635D01*
X212365Y933924D01*
X212365Y936503D01*
X211076Y937793D01*
X207207Y940922D02*
X204628Y943501D01*
X212365Y943501D01*
X212365Y940922D02*
X212365Y946080D01*
X211076Y949209D02*
X212365Y950499D01*
X212365Y953077D01*
X211076Y954367D01*
X205918Y954367D01*
X204628Y953077D01*
X204628Y950499D01*
X205918Y949209D01*
X207207Y949209D01*
X208497Y950499D01*
X208497Y954367D01*
D231*
X175500Y417500D02*
X165000Y410000D01*
X175500Y403000D02*
X175500Y417500D01*
X165000Y410000D02*
X175500Y403000D01*
D224*
X200000Y422000D02*
X137000Y422000D01*
X137000Y398000D01*
X200000Y398000D01*
D231*
X164500Y403000D02*
X164500Y417500D01*
D227*
X205762Y416948D02*
X205762Y405762D01*
X211355Y405762D01*
X213219Y407626D01*
X213219Y415083D01*
X211355Y416948D01*
X205762Y416948D01*
X217456Y416948D02*
X224913Y416948D01*
X217456Y416948D02*
X217456Y411355D01*
X221184Y413219D01*
X223049Y413219D01*
X224913Y411355D01*
X224913Y407626D01*
X223049Y405762D01*
X219320Y405762D01*
X217456Y407626D01*
D10*
X578257Y868173D02*
X580036Y869952D01*
X578257Y868173D02*
X578257Y864614D01*
X580036Y862834D01*
X587155Y862834D01*
X588934Y864614D01*
X588934Y868173D01*
X587155Y869952D01*
X583595Y869952D01*
X583595Y866393D01*
X578257Y874528D02*
X588934Y874528D01*
X588934Y881646D02*
X578257Y874528D01*
X578257Y881646D02*
X588934Y881646D01*
X588934Y886222D02*
X578257Y886222D01*
X588934Y886222D02*
X588934Y891561D01*
X587155Y893340D01*
X580036Y893340D01*
X578257Y891561D01*
X578257Y886222D01*
X603657Y862834D02*
X610775Y862834D01*
X614334Y866393D01*
X610775Y869952D01*
X603657Y869952D01*
X603657Y874528D02*
X614334Y874528D01*
X614334Y879867D01*
X612555Y881646D01*
X605436Y881646D01*
X603657Y879867D01*
X603657Y874528D01*
X603657Y886222D02*
X614334Y886222D01*
X614334Y891561D01*
X612555Y893340D01*
X605436Y893340D01*
X603657Y891561D01*
X603657Y886222D01*
D11*
X575980Y955240D02*
X769020Y955240D01*
D10*
X639734Y827752D02*
X629057Y827752D01*
X629057Y833091D01*
X630836Y834870D01*
X634395Y834870D01*
X636175Y833091D01*
X636175Y827752D01*
X639734Y839446D02*
X629057Y839446D01*
X639734Y839446D02*
X639734Y844785D01*
X637955Y846564D01*
X630836Y846564D01*
X629057Y844785D01*
X629057Y839446D01*
X639734Y851140D02*
X639734Y858258D01*
X639734Y851140D02*
X632616Y858258D01*
X630836Y858258D01*
X629057Y856479D01*
X629057Y852919D01*
X630836Y851140D01*
X639734Y862834D02*
X629057Y869952D01*
X629057Y874528D02*
X639734Y874528D01*
X639734Y879866D01*
X637955Y881646D01*
X630836Y881646D01*
X629057Y879866D01*
X629057Y874528D01*
X639734Y886222D02*
X639734Y893340D01*
X639734Y886222D02*
X632616Y893340D01*
X630836Y893340D01*
X629057Y891560D01*
X629057Y888001D01*
X630836Y886222D01*
X654457Y827752D02*
X665134Y827752D01*
X654457Y827752D02*
X654457Y833091D01*
X656236Y834870D01*
X659795Y834870D01*
X661575Y833091D01*
X661575Y827752D01*
X665134Y839446D02*
X654457Y839446D01*
X665134Y839446D02*
X665134Y844785D01*
X663355Y846564D01*
X656236Y846564D01*
X654457Y844785D01*
X654457Y839446D01*
X656236Y851140D02*
X654457Y852919D01*
X654457Y856479D01*
X656236Y858258D01*
X658016Y858258D01*
X659795Y856479D01*
X659795Y854699D01*
X659795Y856479D02*
X661575Y858258D01*
X663355Y858258D01*
X665134Y856479D01*
X665134Y852919D01*
X663355Y851140D01*
X665134Y862834D02*
X654457Y869952D01*
X654457Y874528D02*
X665134Y874528D01*
X665134Y879866D01*
X663355Y881646D01*
X656236Y881646D01*
X654457Y879866D01*
X654457Y874528D01*
X656236Y886222D02*
X654457Y888001D01*
X654457Y891560D01*
X656236Y893340D01*
X658016Y893340D01*
X659795Y891560D01*
X659795Y889781D01*
X659795Y891560D02*
X661575Y893340D01*
X663355Y893340D01*
X665134Y891560D01*
X665134Y888001D01*
X663355Y886222D01*
X679857Y827752D02*
X690534Y827752D01*
X679857Y827752D02*
X679857Y833091D01*
X681636Y834870D01*
X685195Y834870D01*
X686975Y833091D01*
X686975Y827752D01*
X690534Y839446D02*
X679857Y839446D01*
X690534Y839446D02*
X690534Y844785D01*
X688755Y846564D01*
X681636Y846564D01*
X679857Y844785D01*
X679857Y839446D01*
X679857Y856479D02*
X690534Y856479D01*
X685195Y851140D02*
X679857Y856479D01*
X685195Y858258D02*
X685195Y851140D01*
X690534Y862834D02*
X679857Y869952D01*
X679857Y874528D02*
X690534Y874528D01*
X690534Y879866D01*
X688755Y881646D01*
X681636Y881646D01*
X679857Y879866D01*
X679857Y874528D01*
X679857Y891560D02*
X690534Y891560D01*
X685195Y886222D02*
X679857Y891560D01*
X685195Y893340D02*
X685195Y886222D01*
X705257Y827752D02*
X715934Y827752D01*
X705257Y827752D02*
X705257Y833091D01*
X707036Y834870D01*
X710595Y834870D01*
X712375Y833091D01*
X712375Y827752D01*
X715934Y839446D02*
X705257Y839446D01*
X715934Y839446D02*
X715934Y844785D01*
X714155Y846564D01*
X707036Y846564D01*
X705257Y844785D01*
X705257Y839446D01*
X705257Y851140D02*
X705257Y858258D01*
X705257Y851140D02*
X710595Y851140D01*
X708816Y854699D01*
X708816Y856479D01*
X710595Y858258D01*
X714155Y858258D01*
X715934Y856479D01*
X715934Y852919D01*
X714155Y851140D01*
X715934Y862834D02*
X705257Y869952D01*
X705257Y874528D02*
X715934Y874528D01*
X715934Y879866D01*
X714155Y881646D01*
X707036Y881646D01*
X705257Y879866D01*
X705257Y874528D01*
X705257Y886222D02*
X705257Y893340D01*
X705257Y886222D02*
X710595Y886222D01*
X708816Y889781D01*
X708816Y891560D01*
X710595Y893340D01*
X714155Y893340D01*
X715934Y891560D01*
X715934Y888001D01*
X714155Y886222D01*
X730657Y827752D02*
X741334Y827752D01*
X730657Y827752D02*
X730657Y833091D01*
X732436Y834870D01*
X735995Y834870D01*
X737775Y833091D01*
X737775Y827752D01*
X741334Y839446D02*
X730657Y839446D01*
X741334Y839446D02*
X741334Y844785D01*
X739555Y846564D01*
X732436Y846564D01*
X730657Y844785D01*
X730657Y839446D01*
X732436Y854699D02*
X730657Y858258D01*
X732436Y854699D02*
X735995Y851140D01*
X739555Y851140D01*
X741334Y852919D01*
X741334Y856479D01*
X739555Y858258D01*
X737775Y858258D01*
X735995Y856479D01*
X735995Y851140D01*
X741334Y862834D02*
X730657Y869952D01*
X730657Y874528D02*
X741334Y874528D01*
X741334Y879866D01*
X739555Y881646D01*
X732436Y881646D01*
X730657Y879866D01*
X730657Y874528D01*
X732436Y889781D02*
X730657Y893340D01*
X732436Y889781D02*
X735995Y886222D01*
X739555Y886222D01*
X741334Y888001D01*
X741334Y891560D01*
X739555Y893340D01*
X737775Y893340D01*
X735995Y891560D01*
X735995Y886222D01*
X756057Y827752D02*
X766734Y827752D01*
X756057Y827752D02*
X756057Y833091D01*
X757836Y834870D01*
X761395Y834870D01*
X763175Y833091D01*
X763175Y827752D01*
X766734Y839446D02*
X756057Y839446D01*
X766734Y839446D02*
X766734Y844785D01*
X764955Y846564D01*
X757836Y846564D01*
X756057Y844785D01*
X756057Y839446D01*
X756057Y851140D02*
X756057Y858258D01*
X757836Y858258D01*
X764955Y851140D01*
X766734Y851140D01*
X766734Y862834D02*
X756057Y869952D01*
X756057Y874528D02*
X766734Y874528D01*
X766734Y879866D01*
X764955Y881646D01*
X757836Y881646D01*
X756057Y879866D01*
X756057Y874528D01*
X756057Y886222D02*
X756057Y893340D01*
X757836Y893340D01*
X764955Y886222D01*
X766734Y886222D01*
X959857Y862255D02*
X961636Y864034D01*
X959857Y862255D02*
X959857Y858696D01*
X961636Y856916D01*
X968755Y856916D01*
X970534Y858696D01*
X970534Y862255D01*
X968755Y864034D01*
X965195Y864034D01*
X965195Y860475D01*
X959857Y868610D02*
X970534Y868610D01*
X970534Y875728D02*
X959857Y868610D01*
X959857Y875728D02*
X970534Y875728D01*
X970534Y880304D02*
X959857Y880304D01*
X970534Y880304D02*
X970534Y885643D01*
X968755Y887422D01*
X961636Y887422D01*
X959857Y885643D01*
X959857Y880304D01*
X941575Y856916D02*
X934457Y856916D01*
X941575Y856916D02*
X945134Y860475D01*
X941575Y864034D01*
X934457Y864034D01*
X934457Y868610D02*
X945134Y868610D01*
X945134Y873949D01*
X943355Y875728D01*
X936236Y875728D01*
X934457Y873949D01*
X934457Y868610D01*
X934457Y880304D02*
X945134Y880304D01*
X945134Y885643D01*
X943355Y887422D01*
X936236Y887422D01*
X934457Y885643D01*
X934457Y880304D01*
D11*
X972820Y797560D02*
X779780Y797560D01*
D10*
X909057Y856916D02*
X919734Y856916D01*
X909057Y856916D02*
X909057Y862255D01*
X910836Y864034D01*
X914395Y864034D01*
X916175Y862255D01*
X916175Y856916D01*
X919734Y868610D02*
X909057Y868610D01*
X909057Y873949D01*
X910836Y875728D01*
X912616Y875728D01*
X914395Y873949D01*
X916175Y875728D01*
X917955Y875728D01*
X919734Y873949D01*
X919734Y868610D01*
X914395Y868610D02*
X914395Y873949D01*
X910836Y880304D02*
X917955Y880304D01*
X910836Y880304D02*
X909057Y882083D01*
X909057Y885643D01*
X910836Y887422D01*
X917955Y887422D01*
X919734Y885643D01*
X919734Y882083D01*
X917955Y880304D01*
X910836Y887422D01*
X919734Y891998D02*
X909057Y899116D01*
X909057Y903692D02*
X919734Y903692D01*
X919734Y909030D01*
X917955Y910810D01*
X910836Y910810D01*
X909057Y909030D01*
X909057Y903692D01*
X910836Y915386D02*
X909057Y917165D01*
X909057Y920724D01*
X910836Y922504D01*
X912616Y922504D01*
X914395Y920724D01*
X916175Y922504D01*
X917955Y922504D01*
X919734Y920724D01*
X919734Y917165D01*
X917955Y915386D01*
X916175Y915386D01*
X914395Y917165D01*
X912616Y915386D01*
X910836Y915386D01*
X914395Y917165D02*
X914395Y920724D01*
X894334Y856916D02*
X883657Y856916D01*
X883657Y862255D01*
X885436Y864034D01*
X888995Y864034D01*
X890775Y862255D01*
X890775Y856916D01*
X894334Y868610D02*
X883657Y868610D01*
X883657Y873949D01*
X885436Y875728D01*
X887216Y875728D01*
X888995Y873949D01*
X890775Y875728D01*
X892555Y875728D01*
X894334Y873949D01*
X894334Y868610D01*
X888995Y868610D02*
X888995Y873949D01*
X887216Y880304D02*
X883657Y883863D01*
X894334Y883863D01*
X894334Y880304D02*
X894334Y887422D01*
X894334Y891998D02*
X883657Y899116D01*
X883657Y903692D02*
X894334Y903692D01*
X894334Y909030D01*
X892555Y910810D01*
X885436Y910810D01*
X883657Y909030D01*
X883657Y903692D01*
X892555Y915386D02*
X894334Y917165D01*
X894334Y920724D01*
X892555Y922504D01*
X885436Y922504D01*
X883657Y920724D01*
X883657Y917165D01*
X885436Y915386D01*
X887216Y915386D01*
X888995Y917165D01*
X888995Y922504D01*
X868934Y856916D02*
X858257Y856916D01*
X858257Y862255D01*
X860036Y864034D01*
X863595Y864034D01*
X865375Y862255D01*
X865375Y856916D01*
X868934Y868610D02*
X858257Y868610D01*
X858257Y873949D01*
X860036Y875728D01*
X861816Y875728D01*
X863595Y873949D01*
X865375Y875728D01*
X867155Y875728D01*
X868934Y873949D01*
X868934Y868610D01*
X863595Y868610D02*
X863595Y873949D01*
X868934Y880304D02*
X868934Y887422D01*
X868934Y880304D02*
X861816Y887422D01*
X860036Y887422D01*
X858257Y885643D01*
X858257Y882083D01*
X860036Y880304D01*
X868934Y891998D02*
X858257Y899116D01*
X858257Y903692D02*
X868934Y903692D01*
X868934Y909030D01*
X867155Y910810D01*
X860036Y910810D01*
X858257Y909030D01*
X858257Y903692D01*
X861816Y915386D02*
X858257Y918945D01*
X868934Y918945D01*
X868934Y915386D02*
X868934Y922504D01*
X867155Y927080D02*
X860036Y927080D01*
X858257Y928859D01*
X858257Y932418D01*
X860036Y934198D01*
X867155Y934198D01*
X868934Y932418D01*
X868934Y928859D01*
X867155Y927080D01*
X860036Y934198D01*
X843534Y856916D02*
X836416Y856916D01*
X832857Y860475D01*
X836416Y864034D01*
X843534Y864034D01*
X838195Y864034D02*
X838195Y856916D01*
X818134Y856916D02*
X807457Y856916D01*
X807457Y862255D01*
X809236Y864034D01*
X811016Y864034D01*
X812795Y862255D01*
X814575Y864034D01*
X816355Y864034D01*
X818134Y862255D01*
X818134Y856916D01*
X812795Y856916D02*
X812795Y862255D01*
X783836Y864034D02*
X782057Y862255D01*
X782057Y858696D01*
X783836Y856916D01*
X790955Y856916D01*
X792734Y858696D01*
X792734Y862255D01*
X790955Y864034D01*
D231*
X175500Y392500D02*
X165000Y385000D01*
X175500Y378000D02*
X175500Y392500D01*
X165000Y385000D02*
X175500Y378000D01*
D224*
X200000Y397000D02*
X137000Y397000D01*
X137000Y373000D01*
X200000Y373000D01*
D231*
X164500Y378000D02*
X164500Y392500D01*
D227*
X205762Y391948D02*
X205762Y380762D01*
X211355Y380762D01*
X213219Y382626D01*
X213219Y390083D01*
X211355Y391948D01*
X205762Y391948D01*
X221184Y390083D02*
X224913Y391948D01*
X221184Y390083D02*
X217456Y386355D01*
X217456Y382626D01*
X219320Y380762D01*
X223049Y380762D01*
X224913Y382626D01*
X224913Y384491D01*
X223049Y386355D01*
X217456Y386355D01*
D224*
X553000Y777000D02*
X553000Y813000D01*
X533000Y813000D01*
X533000Y777000D01*
X553000Y777000D01*
D225*
X542628Y819503D02*
X543918Y820793D01*
X542628Y819503D02*
X542628Y816924D01*
X543918Y815635D01*
X549076Y815635D01*
X550365Y816924D01*
X550365Y819503D01*
X549076Y820793D01*
X550365Y823922D02*
X550365Y829080D01*
X550365Y823922D02*
X545207Y829080D01*
X543918Y829080D01*
X542628Y827790D01*
X542628Y825211D01*
X543918Y823922D01*
X542628Y836077D02*
X550365Y836077D01*
X546497Y832209D02*
X542628Y836077D01*
X546497Y837367D02*
X546497Y832209D01*
M02*
