G04 EAGLE Gerber RS-274X export*
G75*
%MOMM*%
%FSLAX34Y34*%
%LPD*%
%INSilkscreen Bottom*%
%IPPOS*%
%AMOC8*
5,1,8,0,0,1.08239X$1,22.5*%
G01*
%ADD10C,0.203200*%


D10*
X181600Y26016D02*
X181600Y40761D01*
X174228Y40761D01*
X171771Y38303D01*
X171771Y33388D01*
X174228Y30931D01*
X181600Y30931D01*
X176686Y30931D02*
X171771Y26016D01*
X166164Y40761D02*
X156335Y40761D01*
X166164Y40761D02*
X166164Y26016D01*
X156335Y26016D01*
X161250Y33388D02*
X166164Y33388D01*
X150728Y30931D02*
X150728Y40761D01*
X150728Y30931D02*
X145813Y26016D01*
X140899Y30931D01*
X140899Y40761D01*
X119856Y35846D02*
X119856Y26016D01*
X119856Y35846D02*
X114941Y40761D01*
X110026Y35846D01*
X110026Y26016D01*
X110026Y33388D02*
X119856Y33388D01*
X104420Y26016D02*
X94590Y26016D01*
X104420Y26016D02*
X94590Y35846D01*
X94590Y38303D01*
X97048Y40761D01*
X101963Y40761D01*
X104420Y38303D01*
X192122Y65361D02*
X197037Y60446D01*
X192122Y65361D02*
X192122Y50616D01*
X197037Y50616D02*
X187207Y50616D01*
X181600Y60446D02*
X176686Y65361D01*
X176686Y50616D01*
X181600Y50616D02*
X171771Y50616D01*
X166164Y50616D02*
X166164Y60446D01*
X161250Y65361D01*
X156335Y60446D01*
X156335Y50616D01*
X156335Y57988D02*
X166164Y57988D01*
X150728Y57988D02*
X140899Y57988D01*
X135292Y53073D02*
X135292Y62903D01*
X132835Y65361D01*
X127920Y65361D01*
X125463Y62903D01*
X125463Y53073D01*
X127920Y50616D01*
X132835Y50616D01*
X135292Y53073D01*
X125463Y62903D01*
X119856Y62903D02*
X119856Y53073D01*
X119856Y62903D02*
X117399Y65361D01*
X112484Y65361D01*
X110026Y62903D01*
X110026Y53073D01*
X112484Y50616D01*
X117399Y50616D01*
X119856Y53073D01*
X110026Y62903D01*
X104420Y60446D02*
X99505Y65361D01*
X99505Y50616D01*
X104420Y50616D02*
X94590Y50616D01*
M02*
