G04 EAGLE Gerber RS-274X export*
G75*
%MOMM*%
%FSLAX34Y34*%
%LPD*%
%INSolderpaste Top*%
%IPPOS*%
%AMOC8*
5,1,8,0,0,1.08239X$1,22.5*%
G01*
%ADD10R,0.800000X1.200000*%
%ADD11C,0.100000*%
%ADD12R,1.200000X0.800000*%
%ADD13R,0.400000X1.200000*%
%ADD14R,1.200000X0.400000*%
%ADD15R,0.500000X0.800000*%
%ADD16R,0.800000X0.500000*%
%ADD17R,0.800000X0.600000*%
%ADD18R,1.800000X1.000000*%
%ADD19R,1.600000X3.200000*%
%ADD20R,0.600000X1.000000*%
%ADD21R,1.500000X1.400000*%


D10*
X445000Y440000D03*
X465000Y440000D03*
X445000Y420000D03*
X465000Y420000D03*
D11*
X440980Y389150D02*
X440980Y385150D01*
X440980Y389150D02*
X455980Y389150D01*
X455980Y385150D01*
X440980Y385150D01*
X440980Y386100D02*
X455980Y386100D01*
X455980Y387050D02*
X440980Y387050D01*
X440980Y388000D02*
X455980Y388000D01*
X455980Y388950D02*
X440980Y388950D01*
X440980Y376450D02*
X440980Y372450D01*
X440980Y376450D02*
X455980Y376450D01*
X455980Y372450D01*
X440980Y372450D01*
X440980Y373400D02*
X455980Y373400D01*
X455980Y374350D02*
X440980Y374350D01*
X440980Y375300D02*
X455980Y375300D01*
X455980Y376250D02*
X440980Y376250D01*
X440980Y363750D02*
X440980Y359750D01*
X440980Y363750D02*
X455980Y363750D01*
X455980Y359750D01*
X440980Y359750D01*
X440980Y360700D02*
X455980Y360700D01*
X455980Y361650D02*
X440980Y361650D01*
X440980Y362600D02*
X455980Y362600D01*
X455980Y363550D02*
X440980Y363550D01*
X440980Y351050D02*
X440980Y347050D01*
X440980Y351050D02*
X455980Y351050D01*
X455980Y347050D01*
X440980Y347050D01*
X440980Y348000D02*
X455980Y348000D01*
X455980Y348950D02*
X440980Y348950D01*
X440980Y349900D02*
X455980Y349900D01*
X455980Y350850D02*
X440980Y350850D01*
X440980Y338350D02*
X440980Y334350D01*
X440980Y338350D02*
X455980Y338350D01*
X455980Y334350D01*
X440980Y334350D01*
X440980Y335300D02*
X455980Y335300D01*
X455980Y336250D02*
X440980Y336250D01*
X440980Y337200D02*
X455980Y337200D01*
X455980Y338150D02*
X440980Y338150D01*
X440980Y325650D02*
X440980Y321650D01*
X440980Y325650D02*
X455980Y325650D01*
X455980Y321650D01*
X440980Y321650D01*
X440980Y322600D02*
X455980Y322600D01*
X455980Y323550D02*
X440980Y323550D01*
X440980Y324500D02*
X455980Y324500D01*
X455980Y325450D02*
X440980Y325450D01*
X440980Y312950D02*
X440980Y308950D01*
X440980Y312950D02*
X455980Y312950D01*
X455980Y308950D01*
X440980Y308950D01*
X440980Y309900D02*
X455980Y309900D01*
X455980Y310850D02*
X440980Y310850D01*
X440980Y311800D02*
X455980Y311800D01*
X455980Y312750D02*
X440980Y312750D01*
X440980Y300250D02*
X440980Y296250D01*
X440980Y300250D02*
X455980Y300250D01*
X455980Y296250D01*
X440980Y296250D01*
X440980Y297200D02*
X455980Y297200D01*
X455980Y298150D02*
X440980Y298150D01*
X440980Y299100D02*
X455980Y299100D01*
X455980Y300050D02*
X440980Y300050D01*
X440980Y287550D02*
X440980Y283550D01*
X440980Y287550D02*
X455980Y287550D01*
X455980Y283550D01*
X440980Y283550D01*
X440980Y284500D02*
X455980Y284500D01*
X455980Y285450D02*
X440980Y285450D01*
X440980Y286400D02*
X455980Y286400D01*
X455980Y287350D02*
X440980Y287350D01*
X440980Y274850D02*
X440980Y270850D01*
X440980Y274850D02*
X455980Y274850D01*
X455980Y270850D01*
X440980Y270850D01*
X440980Y271800D02*
X455980Y271800D01*
X455980Y272750D02*
X440980Y272750D01*
X440980Y273700D02*
X455980Y273700D01*
X455980Y274650D02*
X440980Y274650D01*
X544380Y385150D02*
X544380Y389150D01*
X559380Y389150D01*
X559380Y385150D01*
X544380Y385150D01*
X544380Y386100D02*
X559380Y386100D01*
X559380Y387050D02*
X544380Y387050D01*
X544380Y388000D02*
X559380Y388000D01*
X559380Y388950D02*
X544380Y388950D01*
X544380Y376450D02*
X544380Y372450D01*
X544380Y376450D02*
X559380Y376450D01*
X559380Y372450D01*
X544380Y372450D01*
X544380Y373400D02*
X559380Y373400D01*
X559380Y374350D02*
X544380Y374350D01*
X544380Y375300D02*
X559380Y375300D01*
X559380Y376250D02*
X544380Y376250D01*
X544380Y363750D02*
X544380Y359750D01*
X544380Y363750D02*
X559380Y363750D01*
X559380Y359750D01*
X544380Y359750D01*
X544380Y360700D02*
X559380Y360700D01*
X559380Y361650D02*
X544380Y361650D01*
X544380Y362600D02*
X559380Y362600D01*
X559380Y363550D02*
X544380Y363550D01*
X544380Y351050D02*
X544380Y347050D01*
X544380Y351050D02*
X559380Y351050D01*
X559380Y347050D01*
X544380Y347050D01*
X544380Y348000D02*
X559380Y348000D01*
X559380Y348950D02*
X544380Y348950D01*
X544380Y349900D02*
X559380Y349900D01*
X559380Y350850D02*
X544380Y350850D01*
X544380Y338350D02*
X544380Y334350D01*
X544380Y338350D02*
X559380Y338350D01*
X559380Y334350D01*
X544380Y334350D01*
X544380Y335300D02*
X559380Y335300D01*
X559380Y336250D02*
X544380Y336250D01*
X544380Y337200D02*
X559380Y337200D01*
X559380Y338150D02*
X544380Y338150D01*
X544380Y325650D02*
X544380Y321650D01*
X544380Y325650D02*
X559380Y325650D01*
X559380Y321650D01*
X544380Y321650D01*
X544380Y322600D02*
X559380Y322600D01*
X559380Y323550D02*
X544380Y323550D01*
X544380Y324500D02*
X559380Y324500D01*
X559380Y325450D02*
X544380Y325450D01*
X544380Y312950D02*
X544380Y308950D01*
X544380Y312950D02*
X559380Y312950D01*
X559380Y308950D01*
X544380Y308950D01*
X544380Y309900D02*
X559380Y309900D01*
X559380Y310850D02*
X544380Y310850D01*
X544380Y311800D02*
X559380Y311800D01*
X559380Y312750D02*
X544380Y312750D01*
X544380Y300250D02*
X544380Y296250D01*
X544380Y300250D02*
X559380Y300250D01*
X559380Y296250D01*
X544380Y296250D01*
X544380Y297200D02*
X559380Y297200D01*
X559380Y298150D02*
X544380Y298150D01*
X544380Y299100D02*
X559380Y299100D01*
X559380Y300050D02*
X544380Y300050D01*
X544380Y287550D02*
X544380Y283550D01*
X544380Y287550D02*
X559380Y287550D01*
X559380Y283550D01*
X544380Y283550D01*
X544380Y284500D02*
X559380Y284500D01*
X559380Y285450D02*
X544380Y285450D01*
X544380Y286400D02*
X559380Y286400D01*
X559380Y287350D02*
X544380Y287350D01*
X544380Y274850D02*
X544380Y270850D01*
X544380Y274850D02*
X559380Y274850D01*
X559380Y270850D01*
X544380Y270850D01*
X544380Y271800D02*
X559380Y271800D01*
X559380Y272750D02*
X544380Y272750D01*
X544380Y273700D02*
X559380Y273700D01*
X559380Y274650D02*
X544380Y274650D01*
D12*
X530000Y220000D03*
X530000Y240000D03*
X490000Y240000D03*
X490000Y220000D03*
X470000Y240000D03*
X470000Y220000D03*
X510000Y240000D03*
X510000Y220000D03*
D10*
X255000Y240000D03*
X275000Y240000D03*
X275000Y200000D03*
X255000Y200000D03*
D12*
X155000Y130000D03*
X155000Y110000D03*
X905000Y735000D03*
X905000Y715000D03*
X885000Y735000D03*
X885000Y715000D03*
X865000Y735000D03*
X865000Y715000D03*
D10*
X275000Y220000D03*
X255000Y220000D03*
D12*
X180000Y130000D03*
X180000Y110000D03*
D13*
X512000Y762000D03*
X520000Y762000D03*
X528000Y762000D03*
X536000Y762000D03*
X544000Y762000D03*
X552000Y762000D03*
X560000Y762000D03*
X568000Y762000D03*
D14*
X582000Y748000D03*
X582000Y740000D03*
X582000Y732000D03*
X582000Y724000D03*
X582000Y716000D03*
X582000Y708000D03*
X582000Y700000D03*
X582000Y692000D03*
D13*
X568000Y678000D03*
X560000Y678000D03*
X552000Y678000D03*
X544000Y678000D03*
X536000Y678000D03*
X528000Y678000D03*
X520000Y678000D03*
X512000Y678000D03*
D14*
X498000Y692000D03*
X498000Y700000D03*
X498000Y708000D03*
X498000Y716000D03*
X498000Y724000D03*
X498000Y732000D03*
X498000Y740000D03*
X498000Y748000D03*
D11*
X567500Y651500D02*
X578500Y651500D01*
X578500Y642500D01*
X567500Y642500D01*
X567500Y651500D01*
X567500Y643450D02*
X578500Y643450D01*
X578500Y644400D02*
X567500Y644400D01*
X567500Y645350D02*
X578500Y645350D01*
X578500Y646300D02*
X567500Y646300D01*
X567500Y647250D02*
X578500Y647250D01*
X578500Y648200D02*
X567500Y648200D01*
X567500Y649150D02*
X578500Y649150D01*
X578500Y650100D02*
X567500Y650100D01*
X567500Y651050D02*
X578500Y651050D01*
X591500Y651500D02*
X602500Y651500D01*
X602500Y642500D01*
X591500Y642500D01*
X591500Y651500D01*
X591500Y643450D02*
X602500Y643450D01*
X602500Y644400D02*
X591500Y644400D01*
X591500Y645350D02*
X602500Y645350D01*
X602500Y646300D02*
X591500Y646300D01*
X591500Y647250D02*
X602500Y647250D01*
X602500Y648200D02*
X591500Y648200D01*
X591500Y649150D02*
X602500Y649150D01*
X602500Y650100D02*
X591500Y650100D01*
X591500Y651050D02*
X602500Y651050D01*
X578500Y635500D02*
X567500Y635500D01*
X578500Y635500D02*
X578500Y626500D01*
X567500Y626500D01*
X567500Y635500D01*
X567500Y627450D02*
X578500Y627450D01*
X578500Y628400D02*
X567500Y628400D01*
X567500Y629350D02*
X578500Y629350D01*
X578500Y630300D02*
X567500Y630300D01*
X567500Y631250D02*
X578500Y631250D01*
X578500Y632200D02*
X567500Y632200D01*
X567500Y633150D02*
X578500Y633150D01*
X578500Y634100D02*
X567500Y634100D01*
X567500Y635050D02*
X578500Y635050D01*
X591500Y635500D02*
X602500Y635500D01*
X602500Y626500D01*
X591500Y626500D01*
X591500Y635500D01*
X591500Y627450D02*
X602500Y627450D01*
X602500Y628400D02*
X591500Y628400D01*
X591500Y629350D02*
X602500Y629350D01*
X602500Y630300D02*
X591500Y630300D01*
X591500Y631250D02*
X602500Y631250D01*
X602500Y632200D02*
X591500Y632200D01*
X591500Y633150D02*
X602500Y633150D01*
X602500Y634100D02*
X591500Y634100D01*
X591500Y635050D02*
X602500Y635050D01*
D15*
X599500Y613000D03*
X582500Y613000D03*
D16*
X616000Y629500D03*
X616000Y646500D03*
D17*
X493000Y181000D03*
X507000Y181000D03*
X507000Y169000D03*
X493000Y169000D03*
D10*
X420000Y795000D03*
X440000Y795000D03*
X440000Y775000D03*
X420000Y775000D03*
D12*
X605000Y805000D03*
X605000Y785000D03*
X585000Y785000D03*
X585000Y805000D03*
X565000Y785000D03*
X565000Y805000D03*
X550000Y650000D03*
X550000Y630000D03*
X530000Y650000D03*
X530000Y630000D03*
D10*
X420000Y755000D03*
X440000Y755000D03*
D18*
X256000Y872000D03*
X256000Y895000D03*
X256000Y918000D03*
D19*
X195000Y895000D03*
D10*
X285000Y915000D03*
X305000Y915000D03*
X285000Y895000D03*
X305000Y895000D03*
X275000Y805000D03*
X295000Y805000D03*
X275000Y825000D03*
X295000Y825000D03*
X685400Y614600D03*
X705400Y614600D03*
D20*
X687400Y594600D03*
X703400Y594600D03*
D10*
X270000Y385000D03*
X250000Y385000D03*
D20*
X268000Y360000D03*
X252000Y360000D03*
D10*
X420000Y735000D03*
X440000Y735000D03*
X440000Y630000D03*
X420000Y630000D03*
X420000Y670000D03*
X440000Y670000D03*
D21*
X109500Y960000D03*
X150500Y960000D03*
X150500Y925000D03*
X109500Y925000D03*
X149500Y435000D03*
X190500Y435000D03*
X149500Y360000D03*
X190500Y360000D03*
D18*
X246000Y782000D03*
X246000Y805000D03*
X246000Y828000D03*
D19*
X185000Y805000D03*
D21*
X109500Y890000D03*
X150500Y890000D03*
D10*
X270000Y435000D03*
X250000Y435000D03*
X270000Y410000D03*
X250000Y410000D03*
X275000Y180000D03*
X255000Y180000D03*
X440000Y650000D03*
X420000Y650000D03*
D12*
X190000Y940000D03*
X190000Y960000D03*
X225000Y940000D03*
X225000Y960000D03*
D21*
X149500Y410000D03*
X190500Y410000D03*
X149500Y385000D03*
X190500Y385000D03*
D12*
X543000Y785000D03*
X543000Y805000D03*
M02*
