G04 EAGLE Gerber RS-274X export*
G75*
%MOMM*%
%FSLAX34Y34*%
%LPD*%
%INSoldermask Bottom*%
%IPPOS*%
%AMOC8*
5,1,8,0,0,1.08239X$1,22.5*%
G01*
%ADD10C,3.400000*%
%ADD11R,2.130400X2.130400*%
%ADD12C,2.130400*%
%ADD13P,2.002422X8X22.500000*%
%ADD14C,1.876400*%
%ADD15R,1.700000X1.700000*%
%ADD16C,1.700000*%
%ADD17C,1.850000*%
%ADD18C,2.200000*%
%ADD19P,2.002422X8X292.500000*%
%ADD20C,4.200000*%


D10*
X50000Y950000D03*
X950000Y950000D03*
X950000Y50000D03*
X50000Y50000D03*
D11*
X760000Y35000D03*
D12*
X785400Y35000D03*
X810800Y35000D03*
X836200Y35000D03*
X861600Y35000D03*
X887000Y35000D03*
D13*
X215000Y100000D03*
X280000Y100000D03*
X215000Y145000D03*
X280000Y145000D03*
D14*
X360400Y450000D03*
X360400Y424600D03*
X360400Y399200D03*
X360400Y373800D03*
X360400Y348400D03*
X360400Y323000D03*
X360400Y297600D03*
X360400Y272200D03*
X360400Y246800D03*
X360400Y221400D03*
X639800Y221400D03*
X639800Y246800D03*
X639800Y272200D03*
X639800Y297600D03*
X639800Y323000D03*
X639800Y348400D03*
X639800Y373800D03*
X639800Y399200D03*
X639800Y424600D03*
X639800Y450000D03*
X335000Y450000D03*
X335000Y424600D03*
X335000Y399200D03*
X335000Y373800D03*
X335000Y348400D03*
X335000Y323000D03*
X335000Y297600D03*
X335000Y272200D03*
X335000Y246800D03*
X335000Y221400D03*
X665200Y221400D03*
X665200Y246800D03*
X665200Y272200D03*
X665200Y297600D03*
X665200Y323000D03*
X665200Y348400D03*
X665200Y373800D03*
X665200Y399200D03*
X665200Y424600D03*
X665200Y450000D03*
D15*
X190000Y320000D03*
D16*
X190000Y294600D03*
X190000Y269200D03*
X190000Y243800D03*
X190000Y218400D03*
X190000Y193000D03*
D11*
X50000Y395000D03*
D12*
X75400Y395000D03*
X100800Y395000D03*
D13*
X45000Y100000D03*
X110000Y100000D03*
X45000Y145000D03*
X110000Y145000D03*
D15*
X965000Y736500D03*
D17*
X965000Y711100D03*
X965000Y685700D03*
D16*
X965000Y660300D03*
D15*
X965000Y215000D03*
D17*
X965000Y189600D03*
X965000Y164200D03*
X965000Y138800D03*
D16*
X965000Y113400D03*
D15*
X115000Y715000D03*
D16*
X140400Y715000D03*
X165800Y715000D03*
X191200Y715000D03*
D18*
X38000Y710000D03*
X268000Y710000D03*
X38000Y480000D03*
X268000Y480000D03*
D19*
X325000Y820000D03*
X325000Y755000D03*
X370000Y820000D03*
X370000Y755000D03*
D15*
X190000Y645000D03*
D16*
X190000Y619600D03*
X190000Y594200D03*
X190000Y568800D03*
X190000Y543400D03*
X190000Y518000D03*
D20*
X107900Y774000D03*
X137900Y821000D03*
X78900Y821000D03*
D19*
X325000Y685000D03*
X325000Y620000D03*
X370000Y685000D03*
X370000Y620000D03*
D15*
X355000Y914600D03*
D16*
X380400Y914600D03*
X405800Y914600D03*
X431200Y914600D03*
X456600Y914600D03*
X482000Y914600D03*
X507400Y914600D03*
X532800Y914600D03*
X532800Y940000D03*
X507400Y940000D03*
X482000Y940000D03*
X456600Y940000D03*
X431200Y940000D03*
X405800Y940000D03*
X380400Y940000D03*
X355000Y940000D03*
D11*
X660400Y714600D03*
D12*
X660400Y740000D03*
X685800Y714600D03*
X685800Y740000D03*
X711200Y714600D03*
X711200Y740000D03*
D15*
X583600Y914600D03*
D16*
X609000Y914600D03*
X634400Y914600D03*
X659800Y914600D03*
X685200Y914600D03*
X710600Y914600D03*
X736000Y914600D03*
X761400Y914600D03*
X761400Y940000D03*
X736000Y940000D03*
X710600Y940000D03*
X685200Y940000D03*
X659800Y940000D03*
X634400Y940000D03*
X609000Y940000D03*
X583600Y940000D03*
D15*
X965200Y838200D03*
D16*
X939800Y838200D03*
X914400Y838200D03*
X889000Y838200D03*
X863600Y838200D03*
X838200Y838200D03*
X812800Y838200D03*
X787400Y838200D03*
X787400Y812800D03*
X812800Y812800D03*
X838200Y812800D03*
X863600Y812800D03*
X889000Y812800D03*
X914400Y812800D03*
X939800Y812800D03*
X965200Y812800D03*
D17*
X889400Y367600D03*
X889400Y621600D03*
X889400Y596200D03*
X889400Y570800D03*
X889400Y545400D03*
X889400Y520000D03*
X889400Y494600D03*
X889400Y469200D03*
X889400Y443800D03*
X889400Y418400D03*
X889400Y393000D03*
X889400Y342200D03*
X889400Y316800D03*
X889400Y291400D03*
X864000Y367600D03*
X864000Y621600D03*
X864000Y596200D03*
X864000Y570800D03*
X864000Y545400D03*
X864000Y520000D03*
X864000Y494600D03*
X864000Y469200D03*
X864000Y443800D03*
X864000Y418400D03*
X864000Y393000D03*
X864000Y342200D03*
X864000Y316800D03*
X864000Y291400D03*
X965600Y367600D03*
X940200Y367600D03*
X914800Y367600D03*
X965600Y393000D03*
X940200Y393000D03*
X914800Y393000D03*
X965600Y418400D03*
X940200Y418400D03*
X914800Y418400D03*
X965600Y443800D03*
X940200Y443800D03*
X914800Y443800D03*
X965600Y469200D03*
X940200Y469200D03*
X914800Y469200D03*
X965600Y494600D03*
X940200Y494600D03*
X914800Y494600D03*
X965600Y520000D03*
X940200Y520000D03*
X914800Y520000D03*
X965600Y545400D03*
X940200Y545400D03*
X914800Y545400D03*
X965600Y570800D03*
X940200Y570800D03*
X914800Y570800D03*
X965600Y596200D03*
X940200Y596200D03*
X914800Y596200D03*
X965600Y621600D03*
X940200Y621600D03*
X914800Y621600D03*
X838600Y367600D03*
X813200Y367600D03*
X787800Y367600D03*
X838600Y393000D03*
X813200Y393000D03*
X787800Y393000D03*
X838600Y418400D03*
X813200Y418400D03*
X787800Y418400D03*
X838600Y443800D03*
X813200Y443800D03*
X787800Y443800D03*
X838600Y469200D03*
X813200Y469200D03*
X787800Y469200D03*
X838600Y494600D03*
X813200Y494600D03*
X787800Y494600D03*
X838600Y520000D03*
X813200Y520000D03*
X787800Y520000D03*
X838600Y545400D03*
X813200Y545400D03*
X787800Y545400D03*
X838600Y570800D03*
X813200Y570800D03*
X787800Y570800D03*
X838600Y596200D03*
X813200Y596200D03*
X787800Y596200D03*
X838600Y621600D03*
X813200Y621600D03*
X787800Y621600D03*
X838600Y761600D03*
X838600Y736200D03*
X838600Y710800D03*
X813200Y761600D03*
X813200Y736200D03*
X813200Y710800D03*
X787800Y761600D03*
X787800Y736200D03*
X787800Y710800D03*
X838600Y291400D03*
X813200Y291400D03*
X787800Y291400D03*
X838600Y316800D03*
X813200Y316800D03*
X787800Y316800D03*
X838600Y342200D03*
X813200Y342200D03*
X787800Y342200D03*
X965600Y291400D03*
X940200Y291400D03*
X914800Y291400D03*
X965600Y316800D03*
X940200Y316800D03*
X914800Y316800D03*
X965600Y342200D03*
X940200Y342200D03*
X914800Y342200D03*
M02*
