G75*
G70*
%OFA0B0*%
%FSLAX24Y24*%
%IPPOS*%
%LPD*%
%AMOC8*
5,1,8,0,0,1.08239X$1,22.5*
%
%ADD10C,0.0000*%
D10*
X000100Y000100D02*
X000100Y039470D01*
X039470Y039470D01*
X039470Y000100D01*
X000100Y000100D01*
X009313Y009943D02*
X009315Y009993D01*
X009321Y010043D01*
X009331Y010092D01*
X009345Y010140D01*
X009362Y010187D01*
X009383Y010232D01*
X009408Y010276D01*
X009436Y010317D01*
X009468Y010356D01*
X009502Y010393D01*
X009539Y010427D01*
X009579Y010457D01*
X009621Y010484D01*
X009665Y010508D01*
X009711Y010529D01*
X009758Y010545D01*
X009806Y010558D01*
X009856Y010567D01*
X009905Y010572D01*
X009956Y010573D01*
X010006Y010570D01*
X010055Y010563D01*
X010104Y010552D01*
X010152Y010537D01*
X010198Y010519D01*
X010243Y010497D01*
X010286Y010471D01*
X010327Y010442D01*
X010366Y010410D01*
X010402Y010375D01*
X010434Y010337D01*
X010464Y010297D01*
X010491Y010254D01*
X010514Y010210D01*
X010533Y010164D01*
X010549Y010116D01*
X010561Y010067D01*
X010569Y010018D01*
X010573Y009968D01*
X010573Y009918D01*
X010569Y009868D01*
X010561Y009819D01*
X010549Y009770D01*
X010533Y009722D01*
X010514Y009676D01*
X010491Y009632D01*
X010464Y009589D01*
X010434Y009549D01*
X010402Y009511D01*
X010366Y009476D01*
X010327Y009444D01*
X010286Y009415D01*
X010243Y009389D01*
X010198Y009367D01*
X010152Y009349D01*
X010104Y009334D01*
X010055Y009323D01*
X010006Y009316D01*
X009956Y009313D01*
X009905Y009314D01*
X009856Y009319D01*
X009806Y009328D01*
X009758Y009341D01*
X009711Y009357D01*
X009665Y009378D01*
X009621Y009402D01*
X009579Y009429D01*
X009539Y009459D01*
X009502Y009493D01*
X009468Y009530D01*
X009436Y009569D01*
X009408Y009610D01*
X009383Y009654D01*
X009362Y009699D01*
X009345Y009746D01*
X009331Y009794D01*
X009321Y009843D01*
X009315Y009893D01*
X009313Y009943D01*
X009313Y029628D02*
X009315Y029678D01*
X009321Y029728D01*
X009331Y029777D01*
X009345Y029825D01*
X009362Y029872D01*
X009383Y029917D01*
X009408Y029961D01*
X009436Y030002D01*
X009468Y030041D01*
X009502Y030078D01*
X009539Y030112D01*
X009579Y030142D01*
X009621Y030169D01*
X009665Y030193D01*
X009711Y030214D01*
X009758Y030230D01*
X009806Y030243D01*
X009856Y030252D01*
X009905Y030257D01*
X009956Y030258D01*
X010006Y030255D01*
X010055Y030248D01*
X010104Y030237D01*
X010152Y030222D01*
X010198Y030204D01*
X010243Y030182D01*
X010286Y030156D01*
X010327Y030127D01*
X010366Y030095D01*
X010402Y030060D01*
X010434Y030022D01*
X010464Y029982D01*
X010491Y029939D01*
X010514Y029895D01*
X010533Y029849D01*
X010549Y029801D01*
X010561Y029752D01*
X010569Y029703D01*
X010573Y029653D01*
X010573Y029603D01*
X010569Y029553D01*
X010561Y029504D01*
X010549Y029455D01*
X010533Y029407D01*
X010514Y029361D01*
X010491Y029317D01*
X010464Y029274D01*
X010434Y029234D01*
X010402Y029196D01*
X010366Y029161D01*
X010327Y029129D01*
X010286Y029100D01*
X010243Y029074D01*
X010198Y029052D01*
X010152Y029034D01*
X010104Y029019D01*
X010055Y029008D01*
X010006Y029001D01*
X009956Y028998D01*
X009905Y028999D01*
X009856Y029004D01*
X009806Y029013D01*
X009758Y029026D01*
X009711Y029042D01*
X009665Y029063D01*
X009621Y029087D01*
X009579Y029114D01*
X009539Y029144D01*
X009502Y029178D01*
X009468Y029215D01*
X009436Y029254D01*
X009408Y029295D01*
X009383Y029339D01*
X009362Y029384D01*
X009345Y029431D01*
X009331Y029479D01*
X009321Y029528D01*
X009315Y029578D01*
X009313Y029628D01*
X028998Y029628D02*
X029000Y029678D01*
X029006Y029728D01*
X029016Y029777D01*
X029030Y029825D01*
X029047Y029872D01*
X029068Y029917D01*
X029093Y029961D01*
X029121Y030002D01*
X029153Y030041D01*
X029187Y030078D01*
X029224Y030112D01*
X029264Y030142D01*
X029306Y030169D01*
X029350Y030193D01*
X029396Y030214D01*
X029443Y030230D01*
X029491Y030243D01*
X029541Y030252D01*
X029590Y030257D01*
X029641Y030258D01*
X029691Y030255D01*
X029740Y030248D01*
X029789Y030237D01*
X029837Y030222D01*
X029883Y030204D01*
X029928Y030182D01*
X029971Y030156D01*
X030012Y030127D01*
X030051Y030095D01*
X030087Y030060D01*
X030119Y030022D01*
X030149Y029982D01*
X030176Y029939D01*
X030199Y029895D01*
X030218Y029849D01*
X030234Y029801D01*
X030246Y029752D01*
X030254Y029703D01*
X030258Y029653D01*
X030258Y029603D01*
X030254Y029553D01*
X030246Y029504D01*
X030234Y029455D01*
X030218Y029407D01*
X030199Y029361D01*
X030176Y029317D01*
X030149Y029274D01*
X030119Y029234D01*
X030087Y029196D01*
X030051Y029161D01*
X030012Y029129D01*
X029971Y029100D01*
X029928Y029074D01*
X029883Y029052D01*
X029837Y029034D01*
X029789Y029019D01*
X029740Y029008D01*
X029691Y029001D01*
X029641Y028998D01*
X029590Y028999D01*
X029541Y029004D01*
X029491Y029013D01*
X029443Y029026D01*
X029396Y029042D01*
X029350Y029063D01*
X029306Y029087D01*
X029264Y029114D01*
X029224Y029144D01*
X029187Y029178D01*
X029153Y029215D01*
X029121Y029254D01*
X029093Y029295D01*
X029068Y029339D01*
X029047Y029384D01*
X029030Y029431D01*
X029016Y029479D01*
X029006Y029528D01*
X029000Y029578D01*
X028998Y029628D01*
X028998Y009943D02*
X029000Y009993D01*
X029006Y010043D01*
X029016Y010092D01*
X029030Y010140D01*
X029047Y010187D01*
X029068Y010232D01*
X029093Y010276D01*
X029121Y010317D01*
X029153Y010356D01*
X029187Y010393D01*
X029224Y010427D01*
X029264Y010457D01*
X029306Y010484D01*
X029350Y010508D01*
X029396Y010529D01*
X029443Y010545D01*
X029491Y010558D01*
X029541Y010567D01*
X029590Y010572D01*
X029641Y010573D01*
X029691Y010570D01*
X029740Y010563D01*
X029789Y010552D01*
X029837Y010537D01*
X029883Y010519D01*
X029928Y010497D01*
X029971Y010471D01*
X030012Y010442D01*
X030051Y010410D01*
X030087Y010375D01*
X030119Y010337D01*
X030149Y010297D01*
X030176Y010254D01*
X030199Y010210D01*
X030218Y010164D01*
X030234Y010116D01*
X030246Y010067D01*
X030254Y010018D01*
X030258Y009968D01*
X030258Y009918D01*
X030254Y009868D01*
X030246Y009819D01*
X030234Y009770D01*
X030218Y009722D01*
X030199Y009676D01*
X030176Y009632D01*
X030149Y009589D01*
X030119Y009549D01*
X030087Y009511D01*
X030051Y009476D01*
X030012Y009444D01*
X029971Y009415D01*
X029928Y009389D01*
X029883Y009367D01*
X029837Y009349D01*
X029789Y009334D01*
X029740Y009323D01*
X029691Y009316D01*
X029641Y009313D01*
X029590Y009314D01*
X029541Y009319D01*
X029491Y009328D01*
X029443Y009341D01*
X029396Y009357D01*
X029350Y009378D01*
X029306Y009402D01*
X029264Y009429D01*
X029224Y009459D01*
X029187Y009493D01*
X029153Y009530D01*
X029121Y009569D01*
X029093Y009610D01*
X029068Y009654D01*
X029047Y009699D01*
X029030Y009746D01*
X029016Y009794D01*
X029006Y009843D01*
X029000Y009893D01*
X028998Y009943D01*
M02*
