G04 EAGLE Gerber RS-274X export*
G75*
%MOMM*%
%FSLAX34Y34*%
%LPD*%
%IN*%
%IPPOS*%
%AMOC8*
5,1,8,0,0,1.08239X$1,22.5*%
G01*
%ADD10C,0.254000*%


D10*
X0Y0D02*
X1000000Y0D01*
X1000000Y1000000D01*
X0Y1000000D01*
X0Y0D01*
X482000Y469529D02*
X481926Y468588D01*
X481779Y467657D01*
X481558Y466740D01*
X481267Y465843D01*
X480906Y464972D01*
X480478Y464132D01*
X479985Y463328D01*
X479431Y462565D01*
X478819Y461848D01*
X478152Y461181D01*
X477435Y460569D01*
X476672Y460015D01*
X475868Y459522D01*
X475028Y459094D01*
X474157Y458733D01*
X473260Y458442D01*
X472343Y458222D01*
X471412Y458074D01*
X470471Y458000D01*
X469529Y458000D01*
X468588Y458074D01*
X467657Y458222D01*
X466740Y458442D01*
X465843Y458733D01*
X464972Y459094D01*
X464132Y459522D01*
X463328Y460015D01*
X462565Y460569D01*
X461848Y461181D01*
X461181Y461848D01*
X460569Y462565D01*
X460015Y463328D01*
X459522Y464132D01*
X459094Y464972D01*
X458733Y465843D01*
X458442Y466740D01*
X458222Y467657D01*
X458074Y468588D01*
X458000Y469529D01*
X458000Y470471D01*
X458074Y471412D01*
X458222Y472343D01*
X458442Y473260D01*
X458733Y474157D01*
X459094Y475028D01*
X459522Y475868D01*
X460015Y476672D01*
X460569Y477435D01*
X461181Y478152D01*
X461848Y478819D01*
X462565Y479431D01*
X463328Y479985D01*
X464132Y480478D01*
X464972Y480906D01*
X465843Y481267D01*
X466740Y481558D01*
X467657Y481779D01*
X468588Y481926D01*
X469529Y482000D01*
X470471Y482000D01*
X471412Y481926D01*
X472343Y481779D01*
X473260Y481558D01*
X474157Y481267D01*
X475028Y480906D01*
X475868Y480478D01*
X476672Y479985D01*
X477435Y479431D01*
X478152Y478819D01*
X478819Y478152D01*
X479431Y477435D01*
X479985Y476672D01*
X480478Y475868D01*
X480906Y475028D01*
X481267Y474157D01*
X481558Y473260D01*
X481779Y472343D01*
X481926Y471412D01*
X482000Y470471D01*
X482000Y469529D01*
X42000Y469529D02*
X41926Y468588D01*
X41779Y467657D01*
X41558Y466740D01*
X41267Y465843D01*
X40906Y464972D01*
X40478Y464132D01*
X39985Y463328D01*
X39431Y462565D01*
X38819Y461848D01*
X38152Y461181D01*
X37435Y460569D01*
X36672Y460015D01*
X35868Y459522D01*
X35028Y459094D01*
X34157Y458733D01*
X33260Y458442D01*
X32343Y458222D01*
X31412Y458074D01*
X30471Y458000D01*
X29529Y458000D01*
X28588Y458074D01*
X27657Y458222D01*
X26740Y458442D01*
X25843Y458733D01*
X24972Y459094D01*
X24132Y459522D01*
X23328Y460015D01*
X22565Y460569D01*
X21848Y461181D01*
X21181Y461848D01*
X20569Y462565D01*
X20015Y463328D01*
X19522Y464132D01*
X19094Y464972D01*
X18733Y465843D01*
X18442Y466740D01*
X18222Y467657D01*
X18074Y468588D01*
X18000Y469529D01*
X18000Y470471D01*
X18074Y471412D01*
X18222Y472343D01*
X18442Y473260D01*
X18733Y474157D01*
X19094Y475028D01*
X19522Y475868D01*
X20015Y476672D01*
X20569Y477435D01*
X21181Y478152D01*
X21848Y478819D01*
X22565Y479431D01*
X23328Y479985D01*
X24132Y480478D01*
X24972Y480906D01*
X25843Y481267D01*
X26740Y481558D01*
X27657Y481779D01*
X28588Y481926D01*
X29529Y482000D01*
X30471Y482000D01*
X31412Y481926D01*
X32343Y481779D01*
X33260Y481558D01*
X34157Y481267D01*
X35028Y480906D01*
X35868Y480478D01*
X36672Y479985D01*
X37435Y479431D01*
X38152Y478819D01*
X38819Y478152D01*
X39431Y477435D01*
X39985Y476672D01*
X40478Y475868D01*
X40906Y475028D01*
X41267Y474157D01*
X41558Y473260D01*
X41779Y472343D01*
X41926Y471412D01*
X42000Y470471D01*
X42000Y469529D01*
X482000Y969529D02*
X481926Y968588D01*
X481779Y967657D01*
X481558Y966740D01*
X481267Y965843D01*
X480906Y964972D01*
X480478Y964132D01*
X479985Y963328D01*
X479431Y962565D01*
X478819Y961848D01*
X478152Y961181D01*
X477435Y960569D01*
X476672Y960015D01*
X475868Y959522D01*
X475028Y959094D01*
X474157Y958733D01*
X473260Y958442D01*
X472343Y958222D01*
X471412Y958074D01*
X470471Y958000D01*
X469529Y958000D01*
X468588Y958074D01*
X467657Y958222D01*
X466740Y958442D01*
X465843Y958733D01*
X464972Y959094D01*
X464132Y959522D01*
X463328Y960015D01*
X462565Y960569D01*
X461848Y961181D01*
X461181Y961848D01*
X460569Y962565D01*
X460015Y963328D01*
X459522Y964132D01*
X459094Y964972D01*
X458733Y965843D01*
X458442Y966740D01*
X458222Y967657D01*
X458074Y968588D01*
X458000Y969529D01*
X458000Y970471D01*
X458074Y971412D01*
X458222Y972343D01*
X458442Y973260D01*
X458733Y974157D01*
X459094Y975028D01*
X459522Y975868D01*
X460015Y976672D01*
X460569Y977435D01*
X461181Y978152D01*
X461848Y978819D01*
X462565Y979431D01*
X463328Y979985D01*
X464132Y980478D01*
X464972Y980906D01*
X465843Y981267D01*
X466740Y981558D01*
X467657Y981779D01*
X468588Y981926D01*
X469529Y982000D01*
X470471Y982000D01*
X471412Y981926D01*
X472343Y981779D01*
X473260Y981558D01*
X474157Y981267D01*
X475028Y980906D01*
X475868Y980478D01*
X476672Y979985D01*
X477435Y979431D01*
X478152Y978819D01*
X478819Y978152D01*
X479431Y977435D01*
X479985Y976672D01*
X480478Y975868D01*
X480906Y975028D01*
X481267Y974157D01*
X481558Y973260D01*
X481779Y972343D01*
X481926Y971412D01*
X482000Y970471D01*
X482000Y969529D01*
X42000Y969529D02*
X41926Y968588D01*
X41779Y967657D01*
X41558Y966740D01*
X41267Y965843D01*
X40906Y964972D01*
X40478Y964132D01*
X39985Y963328D01*
X39431Y962565D01*
X38819Y961848D01*
X38152Y961181D01*
X37435Y960569D01*
X36672Y960015D01*
X35868Y959522D01*
X35028Y959094D01*
X34157Y958733D01*
X33260Y958442D01*
X32343Y958222D01*
X31412Y958074D01*
X30471Y958000D01*
X29529Y958000D01*
X28588Y958074D01*
X27657Y958222D01*
X26740Y958442D01*
X25843Y958733D01*
X24972Y959094D01*
X24132Y959522D01*
X23328Y960015D01*
X22565Y960569D01*
X21848Y961181D01*
X21181Y961848D01*
X20569Y962565D01*
X20015Y963328D01*
X19522Y964132D01*
X19094Y964972D01*
X18733Y965843D01*
X18442Y966740D01*
X18222Y967657D01*
X18074Y968588D01*
X18000Y969529D01*
X18000Y970471D01*
X18074Y971412D01*
X18222Y972343D01*
X18442Y973260D01*
X18733Y974157D01*
X19094Y975028D01*
X19522Y975868D01*
X20015Y976672D01*
X20569Y977435D01*
X21181Y978152D01*
X21848Y978819D01*
X22565Y979431D01*
X23328Y979985D01*
X24132Y980478D01*
X24972Y980906D01*
X25843Y981267D01*
X26740Y981558D01*
X27657Y981779D01*
X28588Y981926D01*
X29529Y982000D01*
X30471Y982000D01*
X31412Y981926D01*
X32343Y981779D01*
X33260Y981558D01*
X34157Y981267D01*
X35028Y980906D01*
X35868Y980478D01*
X36672Y979985D01*
X37435Y979431D01*
X38152Y978819D01*
X38819Y978152D01*
X39431Y977435D01*
X39985Y976672D01*
X40478Y975868D01*
X40906Y975028D01*
X41267Y974157D01*
X41558Y973260D01*
X41779Y972343D01*
X41926Y971412D01*
X42000Y970471D01*
X42000Y969529D01*
X982000Y469529D02*
X981926Y468588D01*
X981779Y467657D01*
X981558Y466740D01*
X981267Y465843D01*
X980906Y464972D01*
X980478Y464132D01*
X979985Y463328D01*
X979431Y462565D01*
X978819Y461848D01*
X978152Y461181D01*
X977435Y460569D01*
X976672Y460015D01*
X975868Y459522D01*
X975028Y459094D01*
X974157Y458733D01*
X973260Y458442D01*
X972343Y458222D01*
X971412Y458074D01*
X970471Y458000D01*
X969529Y458000D01*
X968588Y458074D01*
X967657Y458222D01*
X966740Y458442D01*
X965843Y458733D01*
X964972Y459094D01*
X964132Y459522D01*
X963328Y460015D01*
X962565Y460569D01*
X961848Y461181D01*
X961181Y461848D01*
X960569Y462565D01*
X960015Y463328D01*
X959522Y464132D01*
X959094Y464972D01*
X958733Y465843D01*
X958442Y466740D01*
X958222Y467657D01*
X958074Y468588D01*
X958000Y469529D01*
X958000Y470471D01*
X958074Y471412D01*
X958222Y472343D01*
X958442Y473260D01*
X958733Y474157D01*
X959094Y475028D01*
X959522Y475868D01*
X960015Y476672D01*
X960569Y477435D01*
X961181Y478152D01*
X961848Y478819D01*
X962565Y479431D01*
X963328Y479985D01*
X964132Y480478D01*
X964972Y480906D01*
X965843Y481267D01*
X966740Y481558D01*
X967657Y481779D01*
X968588Y481926D01*
X969529Y482000D01*
X970471Y482000D01*
X971412Y481926D01*
X972343Y481779D01*
X973260Y481558D01*
X974157Y481267D01*
X975028Y480906D01*
X975868Y480478D01*
X976672Y479985D01*
X977435Y479431D01*
X978152Y478819D01*
X978819Y478152D01*
X979431Y477435D01*
X979985Y476672D01*
X980478Y475868D01*
X980906Y475028D01*
X981267Y474157D01*
X981558Y473260D01*
X981779Y472343D01*
X981926Y471412D01*
X982000Y470471D01*
X982000Y469529D01*
X542000Y469529D02*
X541926Y468588D01*
X541779Y467657D01*
X541558Y466740D01*
X541267Y465843D01*
X540906Y464972D01*
X540478Y464132D01*
X539985Y463328D01*
X539431Y462565D01*
X538819Y461848D01*
X538152Y461181D01*
X537435Y460569D01*
X536672Y460015D01*
X535868Y459522D01*
X535028Y459094D01*
X534157Y458733D01*
X533260Y458442D01*
X532343Y458222D01*
X531412Y458074D01*
X530471Y458000D01*
X529529Y458000D01*
X528588Y458074D01*
X527657Y458222D01*
X526740Y458442D01*
X525843Y458733D01*
X524972Y459094D01*
X524132Y459522D01*
X523328Y460015D01*
X522565Y460569D01*
X521848Y461181D01*
X521181Y461848D01*
X520569Y462565D01*
X520015Y463328D01*
X519522Y464132D01*
X519094Y464972D01*
X518733Y465843D01*
X518442Y466740D01*
X518222Y467657D01*
X518074Y468588D01*
X518000Y469529D01*
X518000Y470471D01*
X518074Y471412D01*
X518222Y472343D01*
X518442Y473260D01*
X518733Y474157D01*
X519094Y475028D01*
X519522Y475868D01*
X520015Y476672D01*
X520569Y477435D01*
X521181Y478152D01*
X521848Y478819D01*
X522565Y479431D01*
X523328Y479985D01*
X524132Y480478D01*
X524972Y480906D01*
X525843Y481267D01*
X526740Y481558D01*
X527657Y481779D01*
X528588Y481926D01*
X529529Y482000D01*
X530471Y482000D01*
X531412Y481926D01*
X532343Y481779D01*
X533260Y481558D01*
X534157Y481267D01*
X535028Y480906D01*
X535868Y480478D01*
X536672Y479985D01*
X537435Y479431D01*
X538152Y478819D01*
X538819Y478152D01*
X539431Y477435D01*
X539985Y476672D01*
X540478Y475868D01*
X540906Y475028D01*
X541267Y474157D01*
X541558Y473260D01*
X541779Y472343D01*
X541926Y471412D01*
X542000Y470471D01*
X542000Y469529D01*
X982000Y969529D02*
X981926Y968588D01*
X981779Y967657D01*
X981558Y966740D01*
X981267Y965843D01*
X980906Y964972D01*
X980478Y964132D01*
X979985Y963328D01*
X979431Y962565D01*
X978819Y961848D01*
X978152Y961181D01*
X977435Y960569D01*
X976672Y960015D01*
X975868Y959522D01*
X975028Y959094D01*
X974157Y958733D01*
X973260Y958442D01*
X972343Y958222D01*
X971412Y958074D01*
X970471Y958000D01*
X969529Y958000D01*
X968588Y958074D01*
X967657Y958222D01*
X966740Y958442D01*
X965843Y958733D01*
X964972Y959094D01*
X964132Y959522D01*
X963328Y960015D01*
X962565Y960569D01*
X961848Y961181D01*
X961181Y961848D01*
X960569Y962565D01*
X960015Y963328D01*
X959522Y964132D01*
X959094Y964972D01*
X958733Y965843D01*
X958442Y966740D01*
X958222Y967657D01*
X958074Y968588D01*
X958000Y969529D01*
X958000Y970471D01*
X958074Y971412D01*
X958222Y972343D01*
X958442Y973260D01*
X958733Y974157D01*
X959094Y975028D01*
X959522Y975868D01*
X960015Y976672D01*
X960569Y977435D01*
X961181Y978152D01*
X961848Y978819D01*
X962565Y979431D01*
X963328Y979985D01*
X964132Y980478D01*
X964972Y980906D01*
X965843Y981267D01*
X966740Y981558D01*
X967657Y981779D01*
X968588Y981926D01*
X969529Y982000D01*
X970471Y982000D01*
X971412Y981926D01*
X972343Y981779D01*
X973260Y981558D01*
X974157Y981267D01*
X975028Y980906D01*
X975868Y980478D01*
X976672Y979985D01*
X977435Y979431D01*
X978152Y978819D01*
X978819Y978152D01*
X979431Y977435D01*
X979985Y976672D01*
X980478Y975868D01*
X980906Y975028D01*
X981267Y974157D01*
X981558Y973260D01*
X981779Y972343D01*
X981926Y971412D01*
X982000Y970471D01*
X982000Y969529D01*
X542000Y969529D02*
X541926Y968588D01*
X541779Y967657D01*
X541558Y966740D01*
X541267Y965843D01*
X540906Y964972D01*
X540478Y964132D01*
X539985Y963328D01*
X539431Y962565D01*
X538819Y961848D01*
X538152Y961181D01*
X537435Y960569D01*
X536672Y960015D01*
X535868Y959522D01*
X535028Y959094D01*
X534157Y958733D01*
X533260Y958442D01*
X532343Y958222D01*
X531412Y958074D01*
X530471Y958000D01*
X529529Y958000D01*
X528588Y958074D01*
X527657Y958222D01*
X526740Y958442D01*
X525843Y958733D01*
X524972Y959094D01*
X524132Y959522D01*
X523328Y960015D01*
X522565Y960569D01*
X521848Y961181D01*
X521181Y961848D01*
X520569Y962565D01*
X520015Y963328D01*
X519522Y964132D01*
X519094Y964972D01*
X518733Y965843D01*
X518442Y966740D01*
X518222Y967657D01*
X518074Y968588D01*
X518000Y969529D01*
X518000Y970471D01*
X518074Y971412D01*
X518222Y972343D01*
X518442Y973260D01*
X518733Y974157D01*
X519094Y975028D01*
X519522Y975868D01*
X520015Y976672D01*
X520569Y977435D01*
X521181Y978152D01*
X521848Y978819D01*
X522565Y979431D01*
X523328Y979985D01*
X524132Y980478D01*
X524972Y980906D01*
X525843Y981267D01*
X526740Y981558D01*
X527657Y981779D01*
X528588Y981926D01*
X529529Y982000D01*
X530471Y982000D01*
X531412Y981926D01*
X532343Y981779D01*
X533260Y981558D01*
X534157Y981267D01*
X535028Y980906D01*
X535868Y980478D01*
X536672Y979985D01*
X537435Y979431D01*
X538152Y978819D01*
X538819Y978152D01*
X539431Y977435D01*
X539985Y976672D01*
X540478Y975868D01*
X540906Y975028D01*
X541267Y974157D01*
X541558Y973260D01*
X541779Y972343D01*
X541926Y971412D01*
X542000Y970471D01*
X542000Y969529D01*
M02*
