G04 EAGLE Gerber RS-274X export*
G75*
%MOMM*%
%FSLAX34Y34*%
%LPD*%
%INSoldermask Top*%
%IPPOS*%
%AMOC8*
5,1,8,0,0,1.08239X$1,22.5*%
G01*
%ADD10R,2.200000X2.200000*%
%ADD11C,2.200000*%
%ADD12R,2.000000X2.000000*%
%ADD13C,2.000000*%
%ADD14R,2.130400X2.130400*%
%ADD15C,2.130400*%
%ADD16R,1.812800X1.812800*%
%ADD17C,1.812800*%
%ADD18C,2.600000*%

G36*
X599020Y954242D02*
X599020Y954242D01*
X599039Y954240D01*
X599141Y954262D01*
X599243Y954279D01*
X599260Y954288D01*
X599280Y954292D01*
X599369Y954345D01*
X599460Y954394D01*
X599474Y954408D01*
X599491Y954418D01*
X599558Y954497D01*
X599630Y954572D01*
X599638Y954590D01*
X599651Y954605D01*
X599690Y954701D01*
X599733Y954795D01*
X599735Y954815D01*
X599743Y954833D01*
X599761Y955000D01*
X599761Y989000D01*
X599758Y989020D01*
X599760Y989039D01*
X599738Y989141D01*
X599722Y989243D01*
X599712Y989260D01*
X599708Y989280D01*
X599655Y989369D01*
X599606Y989460D01*
X599592Y989474D01*
X599582Y989491D01*
X599503Y989558D01*
X599428Y989630D01*
X599410Y989638D01*
X599395Y989651D01*
X599299Y989690D01*
X599205Y989733D01*
X599185Y989735D01*
X599167Y989743D01*
X599000Y989761D01*
X565000Y989761D01*
X564980Y989758D01*
X564961Y989760D01*
X564859Y989738D01*
X564757Y989722D01*
X564740Y989712D01*
X564720Y989708D01*
X564631Y989655D01*
X564540Y989606D01*
X564526Y989592D01*
X564509Y989582D01*
X564442Y989503D01*
X564371Y989428D01*
X564362Y989410D01*
X564349Y989395D01*
X564310Y989299D01*
X564267Y989205D01*
X564265Y989185D01*
X564257Y989167D01*
X564239Y989000D01*
X564239Y955000D01*
X564242Y954980D01*
X564240Y954961D01*
X564262Y954859D01*
X564279Y954757D01*
X564288Y954740D01*
X564292Y954720D01*
X564345Y954631D01*
X564394Y954540D01*
X564408Y954526D01*
X564418Y954509D01*
X564497Y954442D01*
X564572Y954371D01*
X564590Y954362D01*
X564605Y954349D01*
X564701Y954310D01*
X564795Y954267D01*
X564815Y954265D01*
X564833Y954257D01*
X565000Y954239D01*
X599000Y954239D01*
X599020Y954242D01*
G37*
G36*
X99020Y954242D02*
X99020Y954242D01*
X99039Y954240D01*
X99141Y954262D01*
X99243Y954279D01*
X99260Y954288D01*
X99280Y954292D01*
X99369Y954345D01*
X99460Y954394D01*
X99474Y954408D01*
X99491Y954418D01*
X99558Y954497D01*
X99630Y954572D01*
X99638Y954590D01*
X99651Y954605D01*
X99690Y954701D01*
X99733Y954795D01*
X99735Y954815D01*
X99743Y954833D01*
X99761Y955000D01*
X99761Y989000D01*
X99758Y989020D01*
X99760Y989039D01*
X99738Y989141D01*
X99722Y989243D01*
X99712Y989260D01*
X99708Y989280D01*
X99655Y989369D01*
X99606Y989460D01*
X99592Y989474D01*
X99582Y989491D01*
X99503Y989558D01*
X99428Y989630D01*
X99410Y989638D01*
X99395Y989651D01*
X99299Y989690D01*
X99205Y989733D01*
X99185Y989735D01*
X99167Y989743D01*
X99000Y989761D01*
X65000Y989761D01*
X64980Y989758D01*
X64961Y989760D01*
X64859Y989738D01*
X64757Y989722D01*
X64740Y989712D01*
X64720Y989708D01*
X64631Y989655D01*
X64540Y989606D01*
X64526Y989592D01*
X64509Y989582D01*
X64442Y989503D01*
X64371Y989428D01*
X64362Y989410D01*
X64349Y989395D01*
X64310Y989299D01*
X64267Y989205D01*
X64265Y989185D01*
X64257Y989167D01*
X64239Y989000D01*
X64239Y955000D01*
X64242Y954980D01*
X64240Y954961D01*
X64262Y954859D01*
X64279Y954757D01*
X64288Y954740D01*
X64292Y954720D01*
X64345Y954631D01*
X64394Y954540D01*
X64408Y954526D01*
X64418Y954509D01*
X64497Y954442D01*
X64572Y954371D01*
X64590Y954362D01*
X64605Y954349D01*
X64701Y954310D01*
X64795Y954267D01*
X64815Y954265D01*
X64833Y954257D01*
X65000Y954239D01*
X99000Y954239D01*
X99020Y954242D01*
G37*
G36*
X599020Y454242D02*
X599020Y454242D01*
X599039Y454240D01*
X599141Y454262D01*
X599243Y454279D01*
X599260Y454288D01*
X599280Y454292D01*
X599369Y454345D01*
X599460Y454394D01*
X599474Y454408D01*
X599491Y454418D01*
X599558Y454497D01*
X599630Y454572D01*
X599638Y454590D01*
X599651Y454605D01*
X599690Y454701D01*
X599733Y454795D01*
X599735Y454815D01*
X599743Y454833D01*
X599761Y455000D01*
X599761Y489000D01*
X599758Y489020D01*
X599760Y489039D01*
X599738Y489141D01*
X599722Y489243D01*
X599712Y489260D01*
X599708Y489280D01*
X599655Y489369D01*
X599606Y489460D01*
X599592Y489474D01*
X599582Y489491D01*
X599503Y489558D01*
X599428Y489630D01*
X599410Y489638D01*
X599395Y489651D01*
X599299Y489690D01*
X599205Y489733D01*
X599185Y489735D01*
X599167Y489743D01*
X599000Y489761D01*
X565000Y489761D01*
X564980Y489758D01*
X564961Y489760D01*
X564859Y489738D01*
X564757Y489722D01*
X564740Y489712D01*
X564720Y489708D01*
X564631Y489655D01*
X564540Y489606D01*
X564526Y489592D01*
X564509Y489582D01*
X564442Y489503D01*
X564371Y489428D01*
X564362Y489410D01*
X564349Y489395D01*
X564310Y489299D01*
X564267Y489205D01*
X564265Y489185D01*
X564257Y489167D01*
X564239Y489000D01*
X564239Y455000D01*
X564242Y454980D01*
X564240Y454961D01*
X564262Y454859D01*
X564279Y454757D01*
X564288Y454740D01*
X564292Y454720D01*
X564345Y454631D01*
X564394Y454540D01*
X564408Y454526D01*
X564418Y454509D01*
X564497Y454442D01*
X564572Y454371D01*
X564590Y454362D01*
X564605Y454349D01*
X564701Y454310D01*
X564795Y454267D01*
X564815Y454265D01*
X564833Y454257D01*
X565000Y454239D01*
X599000Y454239D01*
X599020Y454242D01*
G37*
G36*
X99020Y454242D02*
X99020Y454242D01*
X99039Y454240D01*
X99141Y454262D01*
X99243Y454279D01*
X99260Y454288D01*
X99280Y454292D01*
X99369Y454345D01*
X99460Y454394D01*
X99474Y454408D01*
X99491Y454418D01*
X99558Y454497D01*
X99630Y454572D01*
X99638Y454590D01*
X99651Y454605D01*
X99690Y454701D01*
X99733Y454795D01*
X99735Y454815D01*
X99743Y454833D01*
X99761Y455000D01*
X99761Y489000D01*
X99758Y489020D01*
X99760Y489039D01*
X99738Y489141D01*
X99722Y489243D01*
X99712Y489260D01*
X99708Y489280D01*
X99655Y489369D01*
X99606Y489460D01*
X99592Y489474D01*
X99582Y489491D01*
X99503Y489558D01*
X99428Y489630D01*
X99410Y489638D01*
X99395Y489651D01*
X99299Y489690D01*
X99205Y489733D01*
X99185Y489735D01*
X99167Y489743D01*
X99000Y489761D01*
X65000Y489761D01*
X64980Y489758D01*
X64961Y489760D01*
X64859Y489738D01*
X64757Y489722D01*
X64740Y489712D01*
X64720Y489708D01*
X64631Y489655D01*
X64540Y489606D01*
X64526Y489592D01*
X64509Y489582D01*
X64442Y489503D01*
X64371Y489428D01*
X64362Y489410D01*
X64349Y489395D01*
X64310Y489299D01*
X64267Y489205D01*
X64265Y489185D01*
X64257Y489167D01*
X64239Y489000D01*
X64239Y455000D01*
X64242Y454980D01*
X64240Y454961D01*
X64262Y454859D01*
X64279Y454757D01*
X64288Y454740D01*
X64292Y454720D01*
X64345Y454631D01*
X64394Y454540D01*
X64408Y454526D01*
X64418Y454509D01*
X64497Y454442D01*
X64572Y454371D01*
X64590Y454362D01*
X64605Y454349D01*
X64701Y454310D01*
X64795Y454267D01*
X64815Y454265D01*
X64833Y454257D01*
X65000Y454239D01*
X99000Y454239D01*
X99020Y454242D01*
G37*
D10*
X170000Y280000D03*
D11*
X170000Y330000D03*
D12*
X80000Y280000D03*
D13*
X80000Y330000D03*
D11*
X320000Y45000D03*
X220000Y45000D03*
X320000Y100000D03*
X220000Y100000D03*
X145000Y390000D03*
X45000Y390000D03*
X465000Y415000D03*
X365000Y415000D03*
D14*
X275000Y430000D03*
D15*
X250000Y430000D03*
X225000Y430000D03*
D12*
X405000Y325000D03*
D13*
X455000Y325000D03*
D10*
X325000Y325000D03*
D11*
X325000Y375000D03*
D16*
X211900Y201900D03*
D17*
X237300Y201900D03*
X237300Y278100D03*
X211900Y278100D03*
X262700Y201900D03*
X288100Y201900D03*
X262700Y278100D03*
X288100Y278100D03*
D10*
X245000Y145000D03*
D11*
X295000Y145000D03*
D10*
X395000Y190000D03*
D11*
X445000Y190000D03*
X345000Y190000D03*
X345000Y290000D03*
D13*
X285000Y350000D03*
X180000Y45000D03*
X200000Y140000D03*
X145000Y225000D03*
X230000Y350000D03*
X35000Y95000D03*
X160000Y430000D03*
X335000Y430000D03*
X410000Y245000D03*
X345000Y145000D03*
D18*
X470000Y470000D03*
X30000Y470000D03*
D12*
X25000Y25000D03*
D13*
X50000Y25000D03*
X75000Y25000D03*
X100000Y25000D03*
X125000Y25000D03*
D11*
X45000Y185000D03*
X145000Y185000D03*
D10*
X145000Y80000D03*
D11*
X145000Y130000D03*
D12*
X95000Y95000D03*
D13*
X95000Y120400D03*
D14*
X390000Y125000D03*
D15*
X415000Y125000D03*
X440000Y125000D03*
D11*
X455000Y70000D03*
X355000Y70000D03*
D10*
X170000Y780000D03*
D11*
X170000Y830000D03*
D12*
X80000Y780000D03*
D13*
X80000Y830000D03*
D11*
X320000Y545000D03*
X220000Y545000D03*
X320000Y600000D03*
X220000Y600000D03*
X145000Y890000D03*
X45000Y890000D03*
X465000Y915000D03*
X365000Y915000D03*
D14*
X275000Y930000D03*
D15*
X250000Y930000D03*
X225000Y930000D03*
D12*
X405000Y825000D03*
D13*
X455000Y825000D03*
D10*
X325000Y825000D03*
D11*
X325000Y875000D03*
D16*
X211900Y701900D03*
D17*
X237300Y701900D03*
X237300Y778100D03*
X211900Y778100D03*
X262700Y701900D03*
X288100Y701900D03*
X262700Y778100D03*
X288100Y778100D03*
D10*
X245000Y645000D03*
D11*
X295000Y645000D03*
D10*
X395000Y690000D03*
D11*
X445000Y690000D03*
X345000Y690000D03*
X345000Y790000D03*
D13*
X285000Y850000D03*
X180000Y545000D03*
X200000Y640000D03*
X145000Y725000D03*
X230000Y850000D03*
X35000Y595000D03*
X160000Y930000D03*
X335000Y930000D03*
X410000Y745000D03*
X345000Y645000D03*
D18*
X470000Y970000D03*
X30000Y970000D03*
D12*
X25000Y525000D03*
D13*
X50000Y525000D03*
X75000Y525000D03*
X100000Y525000D03*
X125000Y525000D03*
D11*
X45000Y685000D03*
X145000Y685000D03*
D10*
X145000Y580000D03*
D11*
X145000Y630000D03*
D12*
X95000Y595000D03*
D13*
X95000Y620400D03*
D14*
X390000Y625000D03*
D15*
X415000Y625000D03*
X440000Y625000D03*
D11*
X455000Y570000D03*
X355000Y570000D03*
D10*
X670000Y280000D03*
D11*
X670000Y330000D03*
D12*
X580000Y280000D03*
D13*
X580000Y330000D03*
D11*
X820000Y45000D03*
X720000Y45000D03*
X820000Y100000D03*
X720000Y100000D03*
X645000Y390000D03*
X545000Y390000D03*
X965000Y415000D03*
X865000Y415000D03*
D14*
X775000Y430000D03*
D15*
X750000Y430000D03*
X725000Y430000D03*
D12*
X905000Y325000D03*
D13*
X955000Y325000D03*
D10*
X825000Y325000D03*
D11*
X825000Y375000D03*
D16*
X711900Y201900D03*
D17*
X737300Y201900D03*
X737300Y278100D03*
X711900Y278100D03*
X762700Y201900D03*
X788100Y201900D03*
X762700Y278100D03*
X788100Y278100D03*
D10*
X745000Y145000D03*
D11*
X795000Y145000D03*
D10*
X895000Y190000D03*
D11*
X945000Y190000D03*
X845000Y190000D03*
X845000Y290000D03*
D13*
X785000Y350000D03*
X680000Y45000D03*
X700000Y140000D03*
X645000Y225000D03*
X730000Y350000D03*
X535000Y95000D03*
X660000Y430000D03*
X835000Y430000D03*
X910000Y245000D03*
X845000Y145000D03*
D18*
X970000Y470000D03*
X530000Y470000D03*
D12*
X525000Y25000D03*
D13*
X550000Y25000D03*
X575000Y25000D03*
X600000Y25000D03*
X625000Y25000D03*
D11*
X545000Y185000D03*
X645000Y185000D03*
D10*
X645000Y80000D03*
D11*
X645000Y130000D03*
D12*
X595000Y95000D03*
D13*
X595000Y120400D03*
D14*
X890000Y125000D03*
D15*
X915000Y125000D03*
X940000Y125000D03*
D11*
X955000Y70000D03*
X855000Y70000D03*
D10*
X670000Y780000D03*
D11*
X670000Y830000D03*
D12*
X580000Y780000D03*
D13*
X580000Y830000D03*
D11*
X820000Y545000D03*
X720000Y545000D03*
X820000Y600000D03*
X720000Y600000D03*
X645000Y890000D03*
X545000Y890000D03*
X965000Y915000D03*
X865000Y915000D03*
D14*
X775000Y930000D03*
D15*
X750000Y930000D03*
X725000Y930000D03*
D12*
X905000Y825000D03*
D13*
X955000Y825000D03*
D10*
X825000Y825000D03*
D11*
X825000Y875000D03*
D16*
X711900Y701900D03*
D17*
X737300Y701900D03*
X737300Y778100D03*
X711900Y778100D03*
X762700Y701900D03*
X788100Y701900D03*
X762700Y778100D03*
X788100Y778100D03*
D10*
X745000Y645000D03*
D11*
X795000Y645000D03*
D10*
X895000Y690000D03*
D11*
X945000Y690000D03*
X845000Y690000D03*
X845000Y790000D03*
D13*
X785000Y850000D03*
X680000Y545000D03*
X700000Y640000D03*
X645000Y725000D03*
X730000Y850000D03*
X535000Y595000D03*
X660000Y930000D03*
X835000Y930000D03*
X910000Y745000D03*
X845000Y645000D03*
D18*
X970000Y970000D03*
X530000Y970000D03*
D12*
X525000Y525000D03*
D13*
X550000Y525000D03*
X575000Y525000D03*
X600000Y525000D03*
X625000Y525000D03*
D11*
X545000Y685000D03*
X645000Y685000D03*
D10*
X645000Y580000D03*
D11*
X645000Y630000D03*
D12*
X595000Y595000D03*
D13*
X595000Y620400D03*
D14*
X890000Y625000D03*
D15*
X915000Y625000D03*
X940000Y625000D03*
D11*
X955000Y570000D03*
X855000Y570000D03*
M02*
