G04 EAGLE Gerber RS-274X export*
G75*
%MOMM*%
%FSLAX34Y34*%
%LPD*%
%INSoldermask Bottom*%
%IPPOS*%
%AMOC8*
5,1,8,0,0,1.08239X$1,22.5*%
G01*
%ADD10R,2.200000X2.200000*%
%ADD11C,2.200000*%
%ADD12R,2.000000X2.000000*%
%ADD13C,2.000000*%
%ADD14R,2.130400X2.130400*%
%ADD15C,2.130400*%
%ADD16R,1.812800X1.812800*%
%ADD17C,1.812800*%
%ADD18C,2.600000*%


D10*
X170000Y280000D03*
D11*
X170000Y330000D03*
D12*
X80000Y280000D03*
D13*
X80000Y330000D03*
D11*
X320000Y45000D03*
X220000Y45000D03*
X320000Y100000D03*
X220000Y100000D03*
X145000Y390000D03*
X45000Y390000D03*
X465000Y415000D03*
X365000Y415000D03*
D14*
X275000Y430000D03*
D15*
X250000Y430000D03*
X225000Y430000D03*
D12*
X405000Y325000D03*
D13*
X455000Y325000D03*
D10*
X325000Y325000D03*
D11*
X325000Y375000D03*
D16*
X211900Y201900D03*
D17*
X237300Y201900D03*
X237300Y278100D03*
X211900Y278100D03*
X262700Y201900D03*
X288100Y201900D03*
X262700Y278100D03*
X288100Y278100D03*
D10*
X245000Y145000D03*
D11*
X295000Y145000D03*
D10*
X395000Y190000D03*
D11*
X445000Y190000D03*
X345000Y190000D03*
X345000Y290000D03*
D13*
X285000Y350000D03*
X180000Y45000D03*
X200000Y140000D03*
X145000Y225000D03*
X230000Y350000D03*
X35000Y95000D03*
X160000Y430000D03*
X335000Y430000D03*
X410000Y245000D03*
X345000Y145000D03*
D18*
X470000Y470000D03*
X30000Y470000D03*
D12*
X25000Y25000D03*
D13*
X50000Y25000D03*
X75000Y25000D03*
X100000Y25000D03*
X125000Y25000D03*
D11*
X45000Y185000D03*
X145000Y185000D03*
D10*
X145000Y80000D03*
D11*
X145000Y130000D03*
D12*
X95000Y95000D03*
D13*
X95000Y120400D03*
D14*
X390000Y125000D03*
D15*
X415000Y125000D03*
X440000Y125000D03*
D11*
X455000Y70000D03*
X355000Y70000D03*
D10*
X170000Y780000D03*
D11*
X170000Y830000D03*
D12*
X80000Y780000D03*
D13*
X80000Y830000D03*
D11*
X320000Y545000D03*
X220000Y545000D03*
X320000Y600000D03*
X220000Y600000D03*
X145000Y890000D03*
X45000Y890000D03*
X465000Y915000D03*
X365000Y915000D03*
D14*
X275000Y930000D03*
D15*
X250000Y930000D03*
X225000Y930000D03*
D12*
X405000Y825000D03*
D13*
X455000Y825000D03*
D10*
X325000Y825000D03*
D11*
X325000Y875000D03*
D16*
X211900Y701900D03*
D17*
X237300Y701900D03*
X237300Y778100D03*
X211900Y778100D03*
X262700Y701900D03*
X288100Y701900D03*
X262700Y778100D03*
X288100Y778100D03*
D10*
X245000Y645000D03*
D11*
X295000Y645000D03*
D10*
X395000Y690000D03*
D11*
X445000Y690000D03*
X345000Y690000D03*
X345000Y790000D03*
D13*
X285000Y850000D03*
X180000Y545000D03*
X200000Y640000D03*
X145000Y725000D03*
X230000Y850000D03*
X35000Y595000D03*
X160000Y930000D03*
X335000Y930000D03*
X410000Y745000D03*
X345000Y645000D03*
D18*
X470000Y970000D03*
X30000Y970000D03*
D12*
X25000Y525000D03*
D13*
X50000Y525000D03*
X75000Y525000D03*
X100000Y525000D03*
X125000Y525000D03*
D11*
X45000Y685000D03*
X145000Y685000D03*
D10*
X145000Y580000D03*
D11*
X145000Y630000D03*
D12*
X95000Y595000D03*
D13*
X95000Y620400D03*
D14*
X390000Y625000D03*
D15*
X415000Y625000D03*
X440000Y625000D03*
D11*
X455000Y570000D03*
X355000Y570000D03*
D10*
X670000Y280000D03*
D11*
X670000Y330000D03*
D12*
X580000Y280000D03*
D13*
X580000Y330000D03*
D11*
X820000Y45000D03*
X720000Y45000D03*
X820000Y100000D03*
X720000Y100000D03*
X645000Y390000D03*
X545000Y390000D03*
X965000Y415000D03*
X865000Y415000D03*
D14*
X775000Y430000D03*
D15*
X750000Y430000D03*
X725000Y430000D03*
D12*
X905000Y325000D03*
D13*
X955000Y325000D03*
D10*
X825000Y325000D03*
D11*
X825000Y375000D03*
D16*
X711900Y201900D03*
D17*
X737300Y201900D03*
X737300Y278100D03*
X711900Y278100D03*
X762700Y201900D03*
X788100Y201900D03*
X762700Y278100D03*
X788100Y278100D03*
D10*
X745000Y145000D03*
D11*
X795000Y145000D03*
D10*
X895000Y190000D03*
D11*
X945000Y190000D03*
X845000Y190000D03*
X845000Y290000D03*
D13*
X785000Y350000D03*
X680000Y45000D03*
X700000Y140000D03*
X645000Y225000D03*
X730000Y350000D03*
X535000Y95000D03*
X660000Y430000D03*
X835000Y430000D03*
X910000Y245000D03*
X845000Y145000D03*
D18*
X970000Y470000D03*
X530000Y470000D03*
D12*
X525000Y25000D03*
D13*
X550000Y25000D03*
X575000Y25000D03*
X600000Y25000D03*
X625000Y25000D03*
D11*
X545000Y185000D03*
X645000Y185000D03*
D10*
X645000Y80000D03*
D11*
X645000Y130000D03*
D12*
X595000Y95000D03*
D13*
X595000Y120400D03*
D14*
X890000Y125000D03*
D15*
X915000Y125000D03*
X940000Y125000D03*
D11*
X955000Y70000D03*
X855000Y70000D03*
D10*
X670000Y780000D03*
D11*
X670000Y830000D03*
D12*
X580000Y780000D03*
D13*
X580000Y830000D03*
D11*
X820000Y545000D03*
X720000Y545000D03*
X820000Y600000D03*
X720000Y600000D03*
X645000Y890000D03*
X545000Y890000D03*
X965000Y915000D03*
X865000Y915000D03*
D14*
X775000Y930000D03*
D15*
X750000Y930000D03*
X725000Y930000D03*
D12*
X905000Y825000D03*
D13*
X955000Y825000D03*
D10*
X825000Y825000D03*
D11*
X825000Y875000D03*
D16*
X711900Y701900D03*
D17*
X737300Y701900D03*
X737300Y778100D03*
X711900Y778100D03*
X762700Y701900D03*
X788100Y701900D03*
X762700Y778100D03*
X788100Y778100D03*
D10*
X745000Y645000D03*
D11*
X795000Y645000D03*
D10*
X895000Y690000D03*
D11*
X945000Y690000D03*
X845000Y690000D03*
X845000Y790000D03*
D13*
X785000Y850000D03*
X680000Y545000D03*
X700000Y640000D03*
X645000Y725000D03*
X730000Y850000D03*
X535000Y595000D03*
X660000Y930000D03*
X835000Y930000D03*
X910000Y745000D03*
X845000Y645000D03*
D18*
X970000Y970000D03*
X530000Y970000D03*
D12*
X525000Y525000D03*
D13*
X550000Y525000D03*
X575000Y525000D03*
X600000Y525000D03*
X625000Y525000D03*
D11*
X545000Y685000D03*
X645000Y685000D03*
D10*
X645000Y580000D03*
D11*
X645000Y630000D03*
D12*
X595000Y595000D03*
D13*
X595000Y620400D03*
D14*
X890000Y625000D03*
D15*
X915000Y625000D03*
X940000Y625000D03*
D11*
X955000Y570000D03*
X855000Y570000D03*
M02*
