G75*
G70*
%OFA0B0*%
%FSLAX24Y24*%
%IPPOS*%
%LPD*%
%AMOC8*
5,1,8,0,0,1.08239X$1,22.5*
%
%ADD10C,0.0000*%
%ADD11C,0.0051*%
%ADD12C,0.0110*%
D10*
X022331Y006913D02*
X022331Y044913D01*
X004331Y042913D02*
X040331Y042913D01*
X040331Y024913D02*
X004331Y024913D01*
D11*
X004331Y006913D02*
X004331Y000126D01*
X004331Y000913D02*
X005355Y000811D01*
X005355Y000787D02*
X004331Y000913D01*
X005355Y001015D01*
X005355Y001039D02*
X005355Y000787D01*
X005355Y000862D02*
X004331Y000913D01*
X005355Y000964D01*
X005355Y001039D02*
X004331Y000913D01*
X022331Y000913D01*
X021307Y000811D01*
X021307Y000787D02*
X022331Y000913D01*
X021307Y001015D01*
X021307Y001039D02*
X021307Y000787D01*
X021307Y000862D02*
X022331Y000913D01*
X021307Y000964D01*
X021307Y001039D02*
X022331Y000913D01*
X022331Y000126D02*
X022331Y006913D01*
X004331Y006913D02*
X001544Y006913D01*
X002331Y006913D02*
X002229Y007937D01*
X002205Y007937D02*
X002457Y007937D01*
X002331Y006913D01*
X002433Y007937D01*
X002382Y007937D02*
X002331Y006913D01*
X002280Y007937D01*
X002205Y007937D02*
X002331Y006913D01*
X002331Y024913D01*
X002433Y023889D01*
X002457Y023889D02*
X002331Y024913D01*
X002229Y023889D01*
X002205Y023889D02*
X002457Y023889D01*
X002382Y023889D02*
X002331Y024913D01*
X002280Y023889D01*
X002205Y023889D02*
X002331Y024913D01*
X001544Y024913D02*
X004331Y024913D01*
D12*
X001882Y020189D02*
X001248Y020189D01*
X001036Y019978D01*
X001036Y019555D01*
X001248Y019343D01*
X001036Y018920D02*
X001036Y018286D01*
X001248Y018074D01*
X001671Y018074D01*
X001882Y018286D01*
X001882Y018920D01*
X001882Y019343D02*
X000613Y019343D01*
X001248Y017652D02*
X001882Y017652D01*
X001248Y017652D02*
X001036Y017440D01*
X001036Y016806D01*
X001882Y016806D01*
X001882Y016383D02*
X001882Y015960D01*
X001882Y016171D02*
X001036Y016171D01*
X001036Y015960D01*
X001036Y015537D02*
X001248Y015325D01*
X001248Y014902D01*
X001036Y014691D01*
X000825Y014691D01*
X000613Y014902D01*
X000613Y015325D01*
X000825Y015537D01*
X001036Y015537D01*
X001248Y015325D02*
X001459Y015537D01*
X001671Y015537D01*
X001882Y015325D01*
X001882Y014902D01*
X001671Y014691D01*
X001459Y014691D01*
X001248Y014902D01*
X001671Y014268D02*
X001882Y014268D01*
X001882Y014057D01*
X001671Y014057D01*
X001671Y014268D01*
X001882Y013634D02*
X001882Y012788D01*
X001882Y013211D02*
X000613Y013211D01*
X001036Y012788D01*
X000613Y016171D02*
X000402Y016171D01*
X010629Y002631D02*
X010629Y001362D01*
X010206Y001362D02*
X011052Y001362D01*
X011474Y001362D02*
X011686Y001362D01*
X011686Y001573D01*
X011474Y001573D01*
X011474Y001362D01*
X012109Y001573D02*
X012109Y001785D01*
X012320Y001996D01*
X012743Y001996D01*
X012955Y001785D01*
X012955Y001573D01*
X012743Y001362D01*
X012320Y001362D01*
X012109Y001573D01*
X012320Y001996D02*
X012109Y002208D01*
X012109Y002419D01*
X012320Y002631D01*
X012743Y002631D01*
X012955Y002419D01*
X012955Y002208D01*
X012743Y001996D01*
X013378Y002208D02*
X013589Y002208D01*
X013589Y001362D01*
X013378Y001362D02*
X013801Y001362D01*
X014224Y001362D02*
X014224Y002208D01*
X014858Y002208D01*
X015070Y001996D01*
X015070Y001362D01*
X015492Y001573D02*
X015492Y001996D01*
X015704Y002208D01*
X016338Y002208D01*
X016761Y001996D02*
X016973Y002208D01*
X017396Y002208D01*
X017607Y001996D01*
X017607Y001362D01*
X016761Y001362D02*
X016761Y002631D01*
X016338Y001362D02*
X015704Y001362D01*
X015492Y001573D01*
X013589Y002631D02*
X013589Y002842D01*
X010629Y002631D02*
X010206Y002208D01*
M02*
