G75*
%MOIN*%
%OFA0B0*%
%FSLAX25Y25*%
%IPPOS*%
%LPD*%
%AMOC8*
5,1,8,0,0,1.08239X$1,22.5*
%
%ADD10C,0.00000*%
%ADD11C,0.00984*%
D10*
X0005000Y0005000D02*
X0398701Y0005000D01*
X0398701Y0398701D01*
X0005000Y0398701D01*
X0005000Y0005000D01*
X0010119Y0192008D02*
X0010121Y0192145D01*
X0010127Y0192283D01*
X0010137Y0192420D01*
X0010151Y0192556D01*
X0010169Y0192693D01*
X0010191Y0192828D01*
X0010217Y0192963D01*
X0010246Y0193097D01*
X0010280Y0193231D01*
X0010317Y0193363D01*
X0010359Y0193494D01*
X0010404Y0193624D01*
X0010453Y0193752D01*
X0010505Y0193879D01*
X0010562Y0194004D01*
X0010621Y0194128D01*
X0010685Y0194250D01*
X0010752Y0194370D01*
X0010822Y0194488D01*
X0010896Y0194604D01*
X0010973Y0194718D01*
X0011054Y0194829D01*
X0011137Y0194938D01*
X0011224Y0195045D01*
X0011314Y0195148D01*
X0011407Y0195250D01*
X0011503Y0195348D01*
X0011601Y0195444D01*
X0011703Y0195537D01*
X0011806Y0195627D01*
X0011913Y0195714D01*
X0012022Y0195797D01*
X0012133Y0195878D01*
X0012247Y0195955D01*
X0012363Y0196029D01*
X0012481Y0196099D01*
X0012601Y0196166D01*
X0012723Y0196230D01*
X0012847Y0196289D01*
X0012972Y0196346D01*
X0013099Y0196398D01*
X0013227Y0196447D01*
X0013357Y0196492D01*
X0013488Y0196534D01*
X0013620Y0196571D01*
X0013754Y0196605D01*
X0013888Y0196634D01*
X0014023Y0196660D01*
X0014158Y0196682D01*
X0014295Y0196700D01*
X0014431Y0196714D01*
X0014568Y0196724D01*
X0014706Y0196730D01*
X0014843Y0196732D01*
X0014980Y0196730D01*
X0015118Y0196724D01*
X0015255Y0196714D01*
X0015391Y0196700D01*
X0015528Y0196682D01*
X0015663Y0196660D01*
X0015798Y0196634D01*
X0015932Y0196605D01*
X0016066Y0196571D01*
X0016198Y0196534D01*
X0016329Y0196492D01*
X0016459Y0196447D01*
X0016587Y0196398D01*
X0016714Y0196346D01*
X0016839Y0196289D01*
X0016963Y0196230D01*
X0017085Y0196166D01*
X0017205Y0196099D01*
X0017323Y0196029D01*
X0017439Y0195955D01*
X0017553Y0195878D01*
X0017664Y0195797D01*
X0017773Y0195714D01*
X0017880Y0195627D01*
X0017983Y0195537D01*
X0018085Y0195444D01*
X0018183Y0195348D01*
X0018279Y0195250D01*
X0018372Y0195148D01*
X0018462Y0195045D01*
X0018549Y0194938D01*
X0018632Y0194829D01*
X0018713Y0194718D01*
X0018790Y0194604D01*
X0018864Y0194488D01*
X0018934Y0194370D01*
X0019001Y0194250D01*
X0019065Y0194128D01*
X0019124Y0194004D01*
X0019181Y0193879D01*
X0019233Y0193752D01*
X0019282Y0193624D01*
X0019327Y0193494D01*
X0019369Y0193363D01*
X0019406Y0193231D01*
X0019440Y0193097D01*
X0019469Y0192963D01*
X0019495Y0192828D01*
X0019517Y0192693D01*
X0019535Y0192556D01*
X0019549Y0192420D01*
X0019559Y0192283D01*
X0019565Y0192145D01*
X0019567Y0192008D01*
X0019565Y0191871D01*
X0019559Y0191733D01*
X0019549Y0191596D01*
X0019535Y0191460D01*
X0019517Y0191323D01*
X0019495Y0191188D01*
X0019469Y0191053D01*
X0019440Y0190919D01*
X0019406Y0190785D01*
X0019369Y0190653D01*
X0019327Y0190522D01*
X0019282Y0190392D01*
X0019233Y0190264D01*
X0019181Y0190137D01*
X0019124Y0190012D01*
X0019065Y0189888D01*
X0019001Y0189766D01*
X0018934Y0189646D01*
X0018864Y0189528D01*
X0018790Y0189412D01*
X0018713Y0189298D01*
X0018632Y0189187D01*
X0018549Y0189078D01*
X0018462Y0188971D01*
X0018372Y0188868D01*
X0018279Y0188766D01*
X0018183Y0188668D01*
X0018085Y0188572D01*
X0017983Y0188479D01*
X0017880Y0188389D01*
X0017773Y0188302D01*
X0017664Y0188219D01*
X0017553Y0188138D01*
X0017439Y0188061D01*
X0017323Y0187987D01*
X0017205Y0187917D01*
X0017085Y0187850D01*
X0016963Y0187786D01*
X0016839Y0187727D01*
X0016714Y0187670D01*
X0016587Y0187618D01*
X0016459Y0187569D01*
X0016329Y0187524D01*
X0016198Y0187482D01*
X0016066Y0187445D01*
X0015932Y0187411D01*
X0015798Y0187382D01*
X0015663Y0187356D01*
X0015528Y0187334D01*
X0015391Y0187316D01*
X0015255Y0187302D01*
X0015118Y0187292D01*
X0014980Y0187286D01*
X0014843Y0187284D01*
X0014706Y0187286D01*
X0014568Y0187292D01*
X0014431Y0187302D01*
X0014295Y0187316D01*
X0014158Y0187334D01*
X0014023Y0187356D01*
X0013888Y0187382D01*
X0013754Y0187411D01*
X0013620Y0187445D01*
X0013488Y0187482D01*
X0013357Y0187524D01*
X0013227Y0187569D01*
X0013099Y0187618D01*
X0012972Y0187670D01*
X0012847Y0187727D01*
X0012723Y0187786D01*
X0012601Y0187850D01*
X0012481Y0187917D01*
X0012363Y0187987D01*
X0012247Y0188061D01*
X0012133Y0188138D01*
X0012022Y0188219D01*
X0011913Y0188302D01*
X0011806Y0188389D01*
X0011703Y0188479D01*
X0011601Y0188572D01*
X0011503Y0188668D01*
X0011407Y0188766D01*
X0011314Y0188868D01*
X0011224Y0188971D01*
X0011137Y0189078D01*
X0011054Y0189187D01*
X0010973Y0189298D01*
X0010896Y0189412D01*
X0010822Y0189528D01*
X0010752Y0189646D01*
X0010685Y0189766D01*
X0010621Y0189888D01*
X0010562Y0190012D01*
X0010505Y0190137D01*
X0010453Y0190264D01*
X0010404Y0190392D01*
X0010359Y0190522D01*
X0010317Y0190653D01*
X0010280Y0190785D01*
X0010246Y0190919D01*
X0010217Y0191053D01*
X0010191Y0191188D01*
X0010169Y0191323D01*
X0010151Y0191460D01*
X0010137Y0191596D01*
X0010127Y0191733D01*
X0010121Y0191871D01*
X0010119Y0192008D01*
X0010119Y0388858D02*
X0010121Y0388995D01*
X0010127Y0389133D01*
X0010137Y0389270D01*
X0010151Y0389406D01*
X0010169Y0389543D01*
X0010191Y0389678D01*
X0010217Y0389813D01*
X0010246Y0389947D01*
X0010280Y0390081D01*
X0010317Y0390213D01*
X0010359Y0390344D01*
X0010404Y0390474D01*
X0010453Y0390602D01*
X0010505Y0390729D01*
X0010562Y0390854D01*
X0010621Y0390978D01*
X0010685Y0391100D01*
X0010752Y0391220D01*
X0010822Y0391338D01*
X0010896Y0391454D01*
X0010973Y0391568D01*
X0011054Y0391679D01*
X0011137Y0391788D01*
X0011224Y0391895D01*
X0011314Y0391998D01*
X0011407Y0392100D01*
X0011503Y0392198D01*
X0011601Y0392294D01*
X0011703Y0392387D01*
X0011806Y0392477D01*
X0011913Y0392564D01*
X0012022Y0392647D01*
X0012133Y0392728D01*
X0012247Y0392805D01*
X0012363Y0392879D01*
X0012481Y0392949D01*
X0012601Y0393016D01*
X0012723Y0393080D01*
X0012847Y0393139D01*
X0012972Y0393196D01*
X0013099Y0393248D01*
X0013227Y0393297D01*
X0013357Y0393342D01*
X0013488Y0393384D01*
X0013620Y0393421D01*
X0013754Y0393455D01*
X0013888Y0393484D01*
X0014023Y0393510D01*
X0014158Y0393532D01*
X0014295Y0393550D01*
X0014431Y0393564D01*
X0014568Y0393574D01*
X0014706Y0393580D01*
X0014843Y0393582D01*
X0014980Y0393580D01*
X0015118Y0393574D01*
X0015255Y0393564D01*
X0015391Y0393550D01*
X0015528Y0393532D01*
X0015663Y0393510D01*
X0015798Y0393484D01*
X0015932Y0393455D01*
X0016066Y0393421D01*
X0016198Y0393384D01*
X0016329Y0393342D01*
X0016459Y0393297D01*
X0016587Y0393248D01*
X0016714Y0393196D01*
X0016839Y0393139D01*
X0016963Y0393080D01*
X0017085Y0393016D01*
X0017205Y0392949D01*
X0017323Y0392879D01*
X0017439Y0392805D01*
X0017553Y0392728D01*
X0017664Y0392647D01*
X0017773Y0392564D01*
X0017880Y0392477D01*
X0017983Y0392387D01*
X0018085Y0392294D01*
X0018183Y0392198D01*
X0018279Y0392100D01*
X0018372Y0391998D01*
X0018462Y0391895D01*
X0018549Y0391788D01*
X0018632Y0391679D01*
X0018713Y0391568D01*
X0018790Y0391454D01*
X0018864Y0391338D01*
X0018934Y0391220D01*
X0019001Y0391100D01*
X0019065Y0390978D01*
X0019124Y0390854D01*
X0019181Y0390729D01*
X0019233Y0390602D01*
X0019282Y0390474D01*
X0019327Y0390344D01*
X0019369Y0390213D01*
X0019406Y0390081D01*
X0019440Y0389947D01*
X0019469Y0389813D01*
X0019495Y0389678D01*
X0019517Y0389543D01*
X0019535Y0389406D01*
X0019549Y0389270D01*
X0019559Y0389133D01*
X0019565Y0388995D01*
X0019567Y0388858D01*
X0019565Y0388721D01*
X0019559Y0388583D01*
X0019549Y0388446D01*
X0019535Y0388310D01*
X0019517Y0388173D01*
X0019495Y0388038D01*
X0019469Y0387903D01*
X0019440Y0387769D01*
X0019406Y0387635D01*
X0019369Y0387503D01*
X0019327Y0387372D01*
X0019282Y0387242D01*
X0019233Y0387114D01*
X0019181Y0386987D01*
X0019124Y0386862D01*
X0019065Y0386738D01*
X0019001Y0386616D01*
X0018934Y0386496D01*
X0018864Y0386378D01*
X0018790Y0386262D01*
X0018713Y0386148D01*
X0018632Y0386037D01*
X0018549Y0385928D01*
X0018462Y0385821D01*
X0018372Y0385718D01*
X0018279Y0385616D01*
X0018183Y0385518D01*
X0018085Y0385422D01*
X0017983Y0385329D01*
X0017880Y0385239D01*
X0017773Y0385152D01*
X0017664Y0385069D01*
X0017553Y0384988D01*
X0017439Y0384911D01*
X0017323Y0384837D01*
X0017205Y0384767D01*
X0017085Y0384700D01*
X0016963Y0384636D01*
X0016839Y0384577D01*
X0016714Y0384520D01*
X0016587Y0384468D01*
X0016459Y0384419D01*
X0016329Y0384374D01*
X0016198Y0384332D01*
X0016066Y0384295D01*
X0015932Y0384261D01*
X0015798Y0384232D01*
X0015663Y0384206D01*
X0015528Y0384184D01*
X0015391Y0384166D01*
X0015255Y0384152D01*
X0015118Y0384142D01*
X0014980Y0384136D01*
X0014843Y0384134D01*
X0014706Y0384136D01*
X0014568Y0384142D01*
X0014431Y0384152D01*
X0014295Y0384166D01*
X0014158Y0384184D01*
X0014023Y0384206D01*
X0013888Y0384232D01*
X0013754Y0384261D01*
X0013620Y0384295D01*
X0013488Y0384332D01*
X0013357Y0384374D01*
X0013227Y0384419D01*
X0013099Y0384468D01*
X0012972Y0384520D01*
X0012847Y0384577D01*
X0012723Y0384636D01*
X0012601Y0384700D01*
X0012481Y0384767D01*
X0012363Y0384837D01*
X0012247Y0384911D01*
X0012133Y0384988D01*
X0012022Y0385069D01*
X0011913Y0385152D01*
X0011806Y0385239D01*
X0011703Y0385329D01*
X0011601Y0385422D01*
X0011503Y0385518D01*
X0011407Y0385616D01*
X0011314Y0385718D01*
X0011224Y0385821D01*
X0011137Y0385928D01*
X0011054Y0386037D01*
X0010973Y0386148D01*
X0010896Y0386262D01*
X0010822Y0386378D01*
X0010752Y0386496D01*
X0010685Y0386616D01*
X0010621Y0386738D01*
X0010562Y0386862D01*
X0010505Y0386987D01*
X0010453Y0387114D01*
X0010404Y0387242D01*
X0010359Y0387372D01*
X0010317Y0387503D01*
X0010280Y0387635D01*
X0010246Y0387769D01*
X0010217Y0387903D01*
X0010191Y0388038D01*
X0010169Y0388173D01*
X0010151Y0388310D01*
X0010137Y0388446D01*
X0010127Y0388583D01*
X0010121Y0388721D01*
X0010119Y0388858D01*
X0384134Y0388858D02*
X0384136Y0388995D01*
X0384142Y0389133D01*
X0384152Y0389270D01*
X0384166Y0389406D01*
X0384184Y0389543D01*
X0384206Y0389678D01*
X0384232Y0389813D01*
X0384261Y0389947D01*
X0384295Y0390081D01*
X0384332Y0390213D01*
X0384374Y0390344D01*
X0384419Y0390474D01*
X0384468Y0390602D01*
X0384520Y0390729D01*
X0384577Y0390854D01*
X0384636Y0390978D01*
X0384700Y0391100D01*
X0384767Y0391220D01*
X0384837Y0391338D01*
X0384911Y0391454D01*
X0384988Y0391568D01*
X0385069Y0391679D01*
X0385152Y0391788D01*
X0385239Y0391895D01*
X0385329Y0391998D01*
X0385422Y0392100D01*
X0385518Y0392198D01*
X0385616Y0392294D01*
X0385718Y0392387D01*
X0385821Y0392477D01*
X0385928Y0392564D01*
X0386037Y0392647D01*
X0386148Y0392728D01*
X0386262Y0392805D01*
X0386378Y0392879D01*
X0386496Y0392949D01*
X0386616Y0393016D01*
X0386738Y0393080D01*
X0386862Y0393139D01*
X0386987Y0393196D01*
X0387114Y0393248D01*
X0387242Y0393297D01*
X0387372Y0393342D01*
X0387503Y0393384D01*
X0387635Y0393421D01*
X0387769Y0393455D01*
X0387903Y0393484D01*
X0388038Y0393510D01*
X0388173Y0393532D01*
X0388310Y0393550D01*
X0388446Y0393564D01*
X0388583Y0393574D01*
X0388721Y0393580D01*
X0388858Y0393582D01*
X0388995Y0393580D01*
X0389133Y0393574D01*
X0389270Y0393564D01*
X0389406Y0393550D01*
X0389543Y0393532D01*
X0389678Y0393510D01*
X0389813Y0393484D01*
X0389947Y0393455D01*
X0390081Y0393421D01*
X0390213Y0393384D01*
X0390344Y0393342D01*
X0390474Y0393297D01*
X0390602Y0393248D01*
X0390729Y0393196D01*
X0390854Y0393139D01*
X0390978Y0393080D01*
X0391100Y0393016D01*
X0391220Y0392949D01*
X0391338Y0392879D01*
X0391454Y0392805D01*
X0391568Y0392728D01*
X0391679Y0392647D01*
X0391788Y0392564D01*
X0391895Y0392477D01*
X0391998Y0392387D01*
X0392100Y0392294D01*
X0392198Y0392198D01*
X0392294Y0392100D01*
X0392387Y0391998D01*
X0392477Y0391895D01*
X0392564Y0391788D01*
X0392647Y0391679D01*
X0392728Y0391568D01*
X0392805Y0391454D01*
X0392879Y0391338D01*
X0392949Y0391220D01*
X0393016Y0391100D01*
X0393080Y0390978D01*
X0393139Y0390854D01*
X0393196Y0390729D01*
X0393248Y0390602D01*
X0393297Y0390474D01*
X0393342Y0390344D01*
X0393384Y0390213D01*
X0393421Y0390081D01*
X0393455Y0389947D01*
X0393484Y0389813D01*
X0393510Y0389678D01*
X0393532Y0389543D01*
X0393550Y0389406D01*
X0393564Y0389270D01*
X0393574Y0389133D01*
X0393580Y0388995D01*
X0393582Y0388858D01*
X0393580Y0388721D01*
X0393574Y0388583D01*
X0393564Y0388446D01*
X0393550Y0388310D01*
X0393532Y0388173D01*
X0393510Y0388038D01*
X0393484Y0387903D01*
X0393455Y0387769D01*
X0393421Y0387635D01*
X0393384Y0387503D01*
X0393342Y0387372D01*
X0393297Y0387242D01*
X0393248Y0387114D01*
X0393196Y0386987D01*
X0393139Y0386862D01*
X0393080Y0386738D01*
X0393016Y0386616D01*
X0392949Y0386496D01*
X0392879Y0386378D01*
X0392805Y0386262D01*
X0392728Y0386148D01*
X0392647Y0386037D01*
X0392564Y0385928D01*
X0392477Y0385821D01*
X0392387Y0385718D01*
X0392294Y0385616D01*
X0392198Y0385518D01*
X0392100Y0385422D01*
X0391998Y0385329D01*
X0391895Y0385239D01*
X0391788Y0385152D01*
X0391679Y0385069D01*
X0391568Y0384988D01*
X0391454Y0384911D01*
X0391338Y0384837D01*
X0391220Y0384767D01*
X0391100Y0384700D01*
X0390978Y0384636D01*
X0390854Y0384577D01*
X0390729Y0384520D01*
X0390602Y0384468D01*
X0390474Y0384419D01*
X0390344Y0384374D01*
X0390213Y0384332D01*
X0390081Y0384295D01*
X0389947Y0384261D01*
X0389813Y0384232D01*
X0389678Y0384206D01*
X0389543Y0384184D01*
X0389406Y0384166D01*
X0389270Y0384152D01*
X0389133Y0384142D01*
X0388995Y0384136D01*
X0388858Y0384134D01*
X0388721Y0384136D01*
X0388583Y0384142D01*
X0388446Y0384152D01*
X0388310Y0384166D01*
X0388173Y0384184D01*
X0388038Y0384206D01*
X0387903Y0384232D01*
X0387769Y0384261D01*
X0387635Y0384295D01*
X0387503Y0384332D01*
X0387372Y0384374D01*
X0387242Y0384419D01*
X0387114Y0384468D01*
X0386987Y0384520D01*
X0386862Y0384577D01*
X0386738Y0384636D01*
X0386616Y0384700D01*
X0386496Y0384767D01*
X0386378Y0384837D01*
X0386262Y0384911D01*
X0386148Y0384988D01*
X0386037Y0385069D01*
X0385928Y0385152D01*
X0385821Y0385239D01*
X0385718Y0385329D01*
X0385616Y0385422D01*
X0385518Y0385518D01*
X0385422Y0385616D01*
X0385329Y0385718D01*
X0385239Y0385821D01*
X0385152Y0385928D01*
X0385069Y0386037D01*
X0384988Y0386148D01*
X0384911Y0386262D01*
X0384837Y0386378D01*
X0384767Y0386496D01*
X0384700Y0386616D01*
X0384636Y0386738D01*
X0384577Y0386862D01*
X0384520Y0386987D01*
X0384468Y0387114D01*
X0384419Y0387242D01*
X0384374Y0387372D01*
X0384332Y0387503D01*
X0384295Y0387635D01*
X0384261Y0387769D01*
X0384232Y0387903D01*
X0384206Y0388038D01*
X0384184Y0388173D01*
X0384166Y0388310D01*
X0384152Y0388446D01*
X0384142Y0388583D01*
X0384136Y0388721D01*
X0384134Y0388858D01*
X0384134Y0192008D02*
X0384136Y0192145D01*
X0384142Y0192283D01*
X0384152Y0192420D01*
X0384166Y0192556D01*
X0384184Y0192693D01*
X0384206Y0192828D01*
X0384232Y0192963D01*
X0384261Y0193097D01*
X0384295Y0193231D01*
X0384332Y0193363D01*
X0384374Y0193494D01*
X0384419Y0193624D01*
X0384468Y0193752D01*
X0384520Y0193879D01*
X0384577Y0194004D01*
X0384636Y0194128D01*
X0384700Y0194250D01*
X0384767Y0194370D01*
X0384837Y0194488D01*
X0384911Y0194604D01*
X0384988Y0194718D01*
X0385069Y0194829D01*
X0385152Y0194938D01*
X0385239Y0195045D01*
X0385329Y0195148D01*
X0385422Y0195250D01*
X0385518Y0195348D01*
X0385616Y0195444D01*
X0385718Y0195537D01*
X0385821Y0195627D01*
X0385928Y0195714D01*
X0386037Y0195797D01*
X0386148Y0195878D01*
X0386262Y0195955D01*
X0386378Y0196029D01*
X0386496Y0196099D01*
X0386616Y0196166D01*
X0386738Y0196230D01*
X0386862Y0196289D01*
X0386987Y0196346D01*
X0387114Y0196398D01*
X0387242Y0196447D01*
X0387372Y0196492D01*
X0387503Y0196534D01*
X0387635Y0196571D01*
X0387769Y0196605D01*
X0387903Y0196634D01*
X0388038Y0196660D01*
X0388173Y0196682D01*
X0388310Y0196700D01*
X0388446Y0196714D01*
X0388583Y0196724D01*
X0388721Y0196730D01*
X0388858Y0196732D01*
X0388995Y0196730D01*
X0389133Y0196724D01*
X0389270Y0196714D01*
X0389406Y0196700D01*
X0389543Y0196682D01*
X0389678Y0196660D01*
X0389813Y0196634D01*
X0389947Y0196605D01*
X0390081Y0196571D01*
X0390213Y0196534D01*
X0390344Y0196492D01*
X0390474Y0196447D01*
X0390602Y0196398D01*
X0390729Y0196346D01*
X0390854Y0196289D01*
X0390978Y0196230D01*
X0391100Y0196166D01*
X0391220Y0196099D01*
X0391338Y0196029D01*
X0391454Y0195955D01*
X0391568Y0195878D01*
X0391679Y0195797D01*
X0391788Y0195714D01*
X0391895Y0195627D01*
X0391998Y0195537D01*
X0392100Y0195444D01*
X0392198Y0195348D01*
X0392294Y0195250D01*
X0392387Y0195148D01*
X0392477Y0195045D01*
X0392564Y0194938D01*
X0392647Y0194829D01*
X0392728Y0194718D01*
X0392805Y0194604D01*
X0392879Y0194488D01*
X0392949Y0194370D01*
X0393016Y0194250D01*
X0393080Y0194128D01*
X0393139Y0194004D01*
X0393196Y0193879D01*
X0393248Y0193752D01*
X0393297Y0193624D01*
X0393342Y0193494D01*
X0393384Y0193363D01*
X0393421Y0193231D01*
X0393455Y0193097D01*
X0393484Y0192963D01*
X0393510Y0192828D01*
X0393532Y0192693D01*
X0393550Y0192556D01*
X0393564Y0192420D01*
X0393574Y0192283D01*
X0393580Y0192145D01*
X0393582Y0192008D01*
X0393580Y0191871D01*
X0393574Y0191733D01*
X0393564Y0191596D01*
X0393550Y0191460D01*
X0393532Y0191323D01*
X0393510Y0191188D01*
X0393484Y0191053D01*
X0393455Y0190919D01*
X0393421Y0190785D01*
X0393384Y0190653D01*
X0393342Y0190522D01*
X0393297Y0190392D01*
X0393248Y0190264D01*
X0393196Y0190137D01*
X0393139Y0190012D01*
X0393080Y0189888D01*
X0393016Y0189766D01*
X0392949Y0189646D01*
X0392879Y0189528D01*
X0392805Y0189412D01*
X0392728Y0189298D01*
X0392647Y0189187D01*
X0392564Y0189078D01*
X0392477Y0188971D01*
X0392387Y0188868D01*
X0392294Y0188766D01*
X0392198Y0188668D01*
X0392100Y0188572D01*
X0391998Y0188479D01*
X0391895Y0188389D01*
X0391788Y0188302D01*
X0391679Y0188219D01*
X0391568Y0188138D01*
X0391454Y0188061D01*
X0391338Y0187987D01*
X0391220Y0187917D01*
X0391100Y0187850D01*
X0390978Y0187786D01*
X0390854Y0187727D01*
X0390729Y0187670D01*
X0390602Y0187618D01*
X0390474Y0187569D01*
X0390344Y0187524D01*
X0390213Y0187482D01*
X0390081Y0187445D01*
X0389947Y0187411D01*
X0389813Y0187382D01*
X0389678Y0187356D01*
X0389543Y0187334D01*
X0389406Y0187316D01*
X0389270Y0187302D01*
X0389133Y0187292D01*
X0388995Y0187286D01*
X0388858Y0187284D01*
X0388721Y0187286D01*
X0388583Y0187292D01*
X0388446Y0187302D01*
X0388310Y0187316D01*
X0388173Y0187334D01*
X0388038Y0187356D01*
X0387903Y0187382D01*
X0387769Y0187411D01*
X0387635Y0187445D01*
X0387503Y0187482D01*
X0387372Y0187524D01*
X0387242Y0187569D01*
X0387114Y0187618D01*
X0386987Y0187670D01*
X0386862Y0187727D01*
X0386738Y0187786D01*
X0386616Y0187850D01*
X0386496Y0187917D01*
X0386378Y0187987D01*
X0386262Y0188061D01*
X0386148Y0188138D01*
X0386037Y0188219D01*
X0385928Y0188302D01*
X0385821Y0188389D01*
X0385718Y0188479D01*
X0385616Y0188572D01*
X0385518Y0188668D01*
X0385422Y0188766D01*
X0385329Y0188868D01*
X0385239Y0188971D01*
X0385152Y0189078D01*
X0385069Y0189187D01*
X0384988Y0189298D01*
X0384911Y0189412D01*
X0384837Y0189528D01*
X0384767Y0189646D01*
X0384700Y0189766D01*
X0384636Y0189888D01*
X0384577Y0190012D01*
X0384520Y0190137D01*
X0384468Y0190264D01*
X0384419Y0190392D01*
X0384374Y0190522D01*
X0384332Y0190653D01*
X0384295Y0190785D01*
X0384261Y0190919D01*
X0384232Y0191053D01*
X0384206Y0191188D01*
X0384184Y0191323D01*
X0384166Y0191460D01*
X0384152Y0191596D01*
X0384142Y0191733D01*
X0384136Y0191871D01*
X0384134Y0192008D01*
D11*
X0398701Y0005000D02*
X0005000Y0005000D01*
X0005000Y0398701D01*
X0398701Y0398701D01*
X0398701Y0005000D01*
M02*
